<svg id="Artwork" xmlns="http://www.w3.org/2000/svg" width="1791" height="210.01" viewBox="0 0 1791 210.01"><defs><style>.cls-1{fill:#fff;}</style></defs><title>that.us.horizontal</title><g id="US"><path class="cls-1" d="M1364.8,65.91l0-8.66.94-9.09-2.61-9.1.38-10,10.45-.38,9.58,2.66,9.59-1.82,9.59,1.68,9.58-1.11,9.59-1.47,9.59.1,9.59,1.35,9.59-1.31,8.84,2L1459,39l0,9-.28,9,1.44,9-8.26-.34-9.27-.44,2.31,10.8-2.17,10,.12,10,1.74,10-1.21,10,.78,10-.55,8.79,1.22,8.71,1,8.69.77,8.85,3.69,8.15,6.84,5.77,7.56,4.92,9,.42,8.38-1.08,8.19-2.19,6.42-7.24,3.45-9,3.24-8.4.69-8.94.87-8.87-1.5-8.9-.24-9.81.47-9.8,1.55-9.8-.54-9.81.18-9.8-.66-9.85L1494,66.52l.7-8.87.39-9.22-.23-9.23-2.07-10.13,10.16.17,9.27.29,9.26-.48,9.27,1.25,9.26.13,9.27,0,9.27-1,9.27-.51,9.06,1.29V39l-.4,9,1.15,9-.43,9.16L1566.44,66l0,9.74.62,9.63-1,9.62-.43,9.63,1.58,9.62-1.62,9.64,1.42,9.63-.58,9.37-.55,9.36-2.24,9.13-1.85,9.13-3.47,8.64-2.62,9-4.43,8.24-5.2,7.86-6.82,6.53-7.19,6.23-9.16,2.85-8.19,4.75-9.57.41-8.8,3.93-9.5-.85-9.31.61-9.5-1.16-9.58-.25-9.78.08-8.91-4.08-9.16-2.79-8.75-3.94-7.57-5.9-8-5.23-7.27-6.47-5.55-8-2.15-9.67-4-8.62-3.47-9v-9.69l-3.51-9.31,1.78-9.67v-9.8l-1.7-9.8.36-9.8-.51-9.8,1.92-9.81,0-9.8-.53-10-8.68.1Z" transform="translate(-27 -24.58)"/><path class="cls-1" d="M1618.45,225l2.15-10.68-1.85-10,1-10,.59-10-1.49-10,1.54-10-1.26-10.12,9.44.7,9.32-1.33,9.33,1.77,9.32.1,9.33.11,9.07-.35,1.64,6.28,1.35,7.6,11.61,7.8,12.1,3.74,11.41,2.54,10.91-1.51,10.35-3.71,3.34-9.78-8.08-7.7-9.76-5.72-11.25-1.1-9-3.89-9.16-2.88-9.51-1.85-9.38-3.66-9.82-2.67-8.11-6.36-9.34-3.34-6.26-7.59-5-8.19-5.28-8.55-3.92-9.52-1.2-10.31.28-9.4,2-9.27,6.21-7.35,2.94-8.62,6.41-6.21,7-5.46,7.6-3.92,8.19-2.47,7.66-3.66,7.7-2.46,8-1.39,8.1,1.29,9.07-.95,9.08.6,8.5,3.56,8.45,2.78,9.28,1.51,6.82,6.24,5.88,6.8,6,7,1.68-7.79-.75-8,1-8.72,9.45,1.36,8.61-.42,8.62.53,8.61-.46,8.62-.93,8.37,1.18-.67,9.75,1.57,10-2,10,.61,10,1.82,10-2.34,10,1.52,10.18-9.3-.16-9.08.28-9.08,1L1776,101l-9.08-2.11-9.31,1.48L1756.11,91l-3-8.39L1746.2,77l-8.1-5-8.83-4.57-9.91,1.05-7,1.17-7.48,1.24-6.68,11.29,4.93,8.14,7.28,6.74,10.68,2,9.79,3.9,10.25,2.58,8.11,5,8.84,2.54,8.53,3.43,8.59,3.27,9,1.81,8,4.38,6,7,6.15,6.4,6.18,5.89,3,8,3.27,7.86,1.16,8.54-.14,9.65-2.84,9.23-5.64,7.75-5,7.18-6.08,6.38-7,5.58-8.19,4.15-8.89,2.37-8.35,4.15-9.22,1.63-9.32.65-9.31,1.2-10-1.26-10.08-.57-9.36-3.88-9.27-3.59-8.3-5.42-7.93-5.84-9-6.64.82,11.45-2.64,10.8-9.07.22-8.78.51-8.79-2.05-8.78,1.46L1628,225Z" transform="translate(-27 -24.58)"/></g><g id="_" data-name="*"><path class="cls-1" d="M1282.33,84.59l-6.77,8.26-6.4,7.92-6.2,8.08-6,8.23-6.07,8.19,0,.14,9.9-.26,9.77-1.44,9.67-2.2,9.85-.91,9.68-1,.77,10.89-.09,11.57-10.35-1.56-9.87-.56-9.73-1.68-9.74-1.63-9.84-.65-.41.67,6.57,7.53,6.92,7.22,6,8,6.08,7.91,5.24,7.9-6.41,3.23-6.32,4.75-6.8,3.52-4-8.86-3.73-9.15-4.3-8.9-2.91-9.5-4.61-8.78-1-.19-3.28,9.6-5.17,8.7-3.25,9.59-4.69,8.93-4.23,9.48-9.32-6.24-9-5.87,6-7.81,5.9-8.11,6.26-7.83,6.52-7.65,6.32-7.81-.37-.23-9.71-.05-9.57,1.41-9.59,1.27-9.58,1.4-9.84,1.67.12-11.28.51-10.66,9.21.45,9.55,1.12,9.44,1.94,9.5,1.53,9.56,1.25-.31-.9-5.9-8-6.45-7.64-6-8-5.53-8.35-5.64-7.66,9.59-5.37,9.72-6.6,4.44,9.23,3.93,9.06,3.26,9.35,4.12,9,3.72,9.2,1.4-.17,3.92-9.1,4.36-8.91,3.09-9.45,4.8-8.72,3.5-8.91,9.76,4.82Z" transform="translate(-27 -24.58)"/></g><g id="THAT"><path class="cls-1" d="M27.52,58.64q.32,4.83.61,9.65c-.11,3.21-.21,6.42-.33,9.65s-.18,6.45-.27,9.66c.24,3.2.44,6.43.65,9.63v8.54l7.52,0c2.9.72,5.81,1.47,8.72,2.19,2.93-.1,5.83-.21,8.76-.34,2.9.26,5.83.49,8.73.73l9.68-.75c.07-3.41.18-6.85.28-10.29-.61-3.15-1.19-6.31-1.81-9.49,0-3.13,0-6.29,0-9.47.63-3,1.26-6,1.88-9l8,.22c2.85-.35,5.72-.69,8.55-1,2.84,0,5.67,0,8.52,0l8.53,1.23,9.32-1.6c-.86,3.32-1.7,6.6-2.55,9.92-.05,3.07-.12,6.11-.18,9.17,1,3.06,1.88,6.11,2.83,9.15-.52,3-1,6.09-1.53,9.12-.27,3-.57,6.09-.84,9.13s-.58,6.05-.86,9.09c.85,3,1.68,6,2.53,9,0,3-.1,6-.11,9q-.7,4.5-1.34,9c.15,3,.33,6,.5,8.95-.18,3-.36,5.94-.53,8.92.3,3,.63,5.92,1,8.87-.17,3-.34,5.91-.49,8.85.19,3.16.37,6.29.57,9.43-3,0-6-.07-8.92-.08-2.72.32-5.44.63-8.14,1-2.46-.09-4.9-.15-7.36-.22-.43,3-.87,5.93-1.25,8.92.6,3.14,1.24,6.27,1.87,9.4-.2,3.15-.42,6.3-.6,9.47.23,3,.52,6,.8,9l8.94,1.26,9.23-.59c3-1,6-1.94,9.08-2.9l9.21-.14c3.1.6,6.2,1.16,9.3,1.76,3-1.11,6-2.22,9.08-3.31,3.1.75,6.2,1.47,9.32,2.2,3.06-.58,6.09-1.13,9.14-1.72,3.06-.22,6.13-.48,9.17-.72l9.17-1.34c3.09.43,6.18.82,9.26,1.22,3.26-.1,6.51-.19,9.74-.3-.38-3-.77-6-1.13-9.07.3-2.92.62-5.84.93-8.8,0-2.95.1-5.9.17-8.88-.5-2.93-1-5.87-1.51-8.87-2.71.37-5.43.75-8.13,1.1-2.75,0-5.51,0-8.24-.07s-5.62-.25-8.42-.4c-.26-2.87-.48-5.76-.72-8.67q1-4.35,2-8.68c-.16-2.88-.35-5.78-.52-8.68-.4-2.9-.8-5.83-1.18-8.74q.78-4.4,1.51-8.83c-.79-2.94-1.61-5.88-2.44-8.84,0-3,0-5.93,0-8.93.27-3,.53-6,.78-9s.37-6,.54-9,.6-6,.92-9V96.21q-.87-4.54-1.69-9.1c0-3,0-6.09.07-9.13.28-3.43.53-6.86.81-10.29l11.49.63c3.51.05,7,.09,10.53.12s7-.09,10.51-.16c3.23.45,6.47.92,9.69,1.39-.29,2.86-.59,5.71-.89,8.58,0,3.15.05,6.27.05,9.43.2,3.12.43,6.25.62,9.36.37,3,.74,5.92,1.12,8.88,2.75-.4,5.5-.82,8.24-1.19,2.91.74,5.84,1.44,8.74,2.17l8.74.53,8.76-2.49,9.47,2c-.67-3.36-1.32-6.76-2-10.12,0-3.17.07-6.33.11-9.51.54-3.19,1.1-6.37,1.63-9.56-.39-3.17-.77-6.37-1.17-9.56.35-3.2.7-6.42,1.07-9.61-.46-3.21-.87-6.41-1.32-9.63q1.21-4.8,2.42-9.64c-.72-2.82-1.42-5.63-2.13-8.47-2.72-.33-5.44-.66-8.16-1q-4.65.61-9.35,1.18c-3.11-.57-6.21-1.14-9.33-1.73-3.12.35-6.22.67-9.34,1l-9.33.48c-3.11-.78-6.24-1.56-9.34-2.35-3.12.53-6.22,1-9.34,1.58l-9.34-1.3c-3.1-.19-6.22-.41-9.32-.62-3.12.89-6.22,1.8-9.34,2.72-3.1-.63-6.22-1.24-9.32-1.85-3.12.29-6.22.56-9.35.83l-9.33-.74-9.34,1.09-9.33-1.61-9.32,2.52c-3.13-.15-6.24-.3-9.34-.43-3.11-.65-6.22-1.26-9.34-1.91-3.1.51-6.22,1-9.32,1.47-3.12-.68-6.22-1.33-9.32-2-3.13.28-6.24.61-9.35.9-3.1.76-6.22,1.48-9.34,2.25-3.1-.77-6.2-1.51-9.32-2.26l-9.32.53c-3.38-.23-6.77-.48-10.14-.72.5,3.48,1,7,1.46,10.44C28.17,42.56,27.59,45.77,27,49,27.18,52.22,27.37,55.43,27.52,58.64Z" transform="translate(-27 -24.58)"/><path class="cls-1" d="M310.1,224.71c3.37-.41,6.72-.85,10.11-1.25l9.61-1.05,9.67,1.56c3.22,0,6.42.11,9.63.17l9.57-2.26,9.67,1.68c3.2-.71,6.39-1.39,9.59-2.06l9.62-.2c3.21.33,6.42.68,9.63,1,2.95-.32,5.9-.62,8.86-.93.2-2.35.38-4.75.58-7.18-.5-2.62-1-5.24-1.47-7.91.77-2.71,1.53-5.41,2.3-8.17-.73-2.4-1.48-4.83-2.22-7.28-2.66-.46-5.32-.94-8-1.39-3.09.2-6.17.39-9.24.61-.19-2.57-.35-5.16-.52-7.78-.37-2.62-.72-5.24-1.06-7.91.83-2.66,1.67-5.32,2.51-8-.23-2.69-.46-5.4-.72-8.11.11-2.58.17-5.16.27-7.77l8.57,1,9.11-1.93,9.09,1.25c3-.18,6.06-.32,9.07-.51s6.06-.24,9.1-.34,6.05.08,9.07.1l9.08.41,9.08-1.86c3,.7,6,1.41,9.08,2.09q5-1,10.09-2-.31,4.59-.66,9.11c.23,2.7.45,5.4.66,8-.17,2.66-.34,5.31-.51,7.93.3,2.6.57,5.2.85,7.77-.55,2.49-1.13,4.93-1.7,7.39-2.8.15-5.62.31-8.43.48-3.18-.23-6.36-.43-9.54-.67.17,3,.36,5.9.54,8.8-.39,2.7-.8,5.37-1.2,8,.4,2.64.82,5.22,1.21,7.83-.1,2.77-.23,5.52-.33,8.21l10.43-.84,9.66-1.05c3.22.21,6.44.4,9.66.59,3.21.51,6.43,1,9.67,1.52,3.23-.65,6.42-1.28,9.65-1.94l9.64.27c3.22.37,6.42.73,9.64,1.07,3.22-.56,6.45-1.09,9.67-1.62l9.65-.21c3.28.32,6.52.68,9.79,1,.46-2.52.91-5.08,1.38-7.66-.06-2.55-.11-5.13-.17-7.76-.73-2.63-1.45-5.28-2.18-7.94-.08-2.44-.15-4.91-.23-7.41l-7.61-.54-7.64-1c.21-2.34.4-4.69.62-7.06q-1-4-1.91-8c-.32-2.7-.68-5.41-1-8.14q.6-4.09,1.21-8.26c-.16-2.78-.31-5.58-.47-8.41s-.52-5.63-.79-8.5c.51-2.86,1-5.72,1.54-8.6.33-2.89.64-5.79,1-8.71-.07-2.91-.12-5.87-.17-8.81-.63-3-1.28-5.89-1.94-8.87.74-3,1.42-6,2.14-9,.06-3,.14-6,.2-9-.7-3-1.43-6-2.15-9.08.23-3,.45-6.12.68-9.21,2.9-.24,5.8-.52,8.71-.78l7.51-.1q.83-4.36,1.64-8.77c-.48-3.24-1-6.49-1.47-9.76.7-3.25,1.42-6.52,2.14-9.78-.18-3.46-.38-6.91-.59-10.37-3.41-.3-6.82-.58-10.25-.87-3.21.23-6.45.45-9.65.71s-6.45.24-9.68.39l-9.63,1c-3.21-.51-6.42-1-9.64-1.49-3.23,0-6.42-.1-9.65-.13l-9.66,2.22-9.63-.18c-3.23.2-6.46.39-9.66.61l-9.92-1.94V39.47c-.3,3.27-.6,6.54-.9,9.79-.09,3.25-.19,6.52-.32,9.76.73,3,1.46,6.06,2.18,9.09l8,2.22,9.11-1.92c0,3.07.1,6.15.13,9.21-.43,2.95-.92,5.89-1.37,8.83.56,2.93,1.12,5.85,1.69,8.78-.11,2.92-.19,5.8-.28,8.7-.45,2.67-.9,5.33-1.36,7.95l-8.35.82c-3-.11-6.07-.21-9.1-.3-3-.24-6-.5-9.06-.72s-6-.19-9.08-.26l-9.07,1.2-9.08-1.11c-3,0-6-.07-9.05-.09-3,.38-6.06.73-9.08,1.09s-6.07.9-9.08,1.32l-9.4-.82c-.42-3-.85-6-1.29-9,.16-2.9.33-5.81.5-8.75-.14-2.91-.27-5.85-.42-8.79.38-2.92.75-5.88,1.13-8.82,0-3.22-.05-6.42-.08-9.64,3.32,0,6.64-.06,10-.06,3.08.28,6.17.55,9.23.85.57-3.26,1.13-6.51,1.66-9.78-.81-3.25-1.59-6.5-2.4-9.77.38-3.25.76-6.52,1.13-9.78-.3-3.07-.6-6.17-.89-9.24-3-.34-6.05-.66-9.07-1-3.22-.24-6.42-.45-9.62-.69s-6.44-.33-9.64-.51c-3.2.3-6.41.63-9.61.94l-9.6-.08c-3.22.38-6.42.81-9.63,1.21-3.2,0-6.4.05-9.62.05L330,29.88c-3.22-.11-6.41-.24-9.61-.37l-9.94-.13q-.47,5-1,10.11c.46,3.28.93,6.52,1.4,9.77.3,3.25.56,6.54.86,9.76-.16,3.1-.34,6.17-.51,9.24,2.51.11,5,.19,7.55.28,2.92-.1,5.84-.17,8.78-.3-.67,3.23-1.31,6.46-2,9.69.15,3,.3,6.09.46,9.1q.56,4.56,1.12,9.07c-.51,3-1.05,6-1.57,9q1.23,4.52,2.46,9c0,3,.05,5.93.06,8.88-.23,3-.5,5.9-.73,8.82s-.32,5.83-.49,8.73-.55,5.78-.83,8.66c0,2.86.09,5.7.12,8.55.6,2.81,1.2,5.64,1.8,8.43,0,2.8,0,5.58.05,8.37s-.1,5.49-.15,8.21c-.35,2.82-.72,5.64-1.07,8.43-2.87,0-5.72.1-8.57.15-2.59,0-5.19.06-7.77.11-.53,2.77-1,5.53-1.5,8.25-.11,2.83-.21,5.61-.3,8.41.09,2.75.19,5.49.33,8.21Q309.52,220.54,310.1,224.71Z" transform="translate(-27 -24.58)"/><path class="cls-1" d="M684.56,28l-9.24,3.31-9.26-3.11c-3.26.32-6.5.67-9.75,1,.22,3.38.45,6.72.7,10.05-.4,3.21-.78,6.4-1.19,9.58.77,3.18,1.51,6.36,2.28,9.54-.15,2.83-.32,5.65-.44,8.48,3.67.47,7.29,1,10.94,1.45-.62,3-1.2,6-1.81,9-1.22,3-2.42,6-3.63,8.94-.75,3.11-1.47,6.22-2.22,9.3l-4.37,8.59c-.3,3.2-.62,6.38-.94,9.54q-1.67,4.41-3.31,8.75c-.55,3.07-1.06,6.14-1.62,9.17q-1.92,4.23-3.84,8.39c-1.28,2.79-2.58,5.55-3.86,8.32-.43,3-.86,6-1.31,8.9-1.51,2.63-3,5.26-4.49,7.87-1,2.75-2.07,5.46-3.12,8.16q-.74,4.23-1.47,8.42c-1.24,2.57-2.46,5.09-3.67,7.63l-10,1L608.39,189c-.17,2.84-.38,5.64-.55,8.42.51,2.68,1,5.3,1.49,7.9.22,2.6.43,5.17.68,7.68,0,2.27-.08,4.47-.13,6.64,2.78-.05,5.53-.13,8.3-.19,3.16.35,6.3.73,9.44,1.06l9.47-.29,9.43-.14c3.16.54,6.33,1.08,9.45,1.63,3.14,0,6.32.06,9.45.09s6.3-.12,9.45-.16l9.43-1.23,9.48.64,8.42-.45c0-2.26.07-4.54.09-6.87.4-2.57.81-5.14,1.24-7.79-.32-2.63-.64-5.29-1-8,.45-2.82.9-5.69,1.37-8.59l-12.08-1q-6,.79-12,1.56c1.71-2.8,3.44-5.63,5.16-8.49.75-2.77,1.52-5.58,2.27-8.4l8.83-1.55,9.54,1.72c3.15.21,6.33.42,9.53.66,3.18-.88,6.34-1.73,9.52-2.59,3.18.18,6.36.32,9.51.48s6.36.53,9.56.78l9.5.13,9.53,1.16,9.54-.68c3.2-.11,6.38-.24,9.58-.37,1.54,2.9,3,5.78,4.57,8.65.06,2.87.15,5.69.21,8.5-2.71.09-5.4.14-8.09.22l-9.43.8c-3-.12-6.08-.25-9.13-.39-.49,2.72-1,5.37-1.51,8,.49,2.74,1,5.44,1.49,8.12,0,2.68,0,5.32,0,7.93-.49,2.8-1,5.59-1.51,8.31,3.32.17,6.65.35,10,.5,3.08-.47,6.15-.92,9.22-1.41,3,.54,6.08,1.07,9.15,1.58,3.06-.53,6.13-1.09,9.18-1.64l9.15,1c3,.32,6.08.59,9.13.91,3.07-.28,6.15-.55,9.18-.85l9.13,2.24,9.17.21,9.19-1.6c3.06.39,6.09.8,9.16,1.18s6.06.83,9.09,1.28l10.13.06c.2-2.94.37-5.93.58-8.94-.3-2.75-.62-5.5-.94-8.3s-.79-5.63-1.2-8.48c.32-2.73.64-5.47,1-8.24l-10.14,1-11.09-.79q-1.83-4.17-3.65-8.39c-.58-2.75-1.13-5.52-1.71-8.29-1.06-2.65-2.13-5.34-3.2-8-.85-2.71-1.7-5.48-2.56-8.24-.66-2.84-1.32-5.66-2-8.51-.41-2.93-.85-5.85-1.28-8.8-1.69-2.56-3.41-5.13-5.12-7.73-.62-2.92-1.2-5.85-1.81-8.82-1.29-2.71-2.61-5.44-3.91-8.19-.53-3-1.11-6-1.62-9-.77-2.95-1.5-5.89-2.24-8.84s-1.56-5.89-2.35-8.85c-1.24-2.8-2.47-5.63-3.73-8.45-.9-2.94-1.82-5.89-2.73-8.83-1.3-2.8-2.65-5.63-4-8.45q-1.44-4.38-2.88-8.81c-.81-3-1.69-5.95-2.52-8.92s-1.62-6-2.43-9-1.81-6.12-2.69-9.18c-3.16.33-6.36.64-9.51,1s-6.19.7-9.31,1.05l-9.24-2.59-9.26.48-9.26-.15-9.26,1.79h-9.25c-3.1-.09-6.17-.16-9.26-.27-3.1-.58-6.17-1.17-9.28-1.77l-9.22,1.35-9.3-2c-3,0-6.15-.08-9.24-.11S687.65,28,684.56,28Zm16,103.38c1-2.85,2.09-5.71,3.12-8.59,1.4-2.76,2.81-5.52,4.2-8.3.77-3,1.52-6,2.28-9s1.69-6,2.54-9c.55-3.11,1.09-6.23,1.64-9.37,2-2.63,4-5.27,6-7.92.64-3,1.24-6.07,1.86-9.1,3.07-.33,6.2-.65,9.3-1,3.2.07,6.36.13,9.6.18,3,.44,5.93.89,8.9,1.35,1.17,2.67,2.39,5.31,3.56,8,.9,3,1.77,6,2.65,8.91.32,3.13.61,6.23.89,9.33.79,3,1.65,5.91,2.48,8.86,1.51,2.76,3,5.51,4.48,8.26q.4,4.59.85,9.14c1.58,2.69,3.18,5.38,4.76,8.08.49,3.1,1,6.17,1.49,9.26l-9.64-.59c-3,.42-6.1.81-9.13,1.24-3.08-.77-6.13-1.56-9.18-2.33l-9.17.06L724.92,141c-3-.35-6.07-.68-9.13-1l-9.17-1.12-8.06.45C699.21,136.63,699.88,134,700.56,131.38Z" transform="translate(-27 -24.58)"/><path class="cls-1" d="M886.9,58.61l2.37,9.61c-.34,3.19-.66,6.38-1,9.56s-.75,6.38-1.11,9.55c0,3.17,0,6.34,0,9.5.37,3.24.71,6.49,1.07,9.73l9-1.73,8.77,1.66c2.94.49,5.84,1,8.74,1.5l8.73-1.86c2.77,0,5.61-.06,8.36-.11.3-3,.66-6,.94-9-.09-3.14-.15-6.27-.25-9.41.16-3.11.33-6.25.51-9.4-.54-3.23-1-6.47-1.54-9.74,2.92.55,5.93,1.07,8.87,1.61,2.84-1,5.66-2,8.5-3l8.55,2.69,8.52-.25c3.2-.61,6.44-1.19,9.62-1.78-.62,3.41-1.28,6.79-1.94,10.2-.11,3.05-.22,6.1-.35,9.13.69,3,1.43,6.09,2.14,9.11-.28,3-.53,6.08-.85,9.1.59,3,1.19,6,1.78,9,0,3,0,6,.05,9s-.06,6-.13,9c.24,3,.47,6,.69,8.92-.16,3-.26,5.91-.39,8.87-.62,3-1.3,5.87-1.94,8.78.68,2.94,1.39,5.86,2,8.76q-.25,4.4-.49,8.71c.06,2.88.16,5.76.25,8.64-.47,2.75-1,5.49-1.43,8.23-2.6,0-5.2.07-7.83.09s-5.44-.21-8.13-.34l-7.34.64c.07,2.79.09,5.57.09,8.36.15,3,.28,5.94.45,8.9-.73,2.92-1.45,5.82-2.2,8.71-.13,3-.25,6-.45,8.95l9.69-1c3.07.1,6.12.18,9.22.29,3,.62,6.07,1.26,9.13,1.9,3.07.23,6.12.48,9.19.74l9.28-1.47c3.08.41,6.13.81,9.18,1.18l9.17,1.07,9.13,1.52c3.08,0,6.17.05,9.22.09,3.09-.13,6.19-.23,9.24-.37,3.05.41,6.1.82,9.15,1.25,3.41.29,6.83.57,10.24.83-.45-3.46-.89-6.93-1.41-10.4.92-3.08,1.82-6.2,2.71-9.32-.85-3.19-1.75-6.39-2.62-9.57.38-3,.72-6,1.09-9.05-2.59-.15-5.17-.32-7.7-.46l-8.28,1.1c-2.71-.62-5.4-1.25-8.07-1.85.43-2.91.84-5.78,1.28-8.67,0-3-.06-5.91-.08-8.87s-.13-5.91-.2-8.89c.09-3,.13-5.94.22-8.93-.62-3-1.22-6-1.88-9,.66-3,1.32-6,1.94-9-.32-3-.62-6-1-9-.11-3-.26-6-.4-9s-.56-6-.81-9.1c.17-3,.36-6.05.53-9.09-.45-3-.94-6.09-1.41-9.13.45-3,.88-6.09,1.3-9.15-.28-3-.55-6.09-.83-9.15-.07-3.21-.15-6.38-.21-9.58,3.6.37,7.25.75,10.88,1.11l10.52.2c3.52-.11,7-.21,10.51-.3,3.69-.45,7.41-.88,11.12-1.29-.62,3.39-1.24,6.8-1.88,10.19.6,3.16,1.22,6.32,1.8,9.49.21,3.16.42,6.31.68,9.48-.26,3.2-.49,6.4-.73,9.62,3,.44,6,.91,9,1.37,2.93-.27,5.83-.52,8.75-.77,2.92.17,5.85.32,8.77.47,2.88-.68,5.8-1.35,8.68-2l9,1c-.17-3.26-.34-6.54-.51-9.81s-.3-6.43-.43-9.64c-.36-3.23-.7-6.44-1-9.66q1-4.84,2-9.66c-.34-3.21-.69-6.43-1-9.65,0-3.23.07-6.43.11-9.66-.21-3.21-.43-6.42-.64-9.65.43-3.57.83-7.15,1.26-10.73l-10.43,2c-3.14-.63-6.23-1.27-9.39-1.89-3.1-.23-6.25-.44-9.35-.66-3.11,1-6.18,2-9.32,3l-9.32-.47c-3.14-.28-6.23-.56-9.39-.82-3.07,0-6.19,0-9.3-.06l-9.35-1.21c-3.09.26-6.23.55-9.32.83s-6.23.36-9.34.53c-3.1.51-6.22,1-9.31,1.48-3.11-1.05-6.23-2.11-9.34-3.14-3.12.36-6.23.74-9.35,1.11s-6.21.7-9.34,1.06l-9.31-.19c-3.13-.53-6.25-1-9.36-1.58l-9.32,1.56-9.35.16c-3.09-.55-6.23-1.13-9.32-1.69-3.12,0-6.21,0-9.33,0l-9.32,2c-3.13-.58-6.23-1.12-9.35-1.7l-9.32,2.33c-3.14-.3-6.21-.62-9.34-.9l-9.48-.77c.43,3.27.88,6.55,1.3,9.83-.78,3.22-1.59,6.42-2.4,9.63C886.82,52.19,886.86,55.39,886.9,58.61Z" transform="translate(-27 -24.58)"/></g></svg>