<svg viewBox="0 0 924 749" xmlns="http://www.w3.org/2000/svg" fill-rule="evenodd" clip-rule="evenodd" stroke-linejoin="round" stroke-miterlimit="2"><defs/><path d="M288.605 107.722v229.785a2.066 2.066 0 01-2.055 2.055H138.833a2.066 2.066 0 01-2.055-2.055V107.722a.142.142 0 00-.142-.142H2.076a2.11 2.11 0 01-2.078-2.079V2.078C-.002.938.936 0 2.077 0h420.496c1.141 0 2.08.938 2.08 2.08V105.5a2.11 2.11 0 01-2.08 2.08H288.747a.142.142 0 00-.142.141z" fill="#26529a" fill-rule="nonzero"/><path d="M771.964 338.097V222.201a.142.142 0 00-.142-.142h-134.37a.142.142 0 00-.142.142v115.92a2.066 2.066 0 01-2.055 2.055H488.176a2.066 2.066 0 01-2.056-2.055V2.078v-.023c0-1.127.929-2.056 2.056-2.056h147.079c1.127 0 2.055.929 2.055 2.056v125.369c0 .078.064.142.142.142h134.37a.142.142 0 00.142-.142V2.078v-.023c0-1.127.928-2.056 2.055-2.056h147.079c1.127 0 2.055.929 2.055 2.056V338.12a2.066 2.066 0 01-2.055 2.055H774.02a2.066 2.066 0 01-2.055-2.055v-.024z" fill="#26529a" fill-rule="nonzero"/><path d="M782.925 516.076v229.785a2.066 2.066 0 01-2.055 2.055H633.034a2.066 2.066 0 01-2.055-2.055V516.077a.166.166 0 00-.142-.166h-134.44a2.088 2.088 0 01-2.08-2.056V410.432c0-1.14.939-2.079 2.08-2.079h420.496c1.141 0 2.079.938 2.079 2.08v103.422a2.088 2.088 0 01-2.079 2.056H783.067a.166.166 0 00-.142.165z" fill="#26529a" fill-rule="nonzero"/><path d="M487.585 747.704l-159.954-339.28a.165.165 0 00-.142 0H80.766a2.066 2.066 0 00-2.055 2.055v.024l24.167 81.312 6.709 24.167L2.384 747.774a.14.14 0 00-.047.107c0 .04.016.08.047.106h130.732a.165.165 0 00.142 0l26.434-58.444h140.56a.165.165 0 01.141 0l22.868 57.24c.31.783 1.07 1.298 1.913 1.298h162.057a.258.258 0 00.437-.188c0-.071-.031-.14-.083-.19zm-217.312-136.45H193.71c-.118 0-.189 0-.142-.188l40.562-92.77h.26l36.002 92.77a.12.12 0 01.025.073.118.118 0 01-.118.118c-.01 0-.016 0-.026-.002z" fill="#26529a" fill-rule="nonzero"/></svg>