<?xml version="1.0" encoding="UTF-8" standalone="no"?>
<!DOCTYPE svg PUBLIC "-//W3C//DTD SVG 1.1//EN" "http://www.w3.org/Graphics/SVG/1.1/DTD/svg11.dtd">
<svg width="100%" height="100%" viewBox="0 0 954 783" version="1.1" xmlns="http://www.w3.org/2000/svg" xmlns:xlink="http://www.w3.org/1999/xlink" xml:space="preserve" xmlns:serif="http://www.serif.com/" style="fill-rule:evenodd;clip-rule:evenodd;stroke-linejoin:round;stroke-miterlimit:2;">
    <g transform="matrix(1,0,0,1,-498.999,-163.683)">
        <g transform="matrix(2.36234,0,0,2.36234,-810.259,-65.4647)">
            <path d="M676.39,142.6L676.39,239.86C676.39,239.863 676.39,239.867 676.39,239.87C676.39,240.347 675.997,240.74 675.52,240.74C675.517,240.74 675.513,240.74 675.51,240.74L613,240.74C612.997,240.74 612.993,240.74 612.99,240.74C612.513,240.74 612.12,240.347 612.12,239.87C612.12,239.867 612.12,239.863 612.12,239.86L612.12,142.6C612.12,142.567 612.093,142.54 612.06,142.54L555.1,142.54C554.619,142.535 554.225,142.141 554.22,141.66L554.22,97.88C554.22,97.397 554.617,97 555.1,97L733.1,97C733.583,97 733.98,97.397 733.98,97.88L733.98,141.66C733.975,142.141 733.581,142.535 733.1,142.54L676.45,142.54C676.417,142.54 676.39,142.567 676.39,142.6Z" style="fill:rgb(247,70,70);fill-rule:nonzero;"/>
        </g>
        <g transform="matrix(2.36234,0,0,2.36234,-810.259,-65.4647)">
            <path d="M881,240.12L881,191.06C881,191.027 880.973,191 880.94,191L824.06,191C824.027,191 824,191.027 824,191.06L824,240.12C824,240.123 824,240.127 824,240.13C824,240.607 823.607,241 823.13,241C823.127,241 823.123,241 823.12,241L760.88,241C760.877,241 760.873,241 760.87,241C760.393,241 760,240.607 760,240.13C760,240.127 760,240.123 760,240.12L760,97.88C760,97.877 760,97.873 760,97.87C760,97.393 760.393,97 760.87,97C760.873,97 760.877,97 760.88,97L823.12,97C823.123,97 823.127,97 823.13,97C823.607,97 824,97.393 824,97.87C824,97.873 824,97.877 824,97.88L824,150.94C824,150.973 824.027,151 824.06,151L880.94,151C880.973,151 881,150.973 881,150.94L881,97.88C881,97.877 881,97.873 881,97.87C881,97.393 881.393,97 881.87,97C881.873,97 881.877,97 881.88,97L944.12,97C944.123,97 944.127,97 944.13,97C944.607,97 945,97.393 945,97.87C945,97.873 945,97.877 945,97.88L945,240.12C945,240.123 945,240.127 945,240.13C945,240.607 944.607,241 944.13,241C944.127,241 944.123,241 944.12,241L881.88,241C881.877,241 881.873,241 881.87,241C881.393,241 881,240.607 881,240.13C881,240.127 881,240.123 881,240.12Z" style="fill:rgb(247,70,70);fill-rule:nonzero;"/>
        </g>
        <g transform="matrix(2.36234,0,0,2.36234,-810.259,-65.4647)">
            <path d="M885.64,315.46L885.64,412.72C885.64,412.723 885.64,412.727 885.64,412.73C885.64,413.207 885.247,413.6 884.77,413.6C884.767,413.6 884.763,413.6 884.76,413.6L822.2,413.6C822.197,413.6 822.193,413.6 822.19,413.6C821.713,413.6 821.32,413.207 821.32,412.73C821.32,412.727 821.32,412.723 821.32,412.72L821.32,315.46C821.32,315.425 821.295,315.395 821.26,315.39L764.35,315.39C763.871,315.39 763.475,314.999 763.47,314.52L763.47,270.74C763.47,270.257 763.867,269.86 764.35,269.86L942.35,269.86C942.833,269.86 943.23,270.257 943.23,270.74L943.23,314.52C943.225,314.999 942.829,315.39 942.35,315.39L885.7,315.39C885.665,315.395 885.64,315.425 885.64,315.46Z" style="fill:rgb(247,70,70);fill-rule:nonzero;"/>
        </g>
        <g transform="matrix(2.36234,0,0,2.36234,-810.259,-65.4647)">
            <path d="M760.62,413.51L692.91,269.89C692.891,269.881 692.869,269.881 692.85,269.89L588.42,269.89C588.417,269.89 588.413,269.89 588.41,269.89C587.933,269.89 587.54,270.283 587.54,270.76C587.54,270.763 587.54,270.767 587.54,270.77L597.77,305.19L600.61,315.42L555.23,413.54C555.217,413.551 555.21,413.568 555.21,413.585C555.21,413.602 555.217,413.619 555.23,413.63L610.57,413.63C610.589,413.639 610.611,413.639 610.63,413.63L621.82,388.89L681.32,388.89C681.339,388.881 681.361,388.881 681.38,388.89L691.06,413.12C691.191,413.452 691.513,413.67 691.87,413.67L760.47,413.67C760.49,413.689 760.517,413.7 760.545,413.7C760.605,413.7 760.655,413.65 760.655,413.59C760.655,413.56 760.642,413.531 760.62,413.51ZM668.63,355.75L636.22,355.75C636.17,355.75 636.14,355.75 636.16,355.67L653.33,316.4L653.44,316.4L668.68,355.67C668.687,355.679 668.691,355.69 668.691,355.701C668.691,355.729 668.668,355.751 668.641,355.751C668.637,355.751 668.634,355.751 668.63,355.75Z" style="fill:rgb(247,70,70);fill-rule:nonzero;"/>
        </g>
        <g transform="matrix(2.36234,0,0,2.36234,-810.259,-65.4647)">
            <path d="M957.84,413.42C957.843,413.547 957.845,413.673 957.845,413.8C957.845,421.837 951.232,428.45 943.195,428.45C935.158,428.45 928.545,421.837 928.545,413.8C928.545,405.763 935.158,399.15 943.195,399.15C943.213,399.15 943.232,399.15 943.25,399.15C943.343,399.148 943.437,399.147 943.53,399.147C951.366,399.147 957.82,405.584 957.84,413.42ZM932.2,413.42C932.34,419.356 937.262,424.163 943.2,424.163C949.236,424.163 954.203,419.196 954.203,413.16C954.203,413.073 954.202,412.987 954.2,412.9C953.92,406.84 949.39,402.03 943.2,402.03C937.15,402.071 932.196,407.06 932.196,413.11C932.196,413.213 932.197,413.317 932.2,413.42ZM940.86,420.9L937.81,420.9C937.744,420.9 937.69,420.846 937.69,420.78L937.69,406.78C937.689,406.721 937.732,406.67 937.79,406.66C939.564,406.364 941.361,406.224 943.16,406.24C945.83,406.24 947.07,406.67 948.1,407.3C948.998,408.083 949.501,409.228 949.47,410.42C949.47,411.99 948.26,413.2 946.47,413.71L946.47,413.9C947.87,414.41 948.65,415.45 949.08,417.36C949.246,418.529 949.562,419.672 950.02,420.76C950.027,420.776 950.03,420.793 950.03,420.81C950.03,420.878 949.977,420.935 949.91,420.94L946.7,420.94C946.668,420.955 946.632,420.955 946.6,420.94C946.082,419.847 945.712,418.69 945.5,417.5C945.24,415.93 944.36,415.26 942.5,415.26L941.1,415.26C941.034,415.26 940.98,415.314 940.98,415.38L940.98,420.87C940.948,420.9 940.902,420.911 940.86,420.9ZM941.08,412.7C941.08,412.766 941.134,412.82 941.2,412.82L942.65,412.82C944.46,412.82 945.94,412.19 945.94,410.71C945.94,409.41 944.94,408.54 942.89,408.54C942.312,408.527 941.734,408.584 941.17,408.71C941.113,408.72 941.074,408.773 941.08,408.83L941.08,412.7Z" style="fill:rgb(247,70,70);fill-rule:nonzero;"/>
        </g>
    </g>
</svg>
