<?xml version="1.0" encoding="UTF-8" standalone="no"?>
<!DOCTYPE svg PUBLIC "-//W3C//DTD SVG 1.1//EN" "http://www.w3.org/Graphics/SVG/1.1/DTD/svg11.dtd">
<svg width="100%" height="100%" viewBox="0 0 5726 4177" version="1.1" xmlns="http://www.w3.org/2000/svg" xmlns:xlink="http://www.w3.org/1999/xlink" xml:space="preserve" xmlns:serif="http://www.serif.com/" style="fill-rule:evenodd;clip-rule:evenodd;stroke-linejoin:round;stroke-miterlimit:2;">
    <g transform="matrix(5.55556,0,0,5.55556,-2477.35,-903.285)">
        <g transform="matrix(1,0,0,1,-642.504,363.927)">
            <g transform="matrix(0.515106,0,0,0.769561,1361.99,138.747)">
                <g transform="matrix(504.297,0,0,337.552,254.231,529.307)">
                    <path d="M0.079,-0.493L-0.004,0L0.123,0L0.174,-0.304C0.186,-0.378 0.2,-0.404 0.227,-0.404C0.241,-0.404 0.248,-0.395 0.248,-0.377C0.248,-0.361 0.245,-0.335 0.24,-0.304L0.189,0L0.313,0L0.364,-0.304C0.373,-0.358 0.377,-0.392 0.377,-0.412C0.377,-0.473 0.346,-0.507 0.291,-0.507C0.25,-0.507 0.221,-0.487 0.188,-0.434L0.198,-0.493L0.079,-0.493Z" style="fill:rgb(38,82,154);fill-rule:nonzero;"/>
                </g>
                <g transform="matrix(504.297,0,0,337.552,451.916,529.307)">
                    <path d="M0.107,-0.667L-0.005,0L0.126,0L0.237,-0.667L0.107,-0.667Z" style="fill:rgb(38,82,154);fill-rule:nonzero;"/>
                </g>
                <g transform="matrix(504.297,0,0,337.552,554.792,529.307)">
                    <path d="M0.078,-0.493L-0.005,0L0.126,0L0.208,-0.493L0.078,-0.493ZM0.085,-0.539L0.216,-0.539L0.239,-0.675L0.108,-0.675L0.085,-0.539Z" style="fill:rgb(38,82,154);fill-rule:nonzero;"/>
                </g>
                <g transform="matrix(504.297,0,0,337.552,657.669,529.307)">
                    <path d="M0.079,-0.493L-0.004,0L0.123,0L0.174,-0.304C0.186,-0.378 0.2,-0.404 0.227,-0.404C0.241,-0.404 0.248,-0.395 0.248,-0.377C0.248,-0.361 0.245,-0.335 0.24,-0.304L0.189,0L0.313,0L0.364,-0.304C0.373,-0.358 0.377,-0.392 0.377,-0.412C0.377,-0.473 0.346,-0.507 0.291,-0.507C0.25,-0.507 0.221,-0.487 0.188,-0.434L0.198,-0.493L0.079,-0.493Z" style="fill:rgb(38,82,154);fill-rule:nonzero;"/>
                </g>
                <g transform="matrix(504.297,0,0,337.552,855.353,529.307)">
                    <path d="M0.36,-0.224C0.365,-0.268 0.367,-0.296 0.367,-0.323C0.367,-0.445 0.32,-0.507 0.226,-0.507C0.174,-0.507 0.133,-0.489 0.099,-0.452C0.048,-0.396 0.016,-0.294 0.016,-0.184C0.016,-0.051 0.066,0.014 0.168,0.014C0.263,0.014 0.313,-0.033 0.343,-0.149L0.239,-0.169C0.221,-0.1 0.208,-0.081 0.18,-0.081C0.153,-0.081 0.143,-0.101 0.143,-0.156C0.143,-0.17 0.143,-0.177 0.147,-0.224L0.36,-0.224ZM0.155,-0.302C0.168,-0.384 0.188,-0.421 0.218,-0.421C0.239,-0.421 0.248,-0.405 0.248,-0.369C0.248,-0.353 0.246,-0.332 0.243,-0.302L0.155,-0.302Z" style="fill:rgb(38,82,154);fill-rule:nonzero;"/>
                </g>
            </g>
            <g transform="matrix(0.359986,0,0,0.359986,1396.64,460.348)">
                <g transform="matrix(1,0,0,1,-250,-250)">
                    <circle cx="250" cy="250" r="250" style="fill:rgb(238,71,72);"/>
                    <path d="M250,430L278.9,430L278.9,382.54L409,382.54L338.92,270.38L363.74,270.38L296.45,163.17L321.29,163.17L250,50M250,50L178.71,163.17L203.55,163.17L136.26,270.38L161.08,270.38L91,382.54L221.11,382.54L221.11,430L278.9,430" style="fill:white;fill-rule:nonzero;"/>
                </g>
            </g>
        </g>
        <g transform="matrix(1,0,0,1,258.911,133.771)">
            <g transform="matrix(0.710705,0,0,0.710705,339.21,493.058)">
                <path d="M0,-92.105L0,78.39C0,79.241 -0.689,79.93 -1.54,79.93L-111.211,79.93C-112.062,79.93 -112.752,79.241 -112.752,78.39L-112.752,-92.105C-112.752,-92.164 -112.799,-92.211 -112.858,-92.211L-212.61,-92.211C-213.461,-92.211 -214.15,-92.901 -214.15,-93.751L-214.15,-170.495C-214.15,-171.345 -213.461,-172.035 -212.61,-172.035L99.47,-172.035C100.32,-172.035 101.01,-171.345 101.01,-170.495L101.01,-93.751C101.01,-92.901 100.32,-92.211 99.47,-92.211L0.107,-92.211C0.048,-92.211 0,-92.164 0,-92.105" style="fill:rgb(38,82,154);fill-rule:nonzero;"/>
            </g>
            <g transform="matrix(0.710705,0,0,0.710705,594.174,371.886)">
                <path d="M0,248.885L0,163.136C0,163.077 -0.048,163.03 -0.107,163.03L-99.785,163.03C-99.844,163.03 -99.892,163.077 -99.892,163.136L-99.892,248.885C-99.892,249.736 -100.581,250.425 -101.432,250.425L-210.714,250.425C-211.564,250.425 -212.254,249.736 -212.254,248.885L-212.254,0C-212.254,-0.85 -211.564,-1.54 -210.714,-1.54L-101.432,-1.54C-100.581,-1.54 -99.892,-0.85 -99.892,0L-99.892,92.933C-99.892,92.991 -99.844,93.039 -99.785,93.039L-0.107,93.039C-0.048,93.039 0,92.991 0,92.933L0,0C0,-0.85 0.689,-1.54 1.54,-1.54L111.187,-1.54C112.038,-1.54 112.727,-0.85 112.727,0L112.727,248.885C112.727,249.736 112.038,250.425 111.187,250.425L1.54,250.425C0.689,250.425 0,249.736 0,248.885" style="fill:rgb(38,82,154);fill-rule:nonzero;"/>
            </g>
            <g transform="matrix(0.710705,0,0,0.710705,1095.21,493.058)">
                <path d="M0,-92.105L0,78.39C0,79.241 -0.689,79.93 -1.54,79.93L-111.211,79.93C-112.062,79.93 -112.751,79.241 -112.751,78.39L-112.751,-92.105C-112.751,-92.164 -112.799,-92.211 -112.858,-92.211L-212.61,-92.211C-213.461,-92.211 -214.15,-92.901 -214.15,-93.751L-214.15,-170.495C-214.15,-171.345 -213.461,-172.035 -212.61,-172.035L99.47,-172.035C100.32,-172.035 101.01,-171.345 101.01,-170.495L101.01,-93.751C101.01,-92.901 100.32,-92.211 99.47,-92.211L0.107,-92.211C0.048,-92.211 0,-92.164 0,-92.105" style="fill:rgb(38,82,154);fill-rule:nonzero;"/>
            </g>
            <g transform="matrix(0.710705,0,0,0.710705,842.29,442.856)">
                <path d="M0,49.168L-56.81,49.168C-56.887,49.168 -56.939,49.089 -56.908,49.019L-26.811,-19.819C-26.772,-19.906 -26.648,-19.903 -26.613,-19.814L0.1,49.022C0.127,49.093 0.075,49.168 0,49.168M161.262,150.414L42.558,-101.338C42.541,-101.375 42.503,-101.398 42.461,-101.398L-140.603,-101.398C-141.453,-101.398 -142.143,-100.709 -142.143,-99.858L-124.202,-39.517L-119.226,-21.575L-198.779,150.415C-198.812,150.485 -198.76,150.566 -198.682,150.566L-101.676,150.566C-101.634,150.566 -101.596,150.542 -101.579,150.504L-81.969,107.126C-81.951,107.088 -81.913,107.063 -81.871,107.063L22.425,107.063C22.469,107.063 22.508,107.09 22.524,107.13L39.492,149.598C39.726,150.183 40.292,150.566 40.922,150.566L161.166,150.566C161.244,150.566 161.295,150.485 161.262,150.414" style="fill:rgb(38,82,154);fill-rule:nonzero;"/>
            </g>
            <g transform="matrix(0.710705,0,0,0.710705,1196.65,388.779)">
                <path d="M0,-2.8C0,-2.682 0.095,-2.587 0.212,-2.587L2.755,-2.587C5.936,-2.587 8.521,-3.69 8.521,-6.276C8.521,-8.565 6.868,-10.091 3.18,-10.091C1.78,-10.091 0.773,-9.948 0.158,-9.794C0.064,-9.771 0,-9.685 0,-9.588L0,-2.8ZM-0.382,11.574L-5.723,11.574C-5.84,11.574 -5.936,11.478 -5.936,11.361L-5.936,-13.262C-5.936,-13.365 -5.864,-13.454 -5.763,-13.472C-3.487,-13.881 -0.364,-14.203 3.646,-14.203C8.338,-14.203 10.502,-13.445 12.321,-12.348C12.332,-12.342 12.341,-12.335 12.351,-12.327C13.701,-11.266 14.754,-9.32 14.754,-6.869C14.754,-4.113 12.634,-1.993 9.582,-1.103L9.582,-0.764C12.041,0.127 13.397,1.949 14.16,5.299C14.845,8.722 15.291,10.303 15.804,11.265C15.878,11.405 15.774,11.574 15.616,11.574L9.86,11.574C9.792,11.574 9.726,11.544 9.686,11.489C8.961,10.508 8.5,8.268 7.758,5.469C7.292,2.713 5.766,1.525 2.586,1.525L0.043,1.525C-0.075,1.525 -0.17,1.621 -0.17,1.738L-0.17,11.361C-0.17,11.478 -0.265,11.574 -0.382,11.574M-15.56,-1.528C-15.56,8 -9.51,15.843 -0.673,17.882C11.953,20.797 23.592,10.504 22.998,-2.441C22.509,-13.064 14.574,-21.496 3.815,-21.496C-7.335,-21.496 -15.56,-12.508 -15.56,-1.528M29.381,-1.528C29.381,12.634 18.273,23.741 3.815,23.741C-10.515,23.741 -21.962,12.634 -21.962,-1.528C-21.962,-15.391 -10.515,-26.541 3.815,-26.541C18.273,-26.541 29.381,-15.391 29.381,-1.528" style="fill:rgb(38,82,154);fill-rule:nonzero;"/>
            </g>
        </g>
        <g transform="matrix(0.718919,0,0,0.718919,270.467,-132.543)">
            <g transform="matrix(0.637394,0,0,0.637394,937.846,580.137)">
                <path d="M0,101.279L72.809,101.279L36.404,159.556L0,101.279ZM410.64,101.279L298.466,-77.441L339.884,-77.441L221.043,-266.103L102.2,-77.441L143.617,-77.441L36.403,93.377L-70.811,-77.441L-29.394,-77.441L-148.234,-266.103L-267.077,-77.441L-225.659,-77.441L-337.833,101.279L-296.468,101.279L-413.26,288.245L-196.402,288.245L-196.402,367.382L-100.066,367.382L-100.066,288.245L172.875,288.245L172.875,367.382L269.211,367.382L269.211,288.245L486.066,288.245L369.276,101.279L410.64,101.279Z" style="fill:rgb(247,70,70);fill-rule:nonzero;"/>
            </g>
            <g transform="matrix(0.637394,0,0,0.637394,617.904,691.156)">
                <path d="M0,-373.284L-134.798,-238.487L-186.643,-186.642L-134.797,-134.797L0,0L51.846,-51.845L-82.952,-186.641L51.846,-321.439L0,-373.284Z" style="fill:rgb(247,70,70);fill-rule:nonzero;"/>
            </g>
            <g transform="matrix(0.637394,0,0,0.637394,1390.11,605.237)">
                <path d="M0,-103.69L-134.798,-238.487L-186.644,-186.642L-51.846,-51.844L-186.644,82.953L-134.798,134.797L-0.001,0L51.845,-51.845L0,-103.69Z" style="fill:rgb(247,70,70);fill-rule:nonzero;"/>
            </g>
        </g>
    </g>
</svg>
