<?xml version="1.0" encoding="UTF-8" standalone="no"?><!DOCTYPE svg PUBLIC "-//W3C//DTD SVG 1.1//EN" "http://www.w3.org/Graphics/SVG/1.1/DTD/svg11.dtd"><svg width="100%" height="100%" viewBox="0 0 902 667" version="1.1" xmlns="http://www.w3.org/2000/svg" xmlns:xlink="http://www.w3.org/1999/xlink" xml:space="preserve" xmlns:serif="http://www.serif.com/" style="fill-rule:evenodd;clip-rule:evenodd;stroke-linejoin:round;stroke-miterlimit:2;"><path id="path12388" d="M30.048,389.821c-2.746,-1.762 -8.503,-7.085 -12.794,-11.828c-12.729,-14.071 -17.949,-29.485 -17.181,-50.735l0.255,-7.053l52.054,-120.347c50.539,-116.843 52.105,-120.304 53.797,-118.901c1.834,1.521 8.676,-0.668 6.963,-2.228c-0.503,-0.458 -1.874,-1.93 -3.046,-3.271l-2.131,-2.439l7.567,-18.181c9.06,-21.765 13.955,-29.226 25.483,-38.841c7.838,-6.537 21.703,-13.44 23.116,-11.508c0.392,0.535 1.022,0.264 1.4,-0.604c1.465,-3.364 3.951,-1.966 5.671,3.19c0.964,2.89 2.207,5.075 2.762,4.856c0.555,-0.218 1.885,-2.315 2.955,-4.66c3.295,-7.217 6.859,-8.671 9.214,-3.76c1.051,2.192 1.311,2.304 2.52,1.085c0.742,-0.748 1.375,-2.11 1.406,-3.027c0.139,-4.024 9.236,-1.139 58.368,18.513c42.005,16.801 47.536,19.232 45.777,20.117c-1.635,0.822 -1.657,1.291 -0.123,2.564c1.033,0.856 1.779,2.603 1.657,3.881c-0.122,1.279 0.748,2.722 1.936,3.209c1.249,0.512 1.653,1.233 0.96,1.711c-1.636,1.127 0.361,6.266 2.827,7.277c2.294,0.941 3.062,-0.074 1.991,-2.633c-0.407,-0.973 -0.308,-1.94 0.22,-2.148c0.528,-0.208 1.664,1.305 2.525,3.362c2.174,5.195 3.716,4.032 1.683,-1.269l-1.654,-4.31l3.206,2.171c4.226,2.861 4.488,1.518 0.946,-4.84l-2.909,-5.22l221.947,90.983c198.788,81.49 222.066,91.233 223.091,93.371c1.033,2.154 1.377,2.295 3.53,1.447c2.754,-1.085 18.523,4.813 18.882,7.062c0.117,0.729 1.061,1.674 2.098,2.099c1.179,0.483 1.798,2.398 1.65,5.107c-0.276,5.065 -1.548,6.009 -3.838,2.848c-1.983,-2.736 -3.379,-2.538 -1.88,0.267c0.59,1.104 0.699,2.864 0.243,3.911c-0.455,1.047 -0.019,2.574 0.97,3.395c0.989,0.82 1.692,3.097 1.562,5.061c-0.178,2.668 0.445,3.85 2.465,4.678c1.486,0.609 2.788,1.651 2.895,2.315c0.203,1.275 18.901,2.971 20.15,1.827c0.402,-0.368 3.635,-0.864 7.186,-1.103c3.551,-0.239 6.539,-0.625 6.64,-0.857c0.101,-0.232 0.214,-1.292 0.251,-2.355c0.093,-2.705 -2.731,-3.56 -6.86,-2.077c-4.04,1.45 -3.94,0.052 0.175,-2.452c3.22,-1.959 2.86,-4.801 -0.623,-4.913c-1.459,-0.047 -2.311,0.81 -2.741,2.758c-0.749,3.394 -1.095,3.342 -2.834,-0.427c-0.857,-1.857 -0.809,-2.975 0.133,-3.116c2.503,-0.377 2.452,-2.149 -0.092,-3.234c-1.334,-0.568 -3.069,-2.116 -3.856,-3.439c-1.269,-2.132 2.462,-0.81 32.743,11.603c30.465,12.488 34.984,14.606 41.628,19.509c17.269,12.74 26.955,30.216 27.988,50.495c0.32,6.294 -0.122,14.464 -0.982,18.156c-1.054,4.52 -21.316,52.053 -62.06,145.585c-66.297,152.195 -63.46,146.338 -76.033,156.981c-13.989,11.842 -32.1,17.897 -50.821,16.991l-9.354,-0.452l-66.691,-26.975c-54.419,-22.012 -66.383,-27.144 -65.019,-27.893c1.118,-0.614 1.592,-1.791 1.432,-3.555c-0.183,-2.008 -0.957,-2.741 -3.245,-3.072c-1.906,-0.276 -3.446,-1.295 -4.214,-2.789c-0.719,-1.4 -1.415,-1.883 -1.716,-1.192c-0.278,0.639 0.119,2.036 0.883,3.105c0.943,1.317 0.899,1.943 -0.136,1.945c-0.839,0.001 -1.553,0.791 -1.586,1.756c-0.121,3.524 -1.921,0.685 -4.288,-6.765c-2.65,-8.34 -4.825,-8.823 -6.481,-1.441c-0.721,3.215 -1.253,3.755 -3.5,3.553c-1.678,-0.151 -2.763,-0.901 -2.96,-2.047c-0.415,-2.417 0.107,-3.497 1.427,-2.956c0.596,0.244 1.264,0.03 1.485,-0.476c0.22,-0.506 -0.819,-1.42 -2.309,-2.031c-3.147,-1.29 -3.461,-0.99 -2.18,2.072c0.516,1.234 0.752,2.673 0.524,3.197c-0.244,0.561 -36.739,-13.921 -88.8,-35.238l-88.385,-36.19l-1.418,-3.389c-0.78,-1.863 -2.197,-3.549 -3.151,-3.746c-0.953,-0.196 -2.41,-1.823 -3.237,-3.615c-2.036,-4.413 -3.392,-3.536 -2.248,1.454c0.512,2.228 0.807,4.334 0.657,4.678c-0.8,1.837 -9.434,-3.7 -15.276,-9.796c-2.473,-2.58 -7.897,-4.452 -8.551,-2.951c-0.193,0.443 0.578,1.642 1.714,2.663c1.418,1.276 -0.965,0.748 -7.609,-1.686c-7.608,-2.787 -9.88,-4.036 -10.638,-5.847c-1.256,-3.003 -4.271,-4.273 -4.355,-1.834c-0.052,1.509 -1.261,1.342 -6.835,-0.943c-6.324,-2.592 -6.902,-3.114 -8.73,-7.878c-2.226,-5.799 -1.522,-6.81 6.814,-9.782c7.028,-2.507 10.278,-1.765 12.414,2.834c1.486,3.2 1.416,3.945 -0.492,5.247c-1.224,0.834 -2.256,2.441 -2.295,3.57c-0.065,1.883 0.097,1.956 1.95,0.879c1.835,-1.067 2.581,-0.649 8.121,4.548l6.1,5.722l2.585,-1.572c1.421,-0.865 3.289,-1.284 4.149,-0.932c0.946,0.388 2.017,-0.398 2.709,-1.988c0.63,-1.445 0.78,-2.781 0.334,-2.967c-0.446,-0.186 -1.765,-2.105 -2.933,-4.265l-2.122,-3.926l5.934,-1.895c3.808,-1.215 5.321,-2.162 4.223,-2.642c-0.942,-0.411 -2.99,-0.171 -4.553,0.535c-4.814,2.173 -6.989,1.249 -10.712,-4.549c-1.919,-2.99 -3.355,-5.746 -3.191,-6.123c1.273,-2.923 13.026,-3.24 19.71,-0.53c5.774,2.34 5.705,0.523 -0.136,-3.58c-9.062,-6.365 -11.913,-6.955 -18.793,-3.889c-7.082,3.155 -7.429,2.07 -0.669,-2.089c8.323,-5.12 3.368,-6.67 -5.328,-1.666c-5.117,2.944 -5.29,2.958 -3.269,0.266c1.174,-1.563 3.977,-3.621 6.229,-4.572l4.094,-1.73l108.445,44.472c59.645,24.46 109.382,45.18 110.526,46.045c2.21,1.671 2.067,7.765 -0.178,7.595c-0.726,-0.055 -1.588,1.351 -1.988,3.244c-0.487,2.302 -1.138,3.164 -2.094,2.772c-0.966,-0.396 -1.09,0.26 -0.406,2.159c0.822,2.285 0.688,2.719 -0.823,2.67c-1.31,-0.043 -2.013,0.956 -2.571,3.654c-0.946,4.577 0.812,6.348 3.597,3.621l2.083,-2.038l-0.962,2.394c-0.529,1.317 -0.508,2.58 0.047,2.808c0.554,0.227 1.687,-0.563 2.518,-1.756l1.51,-2.17l-0.224,2.697c-0.124,1.483 0.341,2.928 1.032,3.211c1.41,0.578 4.433,-7.084 4.419,-11.201c-0.015,-4.572 0.265,-7.296 1.2,-11.658c0.927,-4.323 0.937,-4.33 4.177,-2.626c2.915,1.533 3.075,2.006 1.556,4.598c-1.403,2.395 -1.32,2.902 0.488,2.961c1.836,0.059 1.854,0.235 0.114,1.11c-2.06,1.037 -1.953,1.249 1.517,3.005c0.88,0.446 1.802,-0.817 2.916,-3.996c1.602,-4.573 1.671,-4.617 4.271,-2.716c1.87,1.367 2.573,1.488 2.401,0.413c-0.178,-1.116 4.057,0.243 15.952,5.119c15.834,6.491 16.19,6.699 15.971,9.336l-0.224,2.696l1.476,-2.114l1.477,-2.115l43.321,17.665c24.858,10.136 43.146,18.065 42.91,18.606c-0.782,1.797 5.569,5.028 8.002,4.069c3.191,-1.257 5.566,-0.028 4.533,2.345c-1.387,3.185 2.655,5.34 5.409,2.884c2.795,-2.494 4.46,-2.083 3.208,0.793c-0.503,1.156 -0.487,2.278 0.036,2.493c1.672,0.685 4.986,-1.579 5.051,-3.451c0.092,-2.677 2.768,-2.602 3.424,0.097c0.507,2.086 0.781,2.218 2.657,1.274c1.151,-0.579 4.494,-0.405 7.428,0.387c10.27,2.77 10.383,2.756 13.846,-1.697c1.778,-2.286 4.511,-4.589 6.074,-5.118c1.563,-0.529 3.016,-1.362 3.229,-1.851c0.626,-1.439 -1.946,-1.999 -4.778,-1.04c-2.412,0.817 -2.813,0.583 -4.919,-2.869c-2.669,-4.376 -2.45,-5.835 0.683,-4.551c1.235,0.506 2.135,0.313 2.016,-0.433c-0.118,-0.741 -0.793,-1.261 -1.498,-1.155c-0.706,0.106 -1.723,-0.858 -2.261,-2.143c-0.737,-1.762 -1.608,-2.28 -3.543,-2.108c-2.402,0.214 -2.39,-0.172 0.178,-6.07l2.743,-6.299l3.97,0.839c2.184,0.461 4.709,1.724 5.61,2.806c2.851,3.423 12.664,2.906 16.378,-0.862c0.838,-0.849 2.513,-1.138 3.724,-0.642c2.736,1.121 4.529,-2.496 5.041,-10.166c0.571,-8.563 -0.109,-12.633 -2.479,-14.832c-1.328,-1.233 -1.865,-2.91 -1.326,-4.147c0.497,-1.142 0.279,-2.951 -0.485,-4.018c-1.092,-1.525 -0.523,-1.415 2.649,0.514l4.04,2.456l-1.442,-3.799c-0.794,-2.089 -2.089,-4.064 -2.879,-4.388c-0.791,-0.324 -1.128,-1.299 -0.75,-2.166c0.377,-0.868 1.203,-1.366 1.834,-1.107c0.632,0.259 1.044,-0.183 0.916,-0.982c-0.319,-1.999 -5.811,1.723 -9.913,6.718c-1.831,2.23 -4.224,3.94 -5.37,3.837c-1.261,-0.114 -3.771,1.893 -6.432,5.144c-4.075,4.978 -1.166,-2.032 43.941,-105.886c42.764,-98.454 48.463,-111.071 49.668,-109.945c0.958,0.895 1.663,0.581 2.376,-1.056c0.713,-1.638 0.454,-2.347 -0.875,-2.39c-1.398,-0.045 -1.561,-0.815 -0.629,-2.956c0.917,-2.105 2.376,-3.041 5.348,-3.429c2.247,-0.293 4.006,-1.039 3.907,-1.656c-0.191,-1.197 -7.078,-9.123 -8.397,-9.663c-0.432,-0.177 -1.804,-1.995 -3.049,-4.039c-2.076,-3.407 -3.742,-4.374 -20.035,-11.621l-17.772,-7.905l-1.005,-7.538c-0.716,-5.369 -1.657,-7.805 -3.27,-8.467c-2.034,-0.833 -1.844,-1.031 1.855,-1.93c6.722,-1.633 7.069,-1.847 4.632,-2.846c-1.269,-0.52 -3.348,-0.536 -4.62,-0.035c-2.932,1.155 -3.639,0.84 -5.138,-2.284c-1.172,-2.446 -1.215,-2.355 -1.23,2.593c-0.009,2.821 0.697,5.725 1.565,6.455c1.796,1.51 5.249,10.858 4.58,12.397c-0.245,0.561 -4.038,-0.459 -8.481,-2.28l-8.038,-3.296l0.398,-5.104l0.397,-5.104l-5.1,2.19c-5.083,2.183 -5.103,2.18 -5.949,-0.725c-0.849,-2.912 -6.512,-8.611 -7.981,-8.032c-0.428,0.168 0.419,2.726 1.883,5.683l2.661,5.377l-5.368,-2.149c-4.043,-1.619 -5.802,-3.011 -7.124,-5.639c-0.966,-1.919 -1.442,-2.561 -1.059,-1.425c0.384,1.135 0.548,2.409 0.364,2.831c-0.184,0.422 -7.455,-2.107 -16.158,-5.619c-10.41,-4.2 -15.434,-6.654 -14.684,-7.171c0.627,-0.432 1.591,-0.6 2.143,-0.374c0.552,0.226 4,-0.033 7.662,-0.577c3.662,-0.544 7.702,-0.561 8.977,-0.038c1.275,0.523 2.529,0.467 2.786,-0.124c0.258,-0.591 1.922,-1.113 3.699,-1.161c1.778,-0.048 3.44,-0.609 3.694,-1.248c0.626,-1.568 -1.286,-7.454 -2.595,-7.99c-0.577,-0.237 -1.037,-2.072 -1.023,-4.077c0.041,-5.603 -3.112,-9.22 -11.09,-12.722c-7.85,-3.447 -12.565,-3.413 -14.094,0.1c-0.541,1.242 -2.236,2.824 -3.766,3.515c-2.068,0.934 -3.51,2.98 -5.615,7.972c-2.025,4.804 -3.329,6.7 -4.577,6.66c-0.96,-0.031 -1.694,0.666 -1.63,1.548c0.063,0.883 -0.226,0.49 -0.638,-0.872c-0.996,-3.275 -1.71,-3.436 -3.366,-0.76l-1.377,2.224l-99.305,-40.345c-103.214,-41.932 -111.335,-45.6 -110.68,-49.984c0.366,-2.447 -4.412,-8.525 -6.16,-7.836c-0.766,0.301 -1.21,2.144 -1.032,4.278c0.172,2.061 0.162,4.104 -0.023,4.539c-0.186,0.436 -40.027,-15.478 -88.537,-35.364c-77.365,-31.715 -88.281,-36.42 -88.866,-38.302c-0.595,-1.913 -0.878,-2.024 -2.601,-1.023c-1.588,0.923 -4.131,0.16 -14.254,-4.28c-13.241,-5.808 -12.91,-5.4 -8.693,-10.733c1.039,-1.315 1.237,-2.009 0.452,-1.584c-0.769,0.416 -2.368,0.713 -3.553,0.66c-1.185,-0.054 -2.99,0.978 -4.011,2.293c-1.472,1.896 -2.529,2.114 -5.108,1.057c-2.927,-1.2 -3.069,-1.567 -1.426,-3.683c1.052,-1.355 1.357,-2.542 0.72,-2.803c-0.608,-0.249 -0.705,-1.265 -0.218,-2.258c0.53,-1.078 0.877,-1.186 0.862,-0.266c-0.044,2.623 2.074,2.552 2.796,-0.094c0.56,-2.055 0.036,-2.74 -2.906,-3.797c-3.887,-1.395 -3.991,-3.511 -0.227,-4.613c2.515,-0.736 4.011,-3.313 2.325,-4.004c-0.708,-0.29 -0.265,-1.736 1.181,-3.853c1.91,-2.797 1.991,-3.522 0.467,-4.147c-1.017,-0.416 -2.487,0.049 -3.268,1.034c-1.473,1.859 -7.793,1.664 -7.64,-0.235c0.048,-0.593 -1.454,-1.467 -3.338,-1.941c-2.263,-0.57 -3.228,-1.315 -2.844,-2.197c0.399,-0.917 -0.298,-1.036 -2.23,-0.382c-2.355,0.798 -2.802,0.668 -2.752,-0.798c0.081,-2.348 -7.491,-3.909 -8.436,-1.739c-0.367,0.844 0.214,1.818 1.293,2.165c1.078,0.348 1.777,1.053 1.553,1.567c-0.224,0.514 -1.383,0.535 -2.575,0.046c-2.956,-1.212 -3.553,0.718 -0.784,2.533l2.236,1.465l-2.779,-0.217c-1.528,-0.12 -3.018,0.331 -3.31,1.002c-0.588,1.35 7.216,4.276 11.529,4.323c1.399,0.015 4.139,0.054 6.089,0.087c1.951,0.034 4.987,0.651 6.747,1.373c2.671,1.094 3.016,1.736 2.083,3.878c-1.204,2.765 -3.533,3.764 -3.869,1.66c-0.325,-2.034 -4.041,-1.642 -4.112,0.434c-0.051,1.469 -0.267,1.468 -1.053,-0.004c-0.775,-1.449 -1.297,-1.542 -2.402,-0.428c-2.282,2.301 -1.378,3.427 3.614,4.505c4.872,1.051 5.243,1.874 1.993,4.422c-1.46,1.145 -3.424,0.856 -9.343,-1.376c-6.959,-2.623 -7.436,-2.991 -6.684,-5.16c0.67,-1.932 1.237,-2.059 3.281,-0.736c1.359,0.881 2.323,1.247 2.142,0.814c-0.181,-0.432 0.491,-1.199 1.493,-1.703c3.225,-1.622 -4.185,-3.745 -7.636,-2.188c-6.528,2.947 -8.377,2.482 -38.896,-9.795c-15.964,-6.421 -29.201,-12.095 -29.416,-12.606c-0.782,-1.87 -2.219,-1.618 -3.165,0.556c-0.534,1.225 -3.132,3.241 -5.774,4.481c-2.764,1.297 -5.861,3.897 -7.294,6.123c-2.381,3.699 -2.559,3.76 -4.092,1.388c-2.208,-3.417 -4.202,-4.003 -5.271,-1.548c-1.872,4.301 -9.9,1.981 -12.763,-3.688c-1.549,-3.067 -1.7,-2.569 -1.285,4.246c0.371,6.085 0.338,6.345 -1.382,10.965c-0.939,2.52 -0.709,3.144 1.259,3.421c2.898,0.407 2.572,1.729 -0.659,2.674c-1.291,0.378 -3.255,1.608 -4.363,2.733c-1.109,1.124 -3.011,2 -4.227,1.945c-1.216,-0.054 -2.735,0.235 -3.374,0.642c-1.614,1.029 -1.558,3.902 0.089,4.577c2.369,0.971 8.936,-1.373 9.873,-3.524c0.494,-1.137 5.083,-3.78 10.196,-5.875l9.296,-3.81l-2.927,6.466c-2.166,4.786 -3.319,6.306 -4.436,5.848c-0.83,-0.341 -1.921,0.327 -2.425,1.484c-0.509,1.169 -0.193,2.4 0.71,2.77c2.896,1.187 0.539,3.446 -6.028,5.776c-3.531,1.253 -8.641,3.287 -11.356,4.52c-8.419,3.825 -17.218,5.69 -22.891,4.852c-5.938,-0.877 -8.782,0.57 -4.867,2.476c1.353,0.658 3.089,1.513 3.859,1.9c0.77,0.387 1.678,1.846 2.017,3.241c0.339,1.395 1.273,2.438 2.074,2.317c0.802,-0.12 1.172,0.437 0.823,1.238c-0.711,1.635 5.505,3.752 8.572,2.92c0.961,-0.261 2.116,0.03 2.567,0.645c1.009,1.379 6.014,1.045 6.662,-0.444c0.265,-0.607 -0.611,-1.183 -1.985,-1.307c-3.033,-0.273 -2.668,-1.496 0.694,-2.328c3.636,-0.899 5.377,0.118 4.328,2.528c-1.038,2.384 -0.05,3.156 2.668,2.085c1.439,-0.567 1.697,-0.377 1.162,0.853c-0.379,0.87 -3.095,2.487 -6.036,3.594c-2.941,1.106 -5.595,2.583 -5.899,3.28c-0.303,0.697 -2.782,1.439 -5.507,1.647c-2.725,0.209 -5.453,1.097 -6.062,1.974c-2.24,3.225 1.993,2.656 11.6,-1.561c7.703,-3.382 9.648,-3.844 8.913,-2.115c-0.518,1.215 -2.289,2.667 -3.938,3.225c-1.648,0.558 -3.211,1.509 -3.475,2.114c-0.293,0.673 0.238,0.817 1.372,0.37c2.706,-1.066 3.708,-0.301 2.685,2.048c-1.066,2.448 -5.406,3.078 -8.576,1.245c-1.62,-0.936 -2.495,-0.76 -3.104,0.624c-1.006,2.284 -5.582,3.577 -7.226,2.042c-1.904,-1.777 -3.611,1.098 -2.711,4.567c0.788,3.038 4.247,4.356 3.781,1.441c-0.251,-1.575 4.805,-4.063 6.689,-3.291c0.728,0.299 2.241,0.082 3.361,-0.481c4.481,-2.254 5.134,-0.057 2.072,6.973c-1.622,3.725 -3.564,6.866 -4.316,6.979c-0.752,0.113 -1.573,0.679 -1.825,1.257c-0.251,0.579 0.156,0.96 0.905,0.847c0.9,-0.135 -9.053,23.678 -29.351,70.222c-23.592,54.096 -31.071,70.424 -32.252,70.409c-1.159,-0.014 -1.322,0.325 -0.66,1.372c0.578,0.914 -0.709,4.898 -3.759,11.638c-4.19,9.259 -4.802,10.125 -6.347,8.972c-2.198,-1.64 -3.763,-0.527 -4.34,3.088c-0.39,2.438 -0.065,2.832 2.167,2.633c2.349,-0.209 2.477,0.105 1.22,2.992c-2.905,6.671 -0.689,16.565 4.858,21.689c1.351,1.248 9.127,5.107 17.28,8.574c13.635,5.798 14.9,6.545 15.77,9.309c0.52,1.652 0.794,3.397 0.608,3.878c-0.287,0.742 -6.706,4.812 -10.781,6.836c-2.19,1.087 -5.043,-4.71 -4.224,-8.583c0.433,-2.049 0.502,-5.244 0.154,-7.101c-0.603,-3.209 -0.721,-3.291 -2.365,-1.654c-0.952,0.948 -2.725,3.912 -3.939,6.589c-2.016,4.441 -1.963,5.323 0.612,10.122c3.835,7.148 2.875,8.25 -1.456,1.671c-1.933,-2.936 -3.961,-5.162 -4.507,-4.946c-1.636,0.644 -0.474,4.626 2.69,9.218c2.201,3.194 2.455,4.213 0.975,3.916c-1.1,-0.222 -3.336,-2.446 -4.968,-4.943c-1.631,-2.498 -3.553,-4.452 -4.27,-4.344c-0.717,0.107 -1.276,-0.626 -1.241,-1.63c0.065,-1.891 -1.898,-3.375 -2.533,-1.916c-0.433,0.992 6.617,12.892 7.965,13.444c1.07,0.439 3.017,5.335 2.549,6.41c-0.572,1.314 -3.29,-0.505 -3.956,-2.649c-0.364,-1.172 -1.091,-2.306 -1.614,-2.52c-1.726,-0.708 -1.984,1.871 -0.616,6.164c1.071,3.362 0.936,4.551 -0.654,5.798c-1.767,1.386 -3.158,1.078 -11.937,-2.643c-5.464,-2.316 -12.182,-5.653 -14.927,-7.415l-0,-0Zm343.792,137.409c0.62,-0.427 0.611,-0.988 -0.02,-1.247c-0.631,-0.259 -1.354,-0 -1.606,0.581c-0.252,0.578 -0.243,1.14 0.02,1.247c0.263,0.108 0.986,-0.153 1.606,-0.581l0,0Zm-66.74,-28.598c-0.116,-0.729 -0.699,-1.526 -1.295,-1.77c-0.597,-0.245 -0.989,0.152 -0.872,0.882c0.116,0.729 0.699,1.526 1.295,1.77c0.597,0.244 0.989,-0.152 0.872,-0.882Zm14.09,5.776c0.651,-0.448 -0.163,-1.298 -1.924,-2.009c-2.369,-0.956 -2.787,-0.855 -1.869,0.454c1.514,2.159 2.393,2.52 3.793,1.555Zm58.981,18.654c-0.375,-1.205 -1.499,-2.461 -2.499,-2.792c-1.533,-0.507 -1.553,-0.405 -0.129,0.657c0.939,0.701 1.256,2.249 0.713,3.495c-0.738,1.694 -0.541,2.066 0.811,1.533c1.352,-0.532 1.62,-1.234 1.104,-2.893Zm216.977,91.205c0.572,-1.313 -3.314,-8.365 -6.165,-11.188c-3.339,-3.306 -5.013,-2.828 -5.727,1.636c-0.364,2.278 0.007,2.831 1.773,2.641c1.555,-0.167 3.133,0.843 5.201,3.329c3.109,3.737 4.431,4.7 4.918,3.582Zm-243.779,-101.625c-0.116,-0.729 -1.431,-1.826 -2.921,-2.437c-1.531,-0.627 -2.618,-0.534 -2.498,0.215c0.117,0.73 1.431,1.827 2.921,2.437c1.531,0.628 2.618,0.534 2.498,-0.215Zm196.716,80.64c0.252,-0.578 -0.03,-1.251 -0.626,-1.496c-0.596,-0.244 -1.29,0.029 -1.542,0.608c-0.252,0.578 0.03,1.251 0.626,1.496c0.596,0.244 1.29,-0.029 1.542,-0.608Zm4.282,-3.967c0.378,-0.868 0.072,-1.485 -0.68,-1.372c-0.752,0.113 -1.676,0.915 -2.054,1.783c-0.377,0.867 -0.071,1.485 0.68,1.372c0.752,-0.113 1.676,-0.916 2.054,-1.783Zm56.558,24.19c-0.192,-0.461 -1.208,-0.496 -2.256,-0.079c-1.514,0.603 -1.442,0.775 0.351,0.837c1.241,0.043 2.098,-0.298 1.905,-0.758l0,0Zm-10.813,-6.315c0.824,-2.813 2.048,-4.318 2.356,-2.895c0.555,2.566 9.447,3.514 11.992,1.279c1.897,-1.667 1.994,-2.355 0.614,-4.344c-2.752,-3.965 -5.804,-4.901 -8.407,-2.578c-2.904,2.59 -3.222,3.24 -1.46,2.975c0.752,-0.113 1.131,0.335 0.844,0.995c-0.288,0.661 -1.043,0.746 -1.679,0.189c-0.636,-0.556 -0.49,-2.077 0.324,-3.378c0.814,-1.302 2.774,-4.903 4.356,-8.003c1.583,-3.101 3.675,-6.705 4.649,-8.009c0.975,-1.305 1.225,-1.9 0.555,-1.322c-0.669,0.578 -1.932,0.757 -2.807,0.398c-0.875,-0.358 -2.961,0.651 -4.636,2.244c-1.675,1.592 -4.477,3.157 -6.227,3.477c-2.936,0.538 -3.157,0.845 -2.861,3.977c0.177,1.867 -0.142,3.577 -0.708,3.8c-0.567,0.223 -0.699,-0.355 -0.294,-1.285c0.405,-0.929 0.321,-2.257 -0.187,-2.951c-0.665,-0.91 -1.291,0.05 -2.246,3.446c-0.728,2.589 -1.2,5.003 -1.048,5.366c0.783,1.872 4.626,0.382 6.646,-2.576c1.265,-1.852 2.533,-2.812 2.817,-2.133c0.284,0.679 -0.67,2.843 -2.12,4.807c-1.45,1.965 -2.33,3.992 -1.949,4.507c0.375,0.513 0.04,1.579 -0.744,2.37c-0.968,0.976 -0.901,1.359 0.209,1.192c0.9,-0.135 1.807,-0.831 2.016,-1.545l-0.005,-0.003Zm8.231,-4.846c1.854,-2.34 4.203,-2.905 3.282,-0.79c-0.362,0.831 -1.594,1.785 -2.738,2.12c-1.709,0.5 -1.806,0.262 -0.544,-1.33Zm-43.426,-9.798c0.721,-0.726 0.839,-1.515 0.261,-1.752c-0.577,-0.236 -1.359,0.28 -1.736,1.148c-0.378,0.867 -0.496,1.655 -0.261,1.752c0.234,0.096 1.015,-0.421 1.736,-1.148Zm-190.33,-84.277c0.082,-2.394 -1.299,-2.799 -4.546,-1.333c-2.527,1.141 -2.637,1.387 -1.662,3.718c0.975,2.33 1.214,2.393 3.596,0.944c1.403,-0.854 2.578,-2.351 2.612,-3.329Zm168.235,75.293c0.483,-1.11 -1.394,-2.429 -2.436,-1.711c-0.63,0.434 -0.386,1.101 0.544,1.482c0.929,0.381 1.781,0.484 1.892,0.229Zm20.557,-0.883c-0.219,-3.56 -0.876,-5.011 -2.289,-5.057c-1.583,-0.051 -1.621,-0.588 -0.187,-2.672c0.987,-1.435 1.43,-2.465 0.984,-2.289c-0.446,0.176 -1.236,-0.476 -1.755,-1.448c-1.672,-3.129 -3.861,4.06 -2.255,7.408c0.774,1.615 1.538,4.563 1.697,6.553c0.221,2.761 0.742,3.485 2.201,3.058c1.554,-0.455 1.854,-1.494 1.604,-5.553l-0,0Zm-197.096,-82.094c0.62,-0.427 0.367,-1.088 -0.562,-1.469c-0.929,-0.381 -1.896,-0.22 -2.148,0.359c-0.251,0.578 0.001,1.239 0.562,1.469c0.561,0.23 1.528,0.068 2.148,-0.359Zm318.479,128.077c0.62,-0.427 0.368,-1.089 -0.562,-1.47c-0.93,-0.381 -1.896,-0.219 -2.148,0.359c-0.252,0.579 0.001,1.24 0.562,1.47c0.561,0.23 1.527,0.068 2.148,-0.359Zm-340.865,-143.36c1.268,-0.111 3.284,-0.109 4.479,0.01c2.229,0.215 5.17,-1.929 4.581,-3.337c-0.616,-1.471 -11.345,0.473 -12.093,2.19c-0.496,1.14 0.177,1.394 3.033,1.142l-0,-0.005Zm251.698,100.266c0.211,-0.486 0.745,-0.391 1.185,0.211c1.08,1.476 1.612,-0.01 1.476,-4.122c-0.122,-3.681 -3.23,-5.314 -4.274,-2.245c-0.349,1.024 -1.282,1.596 -2.075,1.271c-1.982,-0.812 -3.238,0.248 -3.663,3.093c-0.318,2.127 0.055,2.415 3.304,2.537c2.014,0.076 3.835,-0.259 4.047,-0.745Zm-213.68,-87.192c1.962,-0.498 3.385,-1.341 3.162,-1.874c-0.487,-1.163 -7.393,-0.1 -7.97,1.227c-0.624,1.433 0.898,1.637 4.808,0.647Zm296.956,122.353c1.84,-1.089 1.089,-2.711 -1.806,-3.898c-1.455,-0.596 -2.732,-0.886 -2.837,-0.644c-0.106,0.242 -0.837,1.09 -1.625,1.884c-1.155,1.165 -0.8,1.631 1.829,2.401c1.794,0.525 3.792,0.641 4.439,0.257Zm-318.422,-133.013c2.082,-0.82 4,-1.985 4.263,-2.59c0.264,-0.605 1.211,-0.799 2.105,-0.433c0.894,0.367 1.832,0.193 2.083,-0.385c0.675,-1.549 0.1,-1.569 -6.855,-0.244c-3.485,0.664 -6.632,1.884 -6.992,2.711c-0.977,2.245 1.146,2.615 5.396,0.941Zm214.426,89.703c0.251,-0.578 -0.03,-1.252 -0.626,-1.496c-0.596,-0.244 -1.29,0.029 -1.542,0.607c-0.252,0.579 0.03,1.252 0.626,1.496c0.596,0.245 1.29,-0.029 1.542,-0.607Zm96.902,37.735c-0.208,-0.497 -1.127,-0.917 -2.042,-0.934c-1.01,-0.019 -0.862,0.335 0.379,0.903c1.122,0.514 1.871,0.528 1.663,0.031l-0,0Zm-48.585,-25.497c0.225,-0.516 -0.323,-1.239 -1.217,-1.605c-0.894,-0.367 -1.928,0.029 -2.298,0.878c-0.41,0.941 0.066,1.568 1.217,1.605c1.039,0.034 2.073,-0.361 2.298,-0.878Zm-21.726,-8.773c0.252,-0.579 -0.029,-1.252 -0.626,-1.496c-0.596,-0.244 -1.289,0.029 -1.541,0.607c-0.252,0.579 0.03,1.252 0.626,1.496c0.596,0.245 1.29,-0.029 1.541,-0.607Zm75.785,29.827c0.62,-0.427 0.368,-1.088 -0.562,-1.47c-0.93,-0.381 -1.896,-0.219 -2.148,0.359c-0.252,0.579 0.001,1.24 0.562,1.47c0.561,0.23 1.527,0.068 2.148,-0.359Zm-65.176,-30.746c0.697,-1.557 -2.425,-1.872 -4.503,-0.455c-1.953,1.332 -1.87,1.441 1.013,1.345c1.726,-0.058 3.296,-0.458 3.49,-0.89Zm69.885,30.198c0.252,-0.578 -0.03,-1.252 -0.626,-1.496c-0.596,-0.244 -1.29,0.029 -1.542,0.607c-0.252,0.579 0.03,1.252 0.626,1.496c0.596,0.245 1.29,-0.029 1.542,-0.607Zm94.182,-2.695c1.331,-2.268 1.158,-2.838 -1.151,-3.784c-3.646,-1.494 -5.341,-0.089 -4.09,3.389c1.31,3.641 3.25,3.787 5.241,0.395Zm-718.618,-305.679c0.211,-0.485 0.744,-0.39 1.185,0.211c1.08,1.476 1.611,-0.01 1.475,-4.121c-0.121,-3.682 -3.229,-5.314 -4.273,-2.245c-0.348,1.024 -1.282,1.596 -2.075,1.271c-1.982,-0.813 -3.239,0.248 -3.664,3.092c-0.318,2.128 0.056,2.415 3.304,2.537c2.015,0.076 3.836,-0.259 4.048,-0.745Zm62.02,-166.944c2.973,-1.171 1.257,-1.903 -2.371,-1.012c-1.742,0.428 -2.248,0.913 -1.359,1.302c0.78,0.341 2.458,0.211 3.73,-0.29Zm-8.709,-11.219c0.421,-0.966 1.95,-2.292 3.397,-2.945c2.465,-1.113 2.495,-1.244 0.463,-2.076c-2.79,-1.144 -7.796,1.105 -7.88,3.539c-0.087,2.529 3.06,3.689 4.02,1.482Zm5.976,2.208c4.571,-0.584 7.242,-2.629 3.646,-2.792c-3.642,-0.165 -8.455,0.839 -8.898,1.856c-0.567,1.301 0.67,1.522 5.252,0.936Zm-9.81,-11.003c0.378,-0.867 -0.045,-1.877 -0.939,-2.244c-0.894,-0.366 -1.292,-1.431 -0.885,-2.366c0.547,-1.257 -0.041,-1.863 -2.256,-2.323c-2.175,-0.451 -2.675,-0.946 -1.825,-1.803c1.922,-1.938 0.234,-2.847 -3.545,-1.909c-2.89,0.717 -3.472,1.314 -3.167,3.252c0.328,2.084 2.367,3.666 10.644,8.257c0.708,0.392 1.596,0.004 1.973,-0.864Zm5.252,-0.326c0.377,-0.867 0.199,-1.777 -0.397,-2.022c-0.597,-0.244 -1.393,0.266 -1.771,1.133c-0.378,0.868 -0.199,1.778 0.397,2.022c0.596,0.245 1.393,-0.265 1.771,-1.133Zm2.163,-17.598c2.28,-0.711 3.926,-1.82 3.658,-2.464c-0.269,-0.645 -2.708,-0.298 -5.421,0.771c-5.739,2.261 -4.347,3.598 1.763,1.693Zm19.21,-8.02c0.523,-1.2 -1.148,-1.603 -3.236,-0.78c-2.948,1.161 -2.851,2.469 0.149,2.004c1.506,-0.234 2.896,-0.784 3.087,-1.224Zm18.016,-6.568c5.832,-2.737 7.21,-7.101 1.972,-6.248c-2.086,0.34 -9.094,7.666 -7.828,8.185c0.508,0.208 3.143,-0.663 5.856,-1.937Zm708.773,267.622c0.252,-0.578 -0.059,-1.263 -0.69,-1.522c-0.631,-0.259 -1.053,0.126 -0.936,0.856c0.117,0.729 0.427,1.414 0.69,1.522c0.263,0.108 0.684,-0.277 0.936,-0.856Zm-1.734,-6.893c0.191,-1.277 -0.228,-2.236 -0.931,-2.13c-0.754,0.113 -1.022,1.013 -0.654,2.196c0.839,2.7 1.174,2.686 1.585,-0.066Zm-547.505,-247.898c1.595,0.596 4.449,0.641 6.344,0.098c3.343,-0.957 3.41,-1.067 2.282,-3.712c-1.123,-2.634 -1.253,-2.669 -3.854,-1.04c-1.48,0.927 -3.34,1.419 -4.134,1.094c-1.948,-0.799 -7.951,-0.588 -8.334,0.293c-0.17,0.389 0.841,1.039 2.245,1.444c1.404,0.406 3.857,1.226 5.451,1.823l0,-0Zm-8.902,-6.364c0.225,-0.517 -0.323,-1.239 -1.217,-1.606c-0.894,-0.366 -1.928,0.029 -2.298,0.878c-0.41,0.941 0.066,1.568 1.217,1.606c1.039,0.033 2.073,-0.362 2.298,-0.878Zm454.375,186.127c-0.45,-1.073 -0.927,-1.342 -1.214,-0.683c-0.611,1.403 0.129,3.172 1.158,2.767c0.438,-0.172 0.463,-1.11 0.056,-2.084l-0,0Zm-465.492,-195.819c0.697,-1.557 -2.425,-1.873 -4.503,-0.455c-1.953,1.332 -1.87,1.441 1.013,1.345c1.726,-0.058 3.296,-0.458 3.49,-0.89Zm537.512,213.218c-0.116,-0.729 -0.699,-1.526 -1.296,-1.77c-0.596,-0.245 -0.988,0.152 -0.871,0.882c0.116,0.729 0.699,1.526 1.295,1.77c0.596,0.245 0.989,-0.152 0.872,-0.882Zm-579.012,-239.749c0.577,-0.398 0.684,-1.224 0.236,-1.836c-0.448,-0.611 -1.135,-0.374 -1.528,0.528c-0.804,1.847 -0.272,2.385 1.292,1.308Zm-85.568,-39.501c0.378,-0.867 0.495,-1.656 0.261,-1.752c-0.234,-0.096 -1.016,0.42 -1.737,1.147c-0.72,0.727 -0.838,1.516 -0.26,1.752c0.577,0.237 1.358,-0.279 1.736,-1.147Zm11.808,2.216c0.378,-0.868 0.072,-1.485 -0.68,-1.372c-0.751,0.113 -1.675,0.916 -2.053,1.783c-0.378,0.868 -0.072,1.485 0.68,1.372c0.751,-0.113 1.676,-0.915 2.053,-1.783Zm660.562,273.24c0.541,-0.213 0.396,-1.875 -0.323,-3.693c-1.542,-3.898 -5.124,-3.725 -4.764,0.23c0.202,2.214 3.154,4.224 5.087,3.463Zm-18.726,-12.527c-0.371,-1.977 -1.655,-3.712 -3.219,-4.353c-2.535,-1.039 -2.545,-0.95 -0.405,3.44c2.538,5.207 4.525,5.707 3.624,0.913Zm-638.119,-263.381c0.252,-0.578 -0.059,-1.263 -0.69,-1.522c-0.631,-0.259 -1.053,0.126 -0.936,0.856c0.117,0.729 0.427,1.414 0.69,1.522c0.263,0.107 0.684,-0.278 0.936,-0.856Zm4.472,-2.215c1.093,1.02 1.236,0.504 0.72,-2.591c-0.925,-5.549 -0.965,-5.597 -1.559,-1.882c-0.384,2.404 -0.801,3.01 -1.456,2.115c-0.557,-0.76 -1.234,-0.526 -1.723,0.596c-0.595,1.368 -0.354,1.672 0.924,1.169c0.951,-0.375 2.344,-0.108 3.094,0.593Zm652.368,264.04c-0.117,-0.729 -0.7,-1.526 -1.296,-1.77c-0.596,-0.245 -0.988,0.152 -0.872,0.881c0.117,0.73 0.7,1.527 1.296,1.771c0.596,0.244 0.988,-0.153 0.872,-0.882Zm-771.563,129.117c1.359,-0.535 3.98,-2.856 5.825,-5.157c1.845,-2.301 4.394,-4.277 5.665,-4.39c1.885,-0.168 2.363,0.677 2.594,4.581c0.156,2.633 -0.293,6.363 -0.997,8.29l-1.279,3.503l-7.14,-2.926c-6.549,-2.685 -6.935,-3.008 -4.668,-3.901Zm16.667,6.413c0.839,-1.059 2.236,-1.634 3.105,-1.278c2.167,0.888 -0.233,4.11 -2.685,3.605c-1.451,-0.3 -1.558,-0.892 -0.42,-2.327Zm23.569,9.899c0.879,-0.832 2.229,-2.377 2.999,-3.432c1.863,-2.553 11.217,-4.346 10.174,-1.95c-0.395,0.907 -1.079,1.157 -1.519,0.555c-0.925,-1.263 -1.212,-0.858 -1.304,1.842c-0.037,1.064 0.823,2.299 1.912,2.745c1.088,0.446 1.876,1.884 1.751,3.196c-0.126,1.312 0.519,2.691 1.431,3.066c1.403,0.575 1.569,0.017 1.067,-3.61c-0.739,-5.35 0.632,-7.099 3.769,-4.806c2.861,2.092 3.64,0.795 1.74,-2.898c-0.777,-1.511 -0.864,-3.125 -0.194,-3.586c0.843,-0.581 1.298,-0.335 1.479,0.798c0.144,0.901 0.908,1.541 1.698,1.422c0.789,-0.119 1.594,0.837 1.788,2.123c0.297,1.965 0.528,1.816 1.443,-0.931c1.021,-3.067 1.327,-3.174 4.882,-1.717c3.723,1.526 3.826,1.476 5.509,-2.699c0.943,-2.34 1.711,-5.256 1.706,-6.48c-0.014,-3.381 1.746,-3.365 4.346,0.041c1.285,1.684 2.513,3.134 2.729,3.223c1.039,0.425 16.105,-5.514 18.108,-7.139l2.284,-1.853l74.204,30.419c41.845,17.154 74.029,30.822 73.803,31.342c-0.221,0.508 -1.39,1.212 -2.598,1.566c-1.208,0.353 -2.448,1.221 -2.755,1.928c-0.576,1.321 -5.467,3.376 -6.768,2.843c-1.354,-0.555 0.521,-3.191 2.73,-3.838c1.208,-0.354 2.377,-1.058 2.598,-1.566c0.736,-1.69 -2.474,-2.136 -5.51,-0.765c-2.161,0.975 -3.922,0.843 -6.316,-0.474c-2.676,-1.473 -3.205,-1.459 -2.729,0.071c0.434,1.396 0.105,2.088 -1.245,2.62c-1.419,0.559 -1.745,0.119 -1.437,-1.941c0.234,-1.568 -0.344,-2.816 -1.406,-3.033c-2.746,-0.563 -3.947,1.541 -1.865,3.267c1.016,0.842 3.025,3.627 4.467,6.189c1.441,2.563 4.039,5.622 5.773,6.799c3.364,2.283 5.189,4.798 4.548,6.27c-0.474,1.089 -11.062,1.956 -11.487,0.941c-0.164,-0.394 -1.87,-0.9 -3.79,-1.126c-2.43,-0.285 -3.666,-0.973 -4.067,-2.265c-0.444,-1.428 -1.286,-1.826 -3.661,-1.732c-2.793,0.112 -3.249,0.643 -4.833,5.63c-1.565,4.926 -2.176,5.657 -5.802,6.942l-4.053,1.437l-71.721,-29.048c-65.747,-26.629 -71.824,-29.263 -72.957,-31.625c-1.14,-2.377 -1.346,-2.465 -2.665,-1.136c-1.169,1.179 -3.113,0.752 -10.642,-2.335c-8.355,-3.425 -9.064,-3.917 -7.614,-5.29l-0,0Zm7.723,-1.13c-0.449,-1.073 -0.926,-1.342 -1.213,-0.683c-0.612,1.403 0.129,3.172 1.158,2.767c0.438,-0.173 0.463,-1.11 0.056,-2.084l-0.001,0Zm47.001,-10.208c-0.166,-1.038 -0.763,-1.355 -1.791,-0.95c-0.848,0.334 -1.429,1.308 -1.293,2.165c0.166,1.038 0.763,1.354 1.791,0.95c0.848,-0.334 1.43,-1.308 1.293,-2.165Zm403.749,199.591c0.721,-0.726 1.442,-1.267 1.604,-1.201c0.161,0.066 0.591,1.079 0.955,2.251c0.553,1.778 0.288,1.977 -1.604,1.201c-1.569,-0.643 -1.863,-1.335 -0.955,-2.251Zm-478.29,-208.197c-1.428,-3.508 -2.286,-7.094 -1.905,-7.969c0.381,-0.874 0.355,-2.398 -0.059,-3.385c-0.584,-1.396 -0.342,-1.627 1.092,-1.04c1.013,0.416 2.041,0.299 2.284,-0.259c0.804,-1.846 5.831,-1.684 6.849,0.221c0.506,0.948 1.86,1.754 3.007,1.792c1.865,0.06 1.964,-0.132 0.933,-1.808c-1.021,-1.661 -0.46,-2.557 4.906,-7.844c5.132,-5.056 5.883,-6.214 4.91,-7.573c-0.738,-1.031 2.822,0.017 9.968,2.934c12.221,4.989 12.274,5.069 6.844,10.381c-1.655,1.62 -3.772,3.748 -4.705,4.729c-1.668,1.756 -1.705,1.742 -2.35,-0.873c-0.824,-3.345 -2.562,-2.826 -2.231,0.666c0.359,3.79 0.011,4.189 -6.339,7.265c-3.175,1.539 -5.685,3.353 -5.577,4.031c0.218,1.36 -12.083,6.284 -13.896,5.563c-0.623,-0.249 -2.303,-3.322 -3.731,-6.831l0,0Zm12.061,-3.374c0.62,-0.428 0.611,-0.989 -0.02,-1.248c-0.632,-0.259 -1.354,0 -1.606,0.581c-0.252,0.579 -0.243,1.14 0.02,1.248c0.263,0.108 0.985,-0.154 1.606,-0.581Zm9.33,-8.662c1.471,-2.358 1.451,-2.374 -1.624,-1.333c-1.713,0.58 -3.027,1.603 -2.92,2.274c0.336,2.101 2.99,1.551 4.544,-0.941Zm-2.738,-5.057c0.198,-0.43 -0.127,-0.981 -0.723,-1.226c-0.596,-0.244 -1.54,0.624 -2.098,1.929c-0.82,1.919 -0.681,2.153 0.724,1.226c0.956,-0.631 1.899,-1.499 2.097,-1.929Zm221.216,114.851c1.34,-2.369 2.696,-3.542 3.645,-3.154c0.962,0.395 1.009,2.099 0.129,4.701c-1.191,3.521 -1.692,3.954 -3.644,3.153c-1.968,-0.806 -1.984,-1.421 -0.13,-4.7Zm-36.656,-13.991c-0.925,-1.684 -1.284,-3.219 -0.798,-3.412c1.392,-0.552 5.599,4.48 4.972,5.946c-0.802,1.873 -2.229,1.007 -4.174,-2.534Zm-195.737,-108.79c-0.389,-2.428 1.913,-2.993 5.762,-1.416c3.007,1.233 3.552,1.937 2.814,3.633c-0.611,1.402 -1.638,1.807 -3.084,1.214c-1.192,-0.489 -1.936,-1.42 -1.653,-2.069c0.369,-0.848 -0.067,-1.01 -1.552,-0.576c-1.412,0.414 -2.136,0.165 -2.287,-0.786Zm-1.558,-7.695c-0.816,-1.951 0.34,-2.779 2.591,-1.856c1.262,0.517 1.829,1.4 1.286,1.999c-1.198,1.32 -3.297,1.243 -3.877,-0.143Zm36.898,-61.5c-4.709,-4.19 -8.873,-14.107 -9.712,-23.131c-0.831,-8.944 1.167,-26.152 3.904,-33.626c1.124,-3.068 1.932,-6.276 1.795,-7.128c-0.136,-0.853 1.283,-4.725 3.153,-8.606c1.87,-3.88 3.548,-8.489 3.728,-10.242c0.292,-2.85 0.54,-3.028 2.342,-1.684c1.109,0.827 1.797,2.047 1.53,2.71c-0.267,0.663 0.406,0.554 1.497,-0.241c1.091,-0.795 2.175,-2.645 2.409,-4.111c0.334,-2.09 -0.193,-2.794 -2.445,-3.262c-2.551,-0.53 -2.706,-0.946 -1.39,-3.744l1.481,-3.148l0.939,3.081c0.906,2.974 1.035,3.043 3.734,1.983c2.701,-1.061 2.748,-1.179 1.364,-3.454c-3.378,-5.554 0.032,-16.592 9.775,-31.649c5.651,-8.732 8.247,-11.095 10.967,-9.98c2.053,0.842 2.764,-1.252 0.988,-2.91c-1.972,-1.842 0.779,-5.596 9.593,-13.089c19.734,-16.776 41.159,-13.525 46.045,6.987l1.33,5.582l2.219,-3.156c4.525,-6.439 4.646,-6.5 9.198,-4.634l4.309,1.767l-11.599,26.234l-11.599,26.234l-2.819,-0.424c-1.679,-0.253 -3.52,-1.511 -4.555,-3.113c-1.411,-2.183 -1.386,-2.545 0.129,-1.924c1.027,0.421 2.073,0.293 2.325,-0.286c0.252,-0.578 -0.274,-1.351 -1.168,-1.718c-0.894,-0.366 -1.419,-1.14 -1.168,-1.718c0.252,-0.578 1.19,-0.752 2.084,-0.385c0.894,0.366 1.916,0.001 2.27,-0.813c0.402,-0.923 -0.196,-1.597 -1.59,-1.793c-1.797,-0.253 -2.032,-1.121 -1.2,-4.438c1.119,-4.456 4.437,-7.583 6.251,-5.89c1.646,1.537 3.41,-0.172 2.307,-2.236c-0.722,-1.351 -1.455,-1.534 -3.007,-0.753c-2.905,1.461 -3.417,0.974 -3.492,-3.317c-0.12,-6.849 -3.558,-13.811 -7.646,-15.481c-9.467,-3.869 -18.462,1.98 -29.678,19.297c-5.566,8.593 -7.054,10.252 -8.624,9.61c-2.249,-0.919 -2.518,-0.503 -2.101,3.25c0.182,1.636 -1.718,7.773 -4.488,14.5c-7.834,19.022 -13.584,34.45 -13.36,35.847c0.114,0.718 -0.509,1.296 -1.386,1.284c-1.211,-0.017 -1.33,0.43 -0.497,1.855c0.829,1.419 0.709,1.873 -0.489,1.857c-2.18,-0.03 -3.287,2.877 -1.122,2.947c1.091,0.035 1.564,1.121 1.276,2.926c-0.252,1.578 -0.488,3.707 -0.523,4.733c-0.043,1.251 -1.432,1.967 -4.226,2.177c-3.37,0.254 -4.043,0.698 -3.536,2.33c0.54,1.738 1.036,1.931 3.598,1.398c4.171,-0.868 5.091,-0.202 3.023,2.191c-0.979,1.132 -1.256,1.868 -0.615,1.635c0.641,-0.233 2.206,1.664 3.478,4.214c6.313,12.664 21.541,8.202 34.993,-10.253c2.935,-4.028 5.518,-7.413 5.737,-7.522c0.22,-0.11 1.852,1.387 3.625,3.325l3.226,3.525l-3.418,5.895c-5.106,8.807 -16.244,22.642 -22.089,27.438c-13.631,11.187 -26.722,12.262 -37.08,3.047l-0,-0Zm2.63,-60.625c0.256,-0.588 1.419,-1.298 2.583,-1.577c1.301,-0.313 2.259,-1.494 2.485,-3.064c0.329,-2.289 0.012,-2.549 -3.043,-2.501c-6.07,0.097 -7.155,0.953 -6.864,5.415c0.209,3.22 0.661,3.884 2.316,3.399c1.132,-0.331 2.267,-1.083 2.523,-1.672Zm9.183,6.654c0.577,-0.398 0.683,-1.224 0.236,-1.836c-0.448,-0.611 -1.136,-0.374 -1.528,0.528c-0.805,1.847 -0.273,2.386 1.292,1.308Zm71.872,-43.196c0.392,-0.902 0.089,-1.546 -0.676,-1.431c-0.764,0.115 -1.3,0.765 -1.191,1.444c0.293,1.839 1.062,1.834 1.867,-0.013Zm-38.21,-49.092c0.087,-2.526 -0.628,-2.517 -1.734,0.022c-0.518,1.191 -0.354,2.077 0.365,1.969c0.719,-0.108 1.335,-1.004 1.369,-1.991l-0,0Zm31.38,-10.024c0.62,-0.427 0.64,-0.977 0.044,-1.221c-0.596,-0.244 -1.591,-0.095 -2.212,0.333c-0.62,0.427 -0.64,0.977 -0.044,1.221c0.597,0.244 1.592,0.095 2.212,-0.333Zm168.172,257.656c-0.751,-0.695 -1.477,-2.064 -1.613,-3.042c-0.135,-0.978 -1.382,-2.244 -2.77,-2.813c-3.339,-1.369 -4.511,-4.961 -2.026,-6.211c2.423,-1.219 1.706,-2.573 -2.304,-4.346l-3.303,-1.46l3.672,0.368c3.287,0.33 15.763,6.06 16.384,7.525c0.136,0.321 -0.587,1.003 -1.607,1.516c-1.02,0.513 -1.656,1.457 -1.414,2.097c0.242,0.64 -1.983,-0.203 -4.943,-1.874c-3.468,-1.956 -5.552,-2.649 -5.857,-1.949c-0.261,0.599 1.248,1.794 3.353,2.657c2.403,0.985 3.804,2.252 3.765,3.402c-0.075,2.167 3.571,3.868 8.542,3.987l3.558,0.085l-2.031,-2.171c-1.535,-1.641 -1.632,-2.751 -0.398,-4.545c0.898,-1.305 1.64,-4.224 1.649,-6.486c0.01,-2.262 0.539,-5.311 1.177,-6.775c1.01,-2.32 1.627,-2.471 4.792,-1.174c8.447,3.463 19.003,-2.463 29.124,-16.349c2.936,-4.027 5.518,-7.412 5.738,-7.522c0.22,-0.109 1.811,1.343 3.536,3.228c3.636,3.973 3.446,4.699 -4.104,15.667c-8.059,11.709 -13.143,17.365 -14.945,16.626c-0.877,-0.36 -1.786,-0.215 -2.019,0.321c-0.234,0.536 -1.372,0.841 -2.531,0.677c-1.585,-0.223 -1.516,-0.019 0.28,0.826c2.94,1.382 2.7,1.98 -2.187,5.444c-8.453,5.992 -18.793,8.625 -20.599,5.244c-1.033,-1.933 -5.103,-2.491 -4.81,-0.659c0.206,1.29 -3.903,-0.253 -6.109,-2.294l0,0Zm31.159,-12.889c0.361,-0.829 1.762,-1.408 3.114,-1.286c2.009,0.181 5.344,-3.386 3.77,-4.032c-1.26,-0.516 -9.942,3.723 -9.774,4.773c0.3,1.877 2.158,2.226 2.89,0.545Zm-229.985,-81.97c3.478,-7.987 4.105,-8.851 5.892,-8.118c4.839,1.984 7.121,-0.693 26.835,-31.483c10.447,-16.317 19.088,-29.8 19.202,-29.964c0.114,-0.164 0.587,0.222 1.053,0.858c0.465,0.636 2.176,1.357 3.802,1.601c2.343,0.353 2.915,-0.014 2.762,-1.773c-0.134,-1.53 0.934,-3.093 3.445,-5.044c2.002,-1.555 3.415,-2.311 3.14,-1.682c-0.484,1.112 -14.98,24.334 -19.175,30.72l-2.085,3.173l10.345,4.241c9.129,3.742 10.44,4.024 11.151,2.402c1.285,-2.938 18.523,-66.262 18.589,-68.288c0.032,-1.009 -3.544,3.908 -7.947,10.928c-7.55,12.036 -8.286,12.864 -12.927,14.54c-2.707,0.978 -5.895,2.489 -7.085,3.359c-1.96,1.433 -2.026,1.259 -0.708,-1.85c1.077,-2.538 1.935,-3.234 3.298,-2.676c1.433,0.588 1.676,0.357 1.092,-1.039c-0.997,-2.383 1.276,-7.423 3.743,-8.302c1.082,-0.385 2.348,-2.123 2.813,-3.862c0.465,-1.739 6.896,-12.669 14.289,-24.287l13.443,-21.126l10.071,4.129c9.698,3.975 10.036,4.217 9.121,6.527c-0.522,1.32 -1.24,3.674 -1.595,5.233c-1.998,8.781 -16.507,62.517 -17.489,64.773c-0.642,1.475 -1.953,2.992 -2.913,3.37c-2.062,0.812 -2.511,4.768 -0.507,4.466c0.757,-0.114 1.065,0.507 0.685,1.38c-0.38,0.873 -1.673,1.693 -2.873,1.822c-1.492,0.161 -1.897,0.626 -1.279,1.47c0.497,0.679 1.122,0.734 1.389,0.121c0.267,-0.612 0.943,-0.926 1.502,-0.697c0.56,0.23 0.405,2.738 -0.344,5.573c-1.012,3.829 -1.85,5.235 -3.258,5.462c-1.552,0.25 -1.591,0.435 -0.213,1.015c1.366,0.575 0.457,5.29 -4.818,24.999c-5.572,20.819 -6.289,24.687 -5.016,27.068c0.818,1.528 2.164,3.056 2.992,3.395c1.165,0.478 0.64,2.607 -2.322,9.407l-3.827,8.79l-9.153,-3.932c-8.204,-3.524 -9.224,-4.253 -9.837,-7.027c-0.649,-2.934 -0.802,-3.028 -2.932,-1.79c-1.236,0.718 -2.174,1.76 -2.085,2.315c0.088,0.555 -3.282,-0.402 -7.49,-2.127l-7.651,-3.136l3.893,-8.939l3.892,-8.938l4.281,1.755c5.883,2.411 7.116,1.142 10.179,-10.473c1.408,-5.341 2.705,-10.07 2.881,-10.509c0.176,-0.439 -2.01,-1.754 -4.858,-2.921c-2.848,-1.168 -5.888,-3.221 -6.755,-4.563c-1.588,-2.457 -6.42,-3.967 -7.172,-2.241c-0.222,0.511 -2.111,0.229 -4.198,-0.626c-2.649,-1.086 -4,-1.079 -4.48,0.022c-0.378,0.868 -1.401,1.285 -2.274,0.927c-1.997,-0.819 -5.243,1.669 -6.778,5.195c-0.646,1.484 -1.663,2.498 -2.259,2.254c-0.596,-0.244 -1.312,0.08 -1.591,0.721c-0.313,0.719 0.642,1.339 2.489,1.617c2.746,0.413 2.87,0.743 1.477,3.941c-1.919,4.408 -0.969,6.691 3.559,8.547l3.577,1.466l-7.785,17.877l-13.548,-5.554l-13.548,-5.553l3.893,-8.939l-0,0Zm47.908,25.32c1.594,0.597 4.449,0.641 6.344,0.099c3.342,-0.957 3.41,-1.068 2.282,-3.712c-1.124,-2.634 -1.253,-2.669 -3.854,-1.04c-1.48,0.927 -3.341,1.419 -4.134,1.094c-1.949,-0.799 -7.951,-0.588 -8.335,0.293c-0.169,0.389 0.841,1.039 2.245,1.444c1.405,0.406 3.858,1.226 5.452,1.822l-0,-0Zm-25.434,-25.844c0.07,-2.047 -1.569,-3.486 -2.233,-1.96c-0.446,1.023 0.906,4.464 1.64,4.175c0.288,-0.114 0.555,-1.11 0.593,-2.215Zm71.455,-106.782c2.365,-2.942 3.403,-5.077 3.225,-6.632c-0.222,-1.946 -0.609,-1.794 -2.558,1.002c-1.263,1.812 -3.27,4.113 -4.461,5.112c-2.347,1.972 -3.169,6.452 -1.001,5.458c0.72,-0.331 2.878,-2.553 4.795,-4.94Zm13.55,-14.315c0.019,-0.981 -0.346,-0.837 -0.932,0.366c-0.53,1.09 -0.544,1.816 -0.032,1.614c0.513,-0.202 0.946,-1.093 0.964,-1.981l-0,0.001Zm-3.011,-1.751c-0.208,-0.497 -1.127,-0.918 -2.041,-0.935c-1.011,-0.019 -0.863,0.336 0.378,0.904c1.122,0.514 1.871,0.528 1.663,0.031l-0,-0Zm-2.029,-6.28c0.252,-0.578 -0.059,-1.263 -0.69,-1.522c-0.631,-0.259 -1.052,0.127 -0.936,0.856c0.117,0.729 0.427,1.414 0.69,1.522c0.263,0.108 0.684,-0.277 0.936,-0.856Zm-16.817,164.752c3.206,-7.361 4.188,-8.817 5.568,-8.252c0.921,0.378 3.378,0.016 5.459,-0.804c3.656,-1.44 4.001,-1.988 10.167,-16.148c5.487,-12.601 6.672,-14.649 8.443,-14.591c1.908,0.062 1.991,-0.128 1.116,-2.562c-0.84,-2.335 0.977,-7.044 16.325,-42.291l17.271,-39.663l-1.536,-3.671c-0.845,-2.02 -2.29,-3.981 -3.211,-4.359c-1.38,-0.565 -0.988,-2.264 2.217,-9.625l3.892,-8.939l3.794,1.555c4.39,1.8 4.144,3.536 -1.226,8.642c-2.28,2.168 -2.916,3.293 -2.058,3.645c0.812,0.332 0.474,1.691 -0.978,3.936c-1.22,1.886 -1.762,3.616 -1.203,3.845c0.559,0.229 1.331,-0.309 1.717,-1.194c0.386,-0.886 1.537,-1.584 2.559,-1.551c1.636,0.053 1.824,-0.375 1.567,-3.58c-0.242,-3.029 0.229,-4.222 2.805,-7.095l3.096,-3.454l10.696,4.03l10.696,4.03l-1.108,2.999c-0.609,1.649 -1.712,4.145 -2.451,5.546c-0.897,1.699 -0.843,2.227 0.162,1.587c0.958,-0.611 0.455,5.49 -1.386,16.783c-1.59,9.758 -3.034,18.73 -3.209,19.936c-0.204,1.408 -0.635,1.76 -1.205,0.982c-0.509,-0.695 -1.202,-0.486 -1.627,0.49c-0.408,0.936 -0.122,1.609 0.635,1.495c0.757,-0.114 1.291,0.49 1.187,1.343c-0.104,0.852 -0.514,4.467 -0.909,8.034c-0.702,6.32 -0.794,6.502 -3.664,7.203c-2.216,0.541 -2.767,1.143 -2.226,2.436c0.395,0.944 1.476,1.741 2.401,1.771c1.064,0.034 1.492,1.273 1.162,3.362c-0.287,1.819 -2.53,16.147 -4.986,31.84l-4.465,28.533l12.567,-28.31c6.912,-15.57 13.235,-30.059 14.05,-32.197c1.367,-3.584 1.763,-3.816 5.091,-2.977c3.303,0.832 3.464,1.095 1.903,3.105c-1.854,2.388 -1.012,3.351 1.92,2.196c1.439,-0.567 -3.055,10.535 -20.222,49.959l-22.071,50.687l-6.286,-2.577c-3.541,-1.452 -6.664,-3.408 -7.15,-4.48c-0.691,-1.523 -1.078,-1.681 -1.933,-0.793c-1.478,1.536 -3.27,0.555 -5.283,-2.894c-1.483,-2.541 -0.313,-11.225 8.976,-66.624l10.682,-63.702l-20.958,47.94c-20.53,46.961 -20.937,48.016 -19.919,51.632c0.572,2.03 1.736,3.977 2.587,4.326c1.219,0.499 0.722,2.53 -2.345,9.573l-3.892,8.938l-13.548,-5.554l-13.548,-5.553l3.892,-8.939l0,0Zm66.635,33.034c1.413,-0.974 -2.021,-3.289 -6.005,-4.046l-3.361,-0.64l3.495,2.242c1.922,1.233 3.804,2.442 4.183,2.687c0.378,0.245 1.138,0.135 1.688,-0.243Zm-14.689,-9.39c-0.208,-0.497 -1.126,-0.918 -2.041,-0.934c-1.011,-0.019 -0.862,0.335 0.378,0.903c1.123,0.514 1.871,0.528 1.663,0.031l0,0Zm23.723,-3.818c0.134,-0.308 0.252,-2.58 0.262,-5.05c0.011,-2.469 0.682,-5.243 1.493,-6.164c2.254,-2.56 -1.177,-3.318 -5.218,-1.153c-4.157,2.227 -4.455,2.801 -3.656,7.053c0.423,2.252 1.621,3.719 3.749,4.591c1.719,0.705 3.236,1.03 3.37,0.723Zm-3.972,-8.478c0.267,-0.613 0.845,-0.622 1.286,-0.019c0.44,0.602 0.71,1.303 0.599,1.558c-0.111,0.255 -0.69,0.263 -1.286,0.019c-0.596,-0.245 -0.866,-0.946 -0.599,-1.558Zm17.72,-145.936c-0.258,-1.963 -0.45,-2.095 -1.072,-0.739c-0.806,1.757 -0.361,3.819 0.731,3.388c0.361,-0.142 0.514,-1.334 0.341,-2.649Zm0.307,-3.995c0.251,-0.578 0.242,-1.139 -0.02,-1.247c-0.263,-0.108 -0.986,0.154 -1.606,0.581c-0.62,0.427 -0.611,0.989 0.02,1.247c0.631,0.259 1.354,0 1.606,-0.581l-0,0Zm73.935,205.672c3.538,-8.125 4.082,-8.86 5.981,-8.082c1.149,0.471 3.643,0.024 5.542,-0.994c3.272,-1.753 4.02,-3.151 14.29,-26.736c8.035,-18.453 11.346,-25.109 12.808,-25.747c1.577,-0.689 1.636,-0.823 0.293,-0.674c-1.106,0.123 -1.356,-0.551 -0.735,-1.979c0.671,-1.539 1.65,-1.881 3.389,-1.181c1.815,0.73 2.163,0.589 1.351,-0.547c-0.601,-0.842 -0.573,-1.889 0.064,-2.328c0.637,-0.438 0.631,-1.246 -0.013,-1.795c-0.881,-0.751 1.567,-7.658 9.907,-27.957c6.092,-14.828 11.029,-27.983 10.972,-29.234c-0.058,-1.251 -1.388,-3.12 -2.957,-4.155c-2.73,-1.802 -2.743,-2.129 -0.301,-7.738l2.55,-5.857l1.115,4.5c0.613,2.475 1.103,6.131 1.089,8.123c-0.015,1.993 0.421,3.807 0.968,4.031c0.547,0.224 3.792,-0.586 7.211,-1.801l6.217,-2.208l-3.079,-6.578c-1.694,-3.618 -2.896,-6.999 -2.672,-7.515c0.225,-0.515 8.2,2.308 17.724,6.274c10.34,4.306 16.893,7.501 16.269,7.931c-0.576,0.397 0.169,1.219 1.655,1.828c2.127,0.872 2.52,1.759 1.847,4.166l-0.854,3.057l2.367,-2.212c1.841,-1.72 3.796,-1.982 8.806,-1.176c11.643,1.873 11.549,0.624 1.807,23.907c-5.879,14.051 -8.877,20.202 -9.686,19.87c-0.644,-0.264 -0.663,-0.829 -0.043,-1.257c1.905,-1.312 0.948,-3.635 -1.236,-2.996c-1.554,0.455 -1.817,1.664 -1.384,6.374c0.294,3.197 0.449,6.007 0.346,6.245c-0.103,0.237 -2.297,-0.482 -4.875,-1.598l-4.687,-2.03l2.879,-8.351c3.254,-9.438 3.718,-14.033 1.902,-18.816c-1.135,-2.99 -2.259,-3.714 -11.903,-7.668l-10.65,-4.365l-19.69,45.219l4.391,1.8c3.929,1.61 4.701,1.504 7.352,-1.016c1.628,-1.549 5.012,-6.575 7.518,-11.17l4.557,-8.355l3.679,1.508l3.679,1.509l-8.195,18.018c-7.59,16.686 -8.337,17.947 -10.098,17.052c-1.159,-0.588 -1.924,-0.351 -1.957,0.605c-0.03,0.864 -1.258,2.304 -2.73,3.2c-3.387,2.06 -2.657,5.227 0.96,4.168c3.039,-0.89 3.716,1.004 1.018,2.845c-1.65,1.125 -1.889,1.699 -1.047,2.515c0.6,0.581 -0.152,0.61 -1.67,0.063c-2.536,-0.914 -2.656,-0.818 -1.47,1.183c0.961,1.622 0.75,2.949 -0.827,5.199c-1.369,1.954 -1.686,3.197 -0.898,3.521c0.7,0.287 0.44,2.291 -0.612,4.706c-1.825,4.191 -1.847,4.2 -6.074,2.467l-4.243,-1.739l2.843,-8.439c1.564,-4.642 3.09,-10.569 3.391,-13.172c0.5,-4.317 0.204,-4.908 -3.374,-6.725l-3.922,-1.993l-11.476,26.354l-11.475,26.353l8.742,3.584c11.478,4.705 15.971,4.336 22.384,-1.836c2.825,-2.719 3.049,-2.747 2.937,-0.366c-0.083,1.776 0.539,2.598 2.003,2.645c1.75,0.057 1.808,0.528 0.33,2.677c-0.988,1.435 -1.43,2.465 -0.984,2.289c0.446,-0.175 1.236,0.476 1.755,1.449c0.755,1.412 1.222,1.129 2.327,-1.408c0.986,-2.265 0.747,-4.448 -0.833,-7.619c-2.423,-4.861 -2.408,-4.913 5.881,-20.036c3.951,-7.208 4.08,-7.32 6.851,-5.934c1.553,0.776 3.533,1.305 4.399,1.175c0.867,-0.131 1.67,0.355 1.786,1.078c0.115,0.724 -3.834,9.685 -8.776,19.913c-8.57,17.737 -9.059,18.512 -10.555,16.715c-2.387,-2.866 -3.783,-1.997 -4.947,3.081l-1.058,4.615l-3.081,-2.092l-3.081,-2.092l1.388,3.72c0.763,2.046 0.809,4.119 0.101,4.607c-0.742,0.511 -0.631,1.058 0.262,1.291c3.001,0.785 4.265,1.826 3.149,2.595c-0.62,0.427 -0.611,0.988 0.02,1.247c0.632,0.259 0.53,1.89 -0.226,3.625l-1.373,3.155l-33.599,-13.773l-33.599,-13.773l3.892,-8.939l0.001,0Zm75.578,34.7c2.893,-6.643 4.944,-6.889 6.66,-0.798c0.576,2.044 1.483,3.544 2.016,3.334c0.533,-0.209 0.686,-1.293 0.338,-2.408c-0.489,-1.574 -0.272,-2.001 0.969,-1.91c1.286,0.094 1.457,-0.345 0.873,-2.241c-0.399,-1.297 -1.398,-2.634 -2.219,-2.971c-3.412,-1.398 1.805,-5.235 6.807,-5.005c1.033,0.048 1.406,-0.151 0.83,-0.441c-0.683,-0.343 4.468,-12.913 14.772,-36.048l15.819,-35.522l3.108,1.453c3.677,1.72 5.177,0.322 2.604,-2.426c-2.007,-2.144 -1.676,-7.84 0.447,-7.679c0.73,0.055 1.521,-1.107 1.757,-2.584c0.236,-1.476 1.123,-2.789 1.973,-2.917c1.135,-0.171 1.374,-0.779 0.901,-2.297c-0.419,-1.349 -0.118,-2.27 0.871,-2.66c2.08,-0.819 3.623,-7.156 2.09,-8.587c-0.893,-0.834 -0.344,-3.242 1.929,-8.462c2.763,-6.345 2.977,-7.776 1.641,-10.968c-0.845,-2.02 -2.29,-3.981 -3.211,-4.359c-1.38,-0.565 -0.988,-2.264 2.217,-9.625l3.892,-8.939l10.08,4.132c10.29,4.219 12.668,6.294 10.136,8.848c-0.898,0.906 -0.802,1.276 0.288,1.112c0.9,-0.135 1.846,-1.093 2.103,-2.13c0.394,-1.59 1.716,-1.435 8.475,0.992l8.008,2.875l-3.928,9.022c-3.13,7.188 -4.248,8.89 -5.503,8.376c-2.951,-1.21 -7.869,-0.48 -10.083,1.495c-2.005,1.79 -18.738,38.852 -44.006,97.475l-7.377,17.115l9.283,3.806c5.107,2.093 10.439,3.702 11.85,3.577c3.246,-0.29 9.41,-5.279 12.718,-10.295c1.4,-2.121 3.981,-4.728 5.736,-5.792c2.46,-1.492 3.024,-2.346 2.46,-3.723c-0.565,-1.378 -0.101,-1.934 2.028,-2.431c2.586,-0.603 2.635,-0.695 0.785,-1.453c-1.679,-0.689 -1.617,-1.36 0.414,-4.478c1.314,-2.017 2.652,-4.257 2.973,-4.978c0.669,-1.497 4.906,-0.035 6.545,2.257c1.111,1.554 -5.05,15.279 -22.009,49.032l-5.809,11.561l-32.385,-13.276l-32.385,-13.275l2.518,-5.784l0.001,0Zm83.53,-24.626c0.252,-0.578 0.243,-1.14 -0.02,-1.247c-0.263,-0.108 -0.986,0.153 -1.606,0.581c-0.62,0.427 -0.611,0.989 0.02,1.247c0.631,0.259 1.354,0 1.606,-0.581l-0,0Zm5.251,-0.326c0.252,-0.578 -0.03,-1.251 -0.626,-1.496c-0.596,-0.244 -1.29,0.029 -1.542,0.608c-0.252,0.578 0.03,1.251 0.626,1.496c0.596,0.244 1.29,-0.029 1.542,-0.608Zm-2.14,-109.485c0.572,-1.313 -3.314,-8.365 -6.165,-11.187c-3.34,-3.307 -5.013,-2.829 -5.727,1.636c-0.364,2.277 0.007,2.831 1.772,2.641c1.556,-0.168 3.134,0.842 5.202,3.329c3.108,3.737 4.431,4.7 4.918,3.581Zm13.777,-0.761c-0.193,-0.461 -1.208,-0.496 -2.256,-0.079c-1.515,0.603 -1.443,0.774 0.35,0.837c1.241,0.043 2.099,-0.298 1.906,-0.759l0,0.001Zm-24.259,162.7c3.538,-8.125 4.082,-8.861 5.981,-8.082c1.149,0.471 3.642,0.024 5.542,-0.994c3.393,-1.818 3.883,-2.834 28.309,-58.726c14.298,-32.719 24.863,-55.821 24.872,-54.391c0.012,1.975 0.395,1.655 1.865,-1.556c1.602,-3.5 1.552,-3.954 -0.374,-3.391c-1.812,0.531 -2.447,0.184 -3.435,-1.876c-0.666,-1.389 -2.027,-2.861 -3.023,-3.269c-1.55,-0.636 -1.251,-2.03 2.081,-9.681l3.892,-8.939l15.716,6.443c11.501,4.714 15.568,6.78 15.166,7.704c-0.427,0.981 -0.138,1.1 1.301,0.533c1.017,-0.401 3.024,-0.247 4.459,0.341c1.953,0.801 2.255,1.426 1.2,2.489c-1.007,1.015 -0.866,1.437 0.493,1.481c1.172,0.038 2.141,1.334 2.524,3.375c0.907,4.828 3.36,5.343 4.846,1.018l1.213,-3.531l10.15,3.825l10.149,3.825l-21.541,49.469l-4.717,-1.933l-4.716,-1.934l2.925,-8.486c3.299,-9.568 3.77,-14.153 1.949,-18.95c-1.136,-2.991 -2.259,-3.714 -11.904,-7.668l-10.649,-4.365l-9.845,22.609l-9.846,22.61l4.391,1.799c3.93,1.611 4.702,1.505 7.352,-1.015c1.629,-1.549 5.012,-6.576 7.518,-11.17l4.557,-8.355l3.654,1.498l3.653,1.497l-2.78,6.385c-2.859,6.567 -5.531,8.798 -8.888,7.422c-2.715,-1.113 -2.775,1.014 -0.127,4.482l2.44,3.197l-4.71,10.815c-2.834,6.509 -5.141,10.638 -5.793,10.371c-0.596,-0.245 -1.437,0.387 -1.869,1.403c-0.67,1.578 -0.532,1.68 0.953,0.7c1.179,-0.778 0.087,2.659 -3.397,10.691l-5.136,11.837l-4.243,-1.74l-4.242,-1.739l2.843,-8.439c1.564,-4.641 3.09,-10.569 3.391,-13.172c0.5,-4.316 0.204,-4.907 -3.374,-6.725l-3.922,-1.992l-7.263,16.678c-4.288,9.848 -7.902,16.931 -8.823,17.294c-0.858,0.338 -3.245,1.99 -5.305,3.672c-4.552,3.717 -5.419,7.319 -2.005,8.336c2.147,0.639 2.198,1.331 0.45,6.109c-2.203,6.021 -1.31,8.758 3.499,10.73c1.675,0.686 2.839,1.721 2.587,2.299c-0.252,0.579 0.068,1.268 0.712,1.531c1.356,0.556 2.938,-5.959 2.121,-8.735c-0.399,-1.355 0.526,-1.333 4.003,0.092c10.567,4.332 18.526,-0.74 28.316,-18.045c3.22,-5.691 6.244,-11.243 6.721,-12.338c0.727,-1.668 1.684,-1.658 5.884,0.064l5.016,2.056l-7.673,15.754c-4.22,8.665 -10.908,22.375 -14.862,30.467l-7.19,14.713l-33.467,-13.719l-33.468,-13.72l3.892,-8.938l0.001,0Zm55.061,11.418c1.136,-0.572 1.557,-1.221 0.952,-1.469c-0.596,-0.244 -2,0.017 -3.12,0.58c-1.136,0.572 -1.557,1.221 -0.952,1.469c0.596,0.244 2,-0.017 3.12,-0.58Zm20.327,-76.014c0.393,-0.902 0.089,-1.546 -0.675,-1.431c-0.764,0.115 -1.301,0.765 -1.192,1.444c0.294,1.839 1.063,1.834 1.867,-0.013Zm-5.36,-36.489c3.026,-0.279 5.81,-0.57 6.184,-0.648c1.22,-0.253 -2.874,-6.168 -5.451,-7.875c-1.381,-0.915 -3.169,-2.282 -3.974,-3.037c-2.286,-2.147 -5.908,3.729 -4.897,7.942c0.979,4.078 1.348,4.242 8.138,3.618Zm6.924,132.63c3.538,-8.125 4.082,-8.86 5.981,-8.082c1.149,0.471 3.643,0.024 5.542,-0.993c3.282,-1.759 4.014,-3.139 14.801,-27.911c8.661,-19.89 11.718,-26.043 12.912,-25.987c1.252,0.059 1.415,-0.317 0.817,-1.876c-0.561,-1.46 2.369,-9.106 11.691,-30.515c11.891,-27.308 12.394,-28.73 11.4,-32.259c-0.572,-2.03 -1.98,-4.077 -3.129,-4.548c-1.901,-0.779 -1.734,-1.671 1.841,-9.881l3.93,-9.025l24.483,10.508c13.465,5.779 25.153,11.224 25.972,12.101c0.836,0.894 1.043,3.671 0.472,6.33c-0.788,3.672 -0.508,5.035 1.245,6.061c1.764,1.031 2.515,0.793 3.41,-1.081c0.631,-1.323 1.136,-1.709 1.122,-0.858c-0.015,0.85 0.492,1.468 1.125,1.372c0.633,-0.095 1.048,0.908 0.922,2.23c-0.126,1.321 0.191,2.574 0.704,2.785c1.617,0.663 0.477,12.735 -2.311,24.459c-2.029,8.534 -5.451,17.726 -14.01,37.633c-10.356,24.087 -11.468,26.252 -13.013,25.305c-0.928,-0.569 -2.209,-0.676 -2.846,-0.237c-0.658,0.454 -0.125,1.221 1.234,1.778c2.353,0.965 2.307,1.142 -2.786,10.873c-5.983,11.429 -15.213,24.473 -21.35,30.172c-7.517,6.98 -20.351,11.402 -23.785,8.197c-0.744,-0.695 -1.235,-0.663 -1.118,0.072c0.327,2.046 -6.91,-1.373 -11.751,-5.551c-3.017,-2.604 -4.809,-3.537 -5.939,-3.092c-1.131,0.445 -0.961,1.269 0.56,2.729c1.55,1.488 -2.761,0.089 -14.919,-4.839l-17.1,-6.931l3.893,-8.938l-0,-0.001Zm50.692,4.013c6.085,-0.542 15.8,-12.293 24.848,-30.055c2.056,-4.037 2.169,-4.079 7.245,-2.741c2.835,0.748 5.825,2.133 6.643,3.077c1.184,1.367 1.683,1.269 2.443,-0.477c0.664,-1.526 -0.026,-3.165 -2.266,-5.383c-1.772,-1.754 -3.063,-4.248 -2.869,-5.543c0.259,-1.736 -0.332,-2.456 -2.255,-2.745c-2.586,-0.389 -2.55,-0.527 4.357,-17.022c12.992,-31.023 16.782,-46.874 12.453,-52.072c-0.935,-1.123 -5.147,-3.455 -9.359,-5.182l-7.658,-3.139l-15.727,36.117c-14.975,34.39 -15.866,36.164 -18.629,37.1c-1.657,0.561 -3.326,0.404 -3.89,-0.366c-0.672,-0.919 -1.008,-0.745 -1.052,0.544c-0.036,1.042 -1.27,2.626 -2.742,3.522c-3.386,2.06 -2.656,5.227 0.961,4.168c3.039,-0.889 3.716,1.004 1.017,2.845c-1.649,1.125 -1.888,1.699 -1.047,2.515c0.6,0.581 -0.151,0.61 -1.67,0.063c-2.536,-0.914 -2.655,-0.818 -1.47,1.183c0.976,1.647 0.755,2.942 -0.903,5.309c-2.016,2.877 -1.98,3.15 0.445,3.368c2.569,0.231 2.527,0.498 -1.512,9.773l-4.152,9.535l7.116,2.918c3.914,1.604 8.267,2.814 9.673,2.689l0,-0.001Zm24.179,-20.488c0.392,-0.901 0.088,-1.545 -0.676,-1.43c-0.764,0.115 -1.3,0.764 -1.192,1.443c0.294,1.84 1.063,1.834 1.868,-0.013Zm11.559,-0.145c0.377,-0.868 -0.03,-1.871 -0.905,-2.23c-0.97,-0.398 -1.617,0.064 -1.655,1.18c-0.035,1.009 0.373,2.012 0.905,2.23c0.532,0.219 1.277,-0.313 1.655,-1.18Zm-5.783,-7.255c0.112,-0.255 -0.158,-0.956 -0.598,-1.558c-0.441,-0.602 -1.019,-0.593 -1.286,0.019c-0.267,0.613 0.002,1.314 0.599,1.558c0.596,0.245 1.174,0.236 1.285,-0.019Zm15.088,-6.222c-1.428,-3.412 -2.72,-3.451 -1.495,-0.044c0.577,1.604 1.368,2.791 1.756,2.637c0.389,-0.153 0.271,-1.32 -0.261,-2.593l-0,-0Zm3.78,-4.392c-0.647,-1.549 -3.316,-1.633 -3.972,-0.126c-0.214,0.49 0.731,1.048 2.098,1.24c1.623,0.229 2.274,-0.159 1.874,-1.114Zm-4.156,-2.638c0.252,-0.578 -0.03,-1.251 -0.626,-1.495c-0.596,-0.245 -1.29,0.029 -1.542,0.607c-0.251,0.578 0.03,1.251 0.626,1.496c0.596,0.244 1.29,-0.029 1.542,-0.608Zm-1.557,-2.614c3.445,-0.211 4.082,-0.626 3.556,-2.317c-0.353,-1.133 -1.4,-2.085 -2.329,-2.115c-0.928,-0.03 -1.397,-0.722 -1.041,-1.537c0.877,-2.016 -0.185,-3.222 -3.215,-3.648c-2.26,-0.318 -2.529,0 -2.474,2.954c0.048,2.638 0.712,6.352 1.221,6.837c0.048,0.045 1.975,-0.033 4.282,-0.174Zm-45.592,-31.5c0.578,-0.397 0.684,-1.223 0.236,-1.835c-0.447,-0.612 -1.135,-0.374 -1.528,0.527c-0.804,1.848 -0.272,2.386 1.292,1.308Zm-338.936,-54.121c-1.251,-2.99 -0.717,-14.018 1.226,-25.32c4.515,-26.263 21.966,-65.499 39.709,-89.279c5.046,-6.763 17.52,-19.464 18.658,-18.997c0.345,0.141 1.106,1.241 1.691,2.443c0.586,1.203 2.702,3.046 4.704,4.097c3.52,1.848 3.704,1.788 5.67,-1.852c1.117,-2.069 1.919,-4.947 1.782,-6.395c-0.342,-3.608 2.134,-2.535 4.747,2.057c1.496,2.629 1.548,3.978 0.217,5.691c-0.959,1.235 -1.648,3.255 -1.531,4.489c0.117,1.234 -0.607,3.436 -1.609,4.892c-1.518,2.206 -2.391,2.421 -5.233,1.289c-3.072,-1.224 -3.282,-1.142 -2.119,0.821c1.228,2.072 1.089,2.366 -2.811,5.935c-8.746,8.003 -15.508,19.5 -27.241,46.32c-11.536,26.368 -14.666,36.343 -15.217,48.5c-0.156,3.457 0.206,8.028 0.805,10.156c0.745,2.643 0.615,3.834 -0.41,3.756c-0.825,-0.063 -1.834,0.652 -2.241,1.588c-0.487,1.117 -1.587,-0.443 -3.207,-4.546c-1.879,-4.763 -2.065,-6.701 -0.78,-8.16c1.131,-1.285 1.188,-1.839 0.172,-1.686c-0.832,0.125 -1.81,0.909 -2.173,1.743c-0.363,0.833 -1.048,1.356 -1.523,1.161c-1.058,-0.433 -2.909,3.868 -2.542,5.905c0.178,0.989 -0.554,0.948 -2.208,-0.124c-1.935,-1.252 -2.49,-1.186 -2.541,0.302c-0.04,1.166 -1.161,2.075 -2.889,2.343l-2.824,0.438l1.772,2.128c1.057,1.268 1.19,2.215 0.331,2.344c-0.793,0.12 -1.866,-0.798 -2.385,-2.039l-0,-0Zm65.923,-121.835c-0.208,-0.498 -1.127,-0.918 -2.041,-0.935c-1.011,-0.019 -0.863,0.336 0.378,0.904c1.123,0.514 1.871,0.528 1.663,0.031l-0,-0Zm-61.49,124.404c0.495,-1.135 6.542,0.01 7.586,1.434c0.414,0.566 -0.346,1 -1.69,0.965c-3.413,-0.088 -6.377,-1.294 -5.896,-2.399l0,0Zm11.462,4.967c-0.854,-2.041 0.48,-2.854 2.617,-1.595c2.793,1.646 2.689,4.596 -0.122,3.444c-1.143,-0.468 -2.265,-1.3 -2.495,-1.849l0,0Zm70.158,-82.262c0.083,-0.818 0.935,-4.099 1.893,-7.293c2.997,-9.995 3.502,-20.681 1.255,-26.536c-1.919,-5.004 -2.448,-5.51 -7.154,-6.861c-4.403,-1.263 -4.87,-1.64 -3.495,-2.819c1.422,-1.219 2.286,-3.258 5.426,-12.801c0.734,-2.234 1.459,-2.571 3.984,-1.853c2.571,0.731 2.993,1.42 2.527,4.134c-0.308,1.792 -0.345,4.018 -0.084,4.947c0.262,0.929 -0.08,2.073 -0.759,2.541c-1.235,0.85 1.392,7.997 3.213,8.744c1.734,0.71 2.955,-0.918 3.295,-4.394c0.573,-5.859 2.051,-10.765 3.112,-10.33c0.56,0.229 1.468,2.602 2.017,5.272l1,4.855l2.257,-3.21c4.566,-6.492 4.685,-6.553 9.191,-4.706l4.263,1.748l-11.399,26.177c-9.972,22.901 -11.649,26.17 -13.392,26.113c-3.372,-0.109 -7.31,-2.162 -7.15,-3.728l-0,0Zm-77.733,-32.72c-0.114,-0.71 -1.038,-1.317 -2.055,-1.35c-1.335,-0.043 -1.517,-0.823 -0.656,-2.801c1.022,-2.345 1.664,-2.549 4.446,-1.409c2.724,1.117 3.07,1.749 2.133,3.9c-1.203,2.764 -3.532,3.764 -3.868,1.66Zm5.675,0.29c0.585,-1.204 0.951,-1.348 0.931,-0.367c-0.017,0.887 -0.451,1.778 -0.963,1.98c-0.512,0.202 -0.498,-0.524 0.032,-1.613l-0,-0Zm-0.989,-21.427c3.544,-8.139 3.768,-9.333 2.377,-12.659c-0.845,-2.019 -2.29,-3.98 -3.212,-4.358c-1.379,-0.565 -0.988,-2.264 2.218,-9.625l3.892,-8.939l13.548,5.554l13.548,5.554l-3.893,8.938c-3.205,7.361 -4.187,8.818 -5.567,8.252c-0.921,-0.377 -3.378,-0.016 -5.459,0.804c-3.168,1.248 -4.227,2.508 -6.504,7.736c-1.995,4.581 -3.223,6.228 -4.608,6.184c-1.04,-0.034 -2.181,0.608 -2.538,1.426c-0.554,1.273 -4.162,1.502 -6.896,0.438c-0.451,-0.175 0.942,-4.363 3.094,-9.305Zm116.144,23.674c0.217,-0.498 -0.061,-3.121 -0.616,-5.83c-1.295,-6.31 0.512,-5.592 3.421,1.36c1.775,4.244 1.85,5.459 0.348,5.701c-2.439,0.393 -3.654,-0.081 -3.153,-1.231Zm-341.395,-207.356c0.8,-1.714 5.437,-4.284 5.869,-3.252c0.512,1.224 -4.098,5.527 -5.365,5.008c-0.611,-0.25 -0.838,-1.04 -0.504,-1.756Zm10.402,-5.65c1.55,-1.71 5.055,-0.606 4.213,1.326c-0.424,0.976 -1.647,1.275 -2.978,0.729c-1.325,-0.543 -1.835,-1.392 -1.235,-2.055Zm338.143,104.311c-0.234,-1.466 2.022,-2.02 2.6,-0.639c0.595,1.423 -0.217,2.769 -1.383,2.292c-0.56,-0.23 -1.108,-0.974 -1.217,-1.653Zm298.12,91.188c-1.006,-1.405 -0.875,-1.623 0.939,-1.564c2.489,0.081 4.265,2.086 2.764,3.12c-1.312,0.904 -2.213,0.526 -3.703,-1.556Z" style="fill:#a00;fill-rule:nonzero;"/></svg>