<?xml version="1.0" encoding="UTF-8" standalone="no"?>
<!DOCTYPE svg PUBLIC "-//W3C//DTD SVG 1.1//EN" "http://www.w3.org/Graphics/SVG/1.1/DTD/svg11.dtd">
<svg width="100%" height="100%" viewBox="0 0 97 65" version="1.1" xmlns="http://www.w3.org/2000/svg" xmlns:xlink="http://www.w3.org/1999/xlink" xml:space="preserve" xmlns:serif="http://www.serif.com/" style="fill-rule:evenodd;clip-rule:evenodd;stroke-linejoin:round;stroke-miterlimit:2;">
    <g transform="matrix(1,0,0,1,-132.004,-252.92)">
        <g transform="matrix(0.68444,0,0,0.74248,58.2893,72.0658)">
            <rect x="118.3" y="248.76" width="123.76" height="75.645" style="fill:rgb(247,70,70);"/>
            <path d="M245.712,248.76C245.712,246.901 244.077,245.393 242.06,245.393L118.3,245.393C116.283,245.393 114.647,246.901 114.647,248.76L114.647,324.405C114.647,326.265 116.283,327.772 118.3,327.772L242.06,327.772C244.077,327.772 245.712,326.265 245.712,324.405L245.712,248.76ZM242.06,248.76L118.3,248.76L118.3,324.405L242.06,324.405L242.06,248.76Z" style="fill:rgb(247,70,70);"/>
        </g>
        <g transform="matrix(1,0,0,1,180.18,260.589)">
            <path d="M0,48.705C-13.447,48.705 -24.354,37.8 -24.354,24.353C-24.354,10.906 -13.447,0.002 0,0.001C13.447,0.001 24.354,10.906 24.354,24.353C24.354,37.8 13.447,48.705 0,48.705M0,-1.245C-14.136,-1.244 -25.598,10.218 -25.598,24.353C-25.598,38.488 -14.136,49.95 0,49.95C14.136,49.95 25.598,38.488 25.598,24.353C25.598,10.218 14.136,-1.245 0,-1.245" style="fill:rgb(247,137,137);fill-rule:nonzero;"/>
        </g>
        <g transform="matrix(1,0,0,1,180.18,257.601)">
            <path d="M0,54.682C-15.099,54.681 -27.341,42.439 -27.341,27.341C-27.341,12.243 -15.099,-0.001 0,-0.001C15.099,-0.001 27.341,12.243 27.341,27.341C27.341,42.439 15.099,54.682 0,54.682M41.751,-4.681L-41.751,-4.681C-45.287,-4.681 -48.176,-1.792 -48.176,1.743L-48.176,52.939C-48.176,56.472 -45.287,59.363 -41.751,59.363L41.751,59.363C45.283,59.363 48.176,56.472 48.176,52.939L48.176,1.743C48.176,-1.791 45.283,-4.681 41.751,-4.681" style="fill:rgb(38,82,154);fill-rule:nonzero;"/>
        </g>
        <g transform="matrix(1,0,0,1,155.68,271.763)">
            <path d="M0,1.108L-1.197,-2.807L-2.374,1.108L0,1.108ZM-0.671,6.888L-0.671,4.514L1.051,4.514L0.669,3.283L-3.046,3.283L-3.425,4.514L-2.012,4.514L-2.012,6.888L-7.774,6.888L-7.774,4.514L-6.542,4.514L-4.097,-3.442L-4.84,-3.442L-4.84,-5.78L2.119,-5.78L5.328,4.514L6.595,4.514L6.595,6.888L-0.671,6.888Z" style="fill:white;fill-rule:nonzero;"/>
        </g>
        <g transform="matrix(1,0,0,1,168.531,268.393)">
            <path d="M0,7.848C1.92,7.812 2.717,6.018 2.717,3.752C2.717,1.814 1.92,-0.017 0,-0.017L-0.689,-0.017L-0.689,7.848L0,7.848ZM-5.529,7.848L-4.404,7.848L-4.404,-0.017L-5.529,-0.017L-5.529,-2.41L0,-2.41C4.384,-2.41 6.885,0.29 6.885,3.752C6.885,7.884 4.384,10.258 -0.074,10.258L-5.529,10.258L-5.529,7.848Z" style="fill:white;fill-rule:nonzero;"/>
        </g>
        <g transform="matrix(1,0,0,1,188.63,275.463)">
            <path d="M0,-6.29C-0.145,-5.475 -0.399,-4.278 -0.525,-3.861L-2.429,3.189L-6.216,3.189L-8.246,-4.042C-8.337,-4.351 -8.572,-5.384 -8.627,-6.29L-8.699,-6.29L-8.699,0.851L-7.666,0.851L-7.666,3.189L-12.578,3.189L-12.578,0.851L-11.599,0.851L-11.599,-7.142L-12.56,-7.142L-12.56,-9.479L-5.69,-9.479L-3.861,-2.701L-2.121,-9.479L4.785,-9.479L4.785,-7.142L3.787,-7.142L3.787,0.833L4.785,0.833L4.785,3.189L-0.942,3.189L-0.942,0.833L0.072,0.833L0.072,-6.29L0,-6.29Z" style="fill:white;fill-rule:nonzero;"/>
        </g>
        <g transform="matrix(1,0,0,1,200.339,278.651)">
            <path d="M0,-12.668L0,-10.275L-1.123,-10.275L-1.123,-2.41L0,-2.41L0,0L-6.016,0L-6.016,-2.41L-4.875,-2.41L-4.875,-10.275L-6.016,-10.275L-6.016,-12.668L0,-12.668Z" style="fill:white;fill-rule:nonzero;"/>
        </g>
        <g transform="matrix(1,0,0,1,213.226,273.938)">
            <path d="M0,-3.242L-2.664,-3.242L-2.664,-5.562L-4.186,-5.562L-4.186,2.303L-2.682,2.303L-2.682,4.713L-9.423,4.713L-9.423,2.303L-7.937,2.303L-7.937,-5.562L-9.497,-5.562L-9.497,-3.242L-12.161,-3.242L-12.161,-7.955L0,-7.955L0,-3.242Z" style="fill:white;fill-rule:nonzero;"/>
        </g>
        <g transform="matrix(1,0,0,1,160.99,292.473)">
            <path d="M0,0.246C0,-3.472 -1.014,-6.452 -3.379,-6.452C-5.254,-6.483 -6.544,-3.779 -6.544,0.031C-6.544,4.057 -5.1,6.606 -3.133,6.606C-1.198,6.606 0,4.057 0,0.246M-14.134,0.031C-14.134,-6.606 -9.709,-11.185 -3.35,-11.185C4.179,-11.185 7.681,-6.667 7.681,0.246C7.681,7.19 3.81,11.431 -3.133,11.431C-9.557,11.431 -14.134,7.713 -14.134,0.031" style="fill:white;fill-rule:nonzero;"/>
        </g>
        <g transform="matrix(1,0,0,1,191.41,299.388)">
            <path d="M0,-13.552L0,3.963L-6.606,3.963L-14.442,-7.744L-14.442,-0.001L-12.075,-0.001L-12.075,3.963L-21.508,3.963L-21.508,-0.001L-19.696,-0.001L-19.696,-13.552L-21.479,-13.552L-21.479,-17.515L-12.66,-17.515L-5.132,-6.24L-5.132,-13.552L-7.221,-13.552L-7.221,-17.515L2.027,-17.515L2.027,-13.552L0,-13.552Z" style="fill:white;fill-rule:nonzero;"/>
        </g>
        <g transform="matrix(1,0,0,1,213.503,303.351)">
            <path d="M0,-21.478L0,-14.688L-5.315,-14.688L-5.315,-17.422L-10.232,-17.422L-10.232,-13.183L-4.395,-13.183L-4.395,-9.096L-10.232,-9.096L-10.232,-4.087L-5.315,-4.087L-5.315,-6.945L0,-6.945L0,0L-18.527,0L-18.527,-4.087L-16.593,-4.087L-16.593,-17.422L-18.527,-17.422L-18.527,-21.478L0,-21.478Z" style="fill:white;fill-rule:nonzero;"/>
        </g>
    </g>
</svg>
