<svg xmlns="http://www.w3.org/2000/svg" viewBox="0 0 449 373"><defs><style>.cls-1{fill:none;stroke:#f74646;stroke-miterlimit:10;stroke-width:7px;}.cls-2{fill:#f74646;}</style></defs><g id="Layer_2" data-name="Layer 2"><g id="Layer_1-2" data-name="Layer 1"><rect class="cls-1" x="3.5" y="3.5" width="442" height="366"/><path class="cls-2" d="M151.39,73.6v97.26a.87.87,0,0,1-.88.88H88a.87.87,0,0,1-.88-.88V73.6a.06.06,0,0,0-.06-.06H30.1a.89.89,0,0,1-.88-.88V28.88A.88.88,0,0,1,30.1,28h178a.88.88,0,0,1,.88.88V72.66a.89.89,0,0,1-.88.88H151.45A.06.06,0,0,0,151.39,73.6Z"/><path class="cls-2" d="M356,171.12V122.06a.06.06,0,0,0-.06-.06H299.06a.06.06,0,0,0-.06.06v49.06a.87.87,0,0,1-.88.88H235.88a.87.87,0,0,1-.88-.88V28.88a.87.87,0,0,1,.88-.88h62.24a.87.87,0,0,1,.88.88V81.94a.06.06,0,0,0,.06.06h56.88a.06.06,0,0,0,.06-.06V28.88a.87.87,0,0,1,.88-.88h62.24a.87.87,0,0,1,.88.88V171.12a.87.87,0,0,1-.88.88H356.88A.87.87,0,0,1,356,171.12Z"/><path class="cls-2" d="M360.64,246.46v97.26a.87.87,0,0,1-.88.88H297.2a.87.87,0,0,1-.88-.88V246.46a.07.07,0,0,0-.06-.07H239.35a.88.88,0,0,1-.88-.87V201.74a.88.88,0,0,1,.88-.88h178a.88.88,0,0,1,.88.88v43.78a.88.88,0,0,1-.88.87H360.7A.07.07,0,0,0,360.64,246.46Z"/><path class="cls-2" d="M235.62,344.51,167.91,200.89a.07.07,0,0,0-.06,0H63.42a.87.87,0,0,0-.88.88l10.23,34.42,2.84,10.23L30.23,344.51a.06.06,0,0,0,.05.09H85.62a.07.07,0,0,0,.06,0l11.19-24.74a.05.05,0,0,1,0,0h59.5a.07.07,0,0,1,.06,0l9.68,24.23a.87.87,0,0,0,.81.55h68.6A.06.06,0,0,0,235.62,344.51Zm-92-57.76H111.22s-.08,0-.06-.08l17.17-39.27c0-.05.1-.05.11,0l15.24,39.27A.05.05,0,0,1,143.63,286.75Z"/><path class="cls-2" d="M432.84,344.42a14.65,14.65,0,1,1-14.59-14.27A14.31,14.31,0,0,1,432.84,344.42Zm-25.64,0a11,11,0,1,0,22-.52c-.28-6.06-4.81-10.87-10.95-10.87A11.08,11.08,0,0,0,407.2,344.42Zm8.66,7.48h-3.05a.12.12,0,0,1-.12-.12v-14a.12.12,0,0,1,.1-.12,31,31,0,0,1,5.37-.42c2.67,0,3.91.43,4.94,1.06h0a4,4,0,0,1,1.37,3.12c0,1.57-1.21,2.78-2.95,3.29v.19c1.4.51,2.18,1.55,2.61,3.46a13.77,13.77,0,0,0,.94,3.4.13.13,0,0,1-.11.18H421.7a.12.12,0,0,1-.1,0,13.61,13.61,0,0,1-1.1-3.44c-.26-1.57-1.14-2.24-2.95-2.24H416.1a.12.12,0,0,0-.12.12v5.49A.13.13,0,0,1,415.86,351.9Zm.22-8.2a.12.12,0,0,0,.12.12h1.45c1.81,0,3.29-.63,3.29-2.11,0-1.3-.95-2.17-3.05-2.17a7.2,7.2,0,0,0-1.72.17.11.11,0,0,0-.09.12Z"/></g></g></svg>