<svg xmlns="http://www.w3.org/2000/svg" viewBox="0 0 449 373"><defs><style>.cls-1{fill:none;stroke:#fff;stroke-miterlimit:10;stroke-width:7px;}.cls-2{fill:#fff;}</style></defs><g id="Layer_2" data-name="Layer 2"><g id="Layer_1-2" data-name="Layer 1"><rect class="cls-1" x="3.5" y="3.5" width="442" height="366"/><path class="cls-2" d="M151.39,73.6v97.26a.87.87,0,0,1-.88.88H88a.87.87,0,0,1-.88-.88V73.6a.06.06,0,0,0-.06-.06H30.1a.89.89,0,0,1-.88-.88V28.88A.88.88,0,0,1,30.1,28h178a.88.88,0,0,1,.88.88V72.66a.89.89,0,0,1-.88.88H151.45A.06.06,0,0,0,151.39,73.6Z"/><path class="cls-2" d="M356,171.12V122.06a.06.06,0,0,0-.06-.06H299.06a.06.06,0,0,0-.06.06v49.06a.87.87,0,0,1-.88.88H235.88a.87.87,0,0,1-.88-.88V28.88a.87.87,0,0,1,.88-.88h62.24a.87.87,0,0,1,.88.88V81.94a.06.06,0,0,0,.06.06h56.88a.06.06,0,0,0,.06-.06V28.88a.87.87,0,0,1,.88-.88h62.24a.87.87,0,0,1,.88.88V171.12a.87.87,0,0,1-.88.88H356.88A.87.87,0,0,1,356,171.12Z"/><path class="cls-2" d="M360.64,246.46v97.26a.87.87,0,0,1-.88.88H297.2a.87.87,0,0,1-.88-.88V246.46a.07.07,0,0,0-.06-.07H239.35a.88.88,0,0,1-.88-.87V201.74a.88.88,0,0,1,.88-.88h178a.88.88,0,0,1,.88.88v43.78a.88.88,0,0,1-.88.87H360.7A.07.07,0,0,0,360.64,246.46Z"/><path class="cls-2" d="M235.62,344.51,167.91,200.89a.07.07,0,0,0-.06,0H63.42a.87.87,0,0,0-.88.88l10.23,34.42,2.84,10.23L30.23,344.51a.06.06,0,0,0,.05.09H85.62a.07.07,0,0,0,.06,0l11.19-24.74a.05.05,0,0,1,0,0h59.5a.07.07,0,0,1,.06,0l9.68,24.23a.87.87,0,0,0,.81.55h68.6A.06.06,0,0,0,235.62,344.51Zm-92-57.76H111.22s-.08,0-.06-.08l17.17-39.27c0-.05.1-.05.11,0l15.24,39.27A.05.05,0,0,1,143.63,286.75Z"/></g></g></svg>