<?xml version="1.0" encoding="UTF-8" standalone="no"?>
<!DOCTYPE svg PUBLIC "-//W3C//DTD SVG 1.1//EN" "http://www.w3.org/Graphics/SVG/1.1/DTD/svg11.dtd">
<svg width="100%" height="100%" viewBox="0 0 497 126" version="1.1" xmlns="http://www.w3.org/2000/svg" xmlns:xlink="http://www.w3.org/1999/xlink" xml:space="preserve" xmlns:serif="http://www.serif.com/" style="fill-rule:evenodd;clip-rule:evenodd;stroke-linejoin:round;stroke-miterlimit:2;">
    <g transform="matrix(1,0,0,1,-111.757,-169.929)">
        <g id="Slack-CMYK.eps" serif:id="Slack CMYK.eps" transform="matrix(0.24,0,0,0.24,360.257,232.929)">
            <g transform="matrix(1,0,0,1,-1035.42,-262.5)">
                <g transform="matrix(4.16667,0,0,4.16667,0,0)">
                    <path d="M158.763,99.263L164.925,84.886C171.673,89.874 180.477,92.514 189.279,92.514C195.734,92.514 199.843,90.02 199.843,86.206C199.696,75.643 160.964,83.859 160.67,57.303C160.523,43.806 172.554,33.389 189.573,33.389C199.696,33.389 209.819,35.884 217.008,41.606L211.249,56.291C204.635,52.046 196.468,49.087 188.693,49.087C183.41,49.087 179.889,51.581 179.889,54.809C180.036,65.226 219.062,59.504 219.503,84.886C219.503,98.677 207.765,108.359 191.04,108.359C178.716,108.359 167.419,105.426 158.763,99.263Z" style="fill:rgb(35,31,32);fill-rule:nonzero;"/>
                    <path d="M396.718,79.68C393.644,85.108 387.821,88.773 381.136,88.773C371.251,88.773 363.239,80.761 363.239,70.875C363.239,60.99 371.251,52.975 381.136,52.975C387.821,52.975 393.644,56.64 396.718,62.068L413.851,52.577C407.435,41.13 395.193,33.39 381.136,33.39C360.434,33.39 343.652,50.171 343.652,70.875C343.652,91.577 360.434,108.36 381.136,108.36C395.193,108.36 407.435,100.618 413.851,89.172L396.718,79.68Z" style="fill:rgb(35,31,32);fill-rule:nonzero;"/>
                    <rect x="228.14" y="2.187" width="21.421" height="104.705" style="fill:rgb(35,31,32);fill-rule:nonzero;"/>
                    <path d="M422.186,2.187L422.186,106.892L443.607,106.892L443.607,75.522L468.99,106.892L496.369,106.892L464.089,69.626L494.02,34.853L467.816,34.853L443.607,63.761L443.607,2.187L422.186,2.187Z" style="fill:rgb(35,31,32);fill-rule:nonzero;"/>
                    <path d="M313.07,34.856L313.07,43.366C309.549,37.497 300.892,33.39 291.796,33.39C273.017,33.39 258.199,49.969 258.199,70.801C258.199,91.635 273.017,108.36 291.796,108.36C300.892,108.36 309.549,104.251 313.07,98.383L313.07,106.892L334.49,106.892L334.49,34.856L313.07,34.856ZM313.07,79.824C309.988,84.96 303.533,88.773 296.344,88.773C286.459,88.773 278.445,80.761 278.445,70.875C278.445,60.99 286.459,52.975 296.344,52.975C303.533,52.975 309.988,56.937 313.07,62.219L313.07,79.824Z" style="fill:rgb(35,31,32);fill-rule:nonzero;"/>
                    <path d="M26.46,79.695C26.46,87.002 20.537,92.925 13.23,92.925C5.923,92.925 0,87.002 0,79.695C0,72.387 5.923,66.465 13.23,66.465L26.46,66.465L26.46,79.695Z" style="fill:rgb(212,26,105);fill-rule:nonzero;"/>
                    <path d="M33.075,79.695C33.075,72.387 38.999,66.465 46.305,66.465C53.612,66.465 59.536,72.387 59.536,79.695L59.536,112.77C59.536,120.076 53.612,126 46.305,126C38.999,126 33.075,120.076 33.075,112.77L33.075,79.695Z" style="fill:rgb(212,26,105);fill-rule:nonzero;"/>
                    <path d="M46.305,26.774C38.999,26.774 33.075,20.85 33.075,13.544C33.075,6.237 38.999,0.313 46.305,0.313C53.612,0.313 59.536,6.237 59.536,13.544L59.536,26.774L46.305,26.774Z" style="fill:rgb(58,179,227);fill-rule:nonzero;"/>
                    <path d="M46.305,33.389C53.612,33.389 59.536,39.312 59.536,46.619C59.536,53.926 53.612,59.849 46.305,59.849L13.23,59.849C5.923,59.849 0,53.926 0,46.619C0,39.312 5.923,33.389 13.23,33.389L46.305,33.389Z" style="fill:rgb(58,179,227);fill-rule:nonzero;"/>
                    <path d="M99.226,46.619C99.226,39.312 105.15,33.389 112.457,33.389C119.764,33.389 125.687,39.312 125.687,46.619C125.687,53.926 119.764,59.849 112.457,59.849L99.226,59.849L99.226,46.619Z" style="fill:rgb(18,176,115);fill-rule:nonzero;"/>
                    <path d="M92.611,46.619C92.611,53.926 86.688,59.849 79.381,59.849C72.074,59.849 66.15,53.926 66.15,46.619L66.15,13.544C66.15,6.237 72.074,0.313 79.381,0.313C86.688,0.313 92.611,6.237 92.611,13.544L92.611,46.619Z" style="fill:rgb(18,176,115);fill-rule:nonzero;"/>
                    <path d="M79.381,99.54C86.688,99.54 92.611,105.463 92.611,112.77C92.611,120.076 86.688,126 79.381,126C72.074,126 66.15,120.076 66.15,112.77L66.15,99.54L79.381,99.54Z" style="fill:rgb(243,176,33);fill-rule:nonzero;"/>
                    <path d="M79.381,92.925C72.074,92.925 66.15,87.002 66.15,79.695C66.15,72.387 72.074,66.465 79.381,66.465L112.457,66.465C119.764,66.465 125.687,72.387 125.687,79.695C125.687,87.002 119.764,92.925 112.457,92.925L79.381,92.925Z" style="fill:rgb(243,176,33);fill-rule:nonzero;"/>
                </g>
            </g>
        </g>
    </g>
</svg>
