<?xml version="1.0" encoding="UTF-8" standalone="no"?>
<!DOCTYPE svg PUBLIC "-//W3C//DTD SVG 1.1//EN" "http://www.w3.org/Graphics/SVG/1.1/DTD/svg11.dtd">
<svg width="100%" height="100%" viewBox="0 0 1069 809" version="1.1" xmlns="http://www.w3.org/2000/svg" xmlns:xlink="http://www.w3.org/1999/xlink" xml:space="preserve" xmlns:serif="http://www.serif.com/" style="fill-rule:evenodd;clip-rule:evenodd;stroke-linejoin:round;stroke-miterlimit:2;">
    <path d="M557.752,609.415L576.279,569.353L573.457,559.186L560.726,516.363L560.432,514.333C560.437,509.827 564.143,506.121 568.649,506.116L664.328,506.116C664.363,501.923 664.661,497.737 665.218,493.581C668.833,466.81 672.34,461.059 676.908,455.851C679.222,453.18 681.359,450.723 683.424,432.151L687.876,394.599L689.656,393.255C690.173,392.828 703.349,381.788 696.013,355.454C690.983,337.408 690.903,331.104 700.108,326.787C703.105,325.59 705.572,323.351 707.052,320.483C731.66,278.159 723.968,249.929 718.047,237.839C714.888,244.324 710.01,249.822 703.945,253.73C690.467,262.384 678.848,264.52 669.402,260.105C656.939,254.238 649.46,237.999 645.952,209.011C642.276,178.742 600.415,148.419 580.285,133.863C577.294,131.699 574.748,129.865 572.851,128.396C565.48,122.725 545.796,120.464 520.877,117.624C500.4,115.283 474.929,112.371 446.031,106.584C417.827,100.949 398.615,90.666 388.928,76.048C384.979,70.259 382.756,63.465 382.518,56.462C374.862,53.123 373.206,45.422 371.915,38.914C371.087,34.668 370.223,30.27 368.06,25.836C366.992,23.628 366.012,23.566 365.291,23.512C359.834,23.147 348.305,31 337.149,38.594C324.997,46.882 311.207,56.266 296.081,62.587C290.232,64.991 285.647,66.014 281.792,65.952L280.332,55.269L279.548,49.606L277.518,34.783L277.768,40.063C277.314,40.063 231.909,42.733 230.236,67.43C229.737,74.819 229.995,82.565 230.236,90.729C231.055,115.149 231.892,140.388 212.003,157.767C203.545,165.156 194.954,170.391 187.377,175.011C172.047,184.359 164.764,189.354 166.589,200.741C167.898,208.887 170.827,215.439 173.943,222.357C179.285,234.135 185.232,247.48 184.751,271.402C183.994,309.684 190.627,330.383 206.278,338.574C224.226,347.958 286.181,389.916 292.529,414.337C297.719,434.324 320.003,450.206 330.223,453.892C340.444,457.578 343.212,481.624 343.381,506.143L348.314,506.143C352.82,506.148 356.526,509.854 356.531,514.36L356.531,573.341L413.277,573.341L413.277,514.333C413.282,509.827 416.989,506.121 421.495,506.116L499.448,506.116C503.954,506.121 507.66,509.827 507.665,514.333L507.665,611.169L557.752,609.415Z" style="fill:#f74646;fill-rule:nonzero;"/>
    <circle cx="482.773" cy="435.107" r="60.397" style="fill:#26529a;"/>
    <path d="M507.46,438.455L500.053,426.658L502.786,426.658L494.943,414.194L487.1,426.658L489.833,426.658L482.71,437.929L475.633,426.658L478.366,426.658L470.523,414.194L462.679,426.658L465.412,426.658L458.014,438.455L460.738,438.455L453.037,450.794L467.398,450.794L467.398,456.011L473.754,456.011L473.754,450.794L491.774,450.794L491.774,456.011L498.13,456.011L498.13,450.794L512.446,450.794L504.789,438.455L507.46,438.455ZM480.351,438.455L485.203,438.455L482.8,442.301L480.351,438.455Z" style="fill:#fff;fill-rule:nonzero;"/>
    <path d="M447.242,418.628L434.92,430.95L438.348,434.368L447.242,443.262L450.66,439.843L441.766,430.95L450.66,422.047L447.242,418.628Z" style="fill:#fff;fill-rule:nonzero;"/>
    <path d="M530.625,430.95L518.304,418.628L514.885,422.047L523.779,430.95L514.885,439.843L518.304,443.262L527.198,434.368L530.625,430.95Z" style="fill:#fff;fill-rule:nonzero;"/>
    <path d="M165.503,570.047L165.503,691.214C165.503,691.815 165.009,692.309 164.408,692.309L86.473,692.309C85.872,692.309 85.378,691.815 85.378,691.214L85.378,570.047C85.378,570.047 85.378,570.047 85.378,570.047C85.378,570.007 85.346,569.975 85.307,569.975C85.304,569.975 85.301,569.975 85.298,569.976L14.405,569.976C13.826,569.948 13.363,569.469 13.354,568.89L13.354,514.333C13.354,513.733 13.849,513.238 14.449,513.238L236.201,513.238C236.801,513.238 237.296,513.733 237.296,514.333L237.296,568.89C237.291,569.489 236.799,569.98 236.201,569.985L165.592,569.985C165.586,569.983 165.58,569.982 165.574,569.982C165.538,569.982 165.507,570.011 165.503,570.047Z" style="fill:#26529a;fill-rule:nonzero;"/>
    <path d="M421.557,692.309L499.448,692.309C500.048,692.309 500.543,691.815 500.543,691.214L500.543,514.333C500.543,513.733 500.048,513.238 499.448,513.238L421.557,513.238C420.956,513.238 420.462,513.733 420.462,514.333L420.462,580.383C420.462,580.422 420.43,580.454 420.391,580.454L349.551,580.454C349.548,580.455 349.545,580.455 349.542,580.455C349.503,580.455 349.471,580.423 349.471,580.384C349.471,580.384 349.471,580.383 349.471,580.383L349.471,514.333C349.471,513.733 348.977,513.238 348.376,513.238L270.708,513.238C270.109,513.243 269.618,513.734 269.613,514.333L269.613,691.214C269.618,691.813 270.109,692.305 270.708,692.309L348.376,692.309C348.977,692.309 349.471,691.815 349.471,691.214L349.471,630.319C349.471,630.319 349.471,630.319 349.471,630.319C349.471,630.279 349.503,630.247 349.542,630.247C349.545,630.247 349.548,630.248 349.551,630.248L420.391,630.248C420.43,630.248 420.462,630.28 420.462,630.319L420.462,691.214C420.462,691.815 420.956,692.309 421.557,692.309Z" style="fill:#26529a;fill-rule:nonzero;"/>
    <path d="M921.441,570.047L921.441,691.214C921.441,691.812 920.952,692.305 920.355,692.309L842.446,692.309C842.435,692.31 842.423,692.31 842.411,692.31C841.81,692.31 841.316,691.816 841.316,691.215C841.316,691.215 841.316,691.215 841.316,691.214L841.316,570.047C841.316,570.047 841.316,570.047 841.316,570.047C841.316,570.007 841.284,569.975 841.245,569.975C841.242,569.975 841.239,569.975 841.236,569.976L770.378,569.976C769.779,569.971 769.288,569.48 769.283,568.881L769.283,514.333C769.288,513.734 769.779,513.243 770.378,513.238L992.174,513.238C992.775,513.238 993.269,513.733 993.269,514.333L993.269,568.89C993.264,569.489 992.773,569.98 992.174,569.985L921.557,569.985C921.544,569.974 921.528,569.969 921.512,569.969C921.473,569.969 921.441,570.001 921.441,570.04C921.441,570.042 921.441,570.045 921.441,570.047Z" style="fill:#26529a;fill-rule:nonzero;"/>
    <path d="M527.376,692.309L596.31,692.309C596.332,692.322 596.36,692.322 596.382,692.309L610.314,661.479C610.329,661.453 610.356,661.436 610.386,661.434L684.511,661.434C684.543,661.436 684.571,661.457 684.582,661.488L696.636,691.668C696.805,692.08 697.206,692.351 697.651,692.354L783.118,692.354C783.16,692.352 783.194,692.316 783.194,692.274C783.194,692.265 783.192,692.256 783.189,692.247L698.826,513.301C698.804,513.288 698.777,513.288 698.755,513.301L568.649,513.301C568.049,513.301 567.554,513.795 567.554,514.396L580.303,557.28L583.864,570.029L527.331,692.265C527.338,692.286 527.355,692.302 527.376,692.309ZM649.514,571.231C649.536,571.218 649.563,571.218 649.585,571.231C649.607,571.244 649.647,571.231 649.656,571.231L668.646,620.197C668.649,620.205 668.65,620.214 668.65,620.223C668.65,620.266 668.617,620.301 668.574,620.303L628.2,620.303C628.158,620.301 628.124,620.266 628.124,620.223C628.124,620.214 628.126,620.205 628.129,620.197L649.514,571.231Z" style="fill:#26529a;fill-rule:nonzero;"/>
    <path d="M1055.03,530.145C1055.03,530.196 1055.03,530.248 1055.03,530.3C1055.03,540.068 1046.99,548.105 1037.22,548.105C1037.1,548.105 1036.98,548.104 1036.86,548.102C1036.75,548.103 1036.65,548.104 1036.55,548.104C1026.68,548.104 1018.56,540.006 1018.53,530.145C1018.53,520.289 1026.67,512.339 1036.86,512.339C1036.98,512.337 1037.1,512.335 1037.22,512.335C1046.99,512.335 1055.03,520.373 1055.03,530.141C1055.03,530.142 1055.03,530.143 1055.03,530.145ZM1023.08,530.145C1023.08,536.911 1027.38,542.484 1033.67,543.935C1042.63,546.009 1050.91,538.691 1050.49,529.495C1050.14,521.945 1044.51,515.954 1036.86,515.954C1028.93,515.954 1023.08,522.337 1023.08,530.145ZM1033.88,539.457L1030.06,539.457C1029.97,539.457 1029.9,539.389 1029.9,539.306L1029.9,521.803C1029.9,521.732 1029.95,521.668 1030.02,521.651C1032.23,521.287 1034.47,521.115 1036.71,521.135C1040.04,521.135 1041.59,521.678 1042.88,522.453C1044,523.416 1044.63,524.843 1044.59,526.325C1044.59,528.284 1043.08,529.797 1040.91,530.43L1040.91,530.67C1042.69,531.302 1043.58,532.593 1044.17,534.979C1044.37,536.436 1044.76,537.861 1045.33,539.217C1045.34,539.239 1045.35,539.263 1045.35,539.288C1045.35,539.371 1045.28,539.439 1045.2,539.439L1041.1,539.439C1041.06,539.437 1041.02,539.414 1040.99,539.377C1040.47,538.682 1040.14,537.089 1039.62,535.095C1039.28,533.136 1038.2,532.299 1035.94,532.299L1034.16,532.299C1034.16,532.299 1034.15,532.299 1034.15,532.299C1034.07,532.299 1034.01,532.363 1034.01,532.441C1034.01,532.444 1034.01,532.447 1034.01,532.45L1034.01,539.288C1034.01,539.37 1033.96,539.444 1033.88,539.457ZM1034.14,529.237C1034.14,529.32 1034.21,529.388 1034.29,529.388L1036.07,529.388C1038.34,529.388 1040.18,528.604 1040.18,526.77C1040.18,525.141 1039,524.055 1036.38,524.055C1035.65,524.043 1034.93,524.114 1034.23,524.269C1034.16,524.285 1034.12,524.343 1034.12,524.411L1034.14,529.237Z" style="fill:#26529a;fill-rule:nonzero;"/>
    <path d="M228.803,793.182L240.323,793.182L245.795,761.79C246.371,758.238 247.043,752.478 247.523,747.39C247.619,751.806 248.003,755.454 249.059,761.79L254.531,793.182L266.051,793.182L277.667,729.15L266.339,729.15L262.499,757.662C261.923,761.79 261.539,766.974 261.059,776.094C260.195,764.574 260.003,762.654 259.427,759.102L254.339,729.15L242.531,729.15L237.923,757.662C236.867,764.382 236.195,770.334 235.811,776.094C235.523,768.798 235.139,764.67 234.563,759.486L231.011,729.15L217.091,729.15L228.803,793.182Z" style="fill:#26529a;fill-rule:nonzero;"/>
    <path d="M281.795,793.182L294.083,793.182L294.083,745.854L281.795,745.854L281.795,793.182ZM281.795,728.67L281.795,741.726L294.083,741.726L294.083,728.67L281.795,728.67Z" style="fill:#26529a;fill-rule:nonzero;"/>
    <path d="M329.219,757.182C327.107,748.638 322.883,744.894 315.395,744.894C306.467,744.894 300.131,751.038 300.131,759.774C300.131,766.302 303.011,769.95 311.555,774.078C316.163,776.286 316.163,776.286 317.315,777.054C318.755,778.014 319.523,779.358 319.523,781.086C319.523,783.294 317.795,784.734 314.819,784.734C311.171,784.734 309.251,782.91 308.579,778.59L299.075,780.126C300.419,789.438 305.795,794.142 315.011,794.142C324.803,794.142 331.043,788.19 331.043,778.782C331.043,772.542 327.779,767.838 321.443,764.958C315.299,762.174 315.299,762.174 313.667,761.118C311.939,759.966 311.171,758.814 311.171,757.278C311.171,755.262 312.707,754.014 315.107,754.014C318.179,754.014 319.811,755.742 320.387,759.39L329.219,757.182Z" style="fill:#26529a;fill-rule:nonzero;"/>
    <path d="M367.043,762.942C366.659,751.326 361.091,744.894 351.299,744.894C340.163,744.894 334.019,753.726 334.019,769.758C334.019,778.974 336.131,786.078 339.875,790.014C342.371,792.606 346.595,794.142 351.203,794.142C356.771,794.142 361.091,791.934 363.875,787.71C365.699,784.83 366.467,781.758 366.851,775.518L356.579,774.75C355.907,782.142 354.659,784.638 351.395,784.638C347.747,784.638 346.787,781.374 346.787,769.374C346.787,757.374 347.843,753.822 351.395,753.822C353.027,753.822 354.179,754.686 354.947,756.702C355.523,757.95 355.715,759.198 356.003,763.614L367.043,762.942Z" style="fill:#26529a;fill-rule:nonzero;"/>
    <path d="M387.395,744.894C376.259,744.894 370.211,753.438 370.211,769.374C370.211,778.206 372.227,785.406 375.875,789.726C378.275,792.606 382.211,794.142 386.915,794.142C398.147,794.142 403.907,785.79 403.907,769.47C403.907,753.726 398.051,744.894 387.395,744.894ZM387.203,753.534C390.467,753.534 391.139,756.222 391.139,769.086C391.139,783.006 390.563,785.502 387.107,785.502C383.555,785.502 382.979,783.198 382.979,768.126C382.979,755.742 383.651,753.534 387.203,753.534Z" style="fill:#26529a;fill-rule:nonzero;"/>
    <path d="M409.571,793.182L421.859,793.182L421.859,761.022C421.859,756.702 422.915,755.07 425.795,755.07C427.139,755.07 428.291,755.55 428.867,756.414C429.347,757.086 429.539,758.142 429.539,761.022L429.539,793.182L441.827,793.182L441.827,760.062C441.827,753.438 441.347,750.75 439.715,748.542C438.083,746.142 435.011,744.894 431.171,744.894C425.891,744.894 423.011,747.006 420.611,752.766L420.611,745.854L409.571,745.854L409.571,793.182Z" style="fill:#26529a;fill-rule:nonzero;"/>
    <path d="M476.675,757.182C474.563,748.638 470.339,744.894 462.851,744.894C453.923,744.894 447.587,751.038 447.587,759.774C447.587,766.302 450.467,769.95 459.011,774.078C463.619,776.286 463.619,776.286 464.771,777.054C466.211,778.014 466.979,779.358 466.979,781.086C466.979,783.294 465.251,784.734 462.275,784.734C458.627,784.734 456.707,782.91 456.035,778.59L446.531,780.126C447.875,789.438 453.251,794.142 462.467,794.142C472.259,794.142 478.499,788.19 478.499,778.782C478.499,772.542 475.235,767.838 468.899,764.958C462.755,762.174 462.755,762.174 461.123,761.118C459.395,759.966 458.627,758.814 458.627,757.278C458.627,755.262 460.163,754.014 462.563,754.014C465.635,754.014 467.267,755.742 467.843,759.39L476.675,757.182Z" style="fill:#26529a;fill-rule:nonzero;"/>
    <path d="M483.203,793.182L495.491,793.182L495.491,745.854L483.203,745.854L483.203,793.182ZM483.203,728.67L483.203,741.726L495.491,741.726L495.491,728.67L483.203,728.67Z" style="fill:#26529a;fill-rule:nonzero;"/>
    <path d="M502.787,793.182L515.075,793.182L515.075,761.022C515.075,756.702 516.131,755.07 519.011,755.07C520.355,755.07 521.507,755.55 522.083,756.414C522.563,757.086 522.755,758.142 522.755,761.022L522.755,793.182L535.043,793.182L535.043,760.062C535.043,753.438 534.563,750.75 532.931,748.542C531.299,746.142 528.227,744.894 524.387,744.894C519.107,744.894 516.227,747.006 513.827,752.766L513.827,745.854L502.787,745.854L502.787,793.182Z" style="fill:#26529a;fill-rule:nonzero;"/>
    <path d="M566.243,793.182L583.427,793.182C588.899,793.182 592.739,791.934 596.195,789.15C602.627,783.87 605.891,774.174 605.891,760.35C605.891,747.678 602.819,738.462 596.867,733.566C592.643,730.206 588.323,729.15 578.531,729.15L566.243,729.15L566.243,793.182ZM579.107,781.95L579.107,740.286L582.947,740.286C586.307,740.286 588.419,741.342 589.667,743.55C591.107,746.43 591.971,752.766 591.971,761.31C591.971,770.718 591.203,776.574 589.475,779.358C588.323,781.086 586.211,781.95 582.947,781.95L579.107,781.95Z" style="fill:#26529a;fill-rule:nonzero;"/>
    <path d="M643.715,771.678C643.715,763.614 643.235,758.814 641.891,755.262C639.299,748.446 634.499,744.894 627.587,744.894C616.643,744.894 610.691,753.726 610.691,769.95C610.691,786.078 616.355,794.142 627.683,794.142C632.483,794.142 636.131,792.702 638.819,789.63C641.603,786.462 643.043,782.814 643.331,777.822L633.155,776.958C632.387,782.814 631.139,784.734 628.163,784.734C624.419,784.734 622.979,781.662 622.979,773.406L622.979,771.678L643.715,771.678ZM622.883,763.902C623.267,756.318 624.707,753.534 627.875,753.534C630.947,753.534 632.195,756.606 632.291,763.902L622.883,763.902Z" style="fill:#26529a;fill-rule:nonzero;"/>
    <rect x="648.803" y="729.15" width="12.288" height="64.032" style="fill:#26529a;fill-rule:nonzero;"/>
    <rect x="668.387" y="729.15" width="12.288" height="64.032" style="fill:#26529a;fill-rule:nonzero;"/>
    <path d="M715.811,757.182C713.699,748.638 709.475,744.894 701.987,744.894C693.059,744.894 686.723,751.038 686.723,759.774C686.723,766.302 689.603,769.95 698.147,774.078C702.755,776.286 702.755,776.286 703.907,777.054C705.347,778.014 706.115,779.358 706.115,781.086C706.115,783.294 704.387,784.734 701.411,784.734C697.763,784.734 695.843,782.91 695.171,778.59L685.667,780.126C687.011,789.438 692.387,794.142 701.603,794.142C711.395,794.142 717.635,788.19 717.635,778.782C717.635,772.542 714.371,767.838 708.035,764.958C701.891,762.174 701.891,762.174 700.259,761.118C698.531,759.966 697.763,758.814 697.763,757.278C697.763,755.262 699.299,754.014 701.699,754.014C704.771,754.014 706.403,755.742 706.979,759.39L715.811,757.182Z" style="fill:#26529a;fill-rule:nonzero;"/>
    <path d="M723.875,778.974L723.875,793.182L728.963,793.182L723.875,808.254L728.771,808.254L736.067,791.742L736.067,778.974L723.875,778.974Z" style="fill:#26529a;fill-rule:nonzero;"/>
    <path d="M775.331,793.182L786.851,793.182L792.323,761.79C792.899,758.238 793.571,752.478 794.051,747.39C794.147,751.806 794.531,755.454 795.587,761.79L801.059,793.182L812.579,793.182L824.195,729.15L812.867,729.15L809.027,757.662C808.451,761.79 808.067,766.974 807.587,776.094C806.723,764.574 806.531,762.654 805.955,759.102L800.867,729.15L789.059,729.15L784.451,757.662C783.395,764.382 782.723,770.334 782.339,776.094C782.051,768.798 781.667,764.67 781.091,759.486L777.539,729.15L763.619,729.15L775.331,793.182Z" style="fill:#26529a;fill-rule:nonzero;"/>
    <rect x="829.379" y="729.15" width="13.152" height="64.032" style="fill:#26529a;fill-rule:nonzero;"/>
</svg>
