<?xml version="1.0" encoding="UTF-8" standalone="no"?>
<!DOCTYPE svg PUBLIC "-//W3C//DTD SVG 1.1//EN" "http://www.w3.org/Graphics/SVG/1.1/DTD/svg11.dtd">
<svg width="100%" height="100%" viewBox="0 0 1001 810" version="1.1" xmlns="http://www.w3.org/2000/svg" xmlns:xlink="http://www.w3.org/1999/xlink" xml:space="preserve" xmlns:serif="http://www.serif.com/" style="fill-rule:evenodd;clip-rule:evenodd;stroke-linejoin:round;stroke-miterlimit:2;">
    <g transform="matrix(1,0,0,1,-1937.5,-345.27)">
        <g transform="matrix(1,0,0,1,1687.5,0)">
            <g transform="matrix(1,0,0,1,396.099,955.77)">
                <path d="M0,-62.836L0,53.48C0,54.061 -0.47,54.531 -1.051,54.531L-75.872,54.531C-76.452,54.531 -76.922,54.061 -76.922,53.48L-76.922,-62.836C-76.922,-62.876 -76.955,-62.909 -76.995,-62.909L-145.049,-62.909C-145.629,-62.909 -146.099,-63.379 -146.099,-63.96L-146.099,-116.316C-146.099,-116.896 -145.629,-117.367 -145.049,-117.367L67.861,-117.367C68.441,-117.367 68.912,-116.896 68.912,-116.316L68.912,-63.96C68.912,-63.379 68.441,-62.909 67.861,-62.909L0.073,-62.909C0.033,-62.909 0,-62.876 0,-62.836" style="fill:rgb(38,82,154);fill-rule:nonzero;"/>
            </g>
        </g>
        <g transform="matrix(1,0,0,1,1687.5,0)">
            <g transform="matrix(1,0,0,1,640.848,839.454)">
                <path d="M0,169.796L0,111.296C0,111.255 -0.033,111.223 -0.073,111.223L-68.076,111.223C-68.116,111.223 -68.149,111.255 -68.149,111.296L-68.149,169.796C-68.149,170.376 -68.619,170.847 -69.199,170.847L-143.755,170.847C-144.335,170.847 -144.806,170.376 -144.806,169.796L-144.806,0C-144.806,-0.581 -144.335,-1.051 -143.755,-1.051L-69.199,-1.051C-68.619,-1.051 -68.149,-0.581 -68.149,0L-68.149,63.401C-68.149,63.441 -68.116,63.474 -68.076,63.474L-0.073,63.474C-0.033,63.474 0,63.441 0,63.401L0,0C0,-0.581 0.47,-1.051 1.051,-1.051L75.855,-1.051C76.435,-1.051 76.906,-0.581 76.906,0L76.906,169.796C76.906,170.376 76.435,170.847 75.855,170.847L1.051,170.847C0.47,170.847 0,170.376 0,169.796" style="fill:rgb(38,82,154);fill-rule:nonzero;"/>
            </g>
        </g>
        <g transform="matrix(1,0,0,1,1687.5,0)">
            <g transform="matrix(1,0,0,1,1121.8,955.77)">
                <path d="M0,-62.836L0,53.48C0,54.061 -0.47,54.531 -1.051,54.531L-75.872,54.531C-76.452,54.531 -76.922,54.061 -76.922,53.48L-76.922,-62.836C-76.922,-62.876 -76.955,-62.909 -76.995,-62.909L-145.049,-62.909C-145.629,-62.909 -146.099,-63.379 -146.099,-63.96L-146.099,-116.316C-146.099,-116.896 -145.629,-117.367 -145.049,-117.367L67.861,-117.367C68.441,-117.367 68.912,-116.896 68.912,-116.316L68.912,-63.96C68.912,-63.379 68.441,-62.909 67.861,-62.909L0.073,-62.909C0.033,-62.909 0,-62.876 0,-62.836" style="fill:rgb(38,82,154);fill-rule:nonzero;"/>
            </g>
        </g>
        <g transform="matrix(1,0,0,1,1687.5,0)">
            <g transform="matrix(1,0,0,1,879.021,907.58)">
                <path d="M0,33.544L-38.757,33.544C-38.81,33.544 -38.845,33.49 -38.824,33.442L-18.291,-13.521C-18.265,-13.58 -18.18,-13.578 -18.156,-13.518L0.068,33.445C0.086,33.493 0.051,33.544 0,33.544M110.018,102.617L29.034,-69.135C29.022,-69.16 28.997,-69.177 28.968,-69.177L-95.923,-69.177C-96.503,-69.177 -96.974,-68.706 -96.974,-68.126L-84.734,-26.959L-81.34,-14.719L-135.612,102.618C-135.635,102.666 -135.599,102.721 -135.546,102.721L-69.366,102.721C-69.338,102.721 -69.312,102.704 -69.3,102.678L-55.921,73.085C-55.909,73.058 -55.884,73.042 -55.855,73.042L15.299,73.042C15.329,73.042 15.355,73.06 15.367,73.088L26.943,102.06C27.102,102.459 27.489,102.721 27.918,102.721L109.952,102.721C110.005,102.721 110.04,102.665 110.018,102.617" style="fill:rgb(38,82,154);fill-rule:nonzero;"/>
            </g>
        </g>
        <g transform="matrix(1,0,0,1,1687.5,0)">
            <g transform="matrix(1,0,0,1,455.518,1104.98)">
                <path d="M0,22.37C-1.333,39.325 -11.212,49.748 -26.153,49.748C-44.115,49.748 -54.32,35.732 -54.32,11.239C-54.32,-13.444 -44.115,-27.378 -25.935,-27.378C-16.601,-27.378 -9.525,-23.65 -5.144,-16.465C-2.232,-11.757 -1.007,-6.94 -0.327,1.605L-15.376,2.721C-15.812,-3.783 -16.274,-6.369 -17.717,-8.954C-19.622,-12.329 -22.343,-14.016 -25.799,-14.016C-33.773,-14.016 -37.039,-6.26 -37.039,12.491C-37.039,29.446 -33.773,36.386 -25.799,36.386C-19.867,36.386 -16.492,31.677 -15.267,21.363L0,22.37Z" style="fill:rgb(38,82,154);fill-rule:nonzero;"/>
            </g>
        </g>
        <g transform="matrix(1,0,0,1,1687.5,0)">
            <g transform="matrix(1,0,0,1,486.87,1116.33)">
                <path d="M0,-0.326C0,18.643 2.477,25.038 9.879,25.038C17.281,25.038 19.758,18.643 19.758,-0.217C19.758,-18.832 17.172,-25.363 9.988,-25.363C2.585,-25.363 0,-19.077 0,-0.326M28.058,-31.541C34.127,-24.901 37.039,-14.804 37.039,-0.108C37.039,25.283 27.732,38.4 9.879,38.4C-7.974,38.4 -17.281,25.283 -17.281,0.137C-17.281,-25.799 -8.083,-38.726 10.205,-38.726C17.39,-38.726 23.813,-36.14 28.058,-31.541" style="fill:rgb(38,82,154);fill-rule:nonzero;"/>
            </g>
        </g>
        <g transform="matrix(1,0,0,1,1687.5,0)">
            <g transform="matrix(1,0,0,1,559.614,1153.61)">
                <path d="M0,-74.867L19.105,-28.412L19.105,-74.867L31.896,-74.867L31.896,0L17.2,0L-5.497,-54.211L-5.497,0L-18.288,0L-18.288,-74.867L0,-74.867Z" style="fill:rgb(38,82,154);fill-rule:nonzero;"/>
            </g>
        </g>
        <g transform="matrix(1,0,0,1,1687.5,0)">
            <g transform="matrix(1,0,0,1,656.09,1153.61)">
                <path d="M0,-74.867L0,-61.967L-27.949,-61.967L-27.949,-42.427L-6.395,-42.427L-6.395,-29.527L-27.949,-29.527L-27.949,0L-44.333,0L-44.333,-74.867L0,-74.867Z" style="fill:rgb(38,82,154);fill-rule:nonzero;"/>
            </g>
        </g>
        <g transform="matrix(1,0,0,1,1687.5,0)">
            <g transform="matrix(1,0,0,1,713.594,1153.61)">
                <path d="M0,-74.867L0,-61.967L-29.065,-61.967L-29.065,-44.686L-6.395,-44.686L-6.395,-31.759L-29.065,-31.759L-29.065,-13.362L0,-13.362L0,0L-45.448,0L-45.448,-74.867L0,-74.867Z" style="fill:rgb(38,82,154);fill-rule:nonzero;"/>
            </g>
        </g>
        <g transform="matrix(1,0,0,1,1687.5,0)">
            <g transform="matrix(1,0,0,1,744.728,1120.38)">
                <path d="M0,-8.409L7.185,-8.409C13.471,-8.409 16.846,-12.246 16.846,-19.295C16.846,-22.887 15.73,-25.935 13.58,-27.731C12.138,-28.956 10.097,-29.527 6.504,-29.527L0,-29.527L0,-8.409ZM7.076,-41.638C17.172,-41.638 20.438,-40.849 24.82,-37.719C29.99,-33.8 32.902,-27.16 32.902,-18.968C32.902,-9.443 29.854,-3.919 22.343,0.572L36.141,33.229L18.179,33.229L8.192,3.702L0,3.702L0,33.229L-16.383,33.229L-16.383,-41.638L7.076,-41.638Z" style="fill:rgb(38,82,154);fill-rule:nonzero;"/>
            </g>
        </g>
        <g transform="matrix(1,0,0,1,1687.5,0)">
            <g transform="matrix(1,0,0,1,841.666,1153.61)">
                <path d="M0,-74.867L0,-61.967L-29.092,-61.967L-29.092,-44.686L-6.423,-44.686L-6.423,-31.759L-29.092,-31.759L-29.092,-13.362L0,-13.362L0,0L-45.476,0L-45.476,-74.867L0,-74.867Z" style="fill:rgb(38,82,154);fill-rule:nonzero;"/>
            </g>
        </g>
        <g transform="matrix(1,0,0,1,1687.5,0)">
            <g transform="matrix(1,0,0,1,873.997,1153.61)">
                <path d="M0,-74.867L19.105,-28.412L19.105,-74.867L31.896,-74.867L31.896,0L17.2,0L-5.497,-54.211L-5.497,0L-18.288,0L-18.288,-74.867L0,-74.867Z" style="fill:rgb(38,82,154);fill-rule:nonzero;"/>
            </g>
        </g>
        <g transform="matrix(1,0,0,1,1687.5,0)">
            <g transform="matrix(1,0,0,1,977.875,1104.98)">
                <path d="M0,22.37C-1.334,39.325 -11.212,49.748 -26.153,49.748C-44.115,49.748 -54.32,35.732 -54.32,11.239C-54.32,-13.444 -44.115,-27.378 -25.935,-27.378C-16.601,-27.378 -9.525,-23.65 -5.144,-16.465C-2.232,-11.757 -1.007,-6.94 -0.327,1.605L-15.376,2.721C-15.812,-3.783 -16.274,-6.369 -17.717,-8.954C-19.622,-12.329 -22.343,-14.016 -25.799,-14.016C-33.773,-14.016 -37.039,-6.26 -37.039,12.491C-37.039,29.446 -33.773,36.386 -25.799,36.386C-19.867,36.386 -16.492,31.677 -15.267,21.363L0,22.37Z" style="fill:rgb(38,82,154);fill-rule:nonzero;"/>
            </g>
        </g>
        <g transform="matrix(1,0,0,1,1687.5,0)">
            <g transform="matrix(1,0,0,1,1039.52,1153.61)">
                <path d="M0,-74.867L0,-61.967L-29.065,-61.967L-29.065,-44.686L-6.396,-44.686L-6.396,-31.759L-29.065,-31.759L-29.065,-13.362L0,-13.362L0,0L-45.448,0L-45.448,-74.867L0,-74.867Z" style="fill:rgb(38,82,154);fill-rule:nonzero;"/>
            </g>
        </g>
        <g transform="matrix(1,0,0,1,1687.5,0)">
            <g transform="matrix(1,0,0,1,1229.96,855.669)">
                <path d="M0,-1.91C0,-1.83 0.065,-1.765 0.145,-1.765L1.88,-1.765C4.049,-1.765 5.814,-2.517 5.814,-4.281C5.814,-5.843 4.686,-6.884 2.169,-6.884C1.215,-6.884 0.527,-6.787 0.108,-6.682C0.044,-6.666 0,-6.607 0,-6.541L0,-1.91ZM-0.261,7.896L-3.904,7.896C-3.984,7.896 -4.049,7.831 -4.049,7.751L-4.049,-9.048C-4.049,-9.118 -4.001,-9.179 -3.931,-9.191C-2.379,-9.47 -0.248,-9.69 2.487,-9.69C5.689,-9.69 7.165,-9.173 8.406,-8.424C8.413,-8.42 8.42,-8.415 8.426,-8.41C9.347,-7.686 10.066,-6.358 10.066,-4.686C10.066,-2.806 8.619,-1.36 6.537,-0.753L6.537,-0.521C8.214,0.086 9.14,1.33 9.661,3.615C10.128,5.951 10.432,7.029 10.782,7.686C10.833,7.781 10.762,7.896 10.654,7.896L6.727,7.896C6.68,7.896 6.636,7.876 6.608,7.838C6.113,7.169 5.799,5.641 5.293,3.731C4.975,1.851 3.934,1.041 1.764,1.041L0.029,1.041C-0.051,1.041 -0.116,1.106 -0.116,1.186L-0.116,7.751C-0.116,7.831 -0.181,7.896 -0.261,7.896M-10.615,-1.042C-10.615,5.458 -6.488,10.808 -0.459,12.2C8.154,14.188 16.095,7.166 15.69,-1.665C15.357,-8.913 9.943,-14.665 2.603,-14.665C-5.004,-14.665 -10.615,-8.533 -10.615,-1.042M20.045,-1.042C20.045,8.619 12.466,16.197 2.603,16.197C-7.173,16.197 -14.983,8.619 -14.983,-1.042C-14.983,-10.5 -7.173,-18.107 2.603,-18.107C12.466,-18.107 20.045,-10.5 20.045,-1.042" style="fill:rgb(38,82,154);fill-rule:nonzero;"/>
            </g>
        </g>
        <g transform="matrix(1,0,0,1,1687.5,0)">
            <g transform="matrix(1,0,0,1,697.383,517.474)">
                <path d="M0,65.542L47.117,65.542L23.558,103.256L0,65.542ZM265.74,65.542L193.148,-50.114L219.951,-50.114L143.045,-172.204L66.137,-50.114L92.94,-50.114L23.558,60.428L-45.824,-50.114L-19.021,-50.114L-95.927,-172.204L-172.835,-50.114L-146.032,-50.114L-218.624,65.542L-191.855,65.542L-267.436,186.535L-127.099,186.535L-127.099,237.746L-64.756,237.746L-64.756,186.535L111.874,186.535L111.874,237.746L174.216,237.746L174.216,186.535L314.552,186.535L238.972,65.542L265.74,65.542Z" style="fill:rgb(247,70,70);fill-rule:nonzero;"/>
            </g>
        </g>
        <g transform="matrix(1,0,0,1,1687.5,0)">
            <g transform="matrix(1,0,0,1,372.55,630.19)">
                <path d="M0,-241.566L-120.783,-120.783L0,0L33.551,-33.551L-53.681,-120.783L33.551,-208.015L0,-241.566Z" style="fill:rgb(247,70,70);fill-rule:nonzero;"/>
            </g>
        </g>
        <g transform="matrix(1,0,0,1,1687.5,0)">
            <g transform="matrix(1,0,0,1,1156.56,542.958)">
                <path d="M33.551,-33.551L-87.232,-154.334L-120.783,-120.783L-33.551,-33.55L-120.783,53.681L-87.233,87.232L0,-0L33.551,-33.551Z" style="fill:rgb(247,70,70);fill-rule:nonzero;"/>
            </g>
        </g>
    </g>
</svg>
