<svg    viewBox="0 0 1451 635" 
        xmlns="http://www.w3.org/2000/svg" 
        fill-rule="evenodd" 
        clip-rule="evenodd" 
        stroke-linejoin="round" 
        stroke-miterlimit="2">
    <g 
        fill="#f74646" 
        fill-rule="nonzero" 
        stroke="#f74646">
        
        <path d="M1099.74 367.88L987.56 189.16h41.42L910.14.5 791.3 189.16h41.41L725.5 359.98 618.29 189.16h41.41L540.86.5 422.02 189.16h41.42L351.26 367.88h41.37l-116.79 187h216.85v79.13h96.34v-79.16h272.94v79.13h96.34v-79.13h216.85l-116.79-187 41.37.03zm-410.64 0h72.81l-36.41 58.28-36.4-58.28z"/>
        <path d="M187.14 67.49L.5 254.13l51.85 51.85 134.79 134.8 51.85-51.85-134.8-134.8 134.8-134.79-51.85-51.85z"/>
        <path d="M1398.65 202.29l-134.79-134.8-51.85 51.85 134.8 134.79-134.8 134.8 51.85 51.85 134.79-134.8 51.85-51.85-51.85-51.84z"/>
            
    </g>
</svg>