<?xml version="1.0" encoding="UTF-8" standalone="no"?>
<!DOCTYPE svg PUBLIC "-//W3C//DTD SVG 1.1//EN" "http://www.w3.org/Graphics/SVG/1.1/DTD/svg11.dtd">
<svg width="100%" height="100%" viewBox="0 0 1001 787" version="1.1" xmlns="http://www.w3.org/2000/svg" xmlns:xlink="http://www.w3.org/1999/xlink" xml:space="preserve" xmlns:serif="http://www.serif.com/" style="fill-rule:evenodd;clip-rule:evenodd;stroke-linejoin:round;stroke-miterlimit:2;">
    <g transform="matrix(1,0,0,1,-8690.5,-3739.53)">
        <g transform="matrix(1,0,0,1,8440.5,3310.55)">
            <g transform="matrix(1,0,0,1,772.637,430.322)">
                <path d="M0,561.125L17.786,522.672L15.079,512.913L2.857,471.806L2.574,469.857C2.574,465.508 6.112,461.97 10.461,461.97L102.307,461.97C102.34,458.136 102.619,454.125 103.185,449.932C106.655,424.236 110.024,418.714 114.404,413.714C116.622,411.176 118.71,408.788 120.659,390.964L124.9,354.915L126.578,353.625C127.081,353.215 139.726,342.618 132.684,317.337C127.859,300.013 127.775,293.959 136.614,289.815C138.84,288.759 140.943,287.776 143.28,283.764C166.904,243.138 159.5,216.034 153.833,204.433C150.874,210.341 146.6,215.644 140.339,219.666C127.404,227.98 116.246,230.031 107.185,225.791C95.194,220.155 88.038,204.57 84.667,176.742C81.142,147.667 40.956,118.578 21.635,104.601C18.761,102.528 16.321,100.762 14.499,99.354C7.417,93.913 -11.478,91.743 -35.397,89.016C-55.048,86.765 -79.504,83.972 -107.243,78.417C-134.319,73.004 -152.763,63.138 -162.059,49.098C-167.006,41.618 -168.117,34.664 -168.215,30.29C-175.568,27.084 -177.152,19.694 -178.389,13.443C-179.19,9.368 -180.021,5.15 -182.094,0.889C-183.117,-1.225 -184.062,-1.289 -184.75,-1.336C-189.993,-1.691 -201.058,5.85 -211.77,13.139C-223.436,21.093 -236.666,30.1 -251.189,36.171C-256.772,38.5 -261.207,39.485 -264.909,39.432L-266.308,29.168L-267.047,23.732L-268.989,9.509L-268.737,14.546C-269.174,14.576 -312.757,17.097 -314.364,40.823C-314.845,47.916 -314.597,55.335 -314.339,63.189C-313.555,86.633 -312.746,110.859 -331.842,127.542C-339.961,134.629 -348.207,139.655 -355.485,144.093C-370.194,153.067 -377.189,157.861 -375.439,168.79C-374.181,176.613 -371.365,182.901 -368.377,189.546C-363.293,200.85 -357.54,213.662 -357.999,236.626C-358.729,273.368 -352.358,293.248 -337.336,301.104C-320.109,310.117 -260.631,350.396 -254.541,373.833C-249.556,393.026 -228.166,408.271 -218.356,411.811C-208.625,415.329 -205.885,438.428 -205.72,461.97L-200.988,461.97C-196.639,461.97 -193.101,465.508 -193.101,469.857L-193.101,526.494L-138.626,526.494L-138.626,469.857C-138.626,465.508 -135.088,461.97 -130.738,461.97L-55.934,461.97C-51.585,461.97 -48.046,465.508 -48.046,469.857L-48.046,562.816L0,561.125Z" style="fill:rgb(247,70,70);fill-rule:nonzero;"/>
            </g>
        </g>
        <g transform="matrix(1,0,0,1,8440.5,3310.55)">
            <g transform="matrix(0,-1,-1,0,700.664,766.151)">
                <path d="M-57.975,-57.975C-89.993,-57.975 -115.949,-32.019 -115.949,-0.001C-115.949,32.019 -89.993,57.975 -57.975,57.975C-25.957,57.975 -0.001,32.019 -0.001,-0.001C-0.001,-32.019 -25.957,-57.975 -57.975,-57.975" style="fill:rgb(38,82,154);fill-rule:nonzero;"/>
            </g>
        </g>
        <g transform="matrix(1,0,0,1,8440.5,3310.55)">
            <g transform="matrix(1,0,0,1,698.357,820.916)">
                <path d="M0,6.417L4.613,6.417L2.306,10.109L0,6.417ZM26.017,6.417L18.91,-4.906L21.534,-4.906L14.005,-16.859L6.475,-4.906L9.099,-4.906L2.306,5.916L-4.486,-4.906L-1.862,-4.906L-9.392,-16.859L-16.921,-4.906L-14.297,-4.906L-21.404,6.417L-18.783,6.417L-26.183,18.263L-12.443,18.263L-12.443,23.276L-6.34,23.276L-6.34,18.263L10.953,18.263L10.953,23.276L17.056,23.276L17.056,18.263L30.796,18.263L23.396,6.417L26.017,6.417Z" style="fill:white;fill-rule:nonzero;"/>
            </g>
        </g>
        <g transform="matrix(1,0,0,1,8440.5,3310.55)">
            <g transform="matrix(1,0,0,1,666.555,831.952)">
                <path d="M0,-23.65L-11.825,-11.825L0,0L3.285,-3.285L-5.255,-11.825L3.285,-20.365L0,-23.65Z" style="fill:white;fill-rule:nonzero;"/>
            </g>
        </g>
        <g transform="matrix(1,0,0,1,8440.5,3310.55)">
            <g transform="matrix(1,0,0,1,743.312,823.412)">
                <path d="M3.285,-3.285L-8.54,-15.11L-11.825,-11.826L-3.285,-3.285L-11.825,5.255L-8.54,8.54L0,-0.001L3.285,-3.285Z" style="fill:white;fill-rule:nonzero;"/>
            </g>
        </g>
        <g transform="matrix(1,0,0,1,8440.5,3310.55)">
            <g transform="matrix(1,0,0,1,396.099,1016.5)">
                <path d="M0,-62.837L0,53.48C0,54.06 -0.47,54.53 -1.051,54.53L-75.872,54.53C-76.452,54.53 -76.922,54.06 -76.922,53.48L-76.922,-62.837C-76.922,-62.877 -76.955,-62.91 -76.995,-62.91L-145.049,-62.91C-145.629,-62.91 -146.099,-63.38 -146.099,-63.961L-146.099,-116.317C-146.099,-116.897 -145.629,-117.367 -145.049,-117.367L67.861,-117.367C68.441,-117.367 68.912,-116.897 68.912,-116.317L68.912,-63.961C68.912,-63.38 68.441,-62.91 67.861,-62.91L0.073,-62.91C0.033,-62.91 0,-62.877 0,-62.837" style="fill:rgb(38,82,154);fill-rule:nonzero;"/>
            </g>
            <g transform="matrix(1,0,0,1,641.898,899.128)">
                <path d="M0,171.898L74.804,171.898C75.385,171.898 75.855,171.428 75.855,170.847L75.855,1.051C75.855,0.471 75.385,0 74.804,0L0,0C-0.58,0 -1.051,0.471 -1.051,1.051L-1.051,64.453C-1.051,64.493 -1.083,64.525 -1.123,64.525L-69.126,64.525C-69.167,64.525 -69.199,64.493 -69.199,64.453L-69.199,1.051C-69.199,0.471 -69.67,0 -70.25,0L-144.806,0C-145.386,0 -145.856,0.471 -145.856,1.051L-145.856,170.847C-145.856,171.428 -145.386,171.898 -144.806,171.898L-70.25,171.898C-69.67,171.898 -69.199,171.428 -69.199,170.847L-69.199,112.347C-69.199,112.307 -69.167,112.274 -69.126,112.274L-1.123,112.274C-1.083,112.274 -1.051,112.307 -1.051,112.347L-1.051,170.847C-1.051,171.428 -0.58,171.898 0,171.898" style="fill:rgb(38,82,154);fill-rule:nonzero;"/>
            </g>
            <g transform="matrix(1,0,0,1,1121.8,1016.5)">
                <path d="M0,-62.837L0,53.48C0,54.06 -0.47,54.53 -1.051,54.53L-75.872,54.53C-76.452,54.53 -76.922,54.06 -76.922,53.48L-76.922,-62.837C-76.922,-62.877 -76.955,-62.91 -76.995,-62.91L-145.049,-62.91C-145.629,-62.91 -146.099,-63.38 -146.099,-63.961L-146.099,-116.317C-146.099,-116.897 -145.629,-117.367 -145.049,-117.367L67.861,-117.367C68.441,-117.367 68.912,-116.897 68.912,-116.317L68.912,-63.961C68.912,-63.38 68.441,-62.91 67.861,-62.91L0.073,-62.91C0.033,-62.91 0,-62.877 0,-62.837" style="fill:rgb(38,82,154);fill-rule:nonzero;"/>
            </g>
            <g transform="matrix(1,0,0,1,860.73,1015.37)">
                <path d="M0,-60.586C0.013,-60.615 0.04,-60.63 0.067,-60.63C0.095,-60.63 0.123,-60.614 0.135,-60.583L18.359,-13.62C18.378,-13.573 18.342,-13.521 18.291,-13.521L-20.466,-13.521C-20.519,-13.521 -20.554,-13.575 -20.533,-13.623L0,-60.586ZM-117.255,55.656L-51.075,55.656C-51.047,55.656 -51.021,55.639 -51.009,55.613L-37.63,26.019C-37.619,25.993 -37.593,25.976 -37.564,25.976L33.59,25.976C33.62,25.976 33.647,25.995 33.658,26.022L45.234,54.995C45.393,55.394 45.78,55.656 46.209,55.656L128.243,55.656C128.296,55.656 128.331,55.6 128.309,55.552L47.325,-116.2C47.313,-116.226 47.288,-116.242 47.259,-116.242L-77.632,-116.242C-78.212,-116.242 -78.683,-115.771 -78.683,-115.191L-66.443,-74.024L-63.049,-61.784L-117.321,55.552C-117.344,55.6 -117.309,55.656 -117.255,55.656" style="fill:rgb(38,82,154);fill-rule:nonzero;"/>
            </g>
        </g>
        <g transform="matrix(1,0,0,1,8440.5,3310.55)">
            <g transform="matrix(1,0,0,1,1229.96,916.395)">
                <path d="M0,-1.91C0,-1.83 0.065,-1.765 0.145,-1.765L1.88,-1.765C4.049,-1.765 5.814,-2.517 5.814,-4.281C5.814,-5.843 4.686,-6.884 2.169,-6.884C1.215,-6.884 0.527,-6.787 0.108,-6.682C0.044,-6.666 0,-6.607 0,-6.541L0,-1.91ZM-0.261,7.896L-3.904,7.896C-3.984,7.896 -4.049,7.831 -4.049,7.751L-4.049,-9.048C-4.049,-9.118 -4.001,-9.178 -3.931,-9.191C-2.379,-9.47 -0.248,-9.69 2.487,-9.69C5.689,-9.69 7.165,-9.172 8.406,-8.424C8.413,-8.42 8.42,-8.415 8.426,-8.41C9.347,-7.686 10.066,-6.358 10.066,-4.686C10.066,-2.806 8.619,-1.36 6.537,-0.752L6.537,-0.521C8.214,0.086 9.14,1.33 9.661,3.615C10.128,5.951 10.432,7.029 10.782,7.686C10.833,7.781 10.762,7.896 10.654,7.896L6.727,7.896C6.68,7.896 6.636,7.876 6.608,7.838C6.113,7.169 5.799,5.641 5.293,3.731C4.975,1.851 3.934,1.041 1.764,1.041L0.029,1.041C-0.051,1.041 -0.116,1.106 -0.116,1.186L-0.116,7.751C-0.116,7.831 -0.181,7.896 -0.261,7.896M-10.615,-1.042C-10.615,5.458 -6.488,10.808 -0.459,12.2C8.154,14.188 16.095,7.166 15.69,-1.665C15.357,-8.912 9.943,-14.665 2.603,-14.665C-5.004,-14.665 -10.615,-8.533 -10.615,-1.042M20.045,-1.042C20.045,8.619 12.466,16.197 2.603,16.197C-7.173,16.197 -14.983,8.619 -14.983,-1.042C-14.983,-10.5 -7.173,-18.107 2.603,-18.107C12.466,-18.107 20.045,-10.5 20.045,-1.042" style="fill:rgb(38,82,154);fill-rule:nonzero;"/>
            </g>
        </g>
        <g transform="matrix(1,0,0,1,8440.5,3310.55)">
            <g transform="matrix(1,0,0,1,-17.1339,30)">
                <g transform="matrix(1,0,0,1,472.601,1135.76)">
                    <path d="M0,22.375C-1.334,39.333 -11.215,49.758 -26.158,49.758C-44.123,49.758 -54.331,35.74 -54.331,11.242C-54.331,-13.446 -44.123,-27.383 -25.941,-27.383C-16.604,-27.383 -9.527,-23.654 -5.145,-16.468C-2.232,-11.759 -1.007,-6.941 -0.327,1.606L-15.379,2.722C-15.815,-3.783 -16.277,-6.369 -17.72,-8.955C-19.626,-12.33 -22.348,-14.018 -25.804,-14.018C-33.78,-14.018 -37.046,-6.26 -37.046,12.494C-37.046,29.452 -33.78,36.393 -25.804,36.393C-19.87,36.393 -16.495,31.684 -15.27,21.368L0,22.375Z" style="fill:rgb(38,82,154);fill-rule:nonzero;"/>
                </g>
                <g transform="matrix(1,0,0,1,503.959,1147.12)">
                    <path d="M0,-0.327C0,18.645 2.477,25.042 9.881,25.042C17.285,25.042 19.762,18.645 19.762,-0.218C19.762,-18.837 17.176,-25.369 9.99,-25.369C2.586,-25.369 0,-19.082 0,-0.327M28.064,-31.548C34.134,-24.907 37.046,-14.808 37.046,-0.109C37.046,25.287 27.737,38.407 9.881,38.407C-7.975,38.407 -17.285,25.287 -17.285,0.136C-17.285,-25.805 -8.084,-38.734 10.207,-38.734C17.393,-38.734 23.817,-36.148 28.064,-31.548" style="fill:rgb(38,82,154);fill-rule:nonzero;"/>
                </g>
                <g transform="matrix(1,0,0,1,576.717,1184.41)">
                    <path d="M0,-74.882L19.108,-28.418L19.108,-74.882L31.902,-74.882L31.902,0L17.203,0L-5.498,-54.222L-5.498,0L-18.292,0L-18.292,-74.882L0,-74.882Z" style="fill:rgb(38,82,154);fill-rule:nonzero;"/>
                </g>
                <g transform="matrix(1,0,0,1,673.212,1184.41)">
                    <path d="M0,-74.882L0,-61.98L-27.955,-61.98L-27.955,-42.436L-6.397,-42.436L-6.397,-29.534L-27.955,-29.534L-27.955,0L-44.341,0L-44.341,-74.882L0,-74.882Z" style="fill:rgb(38,82,154);fill-rule:nonzero;"/>
                </g>
                <g transform="matrix(1,0,0,1,730.727,1184.41)">
                    <path d="M0,-74.882L0,-61.98L-29.071,-61.98L-29.071,-44.695L-6.397,-44.695L-6.397,-31.766L-29.071,-31.766L-29.071,-13.365L0,-13.365L0,0L-45.457,0L-45.457,-74.882L0,-74.882Z" style="fill:rgb(38,82,154);fill-rule:nonzero;"/>
                </g>
                <g transform="matrix(1,0,0,1,761.867,1151.17)">
                    <path d="M0,-8.411L7.186,-8.411C13.474,-8.411 16.849,-12.249 16.849,-19.299C16.849,-22.892 15.733,-25.941 13.583,-27.737C12.14,-28.962 10.099,-29.534 6.506,-29.534L0,-29.534L0,-8.411ZM7.077,-41.646C17.176,-41.646 20.442,-40.857 24.825,-37.727C29.996,-33.807 32.909,-27.165 32.909,-18.972C32.909,-9.445 29.86,-3.92 22.348,0.572L36.148,33.235L18.183,33.235L8.193,3.702L0,3.702L0,33.235L-16.386,33.235L-16.386,-41.646L7.077,-41.646Z" style="fill:rgb(38,82,154);fill-rule:nonzero;"/>
                </g>
                <g transform="matrix(1,0,0,1,858.824,1184.41)">
                    <path d="M0,-74.882L0,-61.98L-29.098,-61.98L-29.098,-44.695L-6.424,-44.695L-6.424,-31.766L-29.098,-31.766L-29.098,-13.365L0,-13.365L0,0L-45.484,0L-45.484,-74.882L0,-74.882Z" style="fill:rgb(38,82,154);fill-rule:nonzero;"/>
                </g>
                <g transform="matrix(1,0,0,1,891.161,1184.41)">
                    <path d="M0,-74.882L19.108,-28.418L19.108,-74.882L31.902,-74.882L31.902,0L17.203,0L-5.498,-54.222L-5.498,0L-18.292,0L-18.292,-74.882L0,-74.882Z" style="fill:rgb(38,82,154);fill-rule:nonzero;"/>
                </g>
                <g transform="matrix(1,0,0,1,995.06,1135.76)">
                    <path d="M0,22.375C-1.334,39.333 -11.215,49.758 -26.158,49.758C-44.123,49.758 -54.331,35.74 -54.331,11.242C-54.331,-13.446 -44.123,-27.383 -25.941,-27.383C-16.604,-27.383 -9.527,-23.654 -5.145,-16.468C-2.232,-11.759 -1.007,-6.941 -0.327,1.606L-15.379,2.722C-15.815,-3.783 -16.278,-6.369 -17.72,-8.955C-19.626,-12.33 -22.348,-14.018 -25.804,-14.018C-33.78,-14.018 -37.046,-6.26 -37.046,12.494C-37.046,29.452 -33.78,36.393 -25.804,36.393C-19.871,36.393 -16.495,31.684 -15.27,21.368L0,22.375Z" style="fill:rgb(38,82,154);fill-rule:nonzero;"/>
                </g>
                <g transform="matrix(1,0,0,1,1056.71,1184.41)">
                    <path d="M0,-74.882L0,-61.98L-29.071,-61.98L-29.071,-44.695L-6.397,-44.695L-6.397,-31.766L-29.071,-31.766L-29.071,-13.365L0,-13.365L0,0L-45.457,0L-45.457,-74.882L0,-74.882Z" style="fill:rgb(38,82,154);fill-rule:nonzero;"/>
                </g>
            </g>
        </g>
    </g>
</svg>
