<?xml version="1.0" encoding="UTF-8" standalone="no"?>
<!DOCTYPE svg PUBLIC "-//W3C//DTD SVG 1.1//EN" "http://www.w3.org/Graphics/SVG/1.1/DTD/svg11.dtd">
<svg width="100%" height="100%" viewBox="0 0 1073 810" version="1.1" xmlns="http://www.w3.org/2000/svg" xmlns:xlink="http://www.w3.org/1999/xlink" xml:space="preserve" xmlns:serif="http://www.serif.com/" style="fill-rule:evenodd;clip-rule:evenodd;stroke-linejoin:round;stroke-miterlimit:2;">
    <path d="M532.459,622.06C534.596,622.195 536.607,622.329 538.439,622.516C542.491,622.972 546.501,623.74 550.435,624.814L578.601,563.923L575.767,553.715L562.985,510.72L562.69,508.682C562.695,504.158 566.416,500.437 570.94,500.432L633.287,500.432C633.355,500.108 633.39,499.779 633.395,499.449C633.395,492.208 636.47,482.161 636.595,481.732L637.355,479.292L657.887,487.819C681.601,487.667 686.446,475.806 690.343,466.259C691.836,462.594 693.123,459.439 695.367,457.446C697.789,455.515 700.411,453.849 703.188,452.476C708.06,449.794 713.584,446.773 714.218,443.171C714.531,441.383 713.593,439.193 711.42,436.726C705.655,430.192 705.601,423.425 707.478,419.278C709.052,415.792 712.037,413.637 715.273,413.637C717.284,413.637 721.065,414.531 723.774,420.27C724.669,422.222 725.456,424.221 726.134,426.259C727.099,429.039 727.626,430.353 728.252,430.353C731.246,430.353 740.954,423.246 754.344,413.199C759.074,409.607 764.225,406.605 769.683,404.261C769.173,397.619 767.752,375.719 770.666,369.167C773.643,362.472 776.637,342.003 775.886,327.656C775.144,313.479 762.818,296.693 754.657,285.591C747.345,275.633 746.952,243.99 747.193,209.657C747.193,206.081 747.247,202.765 747.247,199.824C747.247,194.041 745.522,189.688 742.143,186.908C735.26,181.276 723.657,183.332 723.103,183.475L719.456,184.932C718.585,185.289 717.653,185.474 716.712,185.478C712.842,185.478 709.329,182.233 705.378,178.586C700.631,174.215 694.732,168.753 686.446,167.252C669.873,164.23 665.654,164.972 641.305,174.975C629.086,179.989 624.233,181.071 621.381,179.39C619.182,178.103 618.905,175.725 618.628,173.428C618.493,171.65 618.08,169.903 617.403,168.253C617.109,167.405 616.664,166.618 616.089,165.929C614.952,166.273 613.839,166.692 612.755,167.18C608.34,168.968 600.938,172.025 586.583,174.233C561.751,178.058 558.274,169.424 556.504,158.626C556.272,156.895 555.904,155.186 555.405,153.513C554.994,152.082 553.983,150.898 552.634,150.268C549.469,148.82 544.589,150.214 543.007,150.867C526.524,159.52 507.404,153.692 497.893,143.716C496.338,142.098 494.014,140.257 491.931,140.516C489.848,140.775 488.472,143.198 488.454,143.198L488.052,143.948L487.247,144.279C478.943,147.488 471.801,147.104 466.018,143.144C455.417,135.877 453.128,118.527 453.128,114.621L453.128,27.183L323.169,24.134L307.428,286.654L305.158,286.565C299.741,286.342 172.418,281.095 148.597,278.02C136.753,276.491 135.019,278.914 134.867,279.2C134.456,279.906 134.992,281.229 135.546,282.149L135.591,282.069L135.698,282.069L136.252,283.213C145.951,303.361 192.494,340.17 204.428,348.921C214.26,356.135 214.09,363.947 213.849,374.772C213.786,377.954 213.706,381.565 213.849,385.498C214.457,398.79 235.793,419.573 273.935,444.02C280.308,448.105 285.823,450.179 290.31,450.179C298.927,450.179 302.699,442.393 305.739,436.145C307.178,433.186 308.313,430.844 309.868,429.503C310.937,428.38 311.84,427.11 312.55,425.731C316.823,418.527 324.045,406.066 355.688,408.051C395.277,410.473 415.72,448.632 418.974,465.669C420.931,475.518 423.965,485.123 428.02,494.309C431.347,496.1 434.525,498.156 437.521,500.459L501.46,500.459C505.984,500.464 509.705,504.185 509.71,508.709L509.71,618.27C517.353,621.077 525.478,621.605 532.459,622.06Z" style="fill:#f74646;fill-rule:nonzero;"/>
    <circle cx="569.358" cy="373.61" r="60.64" style="fill:#26529a;"/>
    <path d="M166.17,564.603L166.17,686.258C166.17,686.861 165.674,687.358 165.071,687.358L86.821,687.358C86.218,687.358 85.722,686.861 85.722,686.258L85.722,564.603C85.722,564.559 85.686,564.522 85.641,564.522L14.463,564.522C13.877,564.498 13.408,564.009 13.408,563.423L13.408,508.664C13.408,508.061 13.904,507.565 14.507,507.565L237.152,507.565C237.755,507.565 238.252,508.061 238.252,508.664L238.252,563.423C238.252,564.026 237.755,564.522 237.152,564.522L166.259,564.522C166.256,564.522 166.253,564.522 166.25,564.522C166.206,564.522 166.17,564.558 166.17,564.602C166.17,564.602 166.17,564.602 166.17,564.603Z" style="fill:#26529a;fill-rule:nonzero;"/>
    <path d="M422.156,686.258L422.156,625.073C422.156,625.032 422.125,624.997 422.084,624.992L350.959,624.992C350.915,624.992 350.879,625.029 350.879,625.073L350.879,686.258C350.879,686.861 350.383,687.358 349.779,687.358L271.798,687.358C271.197,687.353 270.704,686.859 270.699,686.258L270.699,508.664C270.704,508.063 271.197,507.57 271.798,507.565L349.779,507.565C350.383,507.565 350.879,508.061 350.879,508.664L350.879,574.98C350.883,575.021 350.918,575.052 350.959,575.052L422.084,575.052C422.122,575.048 422.152,575.018 422.156,574.98L422.156,508.664C422.156,508.061 422.652,507.565 423.255,507.565L501.46,507.565C502.063,507.565 502.559,508.061 502.559,508.664L502.559,686.258C502.56,686.267 502.56,686.276 502.56,686.285C502.56,686.888 502.063,687.384 501.46,687.384C501.46,687.384 501.46,687.384 501.46,687.384L423.255,687.384C423.255,687.384 423.255,687.384 423.255,687.384C422.652,687.384 422.156,686.888 422.156,686.285C422.156,686.276 422.156,686.267 422.156,686.258Z" style="fill:#26529a;fill-rule:nonzero;"/>
    <path d="M925.153,564.603L925.153,686.258C925.153,686.858 924.662,687.353 924.063,687.358L845.84,687.358C845.237,687.358 844.741,686.861 844.741,686.258L844.741,564.603C844.741,564.559 844.705,564.522 844.66,564.522L773.482,564.522C772.88,564.517 772.387,564.024 772.382,563.423L772.382,508.664C772.387,508.063 772.88,507.57 773.482,507.565L996.171,507.565C996.774,507.565 997.27,508.061 997.27,508.664L997.27,563.423C997.27,564.026 996.774,564.522 996.171,564.522L925.269,564.522C925.258,564.517 925.246,564.514 925.233,564.514C925.189,564.514 925.153,564.55 925.153,564.594C925.153,564.597 925.153,564.6 925.153,564.603Z" style="fill:#26529a;fill-rule:nonzero;"/>
    <path d="M786.336,687.25L701.633,507.583C701.61,507.57 701.583,507.57 701.561,507.583L570.94,507.583C570.337,507.583 569.841,508.079 569.841,508.682L582.641,551.74L586.216,564.54L529.456,687.268C529.449,687.279 529.446,687.292 529.446,687.305C529.446,687.344 529.478,687.376 529.517,687.376C529.521,687.376 529.524,687.376 529.527,687.375L598.713,687.375C598.744,687.378 598.773,687.359 598.784,687.331L612.773,656.376C612.796,656.366 612.822,656.366 612.845,656.376L687.268,656.376C687.301,656.378 687.329,656.399 687.34,656.43L699.443,686.732C699.612,687.145 700.015,687.417 700.462,687.42L786.273,687.42C786.283,687.424 786.294,687.426 786.304,687.426C786.354,687.426 786.395,687.385 786.395,687.335C786.395,687.297 786.371,687.263 786.336,687.25ZM671.295,614.981L630.731,614.981C630.689,614.979 630.655,614.943 630.655,614.901C630.655,614.892 630.656,614.882 630.659,614.874L652.112,565.756C652.126,565.729 652.154,565.712 652.184,565.712C652.214,565.712 652.242,565.729 652.255,565.756L671.322,614.874C671.342,614.911 671.331,614.958 671.295,614.981Z" style="fill:#26529a;fill-rule:nonzero;"/>
    <path d="M1059.28,524.54C1059.28,524.594 1059.28,524.649 1059.28,524.704C1059.28,534.511 1051.21,542.582 1041.4,542.582C1041.28,542.582 1041.16,542.58 1041.03,542.578C1040.93,542.58 1040.83,542.58 1040.72,542.58C1030.82,542.58 1022.67,534.449 1022.64,524.548C1022.64,514.653 1030.81,506.671 1041.03,506.671C1041.16,506.669 1041.28,506.667 1041.4,506.667C1051.21,506.667 1059.28,514.734 1059.28,524.54ZM1027.21,524.54C1027.21,531.333 1031.52,536.929 1037.83,538.386C1046.84,540.468 1055.15,533.121 1054.72,523.887C1054.37,516.307 1048.71,510.291 1041.03,510.291C1033.08,510.291 1027.21,516.7 1027.21,524.54ZM1038.04,533.88L1034.2,533.88C1034.2,533.881 1034.2,533.881 1034.2,533.881C1034.12,533.881 1034.05,533.816 1034.05,533.738C1034.05,533.735 1034.05,533.732 1034.05,533.728L1034.05,516.164C1034.05,516.092 1034.1,516.029 1034.17,516.012C1036.39,515.642 1038.63,515.469 1040.88,515.494C1044.23,515.494 1045.78,516.03 1047.08,516.816C1048.21,517.783 1048.84,519.216 1048.79,520.705C1048.79,522.671 1047.28,524.182 1045.1,524.826L1045.1,525.067C1046.89,525.702 1047.78,526.998 1048.37,529.393C1048.58,530.857 1048.97,532.287 1049.54,533.648C1049.56,533.67 1049.56,533.695 1049.56,533.72C1049.56,533.798 1049.5,533.863 1049.42,533.863C1049.42,533.863 1049.41,533.863 1049.41,533.863L1045.3,533.863C1045.25,533.864 1045.21,533.844 1045.18,533.809C1044.66,533.103 1044.33,531.512 1043.81,529.509C1043.47,527.543 1042.38,526.694 1040.11,526.694L1038.33,526.694C1038.24,526.694 1038.17,526.762 1038.17,526.846L1038.17,533.711C1038.17,533.717 1038.17,533.723 1038.17,533.729C1038.17,533.806 1038.12,533.872 1038.04,533.88ZM1038.31,523.628C1038.31,523.709 1038.38,523.775 1038.46,523.78L1040.25,523.78C1042.52,523.78 1044.37,522.993 1044.37,521.152C1044.37,519.516 1043.19,518.47 1040.55,518.47C1039.83,518.453 1039.1,518.525 1038.4,518.685C1038.33,518.698 1038.28,518.758 1038.28,518.828L1038.31,523.628Z" style="fill:#26529a;fill-rule:nonzero;"/>
    <path d="M594.154,376.962L586.717,365.118L589.461,365.118L581.586,352.604L573.711,365.118L576.455,365.118L569.394,376.435L562.243,365.118L564.987,365.118L557.112,352.604L549.237,365.118L551.981,365.118L544.544,376.962L547.288,376.962L539.548,389.351L553.93,389.351L553.93,394.598L560.312,394.598L560.312,389.351L578.395,389.351L578.395,394.598L584.777,394.598L584.777,389.351L599.151,389.351L591.41,376.962L594.154,376.962ZM566.945,376.962L571.763,376.962L569.394,380.788L566.945,376.962Z" style="fill:#fff;fill-rule:nonzero;"/>
    <path d="M533.675,357.055L524.745,365.985L521.313,369.427L533.675,381.789L537.116,378.356L528.186,369.427L537.116,360.497L533.675,357.055Z" style="fill:#fff;fill-rule:nonzero;"/>
    <path d="M613.962,365.985L605.032,357.055L601.591,360.497L610.521,369.427L601.591,378.356L605.032,381.789L617.394,369.427L613.962,365.985Z" style="fill:#fff;fill-rule:nonzero;"/>
    <path d="M297.024,730.849L286.272,794.881L299.04,794.881L303.36,769.345L307.68,769.345L310.752,794.881L324.768,794.881L319.584,767.137C322.752,765.793 324.192,764.833 325.728,763.009C328.896,759.457 330.624,754.081 330.624,748.129C330.624,736.417 324.96,730.849 313.248,730.849L297.024,730.849ZM304.992,759.265L308.064,740.929L310.944,740.929C315.36,740.929 317.664,743.233 317.664,747.841C317.664,750.625 316.992,753.697 315.84,755.521C314.304,758.113 312,759.265 308.256,759.265L304.992,759.265Z" style="fill:#26529a;fill-rule:nonzero;"/>
    <path d="M351.648,746.209C347.04,746.209 343.104,747.841 339.84,751.009C334.944,755.713 331.872,765.697 331.872,776.545C331.872,789.505 336.864,796.225 346.464,796.225C352.032,796.225 356.448,793.921 360,789.121C363.744,784.033 366.144,774.529 366.144,765.025C366.144,752.833 361.056,746.209 351.648,746.209ZM351.36,755.425C353.088,755.425 353.952,756.961 353.952,759.841C353.952,763.201 353.088,770.113 351.936,775.969C350.304,784.609 349.152,787.105 346.656,787.105C344.928,787.105 344.064,785.761 344.064,783.073C344.064,779.041 344.928,771.745 346.272,765.313C347.808,757.633 348.864,755.425 351.36,755.425Z" style="fill:#26529a;fill-rule:nonzero;"/>
    <path d="M375.36,747.553L370.272,777.985C369.696,781.345 369.408,784.225 369.408,786.721C369.408,792.673 372.384,796.225 377.472,796.225C381.216,796.225 383.808,794.401 387.168,789.505L386.304,794.881L397.632,794.881L405.504,747.553L393.312,747.553L388.608,776.065C387.264,783.841 386.016,786.337 383.424,786.337C382.08,786.337 381.408,785.665 381.408,784.321C381.408,783.553 381.888,779.713 382.176,777.985L387.264,747.553L375.36,747.553Z" style="fill:#26529a;fill-rule:nonzero;"/>
    <path d="M412.992,747.553L405.024,794.881L417.216,794.881L422.112,765.697C423.264,758.593 424.608,756.097 427.2,756.097C428.544,756.097 429.216,756.961 429.216,758.689C429.216,760.225 428.928,762.721 428.448,765.697L423.552,794.881L435.456,794.881L440.352,765.697C441.216,760.513 441.6,757.249 441.6,755.329C441.6,749.473 438.624,746.209 433.344,746.209C429.408,746.209 426.624,748.129 423.456,753.217L424.416,747.553L412.992,747.553Z" style="fill:#26529a;fill-rule:nonzero;"/>
    <path d="M471.648,730.849L468.096,752.257C466.368,748.513 464.256,746.881 460.896,746.881C456.96,746.881 453.408,749.281 450.528,753.985C446.784,760.129 444.192,770.689 444.192,780.097C444.192,790.081 447.648,795.553 453.888,795.553C457.344,795.553 459.456,794.209 463.104,789.505L462.24,794.881L472.992,794.881L483.744,730.849L471.648,730.849ZM463.968,777.025C462.912,783.265 461.376,786.337 459.36,786.337C457.632,786.337 456.864,784.705 456.864,781.153C456.864,776.641 458.688,765.313 460.224,760.801C461.28,757.537 462.528,755.905 463.968,755.905C465.504,755.905 466.56,757.441 466.56,759.937C466.56,760.993 466.56,761.473 466.368,762.241L463.968,777.025Z" style="fill:#26529a;fill-rule:nonzero;"/>
    <path d="M515.424,730.849L504.672,794.881L517.44,794.881L521.76,769.345L526.08,769.345L529.152,794.881L543.168,794.881L537.984,767.137C541.152,765.793 542.592,764.833 544.128,763.009C547.296,759.457 549.024,754.081 549.024,748.129C549.024,736.417 543.36,730.849 531.648,730.849L515.424,730.849ZM523.392,759.265L526.464,740.929L529.344,740.929C533.76,740.929 536.064,743.233 536.064,747.841C536.064,750.625 535.392,753.697 534.24,755.521C532.704,758.113 530.4,759.265 526.656,759.265L523.392,759.265Z" style="fill:#26529a;fill-rule:nonzero;"/>
    <path d="M570.048,746.209C565.44,746.209 561.504,747.841 558.24,751.009C553.344,755.713 550.272,765.697 550.272,776.545C550.272,789.505 555.264,796.225 564.864,796.225C570.432,796.225 574.848,793.921 578.4,789.121C582.144,784.033 584.544,774.529 584.544,765.025C584.544,752.833 579.456,746.209 570.048,746.209ZM569.76,755.425C571.488,755.425 572.352,756.961 572.352,759.841C572.352,763.201 571.488,770.113 570.336,775.969C568.704,784.609 567.552,787.105 565.056,787.105C563.328,787.105 562.464,785.761 562.464,783.073C562.464,779.041 563.328,771.745 564.672,765.313C566.208,757.633 567.264,755.425 569.76,755.425Z" style="fill:#26529a;fill-rule:nonzero;"/>
    <path d="M621.6,764.641C621.792,763.297 621.888,761.761 621.888,761.089C621.888,751.873 616.608,746.209 608.16,746.209C595.68,746.209 587.712,758.689 587.712,778.177C587.712,784.993 588.864,788.929 591.744,792.097C594.144,794.785 597.888,796.225 602.208,796.225C611.712,796.225 617.664,790.177 619.872,778.561L609.504,776.545C608.16,783.649 606.048,787.105 603.168,787.105C600.96,787.105 599.904,785.569 599.904,782.593C599.904,778.081 601.44,767.521 602.976,761.665C604.128,757.153 605.472,755.329 607.776,755.329C610.08,755.329 611.232,757.633 611.232,762.241C611.232,763.297 611.136,763.969 610.944,765.313L621.6,764.641Z" style="fill:#26529a;fill-rule:nonzero;"/>
    <path d="M632.352,730.849L621.6,794.881L634.176,794.881L637.536,774.817L639.552,772.321L643.392,794.881L656.256,794.881L649.248,763.393L662.592,747.553L649.92,747.553L639.744,761.281L644.832,730.849L632.352,730.849Z" style="fill:#26529a;fill-rule:nonzero;"/>
    <path d="M662.688,780.577L660.384,794.881L665.76,794.881L658.272,809.569L663.744,809.569L673.344,793.441L675.456,780.577L662.688,780.577Z" style="fill:#26529a;fill-rule:nonzero;"/>
    <path d="M712.512,730.849L710.592,742.081L721.632,742.081L712.8,794.881L725.568,794.881L734.4,742.081L745.248,742.081L747.168,730.849L712.512,730.849Z" style="fill:#26529a;fill-rule:nonzero;"/>
    <path d="M750.24,730.849L758.496,761.761L739.488,794.881L752.352,794.881L762.528,775.873L766.56,794.881L780.672,794.881L771.456,760.801L789.312,730.849L775.968,730.849L767.424,747.265L764.256,730.849L750.24,730.849Z" style="fill:#26529a;fill-rule:nonzero;"/>
</svg>
