<?xml version="1.0" encoding="UTF-8" standalone="no"?>
<!DOCTYPE svg PUBLIC "-//W3C//DTD SVG 1.1//EN" "http://www.w3.org/Graphics/SVG/1.1/DTD/svg11.dtd">
<svg width="100%" height="100%" viewBox="0 0 1001 779" version="1.1" xmlns="http://www.w3.org/2000/svg" xmlns:xlink="http://www.w3.org/1999/xlink" xml:space="preserve" xmlns:serif="http://www.serif.com/" style="fill-rule:evenodd;clip-rule:evenodd;stroke-linejoin:round;stroke-miterlimit:2;">
    <g transform="matrix(1,0,0,1,-7004.51,-3764.38)">
        <g transform="matrix(1,0,0,1,6754.51,3331.42)">
            <g transform="matrix(1,0,0,1,746.305,435.573)">
                <path d="M0,569.04C2.043,569.17 3.968,569.296 5.724,569.473C9.417,569.841 13.348,570.646 17.19,571.654L44.118,513.437L41.411,503.678L29.189,462.571L28.906,460.622C28.906,456.273 32.444,452.735 36.793,452.735L96.409,452.735C96.469,452.422 96.51,452.108 96.51,451.79C96.51,444.873 99.445,435.264 99.571,434.856L100.291,432.524L119.891,440.689C142.566,440.541 147.197,429.202 150.922,420.074C152.349,416.575 153.584,413.552 155.722,411.649C157.63,409.949 160.34,408.466 163.202,406.896C167.864,404.342 173.146,401.445 173.753,397.998C174.052,396.267 173.154,394.195 171.073,391.84C165.561,385.591 165.514,379.126 167.309,375.154C168.809,371.828 171.663,369.764 174.759,369.764C176.68,369.764 180.292,370.588 182.885,376.104C183.9,378.259 184.589,380.24 185.14,381.832C186.064,384.49 186.567,385.743 187.165,385.743C190.027,385.743 199.311,378.948 212.112,369.347C216.904,365.753 221.782,362.947 226.777,360.827C226.292,354.474 224.934,333.534 227.718,327.277C230.567,320.872 233.429,301.297 232.714,287.586C232.003,274.031 220.217,257.982 212.416,247.362C205.421,237.844 205.048,207.589 205.278,174.763C205.304,171.346 205.326,168.172 205.326,165.358C205.326,159.82 203.682,155.666 200.447,153.008C193.869,147.622 182.772,149.626 182.248,149.721L182.256,149.751L178.765,151.143C177.868,151.503 176.996,151.664 176.146,151.664C172.439,151.664 169.083,148.563 165.306,145.077C160.77,140.892 155.128,135.684 147.201,134.24C131.361,131.352 127.324,132.055 104.042,141.621C92.36,146.417 87.724,147.453 84.997,145.844C82.898,144.613 82.625,142.341 82.36,140.142C82.178,138.625 81.97,136.907 81.194,135.194C80.422,133.499 80.075,133.074 79.936,132.97C79.646,132.983 78.111,133.611 76.753,134.166C72.53,135.901 65.453,138.798 51.729,140.91C27.983,144.569 24.657,136.317 22.97,125.992C22.679,124.219 22.406,122.545 21.916,121.105C21.405,119.597 20.537,118.582 19.267,118.001C16.24,116.613 11.591,117.944 10.065,118.569C-5.698,126.842 -23.975,121.27 -33.069,111.778C-34.556,110.23 -36.781,108.469 -38.775,108.717C-40.831,108.994 -42.079,111.262 -42.093,111.284L-42.483,112.004L-43.25,112.316C-51.186,115.382 -58.02,115.017 -63.549,111.227C-73.683,104.281 -75.873,87.69 -75.873,83.956L-75.873,0.274L-200.104,-2.614L-215.147,248.355L-217.323,248.268C-222.497,248.056 -344.235,243.043 -367.01,240.099C-378.336,238.637 -379.992,240.962 -380.14,241.226C-380.526,241.907 -380.018,243.169 -379.49,244.045L-379.446,243.975L-379.342,243.989L-378.813,245.085C-369.542,264.344 -325.042,299.537 -313.629,307.906C-304.228,314.801 -304.393,322.277 -304.618,332.623C-304.684,335.668 -304.757,339.114 -304.584,342.9C-304.007,355.61 -283.605,375.483 -247.136,398.856C-241.043,402.763 -235.775,404.745 -231.486,404.745C-223.247,404.745 -219.635,397.304 -216.73,391.328C-215.36,388.497 -214.271,386.259 -212.784,384.98C-211.986,384.304 -211.179,382.942 -210.251,381.368C-206.166,374.482 -199.263,362.57 -169.013,364.469C-131.156,366.785 -111.608,403.266 -108.503,419.554C-106.006,432.671 -101.114,444.05 -99.853,446.851C-96.636,448.574 -93.618,450.554 -90.767,452.735L-29.602,452.735C-25.253,452.735 -21.714,456.273 -21.714,460.622L-21.714,565.414C-14.44,568.095 -6.67,568.606 0,569.04" style="fill:rgb(247,70,70);fill-rule:nonzero;"/>
            </g>
        </g>
        <g transform="matrix(1,0,0,1,6754.51,3331.42)">
            <g transform="matrix(0,-1,-1,0,781.583,709.089)">
                <path d="M-57.975,-57.975C-89.993,-57.975 -115.949,-32.019 -115.949,-0.001C-115.949,32.019 -89.993,57.975 -57.975,57.975C-25.957,57.975 -0.001,32.019 -0.001,-0.001C-0.001,-32.019 -25.957,-57.975 -57.975,-57.975" style="fill:rgb(38,82,154);fill-rule:nonzero;"/>
            </g>
        </g>
        <g transform="matrix(1,0,0,1,6754.51,3331.42)">
            <g transform="matrix(1,0,0,1,396.099,1012.51)">
                <path d="M0,-62.836L0,53.48C0,54.061 -0.47,54.531 -1.051,54.531L-75.872,54.531C-76.452,54.531 -76.922,54.061 -76.922,53.48L-76.922,-62.836C-76.922,-62.876 -76.955,-62.909 -76.995,-62.909L-145.049,-62.909C-145.629,-62.909 -146.099,-63.379 -146.099,-63.96L-146.099,-116.316C-146.099,-116.896 -145.629,-117.367 -145.049,-117.367L67.861,-117.367C68.441,-117.367 68.912,-116.896 68.912,-116.316L68.912,-63.96C68.912,-63.379 68.441,-62.909 67.861,-62.909L0.073,-62.909C0.033,-62.909 0,-62.876 0,-62.836" style="fill:rgb(38,82,154);fill-rule:nonzero;"/>
            </g>
            <g transform="matrix(1,0,0,1,640.848,896.195)">
                <path d="M0,169.796L0,111.296C0,111.255 -0.033,111.223 -0.073,111.223L-68.076,111.223C-68.116,111.223 -68.149,111.255 -68.149,111.296L-68.149,169.796C-68.149,170.376 -68.619,170.847 -69.199,170.847L-143.755,170.847C-144.335,170.847 -144.806,170.376 -144.806,169.796L-144.806,0C-144.806,-0.581 -144.335,-1.051 -143.755,-1.051L-69.199,-1.051C-68.619,-1.051 -68.149,-0.581 -68.149,0L-68.149,63.401C-68.149,63.441 -68.116,63.474 -68.076,63.474L-0.073,63.474C-0.033,63.474 0,63.441 0,63.401L0,0C0,-0.581 0.47,-1.051 1.051,-1.051L75.855,-1.051C76.435,-1.051 76.906,-0.581 76.906,0L76.906,169.796C76.906,170.376 76.435,170.847 75.855,170.847L1.051,170.847C0.47,170.847 0,170.376 0,169.796" style="fill:rgb(38,82,154);fill-rule:nonzero;"/>
            </g>
            <g transform="matrix(1,0,0,1,1121.8,1012.51)">
                <path d="M0,-62.836L0,53.48C0,54.061 -0.47,54.531 -1.051,54.531L-75.872,54.531C-76.452,54.531 -76.922,54.061 -76.922,53.48L-76.922,-62.836C-76.922,-62.876 -76.955,-62.909 -76.995,-62.909L-145.049,-62.909C-145.629,-62.909 -146.099,-63.379 -146.099,-63.96L-146.099,-116.316C-146.099,-116.896 -145.629,-117.367 -145.049,-117.367L67.861,-117.367C68.441,-117.367 68.912,-116.896 68.912,-116.316L68.912,-63.96C68.912,-63.379 68.441,-62.909 67.861,-62.909L0.073,-62.909C0.033,-62.909 0,-62.876 0,-62.836" style="fill:rgb(38,82,154);fill-rule:nonzero;"/>
            </g>
            <g transform="matrix(1,0,0,1,879.021,964.321)">
                <path d="M0,33.544L-38.757,33.544C-38.81,33.544 -38.845,33.49 -38.824,33.442L-18.291,-13.521C-18.265,-13.58 -18.18,-13.578 -18.156,-13.518L0.068,33.445C0.086,33.493 0.051,33.544 0,33.544M110.018,102.617L29.034,-69.135C29.022,-69.16 28.997,-69.177 28.968,-69.177L-95.923,-69.177C-96.503,-69.177 -96.974,-68.706 -96.974,-68.126L-84.734,-26.959L-81.34,-14.719L-135.612,102.618C-135.635,102.666 -135.599,102.721 -135.546,102.721L-69.366,102.721C-69.338,102.721 -69.312,102.704 -69.3,102.678L-55.921,73.085C-55.909,73.058 -55.884,73.042 -55.855,73.042L15.299,73.042C15.329,73.042 15.355,73.06 15.367,73.088L26.943,102.06C27.102,102.459 27.489,102.721 27.918,102.721L109.952,102.721C110.005,102.721 110.04,102.665 110.018,102.617" style="fill:rgb(38,82,154);fill-rule:nonzero;"/>
            </g>
        </g>
        <g transform="matrix(1,0,0,1,6754.51,3331.42)">
            <g transform="matrix(1,0,0,1,1229.96,912.411)">
                <path d="M0,-1.91C0,-1.83 0.065,-1.765 0.145,-1.765L1.88,-1.765C4.049,-1.765 5.814,-2.517 5.814,-4.281C5.814,-5.843 4.686,-6.884 2.169,-6.884C1.215,-6.884 0.527,-6.787 0.108,-6.682C0.044,-6.666 0,-6.607 0,-6.541L0,-1.91ZM-0.261,7.896L-3.904,7.896C-3.984,7.896 -4.049,7.831 -4.049,7.751L-4.049,-9.048C-4.049,-9.118 -4.001,-9.179 -3.931,-9.191C-2.379,-9.47 -0.248,-9.69 2.487,-9.69C5.689,-9.69 7.165,-9.173 8.406,-8.424C8.413,-8.42 8.42,-8.415 8.426,-8.41C9.347,-7.686 10.066,-6.358 10.066,-4.686C10.066,-2.806 8.619,-1.36 6.537,-0.752L6.537,-0.521C8.214,0.086 9.14,1.33 9.661,3.615C10.128,5.951 10.432,7.029 10.782,7.686C10.833,7.781 10.762,7.896 10.654,7.896L6.727,7.896C6.68,7.896 6.636,7.876 6.608,7.838C6.113,7.169 5.799,5.641 5.293,3.731C4.975,1.851 3.934,1.041 1.764,1.041L0.029,1.041C-0.051,1.041 -0.116,1.106 -0.116,1.186L-0.116,7.751C-0.116,7.831 -0.181,7.896 -0.261,7.896M-10.615,-1.042C-10.615,5.458 -6.488,10.808 -0.459,12.2C8.154,14.188 16.095,7.166 15.69,-1.665C15.357,-8.913 9.943,-14.665 2.603,-14.665C-5.004,-14.665 -10.615,-8.533 -10.615,-1.042M20.045,-1.042C20.045,8.619 12.466,16.197 2.603,16.197C-7.173,16.197 -14.983,8.619 -14.983,-1.042C-14.983,-10.5 -7.173,-18.107 2.603,-18.107C12.466,-18.107 20.045,-10.5 20.045,-1.042" style="fill:rgb(38,82,154);fill-rule:nonzero;"/>
            </g>
        </g>
        <g transform="matrix(1,0,0,1,6754.51,3331.42)">
            <g transform="matrix(1,0,0,1,779.277,763.855)">
                <path d="M0,6.417L4.613,6.417L2.306,10.109L0,6.417ZM26.017,6.417L18.91,-4.906L21.534,-4.906L14.005,-16.859L6.475,-4.906L9.099,-4.906L2.306,5.916L-4.486,-4.906L-1.862,-4.906L-9.392,-16.859L-16.921,-4.906L-14.297,-4.906L-21.404,6.417L-18.783,6.417L-26.183,18.263L-12.443,18.263L-12.443,23.276L-6.34,23.276L-6.34,18.263L10.953,18.263L10.953,23.276L17.056,23.276L17.056,18.263L30.796,18.263L23.396,6.417L26.017,6.417Z" style="fill:white;fill-rule:nonzero;"/>
            </g>
        </g>
        <g transform="matrix(1,0,0,1,6754.51,3331.42)">
            <g transform="matrix(1,0,0,1,747.475,774.89)">
                <path d="M0,-23.65L-11.825,-11.825L0,0L3.285,-3.285L-5.256,-11.825L3.285,-20.365L0,-23.65Z" style="fill:white;fill-rule:nonzero;"/>
            </g>
        </g>
        <g transform="matrix(1,0,0,1,6754.51,3331.42)">
            <g transform="matrix(1,0,0,1,824.232,766.351)">
                <path d="M3.285,-3.285L-8.54,-15.11L-11.825,-11.826L-3.285,-3.285L-11.825,5.255L-8.54,8.54L3.285,-3.285Z" style="fill:white;fill-rule:nonzero;"/>
            </g>
        </g>
        <g transform="matrix(1,0,0,1,6754.51,3331.42)">
            <g transform="matrix(1,0,0,1,-17.1339,26)">
                <g transform="matrix(1,0,0,1,472.601,1135.76)">
                    <path d="M0,22.375C-1.334,39.333 -11.215,49.758 -26.158,49.758C-44.123,49.758 -54.331,35.74 -54.331,11.242C-54.331,-13.446 -44.123,-27.383 -25.941,-27.383C-16.604,-27.383 -9.527,-23.654 -5.145,-16.468C-2.232,-11.759 -1.007,-6.941 -0.327,1.606L-15.379,2.722C-15.815,-3.783 -16.277,-6.369 -17.72,-8.955C-19.626,-12.33 -22.348,-14.018 -25.804,-14.018C-33.78,-14.018 -37.046,-6.26 -37.046,12.494C-37.046,29.452 -33.78,36.393 -25.804,36.393C-19.87,36.393 -16.495,31.684 -15.27,21.368L0,22.375Z" style="fill:rgb(38,82,154);fill-rule:nonzero;"/>
                </g>
                <g transform="matrix(1,0,0,1,503.959,1147.12)">
                    <path d="M0,-0.327C0,18.645 2.477,25.042 9.881,25.042C17.285,25.042 19.762,18.645 19.762,-0.218C19.762,-18.837 17.176,-25.369 9.99,-25.369C2.586,-25.369 0,-19.082 0,-0.327M28.064,-31.548C34.134,-24.907 37.046,-14.808 37.046,-0.109C37.046,25.287 27.737,38.407 9.881,38.407C-7.975,38.407 -17.285,25.287 -17.285,0.136C-17.285,-25.805 -8.084,-38.734 10.207,-38.734C17.393,-38.734 23.817,-36.148 28.064,-31.548" style="fill:rgb(38,82,154);fill-rule:nonzero;"/>
                </g>
                <g transform="matrix(1,0,0,1,576.717,1184.41)">
                    <path d="M0,-74.882L19.108,-28.418L19.108,-74.882L31.902,-74.882L31.902,0L17.203,0L-5.498,-54.222L-5.498,0L-18.292,0L-18.292,-74.882L0,-74.882Z" style="fill:rgb(38,82,154);fill-rule:nonzero;"/>
                </g>
                <g transform="matrix(1,0,0,1,673.212,1184.41)">
                    <path d="M0,-74.882L0,-61.98L-27.955,-61.98L-27.955,-42.436L-6.397,-42.436L-6.397,-29.534L-27.955,-29.534L-27.955,0L-44.341,0L-44.341,-74.882L0,-74.882Z" style="fill:rgb(38,82,154);fill-rule:nonzero;"/>
                </g>
                <g transform="matrix(1,0,0,1,730.727,1184.41)">
                    <path d="M0,-74.882L0,-61.98L-29.071,-61.98L-29.071,-44.695L-6.397,-44.695L-6.397,-31.766L-29.071,-31.766L-29.071,-13.365L0,-13.365L0,0L-45.457,0L-45.457,-74.882L0,-74.882Z" style="fill:rgb(38,82,154);fill-rule:nonzero;"/>
                </g>
                <g transform="matrix(1,0,0,1,761.867,1151.17)">
                    <path d="M0,-8.411L7.186,-8.411C13.474,-8.411 16.849,-12.249 16.849,-19.299C16.849,-22.892 15.733,-25.941 13.583,-27.737C12.14,-28.962 10.099,-29.534 6.506,-29.534L0,-29.534L0,-8.411ZM7.077,-41.646C17.176,-41.646 20.442,-40.857 24.825,-37.727C29.996,-33.807 32.909,-27.165 32.909,-18.972C32.909,-9.445 29.86,-3.92 22.348,0.572L36.148,33.235L18.183,33.235L8.193,3.702L0,3.702L0,33.235L-16.386,33.235L-16.386,-41.646L7.077,-41.646Z" style="fill:rgb(38,82,154);fill-rule:nonzero;"/>
                </g>
                <g transform="matrix(1,0,0,1,858.824,1184.41)">
                    <path d="M0,-74.882L0,-61.98L-29.098,-61.98L-29.098,-44.695L-6.424,-44.695L-6.424,-31.766L-29.098,-31.766L-29.098,-13.365L0,-13.365L0,0L-45.484,0L-45.484,-74.882L0,-74.882Z" style="fill:rgb(38,82,154);fill-rule:nonzero;"/>
                </g>
                <g transform="matrix(1,0,0,1,891.161,1184.41)">
                    <path d="M0,-74.882L19.108,-28.418L19.108,-74.882L31.902,-74.882L31.902,0L17.203,0L-5.498,-54.222L-5.498,0L-18.292,0L-18.292,-74.882L0,-74.882Z" style="fill:rgb(38,82,154);fill-rule:nonzero;"/>
                </g>
                <g transform="matrix(1,0,0,1,995.06,1135.76)">
                    <path d="M0,22.375C-1.334,39.333 -11.215,49.758 -26.158,49.758C-44.123,49.758 -54.331,35.74 -54.331,11.242C-54.331,-13.446 -44.123,-27.383 -25.941,-27.383C-16.604,-27.383 -9.527,-23.654 -5.145,-16.468C-2.232,-11.759 -1.007,-6.941 -0.327,1.606L-15.379,2.722C-15.815,-3.783 -16.278,-6.369 -17.72,-8.955C-19.626,-12.33 -22.348,-14.018 -25.804,-14.018C-33.78,-14.018 -37.046,-6.26 -37.046,12.494C-37.046,29.452 -33.78,36.393 -25.804,36.393C-19.871,36.393 -16.495,31.684 -15.27,21.368L0,22.375Z" style="fill:rgb(38,82,154);fill-rule:nonzero;"/>
                </g>
                <g transform="matrix(1,0,0,1,1056.71,1184.41)">
                    <path d="M0,-74.882L0,-61.98L-29.071,-61.98L-29.071,-44.695L-6.397,-44.695L-6.397,-31.766L-29.071,-31.766L-29.071,-13.365L0,-13.365L0,0L-45.457,0L-45.457,-74.882L0,-74.882Z" style="fill:rgb(38,82,154);fill-rule:nonzero;"/>
                </g>
            </g>
        </g>
    </g>
</svg>
