<?xml version="1.0" encoding="UTF-8" standalone="no"?>
<!DOCTYPE svg PUBLIC "-//W3C//DTD SVG 1.1//EN" "http://www.w3.org/Graphics/SVG/1.1/DTD/svg11.dtd">
<svg width="100%" height="100%" viewBox="0 0 766 747" version="1.1" xmlns="http://www.w3.org/2000/svg" xmlns:xlink="http://www.w3.org/1999/xlink" xml:space="preserve" xmlns:serif="http://www.serif.com/" style="fill-rule:evenodd;clip-rule:evenodd;stroke-linejoin:round;stroke-miterlimit:2;">
    <g transform="matrix(1,0,0,1,-554.963,-163.776)">
        <g transform="matrix(0.60849,0,0,0.60849,483.336,251.878)">
            <path d="M1108.27,373.45L989.57,121.69C989.548,121.655 989.511,121.633 989.47,121.63L806.41,121.63C805.565,121.63 804.87,122.325 804.87,123.17L822.81,183.52L827.81,201.46L748.26,373.46C748.255,373.473 748.252,373.486 748.252,373.5C748.252,373.559 748.301,373.609 748.36,373.61L845.36,373.61C845.401,373.609 845.439,373.586 845.46,373.55L865,330.16C865.019,330.123 865.058,330.099 865.1,330.1L969.4,330.1C969.44,330.098 969.477,330.122 969.49,330.16L986.49,372.63C986.718,373.222 987.285,373.619 987.92,373.63L1108.17,373.63C1108.18,373.638 1108.2,373.643 1108.22,373.643C1108.28,373.643 1108.32,373.596 1108.32,373.54C1108.32,373.503 1108.3,373.468 1108.27,373.45ZM947,272.2L890.2,272.2C890.141,272.199 890.092,272.149 890.092,272.09C890.092,272.076 890.095,272.063 890.1,272.05L920.2,203.21C920.218,203.171 920.257,203.146 920.3,203.146C920.343,203.146 920.382,203.171 920.4,203.21L947.11,272.04C947.118,272.056 947.122,272.073 947.122,272.091C947.122,272.151 947.073,272.201 947.012,272.201C947.008,272.201 947.004,272.2 947,272.2Z" style="fill:rgb(38,82,154);fill-rule:nonzero;"/>
        </g>
        <g transform="matrix(0.60849,0,0,0.60849,32.0023,291.576)">
            <path d="M1302.88,201.544L1302.88,372.06C1302.88,372.905 1302.18,373.6 1301.34,373.6L1191.66,373.6C1190.82,373.6 1190.12,372.905 1190.12,372.06L1190.12,201.549C1190.12,201.5 1190.08,201.459 1190.03,201.459L1190.02,201.46L1090.27,201.46C1089.42,201.46 1088.73,200.765 1088.73,199.92L1088.73,123.17C1088.73,122.325 1089.42,121.63 1090.27,121.63L1402.35,121.63C1403.19,121.63 1403.89,122.325 1403.89,123.17L1403.89,199.92C1403.89,200.765 1403.19,201.46 1402.35,201.46L1303,201.46C1302.99,201.456 1302.98,201.454 1302.97,201.454C1302.92,201.454 1302.88,201.495 1302.88,201.544Z" style="fill:rgb(38,82,154);fill-rule:nonzero;"/>
        </g>
        <g transform="matrix(0.463381,-0.0336505,0.0310463,0.42752,626.275,398.148)">
            <g>
                <path d="M1124.24,442.64L1012.06,263.92L1053.48,263.92L934.64,75.26L815.8,263.92L857.21,263.92L750,434.74L642.79,263.92L684.2,263.92L565.36,75.26L446.52,263.92L487.94,263.92L375.76,442.64L417.13,442.64L300.34,629.64L517.19,629.64L517.19,708.77L613.53,708.77L613.53,629.61L886.47,629.61L886.47,708.74L982.81,708.74L982.81,629.61L1199.66,629.61L1082.87,442.61L1124.24,442.64ZM713.6,442.64L786.41,442.64L750,500.92L713.6,442.64Z" style="fill:rgb(247,70,70);fill-rule:nonzero;"/>
                <path d="M211.64,142.25L25,328.89L76.85,380.74L211.64,515.54L263.49,463.69L128.69,328.89L263.49,194.1L211.64,142.25Z" style="fill:rgb(247,70,70);fill-rule:nonzero;"/>
                <path d="M1423.15,277.05L1288.36,142.25L1236.51,194.1L1371.31,328.89L1236.51,463.69L1288.36,515.54L1423.15,380.74L1475,328.89L1423.15,277.05Z" style="fill:rgb(247,70,70);fill-rule:nonzero;"/>
            </g>
        </g>
        <g transform="matrix(0.601855,-0.0896158,0.0896158,0.601855,535.912,389.167)">
            <path d="M597.9,372.06L597.9,286.31C597.9,286.25 597.85,286.2 597.79,286.2L498.11,286.2C498.053,286.205 498.01,286.253 498.01,286.31L498.01,372.06C498.01,372.905 497.315,373.6 496.47,373.6L387.18,373.6C386.335,373.6 385.64,372.905 385.64,372.06L385.64,123.17C385.64,122.325 386.335,121.63 387.18,121.63L496.47,121.63C497.315,121.63 498.01,122.325 498.01,123.17L498.01,216.11C498.01,216.165 498.055,216.21 498.11,216.21L597.79,216.21C597.793,216.21 597.797,216.211 597.8,216.211C597.855,216.211 597.9,216.165 597.9,216.111L597.9,123.17C597.9,122.325 598.595,121.63 599.44,121.63L709.09,121.63C709.935,121.63 710.63,122.325 710.63,123.17L710.63,372.06C710.63,372.905 709.935,373.6 709.09,373.6L599.44,373.6C598.595,373.6 597.9,372.905 597.9,372.06Z" style="fill:rgb(38,82,154);fill-rule:nonzero;"/>
        </g>
        <g transform="matrix(0.60849,0,0,0.60849,435.104,330.667)">
            <path d="M1302.88,201.544L1302.88,372.06C1302.88,372.905 1302.18,373.6 1301.34,373.6L1191.66,373.6C1190.82,373.6 1190.12,372.905 1190.12,372.06L1190.12,201.549C1190.12,201.5 1190.08,201.459 1190.03,201.459L1190.02,201.46L1090.27,201.46C1089.42,201.46 1088.73,200.765 1088.73,199.92L1088.73,123.17C1088.73,122.325 1089.42,121.63 1090.27,121.63L1402.35,121.63C1403.19,121.63 1403.89,122.325 1403.89,123.17L1403.89,199.92C1403.89,200.765 1403.19,201.46 1402.35,201.46L1303,201.46C1302.99,201.456 1302.98,201.454 1302.97,201.454C1302.92,201.454 1302.88,201.495 1302.88,201.544Z" style="fill:rgb(38,82,154);fill-rule:nonzero;"/>
        </g>
        <g transform="matrix(7.48335,3.07663,-2.73025,6.64085,590.435,134.366)">
            <path d="M4.62,5C6.24,5.12 8.06,5.23 10.06,5.33L11.59,5.41L13.12,5.41C13.933,5.484 14.714,5.763 15.39,6.22C16.096,6.718 16.652,7.399 17,8.19C17.185,8.581 17.319,8.995 17.4,9.42L17.76,11.32L19.31,19.37C21.5,30.53 24.14,43.27 26.9,55.98L27.9,60.74L28.42,63.11L28.7,64.36C28.83,64.909 29.011,65.445 29.24,65.96C30.159,68.044 31.8,69.728 33.86,70.7C34.873,71.177 35.964,71.468 37.08,71.56L39.69,71.56C45.99,71.5 52.09,71.42 57.78,71.3C69.16,71.07 78.9,70.73 85.38,70.3C85.84,70.3 86.2,69.6 86.16,68.83C86.12,68.06 85.79,67.58 85.38,67.55C78.9,67.09 69.16,66.74 57.78,66.55C52.09,66.44 46,66.35 39.69,66.29L37.64,66.29C37.164,66.243 36.7,66.111 36.27,65.9C35.408,65.482 34.721,64.774 34.33,63.9C34.234,63.678 34.161,63.447 34.11,63.21L33.85,62L33.34,59.62L32.34,54.85L32.28,54.59C41.16,55.06 54.28,55.41 69.23,55.59L81.59,55.74L83.29,55.74C84.085,55.713 84.87,55.564 85.62,55.3C87.146,54.767 88.474,53.783 89.43,52.48C89.908,51.826 90.285,51.105 90.55,50.34C90.681,49.958 90.784,49.567 90.86,49.17L91.01,48.36L91.59,45.15C93.13,36.57 94.67,27.8 96.14,19.15C96.162,19.011 96.173,18.87 96.173,18.73C96.173,17.232 94.94,16 93.443,16C93.432,16 93.421,16 93.41,16C64.94,16.09 38.41,16.54 24.32,17.36C24.138,17.374 23.966,17.448 23.83,17.57L22.08,10.36L21.61,8.48C21.411,7.679 21.105,6.909 20.7,6.19C19.91,4.851 18.773,3.749 17.41,3C16.146,2.288 14.721,1.912 13.27,1.91L11.6,1.91L10.07,2C8.07,2.1 6.24,2.21 4.63,2.33C4.18,2.33 3.83,3.01 3.87,3.77C3.91,4.53 4.22,5 4.62,5ZM87.92,34.32C85,34 81.3,33.75 77.09,33.57C77.579,29.533 77.76,25.464 77.63,21.4L90.16,21.48C89.4,25.74 88.65,30 87.92,34.32ZM71.64,33.38C68.2,33.29 64.58,33.23 60.92,33.21C60.898,29.19 60.563,25.178 59.92,21.21C64.47,21.28 69.23,21.34 74.14,21.39C73.016,25.321 72.178,29.328 71.63,33.38L71.64,33.38ZM55.47,38.69C55.478,42.789 55.88,46.878 56.67,50.9C52.91,50.98 49.34,51.07 46.01,51.17C46.127,46.947 45.92,42.721 45.39,38.53C48.64,38.62 52,38.67 55.47,38.69ZM55.47,33.21C51.8,33.21 48.18,33.29 44.75,33.39C44.171,29.133 43.252,24.93 42,20.82C46.44,20.94 51.28,21.05 56.41,21.13C55.778,25.126 55.46,29.165 55.46,33.21L55.47,33.21ZM39.29,33.58C34.74,33.78 30.75,34.06 27.77,34.42C26.64,29.47 25.53,24.68 24.44,20.13C28.35,20.36 33.21,20.55 38.8,20.72C38.585,25.016 38.745,29.322 39.28,33.59L39.29,33.58ZM28.48,37.58C31.48,37.92 35.42,38.18 39.87,38.37C40.424,42.743 41.303,47.068 42.5,51.31C38.4,51.45 34.76,51.6 31.65,51.77C30.59,47 29.53,42.21 28.47,37.56L28.48,37.58ZM69.2,50.68L59.71,50.84C60.486,46.836 60.881,42.768 60.89,38.69C64.32,38.69 67.72,38.62 70.96,38.54C70.462,42.563 70.248,46.617 70.32,50.67L69.2,50.68ZM85.67,47.46L85.54,48.25C85.514,48.382 85.481,48.512 85.44,48.64C85.355,48.896 85.234,49.139 85.08,49.36C84.769,49.811 84.33,50.16 83.82,50.36C83.567,50.455 83.3,50.509 83.03,50.52L81.56,50.52L74.07,50.61C75.152,46.585 75.964,42.493 76.5,38.36C80.68,38.19 84.4,37.95 87.34,37.65C86.96,39.857 86.587,42.057 86.22,44.25L85.67,47.46Z" style="fill:rgb(184,184,184);fill-rule:nonzero;"/>
        </g>
        <g transform="matrix(8.09111,0,0,7.18019,270.384,205.387)">
            <path d="M45.77,84.51C46.917,84.669 47.977,85.216 48.77,86.06C49.457,86.788 49.96,87.669 50.24,88.63C50.709,88.82 51.218,88.889 51.72,88.83C52.42,88.83 52.96,88.69 52.98,88.52C53.186,86.876 52.833,85.21 51.98,83.79C50.832,81.812 48.941,80.372 46.73,79.79C45.461,79.453 44.134,79.395 42.84,79.62C41.46,79.867 40.153,80.424 39.02,81.25C36.604,83.008 35.172,85.822 35.172,88.81C35.172,91.798 36.604,94.612 39.02,96.37C40.177,97.207 41.512,97.765 42.92,98C44.211,98.221 45.535,98.159 46.8,97.82C49.006,97.237 50.889,95.796 52.03,93.82C52.866,92.409 53.208,90.757 53,89.13C53,88.95 52.33,88.82 51.58,88.83C51.153,88.788 50.722,88.857 50.33,89.03C50.047,89.995 49.54,90.879 48.85,91.61C48.042,92.462 46.965,93.01 45.8,93.16C44.555,93.323 43.297,92.961 42.33,92.16C41.335,91.346 40.757,90.126 40.757,88.84C40.757,87.554 41.335,86.334 42.33,85.52C43.287,84.723 44.534,84.357 45.77,84.51Z" style="fill:rgb(184,184,184);fill-rule:nonzero;"/>
        </g>
    </g>
</svg>
