<?xml version="1.0" encoding="utf-8"?>
<!-- Generator: Adobe Illustrator 24.0.3, SVG Export Plug-In . SVG Version: 6.00 Build 0)  -->
<svg version="1.1" id="Layer_1" xmlns="http://www.w3.org/2000/svg" xmlns:xlink="http://www.w3.org/1999/xlink" x="0px" y="0px"
	 viewBox="0 0 430 462" style="enable-background:new 0 0 430 462;" xml:space="preserve">
<style type="text/css">
	.st0{fill:#919191;}
	.st1{fill:#F28152;}
	.st2{fill:#EC4848;}
	.st3{fill:#3A3938;}
	.st4{fill:#FFFFFF;}
	.st5{fill:#F0EFEE;}
</style>
<title>Conference Ticket</title>
<path class="st0" d="M365.7,94.4c-4.5-12.9-13.6-23.2-24-31.7s-22-16.2-34.5-21.6c-12.8-5.5-26.4-9.1-40.4-8.7
	c-14.8,0.5-28.6,5.6-41.7,12.2c-25.2,12.8-48.3,29.2-73,42.8c-6.2,3.4-12.5,6.6-18.9,9.6c-1.4,0.7-2.9,1.3-4.3,1.9l-0.6,0.2
	l-0.6,0.2l-2.6,1.1c-3.2,1.3-6.3,2.4-9.5,3.5c-6.5,2.2-13.2,4-19.9,5.4c-1.6,0.3-3.1,0.6-4.7,0.9l-2.5,0.4c-0.4,0.1-0.8,0.1-1.2,0.2
	c1.9-0.2-0.2,0-0.5,0.1c-3.3,0.4-6.7,0.7-10,0.8s-6.7,0.1-10,0c-1.7-0.1-3.3-0.2-5-0.3l-2.5-0.3l-0.9-0.1c-0.9-0.1,1.3,0.2-0.2,0
	c-6.6-1-13-2.7-19.2-5l-1-0.4c-1-0.4,1.2,0.6,0.3,0.1c-0.7-0.3-1.3-0.6-2-0.9c-1.4-0.7-2.8-1.4-4.1-2.2c-1.2-0.7-2.3-1.5-3.4-2.2
	c-0.9-0.6,1,0.9,0.2,0.2l-0.8-0.7c-0.6-0.5-1.2-1.1-1.8-1.6s-1-1-1.5-1.5c-0.2-0.3-0.4-0.6-0.7-0.8c0.1,0,1,1.4,0.2,0.3
	c-0.8-1.1-1.6-2.4-2.2-3.6c-0.2-0.3-0.3-0.7-0.5-1c0.5,1.6,0.2,0.5,0.1,0.2c-0.2-0.8-0.5-1.5-0.7-2.3c-0.3-0.7-0.4-1.5-0.5-2.3
	c0,0.1,0.1,1.7,0.1,0.2c0-0.4,0-0.8-0.1-1.2c0-0.8,0-1.6,0-2.4c0-0.4,0.1-0.8,0.1-1.2c0.1-1.5-0.1,0.1-0.1,0.2
	c0-0.8,0.2-1.6,0.5-2.4c0.2-0.9,0.5-1.8,0.7-2.6c0.1-0.4,0.2-0.8,0.4-1.1c0.1-0.2,0.5-1.4,0.2-0.5s0-0.1,0.1-0.2
	c0.2-0.4,0.3-0.7,0.5-1.1c0.7-1.5,1.6-2.9,2.5-4.3c0.2-0.3,0.4-0.6,0.7-1s0.9-1.2,0.3-0.4s0.2-0.2,0.3-0.4l0.8-0.9
	c1.1-1.2,2.3-2.4,3.5-3.6c1.1-1,2.2-1.9,3.3-2.9c0.8-0.7-1,0.7-0.1,0.1l1-0.7c0.7-0.5,1.4-1,2.2-1.5c2.7-1.8,5.5-3.4,8.4-4.8
	c1.4-0.7,2.9-1.4,4.3-2.1c0.4-0.2,2.5-1.2,1-0.4c0.8-0.4,1.7-0.7,2.5-1c6.1-2.3,12.4-4.1,18.9-5.5c6.4-1.4,12.8-2.5,19.3-3.3
	l1.2-0.2c-0.3,0-1.6,0.2-0.2,0l2.4-0.3c1.6-0.2,3.2-0.4,4.9-0.6l11-1.3l45.6-5.4l45.9-5.5c15-1.8,30.1-3.8,45.2-4.9
	c15-1.3,30.1-1.1,45,0.6c-1.4-0.2,0.6,0.1,1.1,0.2l2.2,0.3c1.6,0.3,3.1,0.6,4.7,0.9c3,0.6,5.9,1.3,8.8,2.1s6,1.8,8.9,2.8
	c1.3,0.5,2.7,1,4,1.5l1,0.4c1,0.4-1.2-0.5-0.2-0.1c0.8,0.3,1.5,0.7,2.3,1c5.5,2.5,10.8,5.5,15.8,9c0.5,0.4,1.1,0.8,1.6,1.1l0.9,0.7
	c1.2,0.9-0.1-0.1-0.2-0.2c0.5,0.1,1.3,1.1,1.7,1.4c0.6,0.5,1.3,1.1,1.9,1.6c2.3,2,4.5,4.2,6.5,6.5c1,1,1.9,2.1,2.7,3.2l0.7,0.9
	c0.7,0.8-0.7-1-0.1-0.1c0.5,0.7,1.1,1.4,1.6,2.2c0.8,1.2,1.6,2.5,2.4,3.8c0.4,0.7,0.8,1.4,1.1,2.1c0.2,0.4,0.4,0.7,0.5,1.1
	c0.4,0.8,0.6,0.9,0.1,0.1c0.8,1.2,1.1,3.2,1.5,4.5c0.2,0.8,0.3,1.5,0.5,2.3c0,0.2,0.2,1.2,0,0.2s0,0.5,0,0.8s0.2,4.2-0.1,4.2
	c0,0,0.4-2,0-0.5c-0.1,0.3-0.1,0.7-0.2,1c-0.2,0.7-0.4,1.5-0.6,2.2c-0.2,0.6-0.5,1.1-0.6,1.7c0.3-1.4,0.4-0.9,0.1-0.4
	c-0.2,0.3-0.3,0.6-0.5,0.9c-0.3,0.6-0.7,1.2-1,1.7c-0.2,0.3-0.3,0.6-0.6,0.8c0,0,1.2-1.4,0.2-0.4c-0.5,0.5-0.9,1-1.4,1.4
	c-0.3,0.2-0.5,0.4-0.7,0.7c0.1-0.1,1.5-1,0.4-0.3c-0.5,0.3-1,0.6-1.5,0.9c-0.3,0.2-0.6,0.3-0.9,0.4c-0.9,0.5,1.8-0.7,0.2-0.1
	c-3.7,1.3-6.5,5.2-5.2,9.2c1.2,3.6,5.3,6.7,9.2,5.2c14.4-5.3,20.3-20.9,17.1-35.2c-1.6-6.9-5.2-13.4-9.4-19
	c-4-5.3-8.6-10.1-13.6-14.3c-21.3-17.6-48.5-25.2-75.7-26.7c-15.5-0.9-31.1,0.2-46.5,1.9c-15.6,1.6-31.2,3.6-46.7,5.5
	c-30.8,3.7-61.7,7.1-92.4,11.1c-13.8,1.8-27.8,3.9-41,8.4S27.3,46.4,17.8,56.8C7.2,68.4,2.3,84.7,9,99.5
	c5.7,12.5,19.4,19.3,31.9,23.1c27.8,8.3,58,3.9,84.6-6.1c27.5-10.3,52.1-26.4,77.1-41.7c12.2-7.4,24.5-14.9,37.6-20.7
	c0.4-0.2,2.6-1.1,1.2-0.5l2.4-0.9c1.8-0.7,3.6-1.3,5.4-1.9c3.4-1.1,6.8-1.9,10.3-2.5l1.2-0.2c1.1-0.2-1.3,0.1-0.2,0
	c0.8-0.1,1.6-0.2,2.4-0.2c1.7-0.2,3.4-0.2,5.1-0.3c3.3,0,6.6,0.2,9.9,0.5c1.1,0.1-1.3-0.2-0.2,0l1.2,0.2c0.8,0.1,1.6,0.3,2.4,0.4
	c1.7,0.3,3.3,0.7,5,1.1c3.3,0.8,6.6,1.8,9.8,3c0.8,0.3,1.5,0.6,2.3,0.9l1,0.4c1.6,0.6,3.2,1.4,4.8,2.2c3.1,1.5,6,3.1,9,4.8
	s6,3.6,8.9,5.6c1.3,0.9,2.7,1.9,4,2.8l2,1.5c0.2,0.2,1.1,0.9-0.1-0.1l1.2,0.9c5.1,3.9,9.8,8.3,14,13.1c0.5,0.6,1,1.2,1.5,1.8
	c0.1,0.2,0.9,1.2,0.3,0.4s0.1,0.2,0.3,0.4c0.9,1.2,1.8,2.5,2.5,3.8s1.5,2.6,2.2,4c0.2,0.3,0.3,0.7,0.5,1s0.5,1.4,0.2,0.4
	s0.1,0.2,0.1,0.4c0.2,0.4,0.3,0.9,0.5,1.4c1.3,3.7,5.2,6.5,9.2,5.2C364.1,102.4,367.1,98.4,365.7,94.4L365.7,94.4z"/>
<path class="st1" d="M29.3,295.4L265.7,59c4.7-4.7,12.3-4.7,17,0l138.5,138.5c4.7,4.7,4.7,12.3,0,17L184.7,450.9
	c-4.7,4.7-12.3,4.7-17,0L29.3,312.4C24.6,307.7,24.6,300.1,29.3,295.4z"/>
<path class="st2" d="M49.3,296.6L266.9,79c4.7-4.7,12.3-4.7,17,0l117.3,117.3c4.7,4.7,4.7,12.3,0,17L183.5,430.8
	c-4.7,4.7-12.3,4.7-17,0L49.3,313.5C44.6,308.9,44.6,301.3,49.3,296.6z"/>
<path class="st3" d="M355.5,83.3c-9,9-11.1,22.8-5.3,34.1l-14,14l12.6,12.6l14-14c14.4,7.4,32,1.8,39.4-12.6
	c7.4-14.4,1.8-32-12.6-39.4C378.2,72.1,364.5,74.3,355.5,83.3z M387,114.8c-6,6-15.6,6-21.6,0c-6-6-6-15.6,0-21.6c6-6,15.6-6,21.6,0
	c0,0,0,0,0,0C393,99.1,393,108.8,387,114.8z"/>
<path class="st4" d="M308,234.3l-26.4,26.4c0.3,5.9,7.1,7,7.8,12.1c-3.6,3.6-7.3,7.3-10.8,10.8c-5.1-1-6.6-6.2-11.6-8.1l-33.8,33.8
	l8.1,9c-1.8,5.8-7.1,8.2-10.2,12.1c-5.6-0.8-7.2-6.1-12.1-7.9L191.6,350c-3.2-13.9-6-25.8-8.7-37.4c-2.5-2.2-3.9,2.9-6.4-0.1
	c-2.2-10-4.5-20.5-6.8-31.1c-2.1-3.2-3.6,1.3-6.4,0.3c-2.6-11.9-5.3-24.3-8.4-38.5l38.7,8.8l-2.3,6l33,7.9l-6.7-31.4
	c-2.1-3-3.5,0.1-6.4-0.4c-2.7-11.8-5.4-24.2-8.6-38l36.7,8.4c4.3,1.9,0.3,4.4,2.6,7.1l31.6,7.7c-0.7,2.1-1.3,3.9-1.9,5.9L308,234.3z
	"/>
<path class="st5" d="M286.9,204.4c0.5-11,0.9-22,1.4-33.7l-34-0.8c-1.9-4.4-1.1-8.4-0.6-12.8l46.9,1.2c0.3,14.4,0.6,30.2,0.9,46
	C296.6,205.6,292.3,205.4,286.9,204.4z"/>
<path class="st5" d="M120.1,298.3l13.1,0.4c-0.5,11.5-1,22.5-1.5,35.7l33.8-2.6c3,6,1.8,10,1.8,14.4l-46.2-1.4
	C120.8,331,120.5,315.3,120.1,298.3z"/>
<path class="st0" d="M363.9,103.9c-6.9,0-12.1-6.1-13.1-7.3c-0.2-0.3-0.4-0.7-0.6-1c0-0.1-5.1-8.9-10.5-14.5
	c-2.9-3-2.8-7.7,0.2-10.6c3-2.9,7.7-2.8,10.6,0.2c5.8,6.1,10.9,14.5,12.3,16.9c0,0.1,2.7,4.8,2.8,4.8c7.5-3,4.3-3.2,9.2-3.7
	c2.7-0.3,2.6,3.2,0.9,7c-3.1,6.4-7.8,7.9-10.4,8.2C364.8,103.9,364.4,103.9,363.9,103.9z"/>
</svg>
