<?xml version="1.0" encoding="UTF-8" standalone="no"?>
<!DOCTYPE svg PUBLIC "-//W3C//DTD SVG 1.1//EN" "http://www.w3.org/Graphics/SVG/1.1/DTD/svg11.dtd">
<svg width="100%" height="100%" viewBox="0 0 824 533" version="1.1" xmlns="http://www.w3.org/2000/svg" xmlns:xlink="http://www.w3.org/1999/xlink" xml:space="preserve" xmlns:serif="http://www.serif.com/" style="fill-rule:evenodd;clip-rule:evenodd;stroke-linejoin:round;stroke-miterlimit:2;">
    <g transform="matrix(1,0,0,1,-1565.98,-5712.23)">
        <g transform="matrix(4.16667,0,0,4.16667,0,0)">
            <g transform="matrix(0.181706,0.983353,0.983353,-0.181706,460.147,1376.55)">
                <path d="M74.235,-70.944L82.749,-70.944L85.254,89.21L76.74,89.21L74.235,-70.944Z" style="fill:rgb(29,89,158);fill-rule:nonzero;"/>
            </g>
        </g>
        <g transform="matrix(4.16667,0,0,4.16667,0,0)">
            <g transform="matrix(0.454341,0.890828,0.890828,-0.454341,561.43,1492.55)">
                <path d="M-74.338,38.791L-65.825,38.791L-63.33,-121.362L-71.843,-121.362L-74.338,38.791Z" style="fill:rgb(29,89,158);fill-rule:nonzero;"/>
            </g>
        </g>
        <g transform="matrix(4.16667,0,0,4.16667,0,0)">
            <g transform="matrix(1,0,0,1,409.614,1459.35)">
                <path d="M0,15.246L-7.685,17.854C-9.314,18.407 -11.082,17.534 -11.635,15.906L-15.692,3.949C-16.245,2.32 -15.373,0.552 -13.744,-0.001L-6.059,-2.608C-4.43,-3.161 -2.662,-2.289 -2.109,-0.66L1.948,11.297C2.501,12.925 1.629,14.693 0,15.246" style="fill:rgb(32,40,37);fill-rule:nonzero;"/>
            </g>
        </g>
        <g transform="matrix(4.16667,0,0,4.16667,0,0)">
            <g transform="matrix(1,0,0,1,427.756,1480.74)">
                <path d="M0,15.246L-7.685,17.854C-9.314,18.407 -11.082,17.534 -11.635,15.906L-15.692,3.949C-16.245,2.32 -15.373,0.552 -13.744,-0.001L-6.059,-2.608C-4.43,-3.161 -2.662,-2.289 -2.109,-0.66L1.948,11.297C2.501,12.925 1.629,14.693 0,15.246" style="fill:rgb(32,40,37);fill-rule:nonzero;"/>
            </g>
        </g>
        <g transform="matrix(4.16667,0,0,4.16667,0,0)">
            <g transform="matrix(1,0,0,1,571.269,1404.5)">
                <path d="M0,15.246L-7.685,17.854C-9.314,18.407 -11.082,17.534 -11.635,15.906L-15.692,3.949C-16.245,2.32 -15.373,0.552 -13.744,-0.001L-6.059,-2.608C-4.43,-3.161 -2.662,-2.289 -2.109,-0.66L1.948,11.297C2.501,12.925 1.629,14.693 0,15.246" style="fill:rgb(32,40,37);fill-rule:nonzero;"/>
            </g>
        </g>
        <g transform="matrix(4.16667,0,0,4.16667,0,0)">
            <g transform="matrix(1,0,0,1,569.893,1432.51)">
                <path d="M0,15.246L-7.685,17.854C-9.314,18.407 -11.082,17.534 -11.635,15.906L-15.692,3.949C-16.245,2.32 -15.373,0.552 -13.744,-0.001L-6.059,-2.608C-4.43,-3.161 -2.662,-2.289 -2.109,-0.66L1.948,11.297C2.501,12.925 1.629,14.693 0,15.246" style="fill:rgb(32,40,37);fill-rule:nonzero;"/>
            </g>
        </g>
        <g transform="matrix(4.16667,0,0,4.16667,0,0)">
            <g transform="matrix(-0.32143,-0.946933,-0.946933,0.32143,392.111,1436.68)">
                <path d="M-2.155,-3.007C-3.412,-3.007 -4.431,-1.987 -4.431,-0.731C-4.431,0.526 -3.412,1.545 -2.155,1.545C-0.898,1.545 0.121,0.525 0.121,-0.731C0.121,-1.988 -0.899,-3.007 -2.155,-3.007" style="fill:rgb(32,40,37);fill-rule:nonzero;"/>
            </g>
        </g>
        <g transform="matrix(4.16667,0,0,4.16667,0,0)">
            <g transform="matrix(-0.321318,-0.946971,-0.946971,0.321318,406.885,1443.31)">
                <rect x="-13.804" y="9.893" width="22.669" height="2.476" style="fill:rgb(32,40,37);"/>
            </g>
        </g>
        <g transform="matrix(4.16667,0,0,4.16667,0,0)">
            <g transform="matrix(1,0,0,1,379.248,1426.99)">
                <path d="M0,19.847C-2.498,12.485 4.369,3.499 15.339,-0.224C16.478,-0.61 17.615,-0.921 18.743,-1.166C15.921,-1.332 12.814,-0.926 9.702,0.13C0.626,3.21 -5.056,10.645 -2.989,16.736C-2.369,18.563 -1.119,20.059 0.567,21.179C0.346,20.753 0.157,20.308 0,19.847" style="fill:rgb(132,165,214);fill-rule:nonzero;"/>
            </g>
        </g>
        <g transform="matrix(4.16667,0,0,4.16667,0,0)">
            <g transform="matrix(1,0,0,1,407.109,1450.34)">
                <path d="M0,-21.566C0.407,-20.163 0.479,-18.706 0.259,-17.243C-0.314,-10.501 -6.396,-3.695 -15.282,-0.68C-16.058,-0.416 -16.835,-0.193 -17.609,0C-15.238,-0.042 -12.719,-0.462 -10.192,-1.32C-1.115,-4.399 4.567,-11.834 2.5,-17.926C2.017,-19.347 1.152,-20.566 0,-21.566" style="fill:rgb(132,165,214);fill-rule:nonzero;"/>
            </g>
        </g>
        <g transform="matrix(4.16667,0,0,4.16667,0,0)">
            <g transform="matrix(1,0,0,1,540.903,1372.14)">
                <path d="M0,19.847C-2.498,12.485 4.369,3.499 15.339,-0.224C16.478,-0.61 17.615,-0.921 18.743,-1.166C15.921,-1.332 12.814,-0.926 9.702,0.13C0.626,3.21 -5.056,10.645 -2.989,16.736C-2.369,18.563 -1.119,20.059 0.567,21.179C0.346,20.753 0.157,20.308 0,19.847" style="fill:rgb(132,165,214);fill-rule:nonzero;"/>
            </g>
        </g>
        <g transform="matrix(4.16667,0,0,4.16667,0,0)">
            <g transform="matrix(1,0,0,1,568.764,1395.48)">
                <path d="M0,-21.566C0.407,-20.163 0.479,-18.706 0.259,-17.243C-0.314,-10.501 -6.396,-3.695 -15.282,-0.68C-16.058,-0.416 -16.835,-0.193 -17.609,0C-15.238,-0.042 -12.719,-0.462 -10.192,-1.32C-1.116,-4.399 4.567,-11.834 2.5,-17.926C2.017,-19.347 1.152,-20.566 0,-21.566" style="fill:rgb(132,165,214);fill-rule:nonzero;"/>
            </g>
        </g>
        <g transform="matrix(4.16667,0,0,4.16667,0,0)">
            <g transform="matrix(-0.32143,-0.946933,-0.946933,0.32143,553.766,1381.83)">
                <path d="M-2.155,-3.007C-3.412,-3.007 -4.431,-1.987 -4.431,-0.731C-4.431,0.526 -3.412,1.545 -2.155,1.545C-0.898,1.545 0.121,0.525 0.121,-0.731C0.121,-1.988 -0.899,-3.007 -2.155,-3.007" style="fill:rgb(32,40,37);fill-rule:nonzero;"/>
            </g>
        </g>
        <g transform="matrix(4.16667,0,0,4.16667,0,0)">
            <g transform="matrix(-0.321318,-0.946971,-0.946971,0.321318,568.541,1388.45)">
                <rect x="-13.804" y="9.893" width="22.669" height="2.476" style="fill:rgb(32,40,37);"/>
            </g>
        </g>
        <g transform="matrix(4.16667,0,0,4.16667,0,0)">
            <g opacity="0.5">
                <g>
                    <clipPath id="_clip1">
                        <path d="M519.781,1470.19L473.93,1485.75C469.229,1487.35 464.125,1484.83 462.53,1480.13L452.108,1449.42C450.513,1444.71 453.031,1439.61 457.732,1438.02L503.582,1422.46C508.283,1420.86 513.387,1423.38 514.982,1428.08L525.404,1458.79C527,1463.49 524.482,1468.6 519.781,1470.19Z" clip-rule="nonzero"/>
                    </clipPath>
                    <g clip-path="url(#_clip1)">
                        <g transform="matrix(0.181706,0.983353,0.983353,-0.181706,460.147,1376.55)">
                            <path d="M74.235,-70.944L82.749,-70.944L85.254,89.21L76.74,89.21L74.235,-70.944Z" style="fill:rgb(32,39,89);fill-rule:nonzero;"/>
                        </g>
                        <g transform="matrix(0.454341,0.890828,0.890828,-0.454341,561.43,1492.55)">
                            <path d="M-74.338,38.791L-65.825,38.791L-63.33,-121.362L-71.843,-121.362L-74.338,38.791Z" style="fill:rgb(32,39,89);fill-rule:nonzero;"/>
                        </g>
                    </g>
                </g>
            </g>
        </g>
        <g transform="matrix(4.16667,0,0,4.16667,0,0)">
            <g transform="matrix(80.029,31.8562,31.8562,-80.029,452.677,1440.01)">
                <path d="M0.468,0.32L0.133,0.035C0.099,0.005 0.095,-0.046 0.124,-0.081L0.316,-0.305C0.345,-0.34 0.396,-0.344 0.431,-0.314L0.766,-0.029C0.8,0.001 0.804,0.052 0.775,0.087L0.584,0.311C0.56,0.338 0.523,0.347 0.491,0.334C0.483,0.331 0.475,0.326 0.468,0.32Z" style="fill:url(#_Linear2);fill-rule:nonzero;"/>
            </g>
        </g>
        <g transform="matrix(4.16667,0,0,4.16667,0,0)">
            <g transform="matrix(-0.321332,-0.946966,-0.946966,0.321332,481.984,1445.28)">
                <path d="M-10.537,-14.703C-16.682,-14.704 -21.664,-9.722 -21.664,-3.576C-21.664,2.57 -16.682,7.552 -10.537,7.551C-4.391,7.551 0.591,2.569 0.591,-3.576C0.59,-9.722 -4.391,-14.703 -10.537,-14.703" style="fill:rgb(132,165,214);fill-rule:nonzero;"/>
            </g>
        </g>
        <g transform="matrix(4.16667,0,0,4.16667,0,0)">
            <g transform="matrix(-0.32131,-0.946974,-0.946974,0.32131,487.495,1450.41)">
                <path d="M-5.725,-7.989C-9.064,-7.989 -11.771,-5.283 -11.771,-1.943C-11.771,1.396 -9.064,4.102 -5.725,4.102C-2.386,4.103 0.321,1.397 0.321,-1.943C0.321,-5.282 -2.385,-7.989 -5.725,-7.989" style="fill:rgb(32,39,89);fill-rule:nonzero;"/>
            </g>
        </g>
        <g transform="matrix(4.16667,0,0,4.16667,0,0)">
            <g transform="matrix(-0.0900934,-0.995933,-0.995933,0.0900934,493.942,1455.79)">
                <path d="M-1.117,-1.222C-1.736,-1.222 -2.238,-0.72 -2.237,-0.101C-2.237,0.518 -1.735,1.02 -1.117,1.02C-0.497,1.02 0.005,0.518 0.005,-0.102C0.004,-0.72 -0.497,-1.222 -1.117,-1.222" style="fill:white;fill-rule:nonzero;"/>
            </g>
        </g>
        <g transform="matrix(4.16667,0,0,4.16667,0,0)">
            <g transform="matrix(0,-1,-1,0,486.761,1450.16)">
                <path d="M-3.143,-3.143C-1.408,-3.143 -0.001,-1.736 -0.001,-0.001C-0.001,1.736 -1.408,3.143 -3.143,3.143C-4.879,3.143 -6.284,1.736 -6.284,-0.001C-6.284,-1.736 -4.879,-3.143 -3.143,-3.143" style="fill:white;fill-rule:nonzero;"/>
            </g>
        </g>
    </g>
    <defs>
        <linearGradient id="_Linear2" x1="0" y1="0" x2="1" y2="0" gradientUnits="userSpaceOnUse" gradientTransform="matrix(1,5.55112e-17,5.55112e-17,-1,0,0.00293123)"><stop offset="0" style="stop-color:rgb(29,89,158);stop-opacity:1"/><stop offset="0.23" style="stop-color:rgb(29,89,158);stop-opacity:1"/><stop offset="1" style="stop-color:rgb(30,137,176);stop-opacity:1"/></linearGradient>
    </defs>
</svg>
