<?xml version="1.0" encoding="UTF-8" standalone="no"?>
<!DOCTYPE svg PUBLIC "-//W3C//DTD SVG 1.1//EN" "http://www.w3.org/Graphics/SVG/1.1/DTD/svg11.dtd">
<svg width="100%" height="100%" viewBox="0 0 2407 4986" version="1.1" xmlns="http://www.w3.org/2000/svg" xmlns:xlink="http://www.w3.org/1999/xlink" xml:space="preserve" xmlns:serif="http://www.serif.com/" style="fill-rule:evenodd;clip-rule:evenodd;stroke-miterlimit:10;">
    <g transform="matrix(1,0,0,1,-13666.5,-16843.5)">
        <g transform="matrix(4.16667,0,0,4.16667,12825,13837.5)">
            <g opacity="0.49">
                <g transform="matrix(0,1,1,0,500.674,1666.7)">
                    <path d="M230.998,-230.998C242.209,-230.998 251.298,-127.577 251.298,0C251.298,127.576 242.209,230.998 230.998,230.998C219.787,230.998 210.698,127.576 210.698,0C210.698,-127.577 219.787,-230.998 230.998,-230.998" style="fill:rgb(194,188,179);fill-rule:nonzero;"/>
                </g>
            </g>
        </g>
        <g transform="matrix(1.79472,3.76034,3.76034,-1.79472,14098.5,21127.3)">
            <g>
                <path d="M-36.54,-11.293C-13.222,-48.972 5.863,-83.156 28.361,-11.293" style="fill:rgb(237,86,60);fill-rule:nonzero;"/>
            </g>
        </g>
        <g transform="matrix(4.16667,0,0,4.16667,15529,21753)">
            <g>
                <path d="M0,-129.933C2.029,-88.339 -16.816,-42.88 -33.558,-14.177C-40.991,-1.433 -58.775,0 -68.233,-11.323C-82.111,-27.94 -99.65,-57.58 -109.156,-107.303" style="fill:rgb(237,86,60);fill-rule:nonzero;"/>
            </g>
        </g>
        <g transform="matrix(3.20402,2.66372,2.66372,-3.20402,15082.6,21500.2)">
            <g>
                <path d="M38.103,-6.678C19.022,0.19 -4.611,12.556 -31.367,34.564L38.103,121.748C59.371,98.564 72.882,66.071 80.582,37.433L38.103,-6.678Z" style="fill:rgb(29,89,158);fill-rule:nonzero;"/>
            </g>
        </g>
        <g transform="matrix(-1.86339,3.72678,3.72678,1.86339,15272.7,21765.2)">
            <g>
                <path d="M-69.247,21.498L-51.387,21.498L-16.858,-35.653L-22.812,-47.56L-69.247,21.498Z" style="fill:rgb(151,187,198);fill-rule:nonzero;"/>
            </g>
        </g>
        <g transform="matrix(3.8668,-1.55209,-1.55209,-3.8668,15159.7,21531.7)">
            <g>
                <path d="M-2.217,11.474C12.176,8.308 38.913,6.914 59.391,11.474" style="fill:none;fill-rule:nonzero;stroke:rgb(16,68,76);stroke-width:5.32px;"/>
            </g>
        </g>
        <g transform="matrix(0,-3971.94,-3971.94,0,14838.9,21522.2)">
            <g>
                <path d="M0.785,0.11C0.649,0.093 0.462,0.224 0.344,0.241C0.213,0.259 -0,0.252 -0,0.006C-0,-0.24 0.209,-0.265 0.324,-0.258C0.496,-0.247 0.552,-0.149 0.829,-0.191C0.914,-0.203 0.996,-0.177 1,-0.047L1,-0.038C1,0.085 0.917,0.126 0.785,0.11Z" style="fill:url(#_Linear1);fill-rule:nonzero;"/>
            </g>
        </g>
        <g transform="matrix(1530.85,0,0,-1530.85,14622.8,20528.6)">
            <g>
                <path d="M0.116,0.341L0.163,0.191L0.062,0.241C0.023,0.149 -0,0.044 -0,-0.068C-0,-0.317 0.112,-0.533 0.276,-0.638C0.773,-0.558 0.827,-0.08 0.81,0.192C0.805,0.264 0.794,0.329 0.78,0.389L0.746,0.344L0.729,0.499C0.661,0.545 0.583,0.57 0.5,0.57C0.346,0.57 0.208,0.481 0.116,0.341Z" style="fill:url(#_Linear2);fill-rule:nonzero;"/>
            </g>
        </g>
        <g transform="matrix(4.16667,0,0,4.16667,12825,13834.5)">
            <g>
                <g>
                    <clipPath id="_clip3">
                        <path d="M477.392,1844.33C657.697,1844.33 713.695,1726.04 726.692,1621.8C602.586,1655.63 390.504,1655.1 247.958,1611.52C251.268,1723.86 296.786,1844.33 477.392,1844.33Z"/>
                    </clipPath>
                    <g clip-path="url(#_clip3)">
                        <g transform="matrix(0,-263.573,-263.573,0,513.898,1848.99)">
                            <rect x="0.018" y="-0.807" width="0.883" height="1.816" style="fill:url(#_Linear4);"/>
                        </g>
                        <g transform="matrix(0.023121,0.999733,0.999733,-0.023121,614.539,1633.91)">
                            <path d="M-1.944,-1.989C-0.699,-1.973 0.63,-1.972 2.036,-1.989" style="fill:none;fill-rule:nonzero;stroke:rgb(16,68,76);stroke-width:6.66px;stroke-linecap:round;stroke-linejoin:round;stroke-miterlimit:4;"/>
                        </g>
                        <g transform="matrix(-0.351991,0.936004,0.936004,0.351991,653.393,1816.76)">
                            <path d="M-139.218,-96.383C-95.225,-82.596 -10.59,-67.087 66.727,-96.383" style="fill:none;fill-rule:nonzero;stroke:rgb(16,68,76);stroke-width:6.66px;stroke-linecap:round;stroke-linejoin:round;stroke-miterlimit:4;stroke-dasharray:7.64,16.56;"/>
                        </g>
                        <g transform="matrix(-0.279995,0.960001,0.960001,0.279995,476.833,1850.91)">
                            <path d="M-42.597,-31.948C-10.809,-26.837 23.961,-31.948 23.961,-31.948" style="fill:none;fill-rule:nonzero;stroke:rgb(16,68,76);stroke-width:5.33px;"/>
                        </g>
                    </g>
                </g>
            </g>
        </g>
        <g transform="matrix(4.16667,0,0,4.16667,12825,13837.5)">
            <g>
                <clipPath id="_clip5">
                    <path d="M378.885,1096.21C394.859,1225.34 269.728,1403.71 253.754,1516.86C236.143,1641.61 243.105,1844.33 477.392,1844.33C711.679,1844.33 736.081,1644.63 728.984,1535.5C718.334,1371.77 625.152,1318.52 665.087,1053.61C677.199,973.277 651.776,895.205 527.976,891.211C525.014,891.115 522.099,891.068 519.231,891.068C402.235,891.067 363.293,970.177 378.885,1096.21Z"/>
                </clipPath>
                <g clip-path="url(#_clip5)">
                    <g transform="matrix(1,0,0,1,747.793,1596.36)">
                        <path d="M0,47.563C-27.435,55.097 -54.645,60.888 -81.281,65.228C-125.184,72.403 -167.502,75.677 -206.651,76.476C-213.241,76.609 -219.75,76.676 -226.167,76.676C-268.152,76.676 -305.957,73.947 -337.413,70.366C-433.976,59.397 -511.677,36.102 -545.835,17.878L-520.782,-29.113C-500.136,-18.104 -433.99,5.804 -331.409,17.465C-297.651,21.299 -256.185,24.121 -210.033,23.296C-171.828,22.617 -130.389,19.449 -87.458,12.287C-63.377,8.28 -38.817,3.009 -14.097,-3.78L0,47.563Z" style="fill:rgb(32,40,37);fill-rule:nonzero;"/>
                    </g>
                    <g transform="matrix(1,0,0,1,567.512,1613.43)">
                        <path d="M0,54.631L-2.702,12.22L67.065,4.18L72.096,47.363L0,54.631ZM92.823,-4.779C49.892,2.382 8.453,5.551 -29.752,6.23L-26.37,59.41C12.779,58.611 55.097,55.337 99,48.162L92.823,-4.779Z" style="fill:rgb(33,25,14);fill-rule:nonzero;"/>
                    </g>
                </g>
            </g>
        </g>
        <g transform="matrix(552.288,0,0,-552.288,15083.2,20682.2)">
            <g>
                <path d="M-0,0.306L0.046,-0.412L1,-0.316L0.915,0.412L-0,0.306ZM0.213,0.129L0.739,0.189L0.777,-0.136L0.233,-0.191L0.213,0.129Z" style="fill:url(#_Linear6);fill-rule:nonzero;"/>
            </g>
        </g>
        <g transform="matrix(4.16667,0,0,4.16667,14276.1,21786.3)">
            <g>
                <path d="M0,-129.933C-2.029,-88.339 16.816,-42.88 33.558,-14.177C40.991,-1.433 58.775,0 68.233,-11.323C82.111,-27.94 99.65,-57.58 109.156,-107.303" style="fill:rgb(237,86,60);fill-rule:nonzero;"/>
            </g>
        </g>
        <g transform="matrix(3.20402,-2.66372,-2.66372,-3.20402,14722.5,21533.5)">
            <g>
                <path d="M-38.103,-6.678C-19.022,0.19 4.611,12.556 31.367,34.564L-38.103,121.748C-59.371,98.564 -72.882,66.071 -80.582,37.433L-38.103,-6.678Z" style="fill:rgb(29,89,158);fill-rule:nonzero;"/>
            </g>
        </g>
        <g transform="matrix(0.982792,4.04911,4.04911,-0.982792,14755.3,20994.2)">
            <g>
                <path d="M-80.859,-102.833C-48.205,-109.389 80.478,-112.542 130.778,-102.833" style="fill:none;fill-rule:nonzero;stroke:rgb(16,68,76);stroke-width:6.66px;stroke-linecap:round;stroke-linejoin:round;stroke-dasharray:7.99,17.31;"/>
            </g>
        </g>
        <g transform="matrix(1.86339,3.72678,3.72678,-1.86339,14458,21451.2)">
            <g>
                <path d="M13.286,-42.797L31.146,-42.797L65.675,14.354L59.721,26.261L13.286,-42.797Z" style="fill:rgb(151,187,198);fill-rule:nonzero;"/>
            </g>
        </g>
        <g transform="matrix(-3.93194,1.37875,1.37875,3.93194,14432.2,21120)">
            <g>
                <path d="M-105.559,-17.971C-86.521,-11.951 -48.51,-4.121 3.059,-17.971" style="fill:none;fill-rule:nonzero;stroke:rgb(16,68,76);stroke-width:6.66px;stroke-linecap:round;stroke-linejoin:round;"/>
            </g>
        </g>
        <g transform="matrix(-3.18652,-2.68464,-2.68464,3.18652,15635.9,20839.5)">
            <g>
                <path d="M-60.656,22.146C-48.607,25.955 -24.55,30.911 8.085,22.146" style="fill:none;fill-rule:nonzero;stroke:rgb(16,68,76);stroke-width:6.66px;stroke-linecap:round;stroke-linejoin:round;"/>
            </g>
        </g>
        <g transform="matrix(4.16667,0,0,4.16667,15166.6,17727.8)">
            <g>
                <path d="M0,83.159C-18.517,86.074 -36.567,69.262 -40.308,45.593C-44.035,21.925 -32.055,0.373 -13.538,-2.555C-11.927,-2.808 -10.317,-2.915 -8.733,-2.861C8.014,-2.502 23.349,13.405 26.77,35.01C26.93,35.996 27.049,36.967 27.156,37.939C29.512,60.436 17.745,80.35 0,83.159" style="fill:white;fill-rule:nonzero;"/>
            </g>
        </g>
        <g transform="matrix(0,-4.16667,-4.16667,0,15155.2,17764.4)">
            <g>
                <path d="M-22.63,-22.63C-35.128,-22.63 -45.26,-12.498 -45.26,0C-45.26,12.498 -35.128,22.63 -22.63,22.63C-10.132,22.63 0,12.498 0,0C0,-12.498 -10.132,-22.63 -22.63,-22.63" style="fill:rgb(32,40,37);fill-rule:nonzero;"/>
            </g>
        </g>
        <g transform="matrix(0,4.16667,4.16667,0,15094.2,17764.4)">
            <g>
                <path d="M10.65,-10.65C4.768,-10.65 0.001,-5.882 0.001,-0.001C0.001,5.882 4.768,10.65 10.65,10.65C16.531,10.65 21.298,5.882 21.298,-0.001C21.298,-5.882 16.531,-10.65 10.65,-10.65" style="fill:white;fill-rule:nonzero;"/>
            </g>
        </g>
        <g transform="matrix(0,4.16667,4.16667,0,15183,17875.4)">
            <g>
                <path d="M5.324,-5.324C2.383,-5.324 -0,-2.94 -0,0C-0,2.941 2.383,5.324 5.324,5.324C8.266,5.324 10.65,2.941 10.65,0C10.65,-2.94 8.266,-5.324 5.324,-5.324" style="fill:white;fill-rule:nonzero;"/>
            </g>
        </g>
        <g transform="matrix(4.16667,0,0,4.16667,14927.8,17592.5)">
            <g>
                <path d="M0,49.253C0,49.253 38.604,19.967 63.896,18.636C63.896,18.636 54.578,2.662 41.266,0C41.266,0 10.649,11.98 -5.325,42.597" style="fill:rgb(212,52,39);fill-rule:nonzero;"/>
            </g>
        </g>
        <g transform="matrix(4.16667,0,0,4.16667,15479,17788.9)">
            <g>
                <path d="M0,58.98C-13.133,61.048 -25.936,49.123 -28.589,32.336C-31.232,15.55 -22.735,0.264 -9.602,-1.813C-8.459,-1.993 -7.317,-2.068 -6.194,-2.03C5.684,-1.775 16.56,9.507 18.987,24.83C19.1,25.529 19.185,26.218 19.26,26.908C20.932,42.864 12.585,56.988 0,58.98" style="fill:white;fill-rule:nonzero;"/>
            </g>
        </g>
        <g transform="matrix(0,-4.16667,-4.16667,0,15470.9,17814.9)">
            <g>
                <path d="M-16.051,-16.051C-24.915,-16.051 -32.1,-8.865 -32.1,-0C-32.1,8.865 -24.915,16.051 -16.051,16.051C-7.185,16.051 -0,8.865 -0,-0C-0,-8.865 -7.185,-16.051 -16.051,-16.051" style="fill:rgb(32,40,37);fill-rule:nonzero;"/>
            </g>
        </g>
        <g transform="matrix(0,4.16667,4.16667,0,15427.7,17814.9)">
            <g>
                <path d="M7.553,-7.553C3.381,-7.553 0,-4.171 0,0C0,4.172 3.381,7.553 7.553,7.553C11.725,7.553 15.106,4.172 15.106,0C15.106,-4.171 11.725,-7.553 7.553,-7.553" style="fill:white;fill-rule:nonzero;"/>
            </g>
        </g>
        <g transform="matrix(0,4.16667,4.16667,0,15490.6,17893.6)">
            <g>
                <path d="M3.776,-3.777C1.69,-3.777 0,-2.086 0,0C0,2.085 1.69,3.776 3.776,3.776C5.862,3.776 7.553,2.085 7.553,0C7.553,-2.086 5.862,-3.777 3.776,-3.777" style="fill:white;fill-rule:nonzero;"/>
            </g>
        </g>
        <g transform="matrix(4.16667,0,0,4.16667,15561.4,17659.6)">
            <g>
                <path d="M0,31.035C0,31.035 -29.744,13.819 -47.661,15.106C-47.661,15.106 -42.508,3.045 -33.374,0C-33.374,0 -10.773,5.739 3.162,25.882" style="fill:rgb(212,52,39);fill-rule:nonzero;"/>
            </g>
        </g>
        <g transform="matrix(385.75,-459.721,-459.721,-385.75,15220,18494.7)">
            <g>
                <path d="M0.41,0.508C0.356,0.535 0.291,0.53 0.242,0.494C-0.079,0.253 -0.003,-0.266 0.038,-0.457C0.048,-0.501 0.086,-0.532 0.13,-0.534C0.307,-0.54 0.753,-0.535 0.951,-0.339C0.991,-0.299 1.008,-0.242 0.997,-0.187C0.967,-0.039 0.901,0.091 0.807,0.203C0.704,0.325 0.568,0.427 0.41,0.508Z" style="fill:url(#_Linear7);fill-rule:nonzero;"/>
            </g>
        </g>
        <g transform="matrix(4.16667,0,0,4.16667,15554.6,18239.2)">
            <g>
                <path d="M0,-26.081C-36.731,-23.548 -17.305,-2.12 -17.305,-2.12C-17.305,-2.12 -2.864,-6.934 4.731,0.633C6.768,2.662 10.014,2.644 11.925,0.496C14.927,-2.878 19.524,-6.723 25.292,-7.445C25.292,-7.445 38.604,-28.743 0,-26.081" style="fill:rgb(32,40,37);fill-rule:nonzero;"/>
            </g>
        </g>
        <g transform="matrix(4.16667,0,0,4.16667,14775.7,17458.7)">
            <g>
                <path d="M0,43.011C0,43.011 25.76,3.645 59.645,1.736C59.645,1.736 43.657,19.633 38.22,48.441C38.22,48.441 75.453,-5.43 150.201,7.878" style="fill:none;fill-rule:nonzero;stroke:rgb(212,52,39);stroke-width:6.66px;stroke-linecap:round;stroke-linejoin:round;"/>
            </g>
        </g>
        <g transform="matrix(58.525,-55.6875,-55.6875,-58.525,14313,18276.3)">
            <g>
                <path d="M0.665,0.834C0.259,0.908 0.833,-0.272 0.84,-0.492C0.84,-0.508 0.839,-0.519 0.833,-0.523C0.82,-0.534 0.802,-0.52 0.775,-0.489C0.633,-0.305 0.305,0.486 0.049,0.435C-0.129,0.4 0.211,-0.097 0.513,-0.492C0.718,-0.759 0.906,-0.979 0.906,-0.979L0.986,-0.81C0.986,-0.81 0.996,-0.686 0.999,-0.505C1.007,-0.104 0.985,0.574 0.771,0.777C0.74,0.807 0.705,0.827 0.665,0.834Z" style="fill:url(#_Linear8);fill-rule:nonzero;"/>
            </g>
        </g>
        <g transform="matrix(30.0126,75.0034,75.0034,-30.0126,15745.3,19544.2)">
            <g>
                <path d="M0.513,-0.492C0.718,-0.759 0.906,-0.979 0.906,-0.979L0.986,-0.81C0.986,-0.81 0.996,-0.686 0.999,-0.505C1.008,-0.046 0.978,0.776 0.665,0.834C0.259,0.908 0.833,-0.272 0.84,-0.492C0.84,-0.508 0.839,-0.519 0.833,-0.523C0.82,-0.534 0.802,-0.52 0.775,-0.489C0.633,-0.305 0.305,0.486 0.049,0.435C0.027,0.431 0.013,0.419 0.006,0.401C-0.044,0.276 0.249,-0.147 0.513,-0.492Z" style="fill:url(#_Linear9);fill-rule:nonzero;"/>
            </g>
        </g>
        <g transform="matrix(17.5301,-78.8605,-78.8605,-17.5301,13890,20071.7)">
            <g>
                <path d="M0.665,0.859C0.395,0.908 0.558,0.402 0.7,-0.007C0.772,-0.213 0.838,-0.394 0.84,-0.467C0.84,-0.483 0.839,-0.494 0.833,-0.498C0.82,-0.509 0.802,-0.495 0.775,-0.464C0.633,-0.28 0.305,0.511 0.049,0.46C-0.129,0.424 0.211,-0.072 0.513,-0.467C0.718,-0.734 0.906,-0.955 0.906,-0.955L0.986,-0.785C0.986,-0.785 0.996,-0.661 0.999,-0.48C1.004,-0.22 0.997,0.156 0.933,0.444C0.884,0.665 0.801,0.834 0.665,0.859Z" style="fill:url(#_Linear10);fill-rule:nonzero;"/>
            </g>
        </g>
        <g transform="matrix(4.16632,-0.054438,-0.054438,-4.16632,15108.3,18825.3)">
            <g>
                <path d="M0.046,0.483C40.334,-7.618 73.984,0.483 73.984,0.483" style="fill:none;fill-rule:nonzero;stroke:rgb(212,52,39);stroke-width:6.66px;stroke-linecap:round;stroke-linejoin:round;"/>
            </g>
        </g>
        <g transform="matrix(4.04896,-0.983388,-0.983388,-4.04896,15191.8,18956.3)">
            <g>
                <path d="M-0.774,6.463C29.069,0.462 53.995,6.463 53.995,6.463" style="fill:none;fill-rule:nonzero;stroke:rgb(212,52,39);stroke-width:6.66px;stroke-linecap:round;stroke-linejoin:round;"/>
            </g>
        </g>
        <g transform="matrix(3.78297,1.7465,1.7465,-3.78297,15230.6,18246)">
            <g>
                <path d="M-2.39,-10.881C26.895,-18.868 49.525,-10.881 49.525,-10.881" style="fill:none;fill-rule:nonzero;stroke:rgb(32,40,37);stroke-width:6.66px;stroke-linecap:round;stroke-linejoin:round;"/>
            </g>
        </g>
        <g transform="matrix(-2.57673,3.27439,3.27439,2.57673,15220.4,18329.2)">
            <g>
                <path d="M-17.644,-7.522C-10.611,-14.054 -1.578,-12.684 2.829,-7.522" style="fill:none;fill-rule:nonzero;stroke:rgb(32,40,37);stroke-width:6.66px;stroke-linecap:round;stroke-linejoin:round;"/>
            </g>
        </g>
        <g transform="matrix(-3.9714,1.26061,1.26061,3.9714,15312,18151.5)">
            <g>
                <path d="M-49.757,-7.708C-26.664,-10.386 1.194,-7.708 1.194,-7.708" style="fill:none;fill-rule:nonzero;stroke:rgb(32,40,37);stroke-width:6.66px;stroke-linecap:round;stroke-linejoin:round;"/>
            </g>
        </g>
        <g transform="matrix(-3.9714,1.26061,1.26061,3.9714,15241,18121)">
            <g>
                <path d="M-49.757,-7.708C-26.664,-10.386 1.194,-7.708 1.194,-7.708" style="fill:none;fill-rule:nonzero;stroke:rgb(32,40,37);stroke-width:6.66px;stroke-linecap:round;stroke-linejoin:round;"/>
            </g>
        </g>
        <g transform="matrix(4.16667,0,0,4.16667,14545.7,18822.7)">
            <g>
                <path d="M0,-90.984C0,-90.984 -15.607,-84.126 -36.151,-67.833C-36.151,-67.833 -8.132,-69.699 -1.673,-64.816C-1.673,-64.816 -46.752,-41.829 -59.15,-15.264C-59.15,-15.264 -23.67,-34.259 -10.079,-28.65C-10.079,-28.65 -32.982,-13.591 -38.591,0" style="fill:none;fill-rule:nonzero;stroke:rgb(212,52,39);stroke-width:6.66px;stroke-linecap:round;stroke-linejoin:round;"/>
            </g>
        </g>
        <g transform="matrix(4.16667,0,0,4.16667,14077,20558.8)">
            <g>
                <path d="M0,-96.065C0,-96.065 -7.775,-80.894 -13.421,-55.288C-13.421,-55.288 7.131,-74.423 15.223,-74.715C15.223,-74.715 -5.226,-28.429 1.93,0C1.93,0 17.454,-37.13 31.535,-41.36C31.535,-41.36 23.28,-15.222 27.51,-1.141" style="fill:none;fill-rule:nonzero;stroke:rgb(212,52,39);stroke-width:6.66px;stroke-linecap:round;stroke-linejoin:round;"/>
            </g>
        </g>
        <g transform="matrix(-3.96798,1.27133,1.27133,3.96798,14917.6,19550.1)">
            <g>
                <rect x="-25.415" y="-3.972" width="10.367" height="100.257" style="fill:rgb(32,40,37);"/>
            </g>
        </g>
        <g transform="matrix(3.40565,2.40056,2.40056,-3.40565,15063.1,19789.7)">
            <g>
                <rect x="27.934" y="-12.141" width="10.365" height="100.257" style="fill:rgb(32,40,37);"/>
            </g>
        </g>
        <g transform="matrix(4.16667,0,0,4.16667,14793.4,19845)">
            <g>
                <path d="M0,104.59L14.603,97.375C26.734,91.381 40.416,89.264 53.791,91.313L87.465,96.469C101.279,98.585 114.063,105.034 123.973,114.887L132.621,123.485C146.462,137.247 170.072,129.471 173.026,110.177L185.274,30.199C188.103,11.725 175.42,-5.544 156.946,-8.373L16.837,-29.829C-1.637,-32.657 -18.906,-19.975 -21.735,-1.501L-34.152,79.588C-37.074,98.67 -17.306,113.141 0,104.59" style="fill:rgb(32,40,37);fill-rule:nonzero;"/>
            </g>
        </g>
        <g transform="matrix(4.16667,0,0,4.16667,14664.4,20285.6)">
            <g>
                <path d="M0,-13.855C10.202,-18.883 18.561,-26.131 24.879,-34.692C40.677,-40.763 57.746,-42.901 74.574,-40.324L124.419,-32.691C144.868,-29.56 163.793,-20.013 178.462,-5.428L191.262,7.299C193.967,9.989 196.934,12.088 200.04,13.7C192.285,25.752 174.626,29.046 163.314,17.799L154.667,9.201C144.757,-0.652 131.971,-7.102 118.159,-9.217L84.484,-14.374C71.109,-16.422 57.427,-14.306 45.297,-8.312L30.692,-1.096C17.663,5.342 3.536,-1.401 -1.497,-13.221C-1.002,-13.45 -0.494,-13.612 0,-13.855" style="fill:rgb(4,5,5);fill-rule:nonzero;"/>
            </g>
        </g>
        <g transform="matrix(450.2,66.1667,66.1667,-450.2,14532.9,19725)">
            <g>
                <path d="M0.685,-0.998C0.728,-1.031 0.78,-1.052 0.835,-1.056C0.989,-1.068 1.303,-1.04 1.466,-0.652C1.524,-0.514 1.464,-0.355 1.331,-0.287C0.946,-0.089 0.144,0.394 -0.11,1.078L-0.731,1.005C-0.657,0.457 -0.337,-0.22 0.685,-0.998Z" style="fill:url(#_Linear11);fill-rule:nonzero;"/>
            </g>
        </g>
        <g transform="matrix(2.00131,3.65457,3.65457,-2.00131,14692.5,19420.8)">
            <g>
                <path d="M-49.679,-83.846C-4.444,-98.558 56.394,-102.949 141.51,-83.846" style="fill:none;fill-rule:nonzero;stroke:rgb(212,52,39);stroke-width:6.66px;stroke-linecap:round;stroke-linejoin:round;"/>
            </g>
        </g>
        <g transform="matrix(4.16667,0,0,4.16667,14642.2,19715.1)">
            <g>
                <path d="M0,5.774C25.175,-16.475 50.118,-22.26 50.118,-22.26C50.118,-22.26 31.982,4.608 21.644,28.034C21.644,28.034 53.33,2.002 75.7,-4.465" style="fill:none;fill-rule:nonzero;stroke:rgb(212,52,39);stroke-width:6.66px;stroke-linecap:round;stroke-linejoin:round;"/>
            </g>
        </g>
        <g transform="matrix(-131.468,886.417,-886.417,-131.468,15762.8,19389.6)">
            <g>
                <path d="M-0.074,0.356C0.113,-0.028 0.472,0.267 0.635,0.397C0.692,0.441 0.773,0.436 0.822,0.384C0.96,0.235 0.91,0.092 0.874,0.026C0.862,0.003 0.842,-0.015 0.819,-0.028C0.275,-0.322 -0.014,-0.202 -0.256,0.255L-0.074,0.356Z" style="fill:url(#_Linear12);fill-rule:nonzero;"/>
            </g>
        </g>
        <g transform="matrix(-0.848247,-4.07942,-4.07942,0.848247,15738.2,19440.5)">
            <g>
                <path d="M-43.116,58.082C-17.79,33.996 14.622,22.072 52.032,58.082" style="fill:none;fill-rule:nonzero;stroke:rgb(212,52,39);stroke-width:6.66px;stroke-linecap:round;stroke-linejoin:round;"/>
            </g>
        </g>
        <g transform="matrix(4.16667,0,0,4.16667,15939.4,19620.1)">
            <g>
                <path d="M0,51.39C-33.227,46.417 -53.697,31.034 -53.697,31.034C-53.697,31.034 -21.458,27.646 3.13,20.5C3.13,20.5 -37.181,12.973 -56.518,0" style="fill:none;fill-rule:nonzero;stroke:rgb(212,52,39);stroke-width:6.66px;stroke-linecap:round;stroke-linejoin:round;"/>
            </g>
        </g>
        <g transform="matrix(4.16667,0,0,4.16667,12825,13837.5)">
            <g>
                <clipPath id="_clip13">
                    <path d="M495.961,735.658L470.731,731.513C429.904,728.918 342.917,816.202 336.714,833.657C330.512,851.114 338.856,877.915 338.856,877.915C348.618,888.759 560.852,904.492 560.852,904.492C584.174,897.727 639.319,900.922 639.319,900.922C639.319,900.922 595.661,756.243 566.351,738.836C555.226,732.229 542.409,730.18 530.782,730.18C511.779,730.181 495.961,735.658 495.961,735.658Z"/>
                </clipPath>
                <g clip-path="url(#_clip13)">
                    <g transform="matrix(1,0,0,1,330.512,904.491)">
                        <path d="M0,-110.884L36.934,0L0,0L0,-110.884Z" style="fill:rgb(124,17,43);fill-rule:nonzero;"/>
                    </g>
                    <g transform="matrix(0.316017,0.948754,0.948754,-0.316017,415.352,786.81)">
                        <path d="M-51.984,-72.107L100.02,-72.107L96.512,-82.641L-20.362,-82.64L-51.984,-72.107Z" style="fill:rgb(124,17,43);fill-rule:nonzero;"/>
                    </g>
                    <g transform="matrix(1,0,0,1,330.512,902.217)">
                        <path d="M0,-152.494L6.829,-154.769L59.138,2.275L48.036,2.275L0,-141.94L0,-152.494Z" style="fill:rgb(125,18,44);fill-rule:nonzero;"/>
                    </g>
                    <g transform="matrix(0.94874,-0.316057,-0.316057,-0.94874,314.675,761.409)">
                        <path d="M25.916,6.081L36.449,6.081L36.442,-162.953L25.91,-159.445L25.916,6.081Z" style="fill:rgb(126,18,45);fill-rule:nonzero;"/>
                    </g>
                    <g transform="matrix(0.94874,-0.316057,-0.316057,-0.94874,324.17,758.341)">
                        <path d="M26.471,6.171L37.004,6.171L36.997,-166.372L26.464,-162.863L26.471,6.171Z" style="fill:rgb(127,18,46);fill-rule:nonzero;"/>
                    </g>
                    <g transform="matrix(0.94874,-0.316057,-0.316057,-0.94874,333.666,755.273)">
                        <path d="M27.025,6.261L37.558,6.261L37.552,-169.79L27.019,-166.281L27.025,6.261Z" style="fill:rgb(128,19,46);fill-rule:nonzero;"/>
                    </g>
                    <g transform="matrix(0.94874,-0.316057,-0.316057,-0.94874,343.162,752.204)">
                        <path d="M27.58,6.351L38.113,6.351L38.106,-173.209L27.573,-169.7L27.58,6.351Z" style="fill:rgb(129,19,47);fill-rule:nonzero;"/>
                    </g>
                    <g transform="matrix(0.94874,-0.316057,-0.316057,-0.94874,352.657,749.136)">
                        <path d="M28.134,6.441L38.667,6.441L38.66,-176.628L28.127,-173.119L28.134,6.441Z" style="fill:rgb(130,19,48);fill-rule:nonzero;"/>
                    </g>
                    <g transform="matrix(0.94874,-0.316057,-0.316057,-0.94874,362.153,746.068)">
                        <path d="M28.689,6.531L39.221,6.531L39.214,-180.046L28.681,-176.537L28.689,6.531Z" style="fill:rgb(131,20,49);fill-rule:nonzero;"/>
                    </g>
                    <g transform="matrix(0.94874,-0.316057,-0.316057,-0.94874,371.649,743)">
                        <path d="M29.243,6.621L39.776,6.621L39.769,-183.465L29.236,-179.956L29.243,6.621Z" style="fill:rgb(133,21,50);fill-rule:nonzero;"/>
                    </g>
                    <g transform="matrix(1,0,0,1,407.293,901.773)">
                        <path d="M0,-177.625L8.162,-180.344L10.196,-180.344L71.173,2.719L60.071,2.719L0,-177.625Z" style="fill:rgb(133,21,51);fill-rule:nonzero;"/>
                    </g>
                    <g transform="matrix(0.316019,0.948753,0.948753,-0.316019,532.489,760.375)">
                        <path d="M-69.784,-86.264L123.166,-86.264L119.658,-96.798L-73.292,-96.798L-69.784,-86.264Z" style="fill:rgb(135,21,51);fill-rule:nonzero;"/>
                    </g>
                    <g transform="matrix(0.316019,0.948753,0.948753,-0.316019,543.591,760.375)">
                        <path d="M-69.784,-86.264L123.166,-86.264L119.658,-96.798L-73.292,-96.798L-69.784,-86.264Z" style="fill:rgb(136,22,52);fill-rule:nonzero;"/>
                    </g>
                    <g transform="matrix(0.316019,0.948753,0.948753,-0.316019,554.693,760.375)">
                        <path d="M-69.784,-86.264L123.166,-86.264L119.658,-96.798L-73.292,-96.798L-69.784,-86.264Z" style="fill:rgb(137,22,53);fill-rule:nonzero;"/>
                    </g>
                    <g transform="matrix(0.316019,0.948753,0.948753,-0.316019,565.795,760.375)">
                        <path d="M-69.784,-86.264L123.166,-86.264L119.658,-96.798L-73.292,-96.798L-69.784,-86.264Z" style="fill:rgb(138,22,54);fill-rule:nonzero;"/>
                    </g>
                    <g transform="matrix(0.316019,0.948753,0.948753,-0.316019,576.897,760.375)">
                        <path d="M-69.784,-86.264L123.166,-86.264L119.658,-96.798L-73.292,-96.798L-69.784,-86.264Z" style="fill:rgb(139,23,55);fill-rule:nonzero;"/>
                    </g>
                    <g transform="matrix(0.316019,0.948753,0.948753,-0.316019,587.999,760.375)">
                        <path d="M-69.784,-86.264L123.166,-86.264L119.658,-96.798L-73.292,-96.798L-69.784,-86.264Z" style="fill:rgb(140,23,56);fill-rule:nonzero;"/>
                    </g>
                    <g transform="matrix(0.316019,0.948753,0.948753,-0.316019,599.101,760.375)">
                        <path d="M-69.784,-86.264L123.166,-86.264L119.658,-96.798L-73.292,-96.798L-69.784,-86.264Z" style="fill:rgb(141,23,56);fill-rule:nonzero;"/>
                    </g>
                    <g transform="matrix(0.316019,0.948753,0.948753,-0.316019,610.203,760.375)">
                        <path d="M-69.784,-86.264L123.166,-86.264L119.658,-96.798L-73.292,-96.798L-69.784,-86.264Z" style="fill:rgb(142,23,57);fill-rule:nonzero;"/>
                    </g>
                    <g transform="matrix(0.316019,0.948753,0.948753,-0.316019,621.305,760.375)">
                        <path d="M-69.784,-86.264L123.166,-86.264L119.658,-96.798L-73.292,-96.798L-69.784,-86.264Z" style="fill:rgb(143,24,58);fill-rule:nonzero;"/>
                    </g>
                    <g transform="matrix(0.316019,0.948753,0.948753,-0.316019,632.407,760.375)">
                        <path d="M-69.784,-86.264L123.166,-86.264L119.658,-96.798L-73.292,-96.798L-69.784,-86.264Z" style="fill:rgb(144,24,58);fill-rule:nonzero;"/>
                    </g>
                    <g transform="matrix(0.316019,0.948753,0.948753,-0.316019,643.509,760.375)">
                        <path d="M-69.784,-86.264L123.166,-86.264L119.658,-96.798L-73.292,-96.798L-69.784,-86.264Z" style="fill:rgb(145,24,60);fill-rule:nonzero;"/>
                    </g>
                    <g transform="matrix(0.316019,0.948753,0.948753,-0.316019,654.611,760.375)">
                        <path d="M-69.784,-86.264L123.166,-86.264L119.658,-96.798L-73.292,-96.798L-69.784,-86.264Z" style="fill:rgb(146,24,60);fill-rule:nonzero;"/>
                    </g>
                    <g transform="matrix(0.316019,0.948753,0.948753,-0.316019,665.713,760.375)">
                        <path d="M-69.784,-86.264L123.166,-86.264L119.658,-96.798L-73.292,-96.798L-69.784,-86.264Z" style="fill:rgb(147,25,61);fill-rule:nonzero;"/>
                    </g>
                    <g transform="matrix(0.316019,0.948753,0.948753,-0.316019,676.815,760.375)">
                        <path d="M-69.784,-86.264L123.166,-86.264L119.658,-96.798L-73.292,-96.798L-69.784,-86.264Z" style="fill:rgb(148,25,62);fill-rule:nonzero;"/>
                    </g>
                    <g transform="matrix(1,0,0,1,584.02,904.491)">
                        <path d="M0,-183.062L55.298,-17.046L55.298,0L49.874,0L-11.102,-183.062L0,-183.062Z" style="fill:rgb(150,25,63);fill-rule:nonzero;"/>
                    </g>
                    <g transform="matrix(0.316018,0.948753,0.948753,-0.316018,685.194,762.506)">
                        <path d="M-67.436,-72.475L72.417,-72.475L104.039,-83.008L-70.945,-83.008L-67.436,-72.475Z" style="fill:rgb(150,25,64);fill-rule:nonzero;"/>
                    </g>
                    <g transform="matrix(0.316016,0.948754,0.948754,-0.316016,676.688,756.374)">
                        <path d="M-55.422,-55.81L49.301,-55.81L80.922,-66.343L-58.93,-66.343L-55.422,-55.81Z" style="fill:rgb(151,26,65);fill-rule:nonzero;"/>
                    </g>
                    <g transform="matrix(0.316017,0.948754,0.948754,-0.316017,668.182,750.242)">
                        <path d="M-43.408,-39.145L26.183,-39.145L57.806,-49.678L-46.916,-49.678L-43.408,-39.145Z" style="fill:rgb(153,26,65);fill-rule:nonzero;"/>
                    </g>
                    <g transform="matrix(0.31601,0.948756,0.948756,-0.31601,659.676,744.11)">
                        <path d="M-31.393,-22.48L3.068,-22.48L34.69,-33.012L-34.902,-33.013L-31.393,-22.48Z" style="fill:rgb(153,26,66);fill-rule:nonzero;"/>
                    </g>
                    <g transform="matrix(1,0,0,1,639.318,721.429)">
                        <path d="M0,32.695L-10.89,0L0,0L0,32.695Z" style="fill:rgb(153,26,66);fill-rule:nonzero;"/>
                    </g>
                </g>
            </g>
        </g>
        <g transform="matrix(4.16667,0,0,4.16667,12825,13837.5)">
            <g>
                <clipPath id="_clip14">
                    <path d="M636.055,890.651L638.605,898.861C638.605,898.861 601.059,897.115 575.461,899.751C575.461,899.751 492.713,864.843 434.106,864.843C361.551,864.843 233.67,889.745 233.67,977.928C233.67,1033.06 267.837,1066.97 326.245,1071.4C363.38,1074.22 376.572,1071.33 376.572,1071.33C376.572,1071.33 371.274,1005.63 392.861,962.042C400.915,945.78 441.174,923.674 509.233,923.674C566.375,923.674 651.429,925.591 706.14,925.591C760.851,925.591 779.541,895.865 779.541,875.669C779.541,860.026 762.211,844.811 739.246,844.811C716.281,844.811 670.973,861.671 636.055,890.651Z"/>
                </clipPath>
                <g clip-path="url(#_clip14)">
                    <g transform="matrix(1,0,0,1,-72,-528.972)">
                        <rect x="305.67" y="1373.78" width="545.872" height="229.406" style="fill:rgb(187,33,80);"/>
                    </g>
                    <g transform="matrix(1,0,0,1,221.936,992.735)">
                        <path d="M0,-53.901C7.442,-102.72 33.968,-143.902 70.838,-171.017L70.838,-153.759L270.438,-153.759L270.438,-179.358C290.225,-167.188 307.3,-151.339 320.858,-132.904C347.973,-96.034 361.024,-48.82 353.582,-0C346.14,48.819 319.614,90 282.744,117.116L282.744,87.317L83.143,87.317L83.143,125.457C63.356,113.286 46.282,97.438 32.724,79.003C5.608,42.133 -7.442,-5.082 0,-53.901" style="fill:rgb(187,33,80);fill-rule:nonzero;"/>
                    </g>
                    <g transform="matrix(1,0,0,1,226.208,993.279)">
                        <path d="M0,-52.954C7.311,-100.917 33.371,-141.375 69.594,-168.015L69.594,-154.304L265.691,-154.304L265.691,-176.209C285.131,-164.252 301.906,-148.682 315.226,-130.57C341.865,-94.347 354.687,-47.962 347.375,0.001C340.064,47.963 314.004,88.421 277.781,115.061L277.781,86.773L81.684,86.773L81.684,123.255C62.244,111.299 45.47,95.728 32.15,77.617C5.51,41.394 -7.311,-4.991 0,-52.954" style="fill:rgb(186,33,79);fill-rule:nonzero;"/>
                    </g>
                    <g transform="matrix(1,0,0,1,230.48,993.825)">
                        <path d="M0,-52.008C7.181,-99.113 32.775,-138.849 68.351,-165.013L68.351,-154.85L260.944,-154.85L260.944,-173.061C280.037,-161.318 296.511,-146.025 309.593,-128.237C335.757,-92.662 348.349,-47.105 341.169,0C333.988,47.106 308.393,86.841 272.818,113.005L272.818,86.227L80.225,86.227L80.225,121.053C61.132,109.31 44.657,94.018 31.575,76.23C5.411,40.654 -7.181,-4.902 0,-52.008" style="fill:rgb(184,33,78);fill-rule:nonzero;"/>
                    </g>
                    <g transform="matrix(1,0,0,1,234.751,971.272)">
                        <path d="M0,-27.963C7.05,-74.212 32.179,-113.224 67.107,-138.912L67.107,-132.297L193.012,-132.297L193.012,-169.913C285.509,-155.812 349.063,-69.398 334.962,23.099C327.912,69.348 302.783,108.36 267.855,134.048L267.855,108.78L78.765,108.78L78.765,141.95C60.02,130.42 43.845,115.406 31.001,97.942C5.313,63.014 -7.05,18.286 0,-27.963" style="fill:rgb(184,30,77);fill-rule:nonzero;"/>
                    </g>
                    <g transform="matrix(1,0,0,1,239.023,972.245)">
                        <path d="M0,-27.445C6.92,-72.837 31.583,-111.126 65.864,-136.338L65.864,-133.27L189.436,-133.27L189.436,-166.765C280.219,-152.925 342.595,-68.112 328.756,22.671C321.836,68.063 297.173,106.353 262.892,131.565L262.892,107.806L77.306,107.806L77.306,139.32C58.908,128.004 43.032,113.268 30.426,96.127C5.214,61.846 -6.92,17.947 0,-27.445" style="fill:rgb(183,30,76);fill-rule:nonzero;"/>
                    </g>
                    <g transform="matrix(1,0,0,1,243.295,966.429)">
                        <path d="M0,-20.137C6.789,-64.672 30.987,-102.239 64.62,-126.975C98.254,-151.71 141.325,-163.616 185.86,-156.827C274.929,-143.249 336.127,-60.036 322.549,29.033C315.76,73.568 291.563,111.135 257.929,135.871L257.929,113.623L75.846,113.623L75.846,143.479C57.796,132.377 42.22,117.919 29.852,101.102C5.116,67.468 -6.789,24.398 0,-20.137" style="fill:rgb(182,30,76);fill-rule:nonzero;"/>
                    </g>
                    <g transform="matrix(1,0,0,1,247.567,960.876)">
                        <path d="M0,-13.092C13.317,-100.448 94.928,-160.468 182.283,-147.151C269.639,-133.835 329.659,-52.224 316.343,35.132C309.684,78.81 285.952,115.654 252.966,139.914L252.966,119.176L74.387,119.176L74.387,147.376C56.684,136.487 41.408,122.308 29.278,105.814C5.018,72.827 -6.658,30.586 0,-13.092" style="fill:rgb(181,30,75);fill-rule:nonzero;"/>
                    </g>
                    <g transform="matrix(1,0,0,1,251.839,962.112)">
                        <path d="M0,-12.836C13.055,-98.478 93.065,-157.32 178.707,-144.265C264.349,-131.21 323.191,-51.2 310.136,34.442C303.608,77.263 280.342,113.384 248.002,137.168L248.002,117.94L72.927,117.94L72.927,144.484C55.571,133.809 40.595,119.907 28.703,103.737C4.919,71.398 -6.528,29.985 0,-12.836" style="fill:rgb(180,30,74);fill-rule:nonzero;"/>
                    </g>
                    <g transform="matrix(1,0,0,1,256.111,963.346)">
                        <path d="M0,-12.578C12.794,-96.506 91.203,-154.171 175.131,-141.377C259.058,-128.583 316.724,-50.174 303.93,33.754C297.533,75.718 274.732,111.116 243.039,134.424L243.039,116.706L71.468,116.706L71.468,141.593C54.459,131.132 39.783,117.509 28.129,101.662C4.821,69.97 -6.397,29.386 0,-12.578" style="fill:rgb(179,30,74);fill-rule:nonzero;"/>
                    </g>
                    <g transform="matrix(1,0,0,1,260.383,964.58)">
                        <path d="M0,-12.321C12.533,-94.535 89.34,-151.023 171.554,-138.49C253.768,-125.957 310.256,-49.149 297.723,33.064C291.457,74.171 269.121,108.847 238.076,131.679L238.076,115.471L70.008,115.471L70.008,138.702C53.347,128.454 38.97,115.109 27.554,99.587C4.722,68.541 -6.266,28.786 0,-12.321" style="fill:rgb(178,30,73);fill-rule:nonzero;"/>
                    </g>
                    <g transform="matrix(1,0,0,1,264.654,965.816)">
                        <path d="M0,-12.065C12.272,-92.565 87.478,-147.875 167.978,-135.604C248.478,-123.332 303.788,-48.126 291.517,32.374C285.381,72.624 263.511,106.577 233.113,128.933L233.113,114.236L68.549,114.236L68.549,135.81C52.235,125.775 38.158,112.709 26.98,97.51C4.624,67.112 -6.136,28.185 0,-12.065" style="fill:rgb(178,30,72);fill-rule:nonzero;"/>
                    </g>
                    <g transform="matrix(1,0,0,1,268.926,986.726)">
                        <path d="M0,-31.483C12.01,-110.269 85.615,-164.402 164.402,-152.391C243.188,-140.381 297.32,-66.776 285.31,12.01C279.305,51.403 257.901,84.633 228.15,106.513L228.15,93.326L120.908,93.326L120.908,132.919C42.122,120.908 -12.01,47.303 0,-31.483" style="fill:rgb(176,29,72);fill-rule:nonzero;"/>
                    </g>
                    <g transform="matrix(1,0,0,1,273.198,987.533)">
                        <path d="M0,-30.798C11.749,-107.87 83.753,-160.825 160.825,-149.076C237.898,-137.327 290.853,-65.323 279.103,11.749C273.229,50.285 252.291,82.792 223.187,104.196L223.187,92.519L118.278,92.519L118.278,130.027C41.206,118.278 -11.749,46.274 0,-30.798" style="fill:rgb(175,30,71);fill-rule:nonzero;"/>
                    </g>
                    <g transform="matrix(1,0,0,1,277.47,988.339)">
                        <path d="M0,-30.113C11.488,-105.471 81.891,-157.249 157.249,-145.761C232.607,-134.273 284.385,-63.87 272.897,11.488C267.153,49.167 246.68,80.951 218.224,101.879L218.224,91.712L115.648,91.712L115.648,127.136C40.29,115.648 -11.488,45.245 0,-30.113" style="fill:rgb(175,29,70);fill-rule:nonzero;"/>
                    </g>
                    <g transform="matrix(1,0,0,1,281.742,989.147)">
                        <path d="M0,-29.429C11.227,-103.074 80.028,-153.673 153.673,-142.447C227.317,-131.22 277.917,-62.419 266.69,11.226C261.077,48.048 241.07,79.109 213.261,99.561L213.261,90.905L113.018,90.905L113.018,124.244C39.373,113.017 -11.227,44.216 0,-29.429" style="fill:rgb(173,29,70);fill-rule:nonzero;"/>
                    </g>
                    <g transform="matrix(1,0,0,1,286.014,989.953)">
                        <path d="M0,-28.743C10.965,-100.674 78.166,-150.096 150.096,-139.131C222.027,-128.165 271.449,-60.965 260.484,10.966C255.001,46.931 235.46,77.269 208.298,97.246L208.298,90.099L110.388,90.099L110.388,121.353C38.457,110.388 -10.965,43.188 0,-28.743" style="fill:rgb(172,29,69);fill-rule:nonzero;"/>
                    </g>
                    <g transform="matrix(-0.150703,0.988579,0.988579,0.150703,455.744,859.318)">
                        <path d="M127.138,-147.989C56.11,-147.989 -1.469,-90.41 -1.469,-19.381C-1.469,51.647 56.11,109.226 127.138,109.226C198.166,109.226 255.746,51.647 255.746,-19.381C255.746,-90.409 198.167,-147.989 127.138,-147.989" style="fill:rgb(171,29,68);fill-rule:nonzero;"/>
                    </g>
                    <g transform="matrix(-0.150699,0.98858,0.98858,0.150699,455.977,863.332)">
                        <path d="M124.035,-144.376C54.741,-144.376 -1.433,-88.202 -1.432,-18.907C-1.432,50.387 54.742,106.561 124.035,106.56C193.33,106.56 249.504,50.386 249.504,-18.908C249.504,-88.203 193.33,-144.377 124.035,-144.376" style="fill:rgb(170,29,68);fill-rule:nonzero;"/>
                    </g>
                    <g transform="matrix(-0.1507,0.98858,0.98858,0.1507,456.211,867.348)">
                        <path d="M120.932,-140.765C53.372,-140.766 -1.397,-85.997 -1.397,-18.436C-1.397,49.124 53.371,103.894 120.932,103.893C188.493,103.893 243.262,49.125 243.261,-18.436C243.262,-85.997 188.493,-140.765 120.932,-140.765" style="fill:rgb(169,29,67);fill-rule:nonzero;"/>
                    </g>
                    <g transform="matrix(-0.1507,0.988579,0.988579,0.1507,456.444,871.363)">
                        <path d="M117.829,-137.152C52.002,-137.152 -1.361,-83.789 -1.361,-17.962C-1.361,47.865 52.002,101.228 117.829,101.228C183.656,101.228 237.019,47.865 237.019,-17.962C237.019,-83.789 183.656,-137.152 117.829,-137.152" style="fill:rgb(168,29,66);fill-rule:nonzero;"/>
                    </g>
                    <g transform="matrix(-0.150701,0.988579,0.988579,0.150701,456.677,875.378)">
                        <path d="M114.725,-133.54C50.633,-133.54 -1.326,-81.583 -1.326,-17.489C-1.326,46.604 50.633,98.562 114.725,98.562C178.818,98.562 230.777,46.605 230.777,-17.488C230.777,-81.582 178.818,-133.54 114.725,-133.54" style="fill:rgb(167,28,66);fill-rule:nonzero;"/>
                    </g>
                    <g transform="matrix(-0.150701,0.988579,0.988579,0.150701,456.91,879.394)">
                        <path d="M111.622,-129.928C49.263,-129.927 -1.29,-79.375 -1.29,-17.016C-1.29,45.344 49.263,95.896 111.622,95.897C173.981,95.896 224.534,45.344 224.534,-17.016C224.534,-79.375 173.981,-129.928 111.622,-129.928" style="fill:rgb(166,28,65);fill-rule:nonzero;"/>
                    </g>
                    <g transform="matrix(-0.150702,0.988579,0.988579,0.150702,457.144,883.408)">
                        <path d="M108.52,-126.316C47.895,-126.316 -1.253,-77.168 -1.253,-16.543C-1.253,44.082 47.894,93.23 108.52,93.23C169.145,93.23 218.292,44.083 218.293,-16.543C218.293,-77.168 169.145,-126.315 108.52,-126.316" style="fill:rgb(165,28,64);fill-rule:nonzero;"/>
                    </g>
                    <g transform="matrix(-0.150703,0.988579,0.988579,0.150703,457.377,887.424)">
                        <path d="M105.416,-122.704C46.524,-122.704 -1.218,-74.963 -1.218,-16.07C-1.218,42.822 46.523,90.564 105.416,90.564C164.308,90.564 212.05,42.823 212.05,-16.07C212.05,-74.963 164.309,-122.704 105.416,-122.704" style="fill:rgb(164,28,64);fill-rule:nonzero;"/>
                    </g>
                    <g transform="matrix(-0.150699,0.98858,0.98858,0.150699,457.609,891.439)">
                        <path d="M102.313,-119.091C45.154,-119.091 -1.182,-72.754 -1.182,-15.596C-1.182,41.562 45.155,87.898 102.313,87.898C159.471,87.898 205.807,41.562 205.807,-15.596C205.808,-72.755 159.471,-119.091 102.313,-119.091" style="fill:rgb(163,28,64);fill-rule:nonzero;"/>
                    </g>
                    <g transform="matrix(-0.150699,0.98858,0.98858,0.150699,457.843,895.455)">
                        <path d="M99.208,-115.479C43.783,-115.479 -1.147,-70.548 -1.147,-15.124C-1.147,40.301 43.785,85.232 99.208,85.232C154.633,85.232 199.565,40.301 199.564,-15.124C199.565,-70.548 154.633,-115.48 99.208,-115.479" style="fill:rgb(162,28,63);fill-rule:nonzero;"/>
                    </g>
                    <g transform="matrix(-0.1507,0.98858,0.98858,0.1507,458.077,899.469)">
                        <path d="M96.107,-111.867C42.415,-111.868 -1.11,-68.342 -1.11,-14.651C-1.11,39.041 42.415,82.566 96.107,82.565C149.798,82.566 193.323,39.04 193.323,-14.65C193.323,-68.342 149.798,-111.867 96.107,-111.867" style="fill:rgb(161,28,61);fill-rule:nonzero;"/>
                    </g>
                    <g transform="matrix(-0.1507,0.988579,0.988579,0.1507,458.31,903.484)">
                        <path d="M93.003,-108.255C41.046,-108.255 -1.074,-66.135 -1.074,-14.178C-1.074,37.779 41.046,79.9 93.003,79.9C144.96,79.9 187.08,37.779 187.08,-14.178C187.08,-66.135 144.96,-108.255 93.003,-108.255" style="fill:rgb(160,28,62);fill-rule:nonzero;"/>
                    </g>
                    <g transform="matrix(-0.150701,0.988579,0.988579,0.150701,458.543,907.5)">
                        <path d="M89.9,-104.643C39.676,-104.642 -1.039,-63.928 -1.039,-13.704C-1.038,36.519 39.676,77.234 89.9,77.234C140.123,77.233 180.838,36.519 180.838,-13.704C180.837,-63.928 140.123,-104.643 89.9,-104.643" style="fill:rgb(160,27,61);fill-rule:nonzero;"/>
                    </g>
                    <g transform="matrix(-0.150702,0.988579,0.988579,0.150702,458.777,911.515)">
                        <path d="M86.797,-101.031C38.307,-101.031 -1.002,-61.722 -1.003,-13.231C-1.002,35.258 38.306,74.567 86.797,74.568C135.286,74.567 174.595,35.258 174.596,-13.231C174.595,-61.721 135.286,-101.03 86.797,-101.031" style="fill:rgb(158,27,60);fill-rule:nonzero;"/>
                    </g>
                    <g transform="matrix(-0.150703,0.988579,0.988579,0.150703,459.01,915.53)">
                        <path d="M83.693,-97.418C36.937,-97.419 -0.967,-59.515 -0.967,-12.759C-0.968,33.998 36.936,71.901 83.693,71.901C130.449,71.902 168.353,33.998 168.352,-12.758C168.353,-59.515 130.449,-97.418 83.693,-97.418" style="fill:rgb(157,27,60);fill-rule:nonzero;"/>
                    </g>
                    <g transform="matrix(-0.150703,0.988579,0.988579,0.150703,459.243,919.545)">
                        <path d="M80.59,-93.806C35.567,-93.806 -0.931,-57.308 -0.931,-12.285C-0.931,32.738 35.567,69.236 80.59,69.236C125.613,69.236 162.111,32.738 162.111,-12.285C162.111,-57.308 125.614,-93.806 80.59,-93.806" style="fill:rgb(157,27,59);fill-rule:nonzero;"/>
                    </g>
                    <g transform="matrix(-0.150699,0.98858,0.98858,0.150699,459.476,923.561)">
                        <path d="M77.486,-90.194C34.197,-90.194 -0.896,-55.101 -0.895,-11.812C-0.896,31.476 34.198,66.57 77.486,66.569C120.775,66.569 155.869,31.476 155.868,-11.813C155.868,-55.101 120.775,-90.195 77.486,-90.194" style="fill:rgb(155,27,57);fill-rule:nonzero;"/>
                    </g>
                    <g transform="matrix(-0.150699,0.98858,0.98858,0.150699,459.709,927.576)">
                        <path d="M74.384,-86.582C32.828,-86.582 -0.859,-52.894 -0.859,-11.339C-0.859,30.216 32.829,63.904 74.384,63.904C115.939,63.903 149.626,30.216 149.626,-11.34C149.626,-52.895 115.939,-86.581 74.384,-86.582" style="fill:rgb(154,26,58);fill-rule:nonzero;"/>
                    </g>
                    <g transform="matrix(-0.1507,0.98858,0.98858,0.1507,459.943,931.591)">
                        <path d="M71.28,-82.969C31.458,-82.97 -0.823,-50.688 -0.823,-10.866C-0.824,28.956 31.458,61.237 71.28,61.237C111.102,61.238 143.383,28.956 143.383,-10.866C143.384,-50.688 111.102,-82.969 71.28,-82.969" style="fill:rgb(153,26,57);fill-rule:nonzero;"/>
                    </g>
                    <g transform="matrix(-0.1507,0.988579,0.988579,0.1507,460.176,935.607)">
                        <path d="M68.176,-79.357C30.088,-79.357 -0.788,-48.481 -0.788,-10.393C-0.788,27.695 30.089,58.571 68.176,58.572C106.264,58.572 137.141,27.695 137.141,-10.393C137.141,-48.481 106.264,-79.357 68.176,-79.357" style="fill:rgb(152,26,56);fill-rule:nonzero;"/>
                    </g>
                    <g transform="matrix(-0.150702,0.988579,0.988579,0.150702,460.409,939.622)">
                        <path d="M65.074,-75.745C28.719,-75.745 -0.752,-46.275 -0.752,-9.921C-0.752,26.435 28.719,55.906 65.074,55.905C101.428,55.905 130.899,26.435 130.899,-9.919C130.899,-46.275 101.428,-75.746 65.074,-75.745" style="fill:rgb(151,26,54);fill-rule:nonzero;"/>
                    </g>
                    <g transform="matrix(-0.150702,0.988579,0.988579,0.150702,460.643,943.637)">
                        <path d="M61.971,-72.133C27.35,-72.134 -0.716,-44.068 -0.715,-9.447C-0.716,25.173 27.349,53.239 61.971,53.239C96.591,53.239 124.657,25.174 124.657,-9.448C124.657,-44.068 96.591,-72.133 61.971,-72.133" style="fill:rgb(150,25,54);fill-rule:nonzero;"/>
                    </g>
                    <g transform="matrix(-0.150704,0.988579,0.988579,0.150704,460.876,947.652)">
                        <path d="M58.867,-68.521C25.98,-68.521 -0.68,-41.862 -0.68,-8.974C-0.68,23.913 25.979,50.573 58.867,50.573C91.754,50.573 118.414,23.914 118.414,-8.974C118.414,-41.861 91.754,-68.521 58.867,-68.521" style="fill:rgb(149,25,53);fill-rule:nonzero;"/>
                    </g>
                    <g transform="matrix(-0.150696,0.98858,0.98858,0.150696,461.108,951.667)">
                        <path d="M55.763,-64.908C24.611,-64.908 -0.645,-39.653 -0.644,-8.5C-0.644,22.653 24.611,47.908 55.763,47.908C86.917,47.908 112.172,22.652 112.172,-8.5C112.172,-39.653 86.916,-64.909 55.763,-64.908" style="fill:rgb(148,25,52);fill-rule:nonzero;"/>
                    </g>
                    <g transform="matrix(-0.150698,0.98858,0.98858,0.150698,461.342,955.683)">
                        <path d="M52.66,-61.297C23.241,-61.296 -0.608,-37.447 -0.609,-8.028C-0.608,21.392 23.241,45.241 52.66,45.241C82.08,45.24 105.929,21.391 105.929,-8.028C105.929,-37.448 82.08,-61.297 52.66,-61.297" style="fill:rgb(147,25,52);fill-rule:nonzero;"/>
                    </g>
                    <g transform="matrix(-0.1507,0.98858,0.98858,0.1507,461.576,959.697)">
                        <path d="M49.558,-57.684C21.871,-57.685 -0.572,-35.241 -0.572,-7.555C-0.572,20.132 21.872,42.575 49.558,42.575C77.244,42.575 99.687,20.131 99.687,-7.554C99.688,-35.241 77.244,-57.684 49.558,-57.684" style="fill:rgb(146,25,51);fill-rule:nonzero;"/>
                    </g>
                    <g transform="matrix(-0.1507,0.98858,0.98858,0.1507,461.809,963.713)">
                        <path d="M46.454,-54.073C20.501,-54.073 -0.537,-33.034 -0.537,-7.082C-0.537,18.87 20.501,39.909 46.454,39.909C72.406,39.909 93.445,18.87 93.445,-7.082C93.445,-33.034 72.406,-54.073 46.454,-54.073" style="fill:rgb(145,24,50);fill-rule:nonzero;"/>
                    </g>
                    <g transform="matrix(-0.150702,0.988579,0.988579,0.150702,462.042,967.728)">
                        <path d="M43.351,-50.46C19.132,-50.46 -0.501,-30.827 -0.501,-6.609C-0.502,17.61 19.132,37.243 43.351,37.243C67.569,37.244 87.202,17.61 87.202,-6.609C87.202,-30.827 67.569,-50.46 43.351,-50.46" style="fill:rgb(144,24,49);fill-rule:nonzero;"/>
                    </g>
                    <g transform="matrix(-0.150703,0.988579,0.988579,0.150703,462.275,971.743)">
                        <path d="M40.248,-46.847C17.763,-46.848 -0.465,-28.62 -0.464,-6.135C-0.465,16.35 17.763,34.577 40.248,34.578C62.733,34.577 80.96,16.35 80.96,-6.135C80.96,-28.62 62.733,-46.847 40.248,-46.847" style="fill:rgb(142,24,49);fill-rule:nonzero;"/>
                    </g>
                    <g transform="matrix(-0.150706,0.988579,0.988579,0.150706,462.509,975.759)">
                        <path d="M37.145,-43.236C16.394,-43.236 -0.429,-26.415 -0.429,-5.663C-0.429,15.088 16.393,31.911 37.145,31.91C57.896,31.91 74.718,15.089 74.718,-5.662C74.717,-26.414 57.896,-43.236 37.145,-43.236" style="fill:rgb(141,23,48);fill-rule:nonzero;"/>
                    </g>
                    <g transform="matrix(-0.150707,0.988578,0.988578,0.150707,462.742,979.774)">
                        <path d="M34.041,-39.623C15.024,-39.623 -0.393,-24.207 -0.393,-5.189C-0.393,13.829 15.023,29.245 34.041,29.245C53.059,29.245 68.475,13.829 68.475,-5.189C68.475,-24.207 53.059,-39.623 34.041,-39.623" style="fill:rgb(140,23,47);fill-rule:nonzero;"/>
                    </g>
                    <g transform="matrix(-0.150696,0.98858,0.98858,0.150696,462.975,983.789)">
                        <path d="M30.937,-36.011C13.654,-36.011 -0.358,-21.999 -0.357,-4.716C-0.358,12.567 13.654,26.579 30.937,26.578C48.221,26.579 62.233,12.567 62.232,-4.717C62.232,-22 48.22,-36.012 30.937,-36.011" style="fill:rgb(139,23,47);fill-rule:nonzero;"/>
                    </g>
                    <g transform="matrix(-0.150696,0.98858,0.98858,0.150696,463.208,987.804)">
                        <path d="M27.834,-32.399C12.284,-32.399 -0.322,-19.793 -0.321,-4.242C-0.321,11.307 12.285,23.913 27.834,23.913C43.385,23.912 55.991,11.307 55.991,-4.243C55.99,-19.793 43.384,-32.399 27.834,-32.399" style="fill:rgb(138,22,46);fill-rule:nonzero;"/>
                    </g>
                    <g transform="matrix(-0.150699,0.98858,0.98858,0.150699,463.441,991.819)">
                        <path d="M24.731,-28.787C10.914,-28.787 -0.286,-17.586 -0.286,-3.77C-0.286,10.047 10.914,21.247 24.731,21.247C38.548,21.247 49.748,10.047 49.748,-3.77C49.748,-17.587 38.548,-28.787 24.731,-28.787" style="fill:rgb(137,22,45);fill-rule:nonzero;"/>
                    </g>
                    <g transform="matrix(-0.1507,0.988579,0.988579,0.1507,463.675,995.835)">
                        <path d="M21.628,-25.175C9.545,-25.175 -0.25,-15.38 -0.25,-3.297C-0.25,8.786 9.545,18.581 21.628,18.581C33.711,18.581 43.506,8.786 43.506,-3.297C43.506,-15.38 33.711,-25.175 21.628,-25.175" style="fill:rgb(136,22,45);fill-rule:nonzero;"/>
                    </g>
                    <g transform="matrix(-0.150706,0.988579,0.988579,0.150706,463.908,999.85)">
                        <path d="M18.525,-21.563C8.175,-21.562 -0.214,-13.173 -0.215,-2.824C-0.214,7.525 8.175,15.915 18.525,15.915C28.874,15.915 37.263,7.526 37.263,-2.823C37.263,-13.173 28.874,-21.563 18.525,-21.563" style="fill:rgb(134,21,44);fill-rule:nonzero;"/>
                    </g>
                    <g transform="matrix(-0.150708,0.988578,0.988578,0.150708,464.142,1003.87)">
                        <path d="M15.422,-17.951C6.806,-17.951 -0.178,-10.967 -0.179,-2.352C-0.178,6.264 6.806,13.248 15.422,13.249C24.037,13.248 31.021,6.265 31.021,-2.352C31.021,-10.966 24.037,-17.95 15.422,-17.951" style="fill:rgb(134,21,43);fill-rule:nonzero;"/>
                    </g>
                    <g transform="matrix(-0.150718,0.988577,0.988577,0.150718,464.375,1007.88)">
                        <path d="M12.318,-14.338C5.436,-14.339 -0.142,-8.76 -0.142,-1.878C-0.143,5.004 5.436,10.582 12.318,10.582C19.2,10.583 24.778,5.004 24.778,-1.878C24.779,-8.76 19.2,-14.338 12.318,-14.338" style="fill:rgb(133,21,42);fill-rule:nonzero;"/>
                    </g>
                    <g transform="matrix(-0.150674,0.988583,0.988583,0.150674,464.607,1011.9)">
                        <path d="M9.215,-10.726C4.067,-10.726 -0.106,-6.553 -0.106,-1.404C-0.106,3.744 4.067,7.917 9.215,7.917C14.364,7.917 18.536,3.743 18.537,-1.405C18.537,-6.553 14.363,-10.726 9.215,-10.726" style="fill:rgb(132,20,42);fill-rule:nonzero;"/>
                    </g>
                    <g transform="matrix(-0.150677,0.988583,0.988583,0.150677,464.841,1015.91)">
                        <path d="M6.111,-7.114C2.697,-7.114 -0.071,-4.346 -0.071,-0.932C-0.071,2.483 2.697,5.251 6.111,5.25C9.526,5.251 12.294,2.482 12.293,-0.932C12.293,-4.346 9.525,-7.115 6.111,-7.114" style="fill:rgb(131,20,41);fill-rule:nonzero;"/>
                    </g>
                </g>
            </g>
        </g>
        <g transform="matrix(4.16667,0,0,4.16667,12825,13837.5)">
            <path d="M732.051,853.876C687.921,854.217 636.874,893.587 636.874,893.587L638.457,898.667C638.457,898.667 683.943,900.175 697.165,899.598C754.293,897.103 788.891,853.875 732.908,853.873C732.623,853.873 732.341,853.874 732.051,853.876Z" style="fill:url(#_Linear15);fill-rule:nonzero;"/>
        </g>
        <g transform="matrix(4.16667,0,0,4.16667,12825,13837.5)">
            <g>
                <clipPath id="_clip16">
                    <path d="M495.854,735.612C495.854,735.612 525.675,740.72 538.243,748.7C550.812,756.679 560.658,772.415 560.658,772.415C560.658,772.415 562.664,730.393 532.737,730.111C532.409,730.107 532.079,730.106 531.752,730.106C512.131,730.105 495.854,735.612 495.854,735.612Z"/>
                </clipPath>
                <g clip-path="url(#_clip16)">
                    <rect x="495.854" y="730.105" width="66.809" height="42.31" style="fill:url(#_Linear17);"/>
                </g>
            </g>
        </g>
        <g transform="matrix(4.16667,0,0,4.16667,12825,13837.5)">
            <g>
                <clipPath id="_clip18">
                    <path d="M422.96,807.98C406.73,817.255 382.599,836.086 370.651,827.995C370.651,827.995 361.268,843.633 367.523,850.669C373.778,857.706 406.616,853.868 435.544,831.94C464.473,810.013 483.822,788.108 472.291,769.357C472.291,769.357 439.19,798.706 422.96,807.98Z"/>
                </clipPath>
                <g clip-path="url(#_clip18)">
                    <g transform="matrix(1,0,0,1,400.929,815.679)">
                        <path d="M0,42.027L82.893,0L82.893,42.027L0,42.027Z" style="fill:rgb(109,15,41);fill-rule:nonzero;"/>
                    </g>
                    <g transform="matrix(0.891913,-0.452206,-0.452206,-0.891913,409.255,875.529)">
                        <path d="M-5.435,22.738L95.132,22.738L93.572,19.661L0.635,19.661L-5.435,22.738Z" style="fill:rgb(109,15,41);fill-rule:nonzero;"/>
                    </g>
                    <g transform="matrix(0.891914,-0.452205,-0.452205,-0.891914,403.598,876.881)">
                        <path d="M-5.847,24.464L102.349,24.463L100.789,21.386L0.222,21.386L-5.847,24.464Z" style="fill:rgb(110,16,42);fill-rule:nonzero;"/>
                    </g>
                    <g transform="matrix(0.891915,-0.452204,-0.452204,-0.891915,397.941,878.233)">
                        <path d="M-6.26,26.188L109.567,26.188L108.006,23.111L-0.19,23.111L-6.26,26.188Z" style="fill:rgb(111,16,42);fill-rule:nonzero;"/>
                    </g>
                    <g transform="matrix(0.891915,-0.452203,-0.452203,-0.891915,392.284,879.586)">
                        <path d="M-6.672,27.914L116.784,27.914L115.224,24.836L-0.602,24.836L-6.672,27.914Z" style="fill:rgb(111,16,43);fill-rule:nonzero;"/>
                    </g>
                    <g transform="matrix(0.891916,-0.452202,-0.452202,-0.891916,386.627,880.938)">
                        <path d="M-7.084,29.639L124.001,29.639L122.441,26.561L-1.015,26.561L-7.084,29.639Z" style="fill:rgb(112,16,42);fill-rule:nonzero;"/>
                    </g>
                    <g transform="matrix(1,0,0,1,361.268,795.571)">
                        <path d="M0,61.543L122.554,-0.592L122.554,2.858L5.638,62.135L0,62.135L0,61.543Z" style="fill:rgb(113,17,44);fill-rule:nonzero;"/>
                    </g>
                    <g transform="matrix(0.891916,-0.452202,-0.452202,-0.891916,381.16,878.202)">
                        <path d="M-6.646,30.881L130.76,30.881L129.2,27.804L-8.206,27.804L-6.646,30.881Z" style="fill:rgb(115,17,44);fill-rule:nonzero;"/>
                    </g>
                    <g transform="matrix(0.891916,-0.452202,-0.452202,-0.891916,381.16,874.752)">
                        <path d="M-6.646,30.881L130.76,30.881L129.2,27.804L-8.206,27.804L-6.646,30.881Z" style="fill:rgb(117,15,44);fill-rule:nonzero;"/>
                    </g>
                    <g transform="matrix(0.891916,-0.452202,-0.452202,-0.891916,381.16,871.302)">
                        <path d="M-6.646,30.881L130.76,30.881L129.2,27.804L-8.206,27.804L-6.646,30.881Z" style="fill:rgb(118,17,44);fill-rule:nonzero;"/>
                    </g>
                    <g transform="matrix(0.891916,-0.452202,-0.452202,-0.891916,381.16,867.852)">
                        <path d="M-6.646,30.881L130.76,30.881L129.2,27.804L-8.206,27.804L-6.646,30.881Z" style="fill:rgb(119,17,46);fill-rule:nonzero;"/>
                    </g>
                    <g transform="matrix(0.891916,-0.452202,-0.452202,-0.891916,381.16,864.402)">
                        <path d="M-6.646,30.881L130.76,30.881L129.2,27.804L-8.206,27.804L-6.646,30.881Z" style="fill:rgb(120,18,46);fill-rule:nonzero;"/>
                    </g>
                    <g transform="matrix(0.891916,-0.452202,-0.452202,-0.891916,381.16,860.952)">
                        <path d="M-6.646,30.881L130.76,30.881L129.2,27.804L-8.206,27.804L-6.646,30.881Z" style="fill:rgb(121,18,47);fill-rule:nonzero;"/>
                    </g>
                    <g transform="matrix(0.891916,-0.452202,-0.452202,-0.891916,381.16,857.502)">
                        <path d="M-6.646,30.881L130.76,30.881L129.2,27.804L-8.206,27.804L-6.646,30.881Z" style="fill:rgb(122,19,47);fill-rule:nonzero;"/>
                    </g>
                    <g transform="matrix(1,0,0,1,361.268,772.807)">
                        <path d="M0,56.707L118.653,-3.45L122.554,-3.45L122.554,-1.978L0,60.157L0,56.707Z" style="fill:rgb(123,19,48);fill-rule:nonzero;"/>
                    </g>
                    <g transform="matrix(0.891914,-0.452205,-0.452205,-0.891914,379.722,850.014)">
                        <path d="M-5.629,29.706L119.774,29.706L125.843,26.629L-7.19,26.629L-5.629,29.706Z" style="fill:rgb(124,19,48);fill-rule:nonzero;"/>
                    </g>
                    <g transform="matrix(0.891917,-0.452199,-0.452199,-0.891917,378.574,845.211)">
                        <path d="M-5.217,27.981L112.556,27.981L118.626,24.903L-6.777,24.904L-5.217,27.981Z" style="fill:rgb(125,21,49);fill-rule:nonzero;"/>
                    </g>
                    <g transform="matrix(0.891917,-0.4522,-0.4522,-0.891917,377.426,840.409)">
                        <path d="M-4.805,26.256L105.339,26.256L111.409,23.178L-6.365,23.179L-4.805,26.256Z" style="fill:rgb(126,20,50);fill-rule:nonzero;"/>
                    </g>
                    <g transform="matrix(0.891916,-0.452201,-0.452201,-0.891916,376.278,835.607)">
                        <path d="M-4.392,24.531L98.122,24.531L104.191,21.453L-5.952,21.454L-4.392,24.531Z" style="fill:rgb(127,21,50);fill-rule:nonzero;"/>
                    </g>
                    <g transform="matrix(0.891915,-0.452202,-0.452202,-0.891915,375.131,830.805)">
                        <path d="M-3.98,22.806L90.905,22.806L96.974,19.728L-5.54,19.729L-3.98,22.806Z" style="fill:rgb(128,21,51);fill-rule:nonzero;"/>
                    </g>
                    <g transform="matrix(0.891917,-0.452199,-0.452199,-0.891917,373.983,826.002)">
                        <path d="M-3.568,21.08L83.688,21.08L89.757,18.004L-5.128,18.003L-3.568,21.08Z" style="fill:rgb(129,21,51);fill-rule:nonzero;"/>
                    </g>
                    <g transform="matrix(0.891917,-0.4522,-0.4522,-0.891917,372.835,821.2)">
                        <path d="M-3.155,19.356L76.471,19.356L82.54,16.278L-4.715,16.279L-3.155,19.356Z" style="fill:rgb(130,20,52);fill-rule:nonzero;"/>
                    </g>
                    <g transform="matrix(0.891916,-0.452201,-0.452201,-0.891916,371.687,816.398)">
                        <path d="M-2.743,17.631L69.254,17.631L75.323,14.553L-4.303,14.554L-2.743,17.631Z" style="fill:rgb(131,20,52);fill-rule:nonzero;"/>
                    </g>
                    <g transform="matrix(0.891915,-0.452203,-0.452203,-0.891915,370.539,811.596)">
                        <path d="M-2.331,15.906L62.036,15.906L68.106,12.828L-3.891,12.829L-2.331,15.906Z" style="fill:rgb(132,22,53);fill-rule:nonzero;"/>
                    </g>
                    <g transform="matrix(0.891914,-0.452205,-0.452205,-0.891914,369.392,806.794)">
                        <path d="M-1.918,14.181L54.819,14.181L60.889,11.103L-3.479,11.104L-1.918,14.181Z" style="fill:rgb(133,21,53);fill-rule:nonzero;"/>
                    </g>
                    <g transform="matrix(1,0,0,1,411.873,795.013)">
                        <path d="M0,-25.657L-50.605,0L-50.605,-25.657L0,-25.657Z" style="fill:rgb(133,21,53);fill-rule:nonzero;"/>
                    </g>
                </g>
            </g>
        </g>
        <g transform="matrix(4.16667,0,0,4.16667,12825,13837.5)">
            <path d="M596.662,898.274C587.335,898.636 575.354,899.705 575.354,899.705C575.354,899.705 625.403,919.642 644.805,919.936C668.467,920.247 703.599,919.936 703.599,919.936L686.596,899.725C686.596,899.725 633.521,898.133 607.111,898.133C602.802,898.133 599.205,898.175 596.662,898.274Z" style="fill:url(#_Linear19);fill-rule:nonzero;"/>
        </g>
    </g>
    <defs>
        <linearGradient id="_Linear1" x1="0" y1="0" x2="1" y2="0" gradientUnits="userSpaceOnUse" gradientTransform="matrix(1,0,0,1,0,-0.00580922)"><stop offset="0" style="stop-color:rgb(212,52,39);stop-opacity:1"/><stop offset="0.04" style="stop-color:rgb(212,52,39);stop-opacity:1"/><stop offset="0.65" style="stop-color:rgb(237,86,60);stop-opacity:1"/><stop offset="1" style="stop-color:rgb(237,86,60);stop-opacity:1"/></linearGradient>
        <linearGradient id="_Linear2" x1="0" y1="0" x2="1" y2="0" gradientUnits="userSpaceOnUse" gradientTransform="matrix(1,0,0,1,0,-0.0675103)"><stop offset="0" style="stop-color:rgb(237,86,60);stop-opacity:1"/><stop offset="1" style="stop-color:rgb(243,146,116);stop-opacity:1"/></linearGradient>
        <linearGradient id="_Linear4" x1="0" y1="0" x2="1" y2="0" gradientUnits="userSpaceOnUse" gradientTransform="matrix(1,0,0,1,0,0.201637)"><stop offset="0" style="stop-color:rgb(29,89,158);stop-opacity:1"/><stop offset="0.23" style="stop-color:rgb(29,89,158);stop-opacity:1"/><stop offset="1" style="stop-color:rgb(28,136,176);stop-opacity:1"/></linearGradient>
        <linearGradient id="_Linear6" x1="0" y1="0" x2="1" y2="0" gradientUnits="userSpaceOnUse" gradientTransform="matrix(1,0,0,1,0,-7.80992e-06)"><stop offset="0" style="stop-color:rgb(246,147,34);stop-opacity:1"/><stop offset="0" style="stop-color:rgb(246,147,34);stop-opacity:1"/><stop offset="1" style="stop-color:rgb(250,175,58);stop-opacity:1"/><stop offset="1" style="stop-color:rgb(250,175,58);stop-opacity:1"/></linearGradient>
        <linearGradient id="_Linear7" x1="0" y1="0" x2="1" y2="0" gradientUnits="userSpaceOnUse" gradientTransform="matrix(1,5.55112e-17,-5.55112e-17,1,0,-0.00521868)"><stop offset="0" style="stop-color:rgb(18,68,77);stop-opacity:1"/><stop offset="1" style="stop-color:rgb(54,88,95);stop-opacity:1"/></linearGradient>
        <linearGradient id="_Linear8" x1="0" y1="0" x2="1" y2="0" gradientUnits="userSpaceOnUse" gradientTransform="matrix(1,-5.55112e-17,5.55112e-17,1,0,-0.0711158)"><stop offset="0" style="stop-color:rgb(212,52,39);stop-opacity:1"/><stop offset="0.04" style="stop-color:rgb(212,52,39);stop-opacity:1"/><stop offset="1" style="stop-color:rgb(237,86,60);stop-opacity:1"/></linearGradient>
        <linearGradient id="_Linear9" x1="0" y1="0" x2="1" y2="0" gradientUnits="userSpaceOnUse" gradientTransform="matrix(1,-5.55112e-17,5.55112e-17,1,0,-0.0711503)"><stop offset="0" style="stop-color:rgb(212,52,39);stop-opacity:1"/><stop offset="0.04" style="stop-color:rgb(212,52,39);stop-opacity:1"/><stop offset="1" style="stop-color:rgb(237,86,60);stop-opacity:1"/></linearGradient>
        <linearGradient id="_Linear10" x1="0" y1="0" x2="1" y2="0" gradientUnits="userSpaceOnUse" gradientTransform="matrix(1,-2.77556e-17,2.77556e-17,1,0,-0.046233)"><stop offset="0" style="stop-color:rgb(212,52,39);stop-opacity:1"/><stop offset="0.04" style="stop-color:rgb(212,52,39);stop-opacity:1"/><stop offset="1" style="stop-color:rgb(237,86,60);stop-opacity:1"/></linearGradient>
        <linearGradient id="_Linear11" x1="0" y1="0" x2="1" y2="0" gradientUnits="userSpaceOnUse" gradientTransform="matrix(1,0,0,1,0,0.0100347)"><stop offset="0" style="stop-color:rgb(237,87,62);stop-opacity:1"/><stop offset="1" style="stop-color:rgb(212,35,41);stop-opacity:1"/></linearGradient>
        <linearGradient id="_Linear12" x1="0" y1="0" x2="1" y2="0" gradientUnits="userSpaceOnUse" gradientTransform="matrix(1,0,0,1,0,0.119478)"><stop offset="0" style="stop-color:rgb(237,87,62);stop-opacity:1"/><stop offset="0.96" style="stop-color:rgb(218,37,41);stop-opacity:1"/><stop offset="1" style="stop-color:rgb(212,35,41);stop-opacity:1"/></linearGradient>
        <linearGradient id="_Linear15" x1="0" y1="0" x2="1" y2="0" gradientUnits="userSpaceOnUse" gradientTransform="matrix(-152.373,1.86603e-14,-1.86603e-14,-152.373,789.247,853.434)"><stop offset="0" style="stop-color:rgb(180,30,77);stop-opacity:1"/><stop offset="1" style="stop-color:rgb(144,24,56);stop-opacity:1"/></linearGradient>
        <linearGradient id="_Linear17" x1="0" y1="0" x2="1" y2="0" gradientUnits="userSpaceOnUse" gradientTransform="matrix(-66.809,8.18174e-15,-8.18174e-15,-66.809,562.663,729.921)"><stop offset="0" style="stop-color:rgb(138,22,55);stop-opacity:1"/><stop offset="0.52" style="stop-color:rgb(131,20,49);stop-opacity:1"/><stop offset="0.58" style="stop-color:rgb(129,19,49);stop-opacity:1"/><stop offset="0.79" style="stop-color:rgb(126,18,46);stop-opacity:1"/><stop offset="0.85" style="stop-color:rgb(125,20,46);stop-opacity:1"/><stop offset="1" style="stop-color:rgb(123,17,44);stop-opacity:1"/></linearGradient>
        <linearGradient id="_Linear19" x1="0" y1="0" x2="1" y2="0" gradientUnits="userSpaceOnUse" gradientTransform="matrix(-128.245,1.57055e-14,-1.57055e-14,-128.245,703.599,897.571)"><stop offset="0" style="stop-color:rgb(187,33,81);stop-opacity:1"/><stop offset="0.52" style="stop-color:rgb(184,30,79);stop-opacity:1"/><stop offset="0.6" style="stop-color:rgb(179,30,76);stop-opacity:1"/><stop offset="1" style="stop-color:rgb(156,27,63);stop-opacity:1"/></linearGradient>
    </defs>
</svg>
