<?xml version="1.0" encoding="UTF-8" standalone="no"?>
<!DOCTYPE svg PUBLIC "-//W3C//DTD SVG 1.1//EN" "http://www.w3.org/Graphics/SVG/1.1/DTD/svg11.dtd">
<svg width="100%" height="100%" viewBox="0 0 1389 1683" version="1.1" xmlns="http://www.w3.org/2000/svg" xmlns:xlink="http://www.w3.org/1999/xlink" xml:space="preserve" xmlns:serif="http://www.serif.com/" style="fill-rule:evenodd;clip-rule:evenodd;stroke-linecap:round;stroke-miterlimit:10;">
    <g transform="matrix(1,0,0,1,-2022.1,-850.625)">
        <g transform="matrix(-4.16667,0,0,4.16667,2164.48,1221.28)">
            <path d="M0,1.2C0.511,1.585 0.845,1.868 0.845,1.868L1.159,2.448C1.159,2.448 0.143,2.526 -1.041,2.556C-2.794,2.598 -4.911,2.536 -4.644,1.955C-4.259,1.12 -1.328,1.827 -0.507,1.804C-0.363,1.793 -0.285,1.769 -0.29,1.711C-0.291,1.683 -0.318,1.657 -0.362,1.624C-1.006,1.19 -5.557,0.378 -4.502,-0.625C-3.689,-1.398 -1.288,0.222 0,1.2" style="fill:rgb(57,181,74);fill-rule:nonzero;"/>
        </g>
        <g transform="matrix(0,-401.414,401.414,0,2163.5,1659.89)">
            <path d="M0.985,0.183L0.998,0.196L0.98,0.202L0.989,0.218L0.971,0.219L0.975,0.237L0.957,0.232L0.956,0.251L0.94,0.242L0.933,0.259L0.921,0.245L0.91,0.26L0.901,0.244L0.886,0.255L0.883,0.237L0.866,0.243L0.868,0.225L0.849,0.226L0.831,0.177L0.787,0.146L0.766,0.098L0.72,0.071L0.695,0.025L0.646,0.003L0.615,-0.04L0.564,-0.054L0.524,-0.089L0.471,-0.089L0.422,-0.108L0.392,-0.091L0.358,-0.098L0.333,-0.073L0.298,-0.072L0.28,-0.041L0.246,-0.034L0.232,-0.001L0.199,0.011L0.19,0.045L0.159,0.061L0.152,0.096L0.134,0.095L0.136,0.113L0.118,0.107L0.116,0.125L0.1,0.114L0.092,0.131L0.081,0.116L0.069,0.13L0.062,0.113L0.046,0.123L0.045,0.104L0.03,0.112L0.035,0.096L0.02,0.102L0.028,0.087L0.011,0.09L0.022,0.077L0.005,0.077L0.018,0.066L0.001,0.062L0.015,0.054L-0,0.048L0.015,0.044L0,0.039L0.016,0.037L0.002,0.03L0.018,0.029L0.005,0.021L0.02,0.022L0.008,0.012L0.023,0.015L0.012,0.004L0.027,0.009L0.042,-0.036L0.082,-0.062L0.101,-0.105L0.143,-0.126L0.168,-0.166L0.213,-0.18L0.245,-0.216L0.292,-0.22L0.33,-0.249L0.377,-0.242L0.421,-0.26L0.457,-0.244L0.495,-0.254L0.527,-0.231L0.567,-0.235L0.595,-0.207L0.635,-0.205L0.659,-0.174L0.698,-0.167L0.719,-0.133L0.757,-0.123L0.775,-0.087L0.805,-0.08L0.815,-0.05L0.845,-0.041L0.852,-0.011L0.882,-0.001L0.888,0.03L0.917,0.041L0.923,0.072L0.951,0.084L0.956,0.115L0.984,0.128L0.977,0.145L0.995,0.149L0.984,0.163L1,0.172L0.985,0.183Z" style="fill:url(#_Linear1);fill-rule:nonzero;"/>
        </g>
        <g transform="matrix(-4.16667,0,0,4.16667,2227.14,1274.39)">
            <path d="M0,15.006L-1.746,12.495L-4.773,11.378C-3.496,8.196 -1.72,4.971 -1.489,4.719C-1.12,4.305 2.007,1.669 3.994,0L4.199,0.45L6.107,0.717C6.608,3.968 6.477,9.749 0,15.006" style="fill:rgb(17,85,102);fill-rule:nonzero;"/>
        </g>
        <g transform="matrix(-4.16667,0,0,4.16667,2165.14,1601.28)">
            <path d="M0,12.869L-1.084,11.804L-0.78,13.294L-1.739,12.115L-1.6,13.63L-1.702,13.473L-8.116,-0.728L-8.131,-0.761C-8.102,-0.757 -8.072,-0.75 -8.043,-0.743C-5.48,-0.241 0.18,3.38 3.716,10.112L-0.465,11.423L0,12.869Z" style="fill:rgb(6,123,162);fill-rule:nonzero;"/>
        </g>
        <g transform="matrix(0,56.1862,-56.1862,0,2261.05,1282.27)">
            <ellipse cx="0" cy="-0" rx="1" ry="1" style="fill:url(#_Radial2);"/>
        </g>
        <g transform="matrix(-541.02,0,0,-541.02,2802.07,1256.09)">
            <path d="M0.426,0.057L-0,-0.007L0.147,-0.082C0.147,-0.082 0.284,-0.099 0.59,-0.054C0.653,-0.045 0.707,-0.036 0.754,-0.027L0.754,-0.027C0.934,0.005 1,0.029 1,0.029L0.803,0.113L0.426,0.057Z" style="fill:url(#_Linear3);fill-rule:nonzero;"/>
        </g>
        <g transform="matrix(-396.609,0,0,-396.609,2657.65,1234.9)">
            <path d="M0.217,0.024L0,-0.034C0.112,-0.088 0.388,-0.097 0.665,-0.091L0.665,-0.091C0.91,-0.047 1,-0.015 1,-0.015L0.731,0.101L0.217,0.024Z" style="fill:url(#_Linear4);fill-rule:nonzero;"/>
        </g>
        <g transform="matrix(-79.2841,0,0,-79.2841,3183.4,2259.38)">
            <path d="M0,0L1,0L0,0Z" style="fill:url(#_Linear5);fill-rule:nonzero;"/>
        </g>
        <g transform="matrix(-4.16667,0,0,4.16667,3183.4,2259.38)">
            <path d="M0,0L19.027,0" style="fill:none;fill-rule:nonzero;stroke:url(#_Linear6);stroke-width:0.67px;"/>
        </g>
        <g transform="matrix(-46.1697,0,0,-46.1697,3240.6,2247.94)">
            <path d="M-0,-0L1,-0L-0,-0Z" style="fill:url(#_Linear7);fill-rule:nonzero;"/>
        </g>
        <g transform="matrix(-4.16667,0,0,4.16667,3240.6,2247.94)">
            <path d="M0,0L11.081,0" style="fill:none;fill-rule:nonzero;stroke:url(#_Linear8);stroke-width:0.67px;"/>
        </g>
        <g transform="matrix(-46.1697,0,0,-46.1697,3187.59,2349.64)">
            <path d="M-0,0L1,0L-0,0Z" style="fill:url(#_Linear9);fill-rule:nonzero;"/>
        </g>
        <g transform="matrix(-4.16667,0,0,4.16667,3187.59,2349.64)">
            <path d="M0,0L11.081,0" style="fill:none;fill-rule:nonzero;stroke:url(#_Linear10);stroke-width:0.67px;"/>
        </g>
        <g transform="matrix(-4.16667,0,0,4.16667,3201.38,2283.66)">
            <path d="M0,3.447L-5.834,3.447C-6.411,3.447 -6.879,2.979 -6.879,2.401L-6.879,1.045C-6.879,0.468 -6.411,0 -5.834,0L0,0C0.577,0 1.045,0.468 1.045,1.045L1.045,2.401C1.045,2.979 0.577,3.447 0,3.447" style="fill:rgb(148,217,241);fill-rule:nonzero;"/>
        </g>
        <g transform="matrix(-4.16667,0,0,4.16667,3211.29,2312.39)">
            <path d="M0,3.447L-2.607,3.447C-3.185,3.447 -3.653,2.979 -3.653,2.402L-3.653,1.046C-3.653,0.468 -3.185,0 -2.607,0L0,0C0.577,0 1.046,0.468 1.046,1.046L1.046,2.402C1.046,2.979 0.577,3.447 0,3.447" style="fill:rgb(148,217,241);fill-rule:nonzero;"/>
        </g>
        <g transform="matrix(-4.16667,0,0,4.16667,3237.12,2305.21)">
            <path d="M0,3.447L-2.607,3.447C-3.185,3.447 -3.653,2.979 -3.653,2.402L-3.653,1.046C-3.653,0.468 -3.185,0 -2.607,0L0,0C0.577,0 1.045,0.468 1.045,1.046L1.045,2.402C1.045,2.979 0.577,3.447 0,3.447" style="fill:rgb(249,243,139);fill-rule:nonzero;"/>
        </g>
        <g transform="matrix(-4.16667,0,0,4.16667,3260.18,2290.84)">
            <path d="M0,3.447L-2.607,3.447C-3.185,3.447 -3.652,2.979 -3.652,2.401L-3.652,1.045C-3.652,0.468 -3.185,0 -2.607,0L0,0C0.577,0 1.046,0.468 1.046,1.045L1.046,2.401C1.046,2.979 0.577,3.447 0,3.447" style="fill:rgb(148,203,106);fill-rule:nonzero;"/>
        </g>
        <g transform="matrix(-122.504,0,0,-122.504,3245.67,2305.21)">
            <path d="M0.273,0.293C0.24,0.293 0.214,0.267 0.214,0.235C0.214,0.202 0.24,0.176 0.273,0.176L0.289,0.176C0.322,0.176 0.348,0.15 0.348,0.117C0.348,0.085 0.322,0.059 0.289,0.059L0.059,0.059C0.026,0.059 -0,0.032 -0,0C-0,-0.032 0.026,-0.059 0.059,-0.059L0.19,-0.059C0.223,-0.059 0.249,-0.085 0.249,-0.117C0.249,-0.15 0.223,-0.176 0.19,-0.176L0.184,-0.176C0.152,-0.176 0.125,-0.202 0.125,-0.234C0.125,-0.267 0.152,-0.293 0.184,-0.293L0.837,-0.293L1,0.293L0.273,0.293ZM0.409,0.117C0.409,0.15 0.435,0.176 0.468,0.176L0.542,0.176C0.575,0.176 0.601,0.15 0.601,0.117C0.601,0.085 0.575,0.059 0.542,0.059L0.468,0.059C0.435,0.059 0.409,0.085 0.409,0.117ZM0.431,-0.129L0.431,-0.105C0.431,-0.079 0.452,-0.059 0.477,-0.059C0.503,-0.059 0.524,-0.079 0.524,-0.105L0.524,-0.129C0.524,-0.155 0.503,-0.176 0.477,-0.176C0.452,-0.176 0.431,-0.155 0.431,-0.129Z" style="fill:url(#_Linear11);fill-rule:nonzero;"/>
        </g>
        <g transform="matrix(-4.16667,0,0,4.16667,3255.76,2298.03)">
            <path d="M0,3.447C0.669,3.447 1.211,2.905 1.211,2.237L1.211,1.211C1.211,0.542 0.669,0 0,0C-0.668,0 -1.21,0.542 -1.21,1.211L-1.21,2.237C-1.21,2.905 -0.668,3.447 0,3.447" style="fill:rgb(150,215,225);fill-rule:nonzero;"/>
        </g>
        <g transform="matrix(-4.16667,0,0,4.16667,3242.56,2326.75)">
            <path d="M0,3.448C0.952,3.448 1.724,2.676 1.724,1.723C1.724,0.772 0.952,0 0,0C-0.952,0 -1.724,0.772 -1.724,1.723C-1.724,2.676 -0.952,3.448 0,3.448" style="fill:rgb(150,215,225);fill-rule:nonzero;"/>
        </g>
        <g transform="matrix(-4.16667,0,0,4.16667,3275.4,2298.03)">
            <path d="M0,3.447C0.951,3.447 1.724,2.676 1.724,1.723C1.724,0.771 0.951,0 0,0C-0.952,0 -1.724,0.771 -1.724,1.723C-1.724,2.676 -0.952,3.447 0,3.447" style="fill:rgb(217,240,244);fill-rule:nonzero;"/>
        </g>
        <g transform="matrix(-4.16667,0,0,4.16667,3230.87,2269.3)">
            <path d="M0,3.447L-3.706,3.447C-4.283,3.447 -4.751,2.978 -4.751,2.401L-4.751,1.045C-4.751,0.468 -4.283,0 -3.706,0L0,0C0.577,0 1.045,0.468 1.045,1.045L1.045,2.401C1.045,2.978 0.577,3.447 0,3.447" style="fill:rgb(150,215,225);fill-rule:nonzero;"/>
        </g>
        <g transform="matrix(0,-71.8218,71.8218,0,3049.69,2341.12)">
            <path d="M1,1.31L-0,1.31L-0,-1.006C-0,-1.174 0.136,-1.31 0.303,-1.31L0.697,-1.31C0.864,-1.31 1,-1.174 1,-1.006L1,1.31Z" style="fill:url(#_Linear12);fill-rule:nonzero;"/>
        </g>
        <g transform="matrix(0,4.16667,-4.16667,0,3099.52,2305.4)">
            <path d="M-10.617,-10.617L10.617,-10.617" style="fill:none;fill-rule:nonzero;stroke:rgb(230,230,230);stroke-width:1.55px;"/>
        </g>
        <g transform="matrix(0,4.16667,-4.16667,0,3081.72,2305.4)">
            <path d="M-10.617,-10.617L10.617,-10.617" style="fill:none;fill-rule:nonzero;stroke:rgb(230,230,230);stroke-width:1.55px;"/>
        </g>
        <g transform="matrix(0,4.16667,-4.16667,0,3063.93,2305.4)">
            <path d="M-10.617,-10.617L10.617,-10.617" style="fill:none;fill-rule:nonzero;stroke:rgb(230,230,230);stroke-width:1.55px;"/>
        </g>
        <g transform="matrix(-289.25,0,0,-289.25,2580.77,2075.68)">
            <path d="M0.868,0.917L0.849,0.935L0.841,0.91L0.819,0.922L0.818,0.896L0.793,0.901L0.8,0.876L0.774,0.874L0.788,0.852L0.764,0.843L0.783,0.826L0.763,0.81L0.788,0.752L0.768,0.693L0.787,0.633L0.761,0.575L0.775,0.514L0.745,0.458L0.754,0.396L0.72,0.343L0.724,0.28L0.687,0.23L0.687,0.167L0.63,0.08L0.607,-0.022L0.541,-0.103L0.508,-0.202L0.435,-0.276L0.393,-0.372L0.314,-0.44L0.265,-0.532L0.181,-0.594L0.125,-0.682L0.037,-0.737L0.042,-0.763L0.016,-0.763L0.028,-0.786L0.003,-0.794L0.022,-0.812L0,-0.827L0.023,-0.839L0.006,-0.859L0.031,-0.865L0.021,-0.889L0.047,-0.887L0.037,-0.908L0.057,-0.897L0.051,-0.918L0.069,-0.905L0.066,-0.927L0.081,-0.911L0.082,-0.933L0.095,-0.915L0.099,-0.937L0.109,-0.917L0.116,-0.938L0.124,-0.938L0.129,-0.916L0.14,-0.936L0.142,-0.914L0.155,-0.932L0.154,-0.909L0.169,-0.925L0.165,-0.903L0.183,-0.917L0.176,-0.896L0.195,-0.907L0.26,-0.815L0.353,-0.749L0.412,-0.653L0.499,-0.581L0.55,-0.48L0.631,-0.401L0.673,-0.296L0.747,-0.21L0.752,-0.193L0.779,-0.102L0.844,-0.009L0.865,0.102L0.908,0.159L0.908,0.231L0.946,0.291L0.941,0.362L0.975,0.425L0.964,0.495L0.993,0.561L0.977,0.63L1,0.698L0.977,0.765L0.993,0.835L0.97,0.846L0.985,0.867L0.959,0.871L0.968,0.895L0.943,0.892L0.944,0.918L0.92,0.907L0.914,0.932L0.895,0.916L0.882,0.938L0.868,0.917Z" style="fill:url(#_Linear13);fill-rule:nonzero;"/>
        </g>
        <g transform="matrix(-4.15727,-0.279729,0.279729,-4.15727,2294.37,1863.48)">
            <path d="M-0.029,-0.453C-1.633,-2.356 -5.439,-4.737 -9.517,-2.892C-13.604,-1.044 -4.798,2.782 -0.029,4.612L-0.735,2.252L-0.029,-0.453Z" style="fill:rgb(17,85,102);fill-rule:nonzero;"/>
        </g>
        <g transform="matrix(-4.16667,0,0,4.16667,2363.3,2132.41)">
            <path d="M0,-0.187L-0.348,0.981L-4.045,5.279C-14.681,1.6 -14.688,-5.448 -14.688,-5.466L-1.637,-2.046C-1.637,-2.046 -0.89,-1.271 0,-0.187" style="fill:rgb(6,123,162);fill-rule:nonzero;"/>
        </g>
        <g transform="matrix(-46.9066,0,0,-46.9066,2333.12,1831.26)">
            <path d="M-0.192,0.982C-0.652,0.892 -1,0.487 -1,0C-1,-0.54 -0.572,-0.98 -0.036,-0.999L-0.033,-0.999C-0.022,-1 -0.011,-1 -0,-1C0.552,-1 1,-0.552 1,0C1,0.351 0.818,0.661 0.544,0.839C0.387,0.941 0.201,1 -0,1C-0.066,1 -0.13,0.994 -0.192,0.982Z" style="fill:url(#_Radial14);fill-rule:nonzero;"/>
        </g>
        <g transform="matrix(0,46.9066,-46.9066,0,2380.03,2094.68)">
            <ellipse cx="0" cy="-0" rx="1" ry="1" style="fill:url(#_Radial15);"/>
        </g>
        <g transform="matrix(-4.16667,0,0,4.16667,2517.32,1877.49)">
            <path d="M0,-8.75L-0.608,5.271L-0.732,8.12L-10.617,-0.176L-11.232,-1.318L-19.616,-16.87L0,-8.75Z" style="fill:rgb(157,30,96);fill-rule:nonzero;"/>
        </g>
        <g transform="matrix(-4.16667,0,0,4.16667,2519.85,1870.34)">
            <path d="M0,6.988L-0.124,9.837L-10.009,1.541L-10.624,0.398C-9.603,-1.212 -8.526,-2.849 -8.526,-2.849C-7.014,-1.392 -3.086,3.268 0,6.988" style="fill:rgb(86,28,89);fill-rule:nonzero;"/>
        </g>
        <g transform="matrix(-4.16667,0,0,4.16667,2307.62,1870.99)">
            <path d="M0,-18.986L-6.49,1.713L-6.52,1.809L-6.527,1.713L-8.28,-20.59C-7.581,-20.724 -6.86,-20.795 -6.121,-20.795C-3.862,-20.795 -1.761,-20.132 0,-18.986" style="fill:rgb(157,30,96);fill-rule:nonzero;"/>
        </g>
        <g transform="matrix(-242.541,0,0,-242.541,2560.29,1861.75)">
            <path d="M0.372,0.202L-0,0.085L0.165,-0.204C0.165,-0.204 0.624,-0.251 0.93,-0.069L1,0.291L0.372,0.202Z" style="fill:url(#_Linear16);fill-rule:nonzero;"/>
        </g>
        <g transform="matrix(-281.302,0,0,-281.302,2599.05,1801.75)">
            <path d="M-0,-0.019L0.138,-0.14C0.138,-0.14 0.404,-0.123 0.653,-0.074C0.789,-0.047 0.92,-0.011 1,0.038L0.864,0.14C0.864,0.14 0.305,0.111 -0,-0.019Z" style="fill:url(#_Linear17);fill-rule:nonzero;"/>
        </g>
        <g transform="matrix(-165.34,0,0,-165.34,2483.09,1799.47)">
            <path d="M0.317,0.14L-0,0.006L0.409,-0.14C0.641,-0.094 0.864,-0.032 1,0.051L0.881,0.14L0.317,0.14Z" style="fill:url(#_Linear18);fill-rule:nonzero;"/>
        </g>
        <g transform="matrix(0,-187.458,187.458,0,2447.4,1805.4)">
            <path d="M0.813,0.282L0.791,0.359L0.685,0.336L0.037,0.19C0.037,0.19 -0.058,-0.007 0.056,-0.175L0.706,-0.302L0.897,-0.339L1,-0.359L0.813,0.282Z" style="fill:url(#_Linear19);fill-rule:nonzero;"/>
        </g>
        <g transform="matrix(0,-416.958,416.958,0,2677.5,1676.93)">
            <path d="M0.661,0.196L0.538,0.158L0.166,0.045L-0,-0.121L0.09,-0.299L0.678,-0.221L0.902,0.109L1,0.299L0.661,0.196Z" style="fill:url(#_Linear20);fill-rule:nonzero;"/>
        </g>
        <g transform="matrix(-4.16667,0,0,4.16667,2743.5,1358.35)">
            <path d="M0,22.61L-3.734,10.324L7.08,0C7.428,2.489 8.303,15.31 0,22.61" style="fill:rgb(86,28,89);fill-rule:nonzero;"/>
        </g>
        <g transform="matrix(-65.7379,0,0,-65.7379,2779.68,1361.02)">
            <path d="M-1,-0C-1,-0.501 -0.631,-0.916 -0.15,-0.989C-0.102,-0.996 -0.051,-1 -0,-1C0.095,-1 0.186,-0.987 0.273,-0.962C0.693,-0.843 1,-0.458 1,-0C1,0.552 0.552,1 -0,1C-0.552,1 -1,0.552 -1,-0Z" style="fill:url(#_Radial21);fill-rule:nonzero;"/>
        </g>
        <g transform="matrix(-4.16667,0,0,4.16667,2383.78,1677.33)">
            <path d="M0,-9.64L-1.68,-1.036C-12.019,0 -25.659,-0.026 -30.367,-0.074L-31.44,-4.855L-27.977,-5.862L0,-9.64Z" style="fill:rgb(6,123,162);fill-rule:nonzero;"/>
        </g>
        <g transform="matrix(-401.193,-401.193,401.193,-401.193,2666.06,1638.04)">
            <path d="M0.35,0.491L0.042,-0.026L-0,-0.097C-0,-0.097 0.233,-0.355 0.518,-0.491C0.518,-0.491 0.585,-0.444 0.672,-0.37C0.78,-0.278 0.919,-0.145 1,-0.01L0.35,0.491Z" style="fill:url(#_Linear22);fill-rule:nonzero;"/>
        </g>
        <g transform="matrix(0.644735,-4.11648,4.11648,0.644735,2425.81,1049.83)">
            <path d="M-6.33,-7.399C-12.533,-7.399 -17.562,-4.531 -17.561,-0.992C-17.562,2.547 -12.533,5.416 -6.33,5.416C-0.128,5.416 4.901,2.547 4.9,-0.992C4.901,-4.53 -0.128,-7.399 -6.33,-7.399" style="fill:rgb(213,28,92);fill-rule:nonzero;"/>
        </g>
        <g transform="matrix(-4.12233,-0.606203,0.606203,-4.12233,2758.36,1310.55)">
            <path d="M-0.57,7.795L106.586,7.795" style="fill:none;fill-rule:nonzero;stroke:rgb(103,103,103);stroke-width:0.67px;stroke-linejoin:round;"/>
        </g>
        <g transform="matrix(-273.559,0,0,-273.559,2657.66,1110.84)">
            <path d="M0.494,0.631C0.397,0.626 0.319,0.595 0.257,0.544C-0.007,0.331 0,-0.217 0,-0.502C0.082,-0.533 0.168,-0.551 0.252,-0.56C0.632,-0.599 1,-0.458 1,-0.458C1,-0.458 1,0.632 0.512,0.632C0.506,0.632 0.5,0.632 0.494,0.631Z" style="fill:url(#_Linear23);fill-rule:nonzero;"/>
        </g>
        <g transform="matrix(-4.16667,0,0,4.16667,3705.63,658.194)">
            <g opacity="0.5">
                <g transform="matrix(18.2813,0.071901,0.071901,-18.2813,251.512,109.113)">
                    <path d="M0.914,-1.98C0.61,-1.95 0.302,-1.887 0.007,-1.778C0.003,-0.753 -0.031,1.213 0.914,1.983C1.084,1.562 0.993,0.985 0.538,0.614C0.032,0.199 0.439,-1.486 0.914,-1.98Z" style="fill:url(#_Linear24);fill-rule:nonzero;"/>
                </g>
            </g>
        </g>
        <g transform="matrix(0,-4.16667,4.16667,0,2638.46,1053.41)">
            <path d="M-8.146,-8.146C-16.031,-8.146 -22.424,-4.499 -22.424,0C-22.424,4.499 -16.031,8.146 -8.146,8.146C-0.26,8.146 6.132,4.499 6.132,0C6.132,-4.499 -0.26,-8.146 -8.146,-8.146" style="fill:rgb(213,28,92);fill-rule:nonzero;"/>
        </g>
        <g transform="matrix(0,-4.16667,4.16667,0,2645.98,1067.79)">
            <path d="M-4.696,-4.696C-10.016,-4.696 -14.328,-2.592 -14.328,-0.001C-14.328,2.593 -10.016,4.696 -4.696,4.696C0.624,4.696 4.937,2.593 4.937,-0.001C4.937,-2.592 0.624,-4.696 -4.696,-4.696" style="fill:rgb(78,78,78);fill-rule:nonzero;"/>
        </g>
        <g transform="matrix(-4.16667,0,0,4.16667,2559.78,1183.94)">
            <path d="M0,3.778L0.052,2.805C0.24,-0.69 2.804,-3.563 6.161,-4.042L34.527,-8.088C33.826,-8.214 33.093,-8.235 32.343,-8.128L3.697,-4.042C0.34,-3.563 -2.224,-0.69 -2.412,2.805L-2.464,3.778C-2.711,8.352 1.134,12.013 5.526,11.386L5.807,11.346C2.404,10.734 -0.205,7.571 0,3.778" style="fill:rgb(103,103,103);fill-rule:nonzero;"/>
        </g>
        <g transform="matrix(-4.16667,0,0,4.16667,2414.75,1229.22)">
            <path d="M0,-18.996L-0.279,-18.956C3.122,-18.343 5.731,-15.181 5.527,-11.388L5.475,-10.415C5.286,-6.92 2.723,-4.046 -0.634,-3.568L-29,0.479C-28.3,0.605 -27.566,0.626 -26.816,0.519L1.83,-3.568C5.187,-4.046 7.75,-6.92 7.938,-10.415L7.991,-11.388C8.237,-15.962 4.394,-19.622 0,-18.996" style="fill:rgb(153,153,153);fill-rule:nonzero;"/>
        </g>
        <g transform="matrix(-4.16667,0,0,4.16667,2391.73,1199.67)">
            <path d="M0,-4.294L-0.051,-3.324C-0.153,-1.38 -0.995,0.374 -2.299,1.626C-2.606,1.922 -2.939,2.19 -3.295,2.428C-4.141,2.992 -5.11,3.376 -6.157,3.526L-7.366,3.698L-8.453,3.852L-12.627,4.449L-13.714,4.602L-17.884,5.199L-18.971,5.353L-23.145,5.95L-24.232,6.103L-28.401,6.696L-29.489,6.854L-33.659,7.447L-34.526,7.571C-34.604,7.557 -34.681,7.542 -34.758,7.524C-38.045,6.81 -40.534,3.709 -40.333,0.004L-40.282,-0.97C-40.146,-3.43 -38.84,-5.583 -36.906,-6.805C-36.58,-7.01 -36.24,-7.193 -35.881,-7.34C-35.343,-7.57 -34.769,-7.732 -34.172,-7.816L-31.744,-8.164L-30.657,-8.317L-26.483,-8.914L-25.393,-9.068L-21.219,-9.665L-20.132,-9.818L-15.958,-10.415L-14.867,-10.572L-10.693,-11.166L-9.61,-11.323L-5.806,-11.865C-5.675,-11.839 -5.539,-11.814 -5.411,-11.781C-5.004,-11.682 -4.609,-11.546 -4.235,-11.378C-1.637,-10.217 0.172,-7.475 0,-4.294" style="fill:rgb(213,28,92);fill-rule:nonzero;"/>
        </g>
        <g transform="matrix(-4.16667,0,0,4.16667,2531.98,1169.61)">
            <path d="M0,14.662L-0.867,14.787C-0.944,14.772 -1.021,14.757 -1.099,14.739C-1.64,10.924 -2.445,5.378 -3.247,0.41C-2.921,0.205 -2.581,0.022 -2.222,-0.125C-1.395,4.979 -0.553,10.748 0,14.662" style="fill:rgb(153,153,153);fill-rule:nonzero;"/>
        </g>
        <g transform="matrix(4.12341,0.598805,-0.598805,4.12341,2528.37,1166.99)">
            <path d="M-2.258,15.019L-1.159,15.019C-1.176,11.055 -1.176,5.096 -1.085,-0.167L-2.183,-0.163C-2.274,5.099 -2.271,11.056 -2.258,15.019" style="fill:rgb(153,153,153);fill-rule:nonzero;"/>
        </g>
        <g transform="matrix(4.12554,0.583947,-0.583947,4.12554,2506.35,1163.81)">
            <path d="M-2.281,15.025L-1.182,15.025C-1.185,11.112 -1.166,5.139 -1.058,-0.161L-2.16,-0.16C-2.267,5.146 -2.283,11.116 -2.281,15.025" style="fill:rgb(153,153,153);fill-rule:nonzero;"/>
        </g>
        <g transform="matrix(4.12547,0.584473,-0.584473,4.12547,2484.42,1160.68)">
            <path d="M-2.276,15.024L-1.178,15.024C-1.18,11.172 -1.163,5.187 -1.059,-0.16L-2.157,-0.16C-2.26,5.19 -2.278,11.172 -2.276,15.024" style="fill:rgb(153,153,153);fill-rule:nonzero;"/>
        </g>
        <g transform="matrix(4.12547,0.584473,-0.584473,4.12547,2462.5,1157.54)">
            <path d="M-2.272,15.027L-1.174,15.027C-1.176,11.23 -1.16,5.23 -1.059,-0.157L-2.161,-0.16C-2.261,5.235 -2.274,11.23 -2.272,15.027" style="fill:rgb(153,153,153);fill-rule:nonzero;"/>
        </g>
        <g transform="matrix(4.12547,0.584473,-0.584473,4.12547,2440.56,1154.41)">
            <path d="M-2.268,15.027L-1.17,15.027C-1.175,11.293 -1.158,5.275 -1.059,-0.157L-2.153,-0.16C-2.256,5.275 -2.269,11.289 -2.268,15.027" style="fill:rgb(153,153,153);fill-rule:nonzero;"/>
        </g>
        <g transform="matrix(-4.05876,-0.94211,0.94211,-4.05876,2395.54,1204.3)">
            <path d="M-1.465,-0.189C-1.832,-0.407 -2.217,-0.593 -2.617,-0.745C-2.294,2.916 -1.82,8.47 -1.465,13.575C-1.091,13.386 -0.738,13.165 -0.412,12.917C-0.739,8.264 -1.159,3.318 -1.465,-0.189" style="fill:rgb(153,153,153);fill-rule:nonzero;"/>
        </g>
        <g transform="matrix(0.420322,-4.14541,4.14541,0.420322,2541.66,1046.63)">
            <path d="M-8.605,-9.522C-17.292,-9.521 -24.334,-5.648 -24.334,-0.872C-24.334,3.905 -17.291,7.777 -8.605,7.777C0.082,7.776 7.124,3.904 7.124,-0.873C7.124,-5.65 0.082,-9.522 -8.605,-9.522" style="fill:white;fill-rule:nonzero;"/>
        </g>
        <g transform="matrix(0.25929,-4.15859,4.15859,0.25929,2752.18,1384.48)">
            <path d="M-9.391,2.877C-9.693,4.271 -9.811,5.726 -9.718,7.221C-9.668,8.025 -9.556,8.814 -9.391,9.578L2.938,3.006L-9.391,2.877Z" style="fill:rgb(160,28,79);fill-rule:nonzero;"/>
        </g>
        <g transform="matrix(0.546053,-4.13073,4.13073,0.546053,2455.68,1041.57)">
            <path d="M-7.804,-8.903C-15.709,-8.903 -22.118,-5.38 -22.119,-1.032C-22.118,3.314 -15.71,6.839 -7.804,6.839C0.101,6.84 6.51,3.316 6.511,-1.031C6.511,-5.378 0.102,-8.903 -7.804,-8.903" style="fill:white;fill-rule:nonzero;"/>
        </g>
        <g transform="matrix(0.41999,-4.14545,4.14545,0.41999,2535.72,921.891)">
            <path d="M-4.644,-5.139C-5.789,-5.138 -6.718,-3.049 -6.719,-0.471C-6.719,2.107 -5.79,4.197 -4.644,4.197C-3.499,4.196 -2.57,2.107 -2.569,-0.47C-2.569,-3.048 -3.498,-5.138 -4.644,-5.139" style="fill:rgb(213,28,92);fill-rule:nonzero;"/>
        </g>
        <g transform="matrix(2.24129,-3.51251,3.51251,2.24129,2535.5,881.144)">
            <path d="M-11.649,6.386C-7.673,3.848 -1.25,1.89 3.5,6.385" style="fill:none;fill-rule:nonzero;stroke:rgb(16,68,76);stroke-width:1.55px;"/>
        </g>
        <g transform="matrix(0,4.16667,-4.16667,0,2565.77,866.526)">
            <path d="M3.993,-3.993C1.788,-3.993 0.001,-2.205 0.001,-0.001C0.001,2.204 1.788,3.993 3.993,3.993C6.198,3.993 7.984,2.204 7.984,-0.001C7.984,-2.205 6.198,-3.993 3.993,-3.993" style="fill:rgb(213,28,92);fill-rule:nonzero;"/>
        </g>
        <g transform="matrix(-350.709,0,0,-350.709,3111.09,1502.4)">
            <path d="M0.883,0.444L0.866,0.456L0.863,0.435L0.843,0.442L0.846,0.421L0.825,0.422L0.834,0.402L0.813,0.397L0.827,0.381L0.803,0.341L0.813,0.296L0.787,0.257L0.795,0.211L0.767,0.174L0.771,0.128L0.74,0.093L0.74,0.047L0.705,0.015L0.7,-0.031L0.662,-0.057L0.639,-0.113L0.586,-0.142L0.552,-0.192L0.494,-0.207L0.448,-0.247L0.388,-0.249L0.335,-0.279L0.276,-0.269L0.219,-0.29L0.161,-0.272L0.102,-0.285L0.09,-0.268L0.08,-0.287L0.063,-0.273L0.059,-0.294L0.039,-0.286L0.041,-0.307L0.02,-0.305L0.027,-0.325L0.006,-0.328L0.019,-0.345L0,-0.355L0.017,-0.368L0.001,-0.382L0.021,-0.389L0.011,-0.408L0.032,-0.409L0.026,-0.43L0.047,-0.425L0.048,-0.447L0.067,-0.436L0.073,-0.457L0.088,-0.441L0.097,-0.46L0.108,-0.443L0.117,-0.461L0.128,-0.444L0.137,-0.462L0.147,-0.445L0.157,-0.463L0.167,-0.446L0.177,-0.464L0.187,-0.446L0.197,-0.464L0.262,-0.462L0.324,-0.438L0.391,-0.445L0.449,-0.412L0.516,-0.408L0.567,-0.365L0.632,-0.348L0.674,-0.297L0.734,-0.267L0.765,-0.208L0.818,-0.167L0.831,-0.116L0.871,-0.081L0.878,-0.028L0.913,0.011L0.915,0.065L0.946,0.107L0.943,0.16L0.972,0.205L0.965,0.258L0.991,0.304L0.982,0.357L1,0.368L0.982,0.379L0.997,0.395L0.976,0.4L0.985,0.42L0.964,0.419L0.968,0.44L0.947,0.434L0.945,0.455L0.927,0.444L0.919,0.463L0.905,0.447L0.892,0.464L0.883,0.444Z" style="fill:url(#_Linear25);fill-rule:nonzero;"/>
        </g>
        <g transform="matrix(-57.334,0,0,-57.334,2447.91,1693.94)">
            <path d="M0.956,0.344C0.78,0.236 0.414,0.166 -0.049,0.152C-0.489,0.14 -0.887,0.179 -1.047,0.208C-1.192,0.235 -1.33,0.139 -1.357,-0.005C-1.384,-0.15 -1.288,-0.288 -1.144,-0.315C-0.969,-0.347 -0.615,-0.383 -0.219,-0.383C0.3,-0.383 0.889,-0.322 1.234,-0.11C1.359,-0.033 1.399,0.131 1.322,0.256C1.272,0.338 1.185,0.383 1.095,0.383C1.048,0.383 1,0.37 0.956,0.344Z" style="fill:url(#_Radial26);fill-rule:nonzero;"/>
        </g>
        <g transform="matrix(-50.9807,0,0,-50.9807,2448.1,1736.14)">
            <path d="M0.904,0.364C0.513,0.134 -0.529,0.174 -1.002,0.262C-1.164,0.292 -1.32,0.184 -1.35,0.022C-1.38,-0.141 -1.273,-0.297 -1.11,-0.327C-0.953,-0.356 -0.558,-0.405 -0.118,-0.405C0.352,-0.405 0.873,-0.349 1.207,-0.153C1.35,-0.069 1.397,0.114 1.314,0.257C1.258,0.352 1.158,0.405 1.055,0.405C1.004,0.405 0.952,0.391 0.904,0.364Z" style="fill:url(#_Radial27);fill-rule:nonzero;"/>
        </g>
        <g transform="matrix(-45.6125,0,0,-45.6125,2447.41,1777.68)">
            <path d="M0.815,0.38C0.713,0.308 0.421,0.232 -0.004,0.227C-0.401,0.223 -0.739,0.28 -0.868,0.34C-1.036,0.418 -1.234,0.345 -1.312,0.178C-1.39,0.01 -1.317,-0.189 -1.15,-0.267C-0.87,-0.396 -0.407,-0.442 -0.048,-0.442C-0.03,-0.442 -0.013,-0.442 0.004,-0.442C0.312,-0.438 0.877,-0.397 1.203,-0.165C1.353,-0.057 1.388,0.151 1.281,0.302C1.216,0.393 1.113,0.442 1.009,0.442C0.942,0.442 0.874,0.422 0.815,0.38Z" style="fill:url(#_Radial28);fill-rule:nonzero;"/>
        </g>
        <g transform="matrix(-4.16667,0,0,4.16667,3067.27,1603.92)">
            <path d="M0,13.403L-0.685,14.443L-1.417,12.924L-2.365,14.318L-3.075,12.788L-4.342,14.062L-4.902,12.356L-6.121,13.026C-6.319,11.459 -6.319,10.093 -6.319,10.093L0.08,-0.802L1.095,-1.04C1.819,2.34 1.823,8.918 0,13.403" style="fill:rgb(6,123,162);fill-rule:nonzero;"/>
        </g>
        <g transform="matrix(0,46.9066,-46.9066,0,2594.14,1884.89)">
            <circle cx="-0" cy="0" r="1" style="fill:url(#_Radial29);"/>
        </g>
        <g transform="matrix(-308.165,0,0,-308.165,2877.18,2107.9)">
            <path d="M0.879,0.748L0.861,0.764L0.855,0.74L0.833,0.751L0.834,0.727L0.81,0.731L0.817,0.707L0.793,0.705L0.807,0.684L0.784,0.675L0.803,0.659L0.78,0.611L0.793,0.56L0.765,0.515L0.774,0.463L0.744,0.419L0.75,0.367L0.718,0.325L0.722,0.272L0.687,0.232L0.688,0.179L0.651,0.141L0.653,0.096L0.618,0.068L0.618,0.023L0.582,-0.004L0.58,-0.049L0.542,-0.074L0.538,-0.119L0.499,-0.142L0.493,-0.187L0.453,-0.208L0.444,-0.252L0.399,-0.274L0.384,-0.322L0.339,-0.342L0.32,-0.388L0.273,-0.405L0.252,-0.45L0.204,-0.463L0.179,-0.507L0.131,-0.517L0.103,-0.558L0.054,-0.565L0.053,-0.589L0.03,-0.584L0.036,-0.608L0.012,-0.61L0.024,-0.63L0.001,-0.639L0.019,-0.655L-0,-0.67L0.022,-0.68L0.007,-0.7L0.031,-0.704L0.02,-0.723L0.041,-0.718L0.033,-0.738L0.053,-0.729L0.05,-0.751L0.068,-0.739L0.068,-0.76L0.083,-0.745L0.088,-0.766L0.1,-0.748L0.109,-0.768L0.114,-0.768L0.117,-0.748L0.124,-0.767L0.125,-0.747L0.134,-0.765L0.134,-0.745L0.144,-0.762L0.142,-0.742L0.154,-0.758L0.149,-0.738L0.163,-0.753L0.198,-0.709L0.252,-0.697L0.284,-0.651L0.338,-0.635L0.366,-0.587L0.419,-0.567L0.443,-0.517L0.494,-0.494L0.516,-0.442L0.565,-0.416L0.583,-0.362L0.627,-0.339L0.637,-0.29L0.679,-0.264L0.688,-0.216L0.728,-0.187L0.734,-0.138L0.773,-0.108L0.777,-0.059L0.814,-0.027L0.816,0.023L0.852,0.056L0.855,0.116L0.893,0.162L0.893,0.222L0.928,0.269L0.925,0.329L0.958,0.379L0.951,0.438L0.982,0.49L0.971,0.548L0.998,0.602L0.981,0.659L1,0.675L0.978,0.684L0.991,0.705L0.967,0.707L0.975,0.731L0.951,0.727L0.951,0.751L0.929,0.74L0.923,0.764L0.905,0.748L0.892,0.768L0.879,0.748Z" style="fill:url(#_Linear30);fill-rule:nonzero;"/>
        </g>
        <g transform="matrix(-4.16667,0,0,4.16667,2641.53,2148.61)">
            <path d="M0,-1.275L-2.263,0.46L-2.688,4.092L-3.068,4.356C-10.449,1.035 -11.335,-2.11 -12.29,-4.779L-2.039,-5.631C-2.039,-5.631 -0.915,-3.586 0,-1.275" style="fill:rgb(6,123,162);fill-rule:nonzero;"/>
        </g>
        <g transform="matrix(0,46.9066,-46.9066,0,2656.64,2105.83)">
            <circle cx="-0" cy="-0" r="1" style="fill:url(#_Radial31);"/>
        </g>
        <g transform="matrix(-61.3382,0,0,-61.3382,2851.9,2311.06)">
            <path d="M-1.24,-0.681L1.201,-0.681C1.394,0.171 0.84,0.681 0.167,0.681C-0.507,0.681 -1.24,-0.08 -1.24,-0.681Z" style="fill:url(#_Radial32);fill-rule:nonzero;"/>
        </g>
        <g transform="matrix(-61.3382,0,0,-61.3382,2552.91,2311.06)">
            <path d="M-1.24,-0.681L1.2,-0.681C1.394,0.171 0.84,0.681 0.166,0.681C-0.507,0.681 -1.24,-0.08 -1.24,-0.681Z" style="fill:url(#_Radial33);fill-rule:nonzero;"/>
        </g>
        <g transform="matrix(-4.16667,0,0,4.16667,2285.46,2284.21)">
            <path d="M0,20.126L-185.258,20.126L-196.606,6.446C-197.897,4.891 -197.683,2.582 -196.126,1.291C-194.57,0 -192.263,0.215 -190.971,1.772L-181.818,12.804L0,12.804C2.022,12.804 3.661,14.442 3.661,16.465C3.661,18.486 2.022,20.126 0,20.126" style="fill:rgb(237,27,121);fill-rule:nonzero;"/>
        </g>
        <g transform="matrix(-2.43239,3.38299,-3.38299,-2.43239,2925.4,2283.73)">
            <path d="M9.209,-21.867L14.017,-21.867L41.088,15.783L39.486,20.242L9.209,-21.867Z" style="fill:rgb(153,153,153);fill-rule:nonzero;"/>
        </g>
        <g transform="matrix(-2.43296,3.38258,-3.38258,-2.43296,2544.58,2283.74)">
            <path d="M9.205,-21.864L14.014,-21.864L41.091,15.781L39.489,20.24L9.205,-21.864Z" style="fill:rgb(153,153,153);fill-rule:nonzero;"/>
        </g>
        <g transform="matrix(-4.16667,0,0,4.16667,3130.03,1678.9)">
            <path d="M0,-31.815C7.995,-28.953 12.155,-20.151 9.293,-12.156C6.431,-4.161 -2.371,0 -10.366,-2.862" style="fill:none;fill-rule:nonzero;stroke:rgb(237,27,121);stroke-width:6.66px;stroke-linecap:butt;"/>
        </g>
        <g transform="matrix(-4.16667,0,0,4.16667,2549.9,2399.97)">
            <path d="M0,0L32.073,0" style="fill:none;fill-rule:nonzero;stroke:rgb(111,204,221);stroke-width:1.11px;"/>
        </g>
        <g transform="matrix(-4.16667,0,0,4.16667,3705.63,658.194)">
            <g opacity="0.5">
                <g transform="matrix(1,0,0,1,268.678,422.664)">
                    <clipPath id="_clip34">
                        <rect x="-0.555" y="-0.555" width="50.574" height="1.11" clip-rule="nonzero"/>
                    </clipPath>
                    <g clip-path="url(#_clip34)">
                        <path d="M0,0L49.464,0" style="fill:none;fill-rule:nonzero;stroke:rgb(111,204,221);stroke-width:1.11px;"/>
                    </g>
                </g>
            </g>
        </g>
        <g transform="matrix(-4.16667,0,0,4.16667,2933.29,2399.97)">
            <path d="M0,0L32.074,0" style="fill:none;fill-rule:nonzero;stroke:rgb(111,204,221);stroke-width:1.11px;"/>
        </g>
        <g transform="matrix(-4.16667,0,0,4.16667,3705.63,658.194)">
            <g opacity="0.5">
                <g transform="matrix(1,0,0,1,176.664,422.664)">
                    <clipPath id="_clip35">
                        <rect x="-0.555" y="-0.555" width="50.575" height="1.11" clip-rule="nonzero"/>
                    </clipPath>
                    <g clip-path="url(#_clip35)">
                        <path d="M0,0L49.465,0" style="fill:none;fill-rule:nonzero;stroke:rgb(111,204,221);stroke-width:1.11px;"/>
                    </g>
                </g>
            </g>
        </g>
        <g transform="matrix(-200.621,0,0,-200.621,2480.89,1435.66)">
            <path d="M0.884,0.597C0.769,0.566 0.583,0.533 0.411,0.506C0.194,0.472 -0,0.447 -0,0.447C0.047,0.307 0.085,0.172 0.115,0.048C0.184,-0.233 0.216,-0.457 0.228,-0.559C0.232,-0.598 0.234,-0.62 0.234,-0.62L0.822,-0.51L0.822,-0.51L0.918,-0.492L0.954,-0.485C0.972,-0.368 1.002,-0.22 1,0.041C0.998,0.191 0.986,0.379 0.954,0.62C0.936,0.612 0.912,0.605 0.884,0.597Z" style="fill:url(#_Linear36);fill-rule:nonzero;"/>
        </g>
        <g transform="matrix(-4.16667,0,0,4.16667,2280.3,1317.1)">
            <path d="M0,26.461C-1.934,27.223 -3.965,27.688 -6.056,27.845L-6.235,25.465C-6.7,25.502 -7.172,25.524 -7.645,25.524C-8.783,25.524 -9.893,25.418 -10.973,25.22L-11.397,27.567C-13.85,27.124 -16.182,26.253 -18.327,24.975L-17.108,22.928C-18.478,22.112 -19.733,21.131 -20.846,20.003L-22.541,21.676C-24.295,19.9 -25.704,17.851 -26.726,15.584L-24.555,14.6C-25.199,13.175 -25.668,11.652 -25.935,10.064L-28.285,10.459C-28.476,9.313 -28.574,8.142 -28.574,6.974C-28.574,6 -28.509,5.033 -28.373,4.078C-18.016,2.445 -6.594,0.38 -2.215,-1.384C-0.67,10.213 -0.07,19.242 0,26.461" style="fill:rgb(241,91,39);fill-rule:nonzero;"/>
        </g>
        <g transform="matrix(-4.16667,0,0,4.16667,2321.74,1444.73)">
            <path d="M0,22.49L1.365,22.376L-26.927,27.659C-26.927,27.659 -28.043,14.234 -32.656,-4.507C-30.603,-4.946 -28.505,-5.169 -26.378,-5.169L-26.15,-5.165L-26.176,-1.768C-23.855,-1.75 -21.607,-1.431 -19.469,-0.856L-18.583,-4.14C-15.153,-3.214 -11.938,-1.695 -9.039,0.377L-11.016,3.149C-9.171,4.467 -7.498,6.011 -6.048,7.747L-3.438,5.569C-1.153,8.307 0.607,11.39 1.79,14.736L-1.417,15.871C-0.674,17.969 -0.19,20.187 0,22.49" style="fill:rgb(237,33,39);fill-rule:nonzero;"/>
        </g>
        <g transform="matrix(-4.16667,0,0,4.16667,2289.52,1312.68)">
            <path d="M0,52.883L-1.732,53.205C0.886,35.94 -2.168,9.826 -3.383,0.758C-2.021,0.392 -0.872,0.029 0,-0.322C1.545,11.276 2.145,20.304 2.215,27.523C2.335,40.124 0.853,47.219 0,52.883" style="fill:rgb(103,103,103);fill-rule:nonzero;"/>
        </g>
        <g transform="matrix(-4.16667,0,0,4.16667,2289.52,1557.64)">
            <path d="M0,-5.909L-1.732,-5.587L-6.359,-4.723L-6.367,-4.723L-34.659,0.56C-34.659,0.56 -34.743,-0.469 -34.967,-2.354L-1.604,-6.469L0,-5.909Z" style="fill:rgb(128,129,129);fill-rule:nonzero;"/>
        </g>
        <g transform="matrix(0,4.16667,-4.16667,0,2645.59,1381.81)">
            <path d="M3.222,-3.222C1.442,-3.222 0,-1.78 0,0.001C0,1.78 1.442,3.222 3.222,3.222C5.002,3.222 6.444,1.78 6.444,0.001C6.444,-1.78 5.002,-3.222 3.222,-3.222" style="fill:rgb(128,129,129);fill-rule:nonzero;"/>
        </g>
        <g transform="matrix(0,4.16667,-4.16667,0,2604.4,1376.05)">
            <path d="M3.221,-3.223C1.442,-3.223 -0.001,-1.781 -0.001,0.001C-0.001,1.779 1.442,3.221 3.221,3.221C5.002,3.221 6.444,1.779 6.444,0.001C6.444,-1.781 5.002,-3.223 3.221,-3.223" style="fill:rgb(128,129,129);fill-rule:nonzero;"/>
        </g>
        <g transform="matrix(2.47708,3.3504,-3.3504,2.47708,2551.06,1380.54)">
            <path d="M2.591,-5.138C0.81,-5.138 -0.631,-3.695 -0.631,-1.916C-0.631,-0.137 0.812,1.306 2.591,1.307C4.371,1.306 5.813,-0.137 5.813,-1.915C5.813,-3.696 4.37,-5.138 2.591,-5.138" style="fill:rgb(128,129,129);fill-rule:nonzero;"/>
        </g>
        <g transform="matrix(0,4.16667,-4.16667,0,2641.52,1377.99)">
            <path d="M3.223,-3.221C1.443,-3.221 -0.001,-1.779 -0.001,0.002C-0.001,1.781 1.443,3.223 3.223,3.223C5.002,3.223 6.444,1.781 6.444,0.002C6.444,-1.779 5.002,-3.221 3.223,-3.221" style="fill:rgb(42,170,226);fill-rule:nonzero;"/>
        </g>
        <g transform="matrix(0,4.16667,-4.16667,0,2600.33,1372.23)">
            <path d="M3.223,-3.221C1.443,-3.221 -0.001,-1.779 -0.001,0.001C-0.001,1.781 1.443,3.223 3.223,3.223C5.002,3.223 6.444,1.781 6.444,0.001C6.444,-1.779 5.002,-3.221 3.223,-3.221" style="fill:rgb(12,114,186);fill-rule:nonzero;"/>
        </g>
        <g transform="matrix(2.47739,3.35017,-3.35017,2.47739,2546.99,1376.73)">
            <path d="M2.59,-5.138C0.811,-5.138 -0.632,-3.696 -0.632,-1.916C-0.632,-0.137 0.81,1.306 2.59,1.307C4.369,1.306 5.813,-0.136 5.813,-1.916C5.813,-3.695 4.37,-5.139 2.59,-5.138" style="fill:rgb(237,27,121);fill-rule:nonzero;"/>
        </g>
        <g transform="matrix(-4.09484,-0.770329,0.770329,-4.09484,2637.06,1436.17)">
            <path d="M-0.225,2.411L25.852,2.411" style="fill:none;fill-rule:nonzero;stroke:rgb(241,91,39);stroke-width:0.67px;stroke-linejoin:round;stroke-dasharray:0,1.33;"/>
        </g>
        <g transform="matrix(-4.09484,-0.770329,0.770329,-4.09484,2633.54,1450.77)">
            <path d="M-0.225,2.411L25.852,2.411" style="fill:none;fill-rule:nonzero;stroke:rgb(241,91,39);stroke-width:0.67px;stroke-linejoin:round;stroke-dasharray:0,1.33;"/>
        </g>
        <g transform="matrix(-4.09484,-0.770329,0.770329,-4.09484,2630.01,1465.37)">
            <path d="M-0.225,2.411L25.852,2.411" style="fill:none;fill-rule:nonzero;stroke:rgb(241,91,39);stroke-width:0.67px;stroke-linejoin:round;stroke-dasharray:0,1.33;"/>
        </g>
        <g transform="matrix(-4.09484,-0.770329,0.770329,-4.09484,2626.49,1479.98)">
            <path d="M-0.225,2.411L25.852,2.411" style="fill:none;fill-rule:nonzero;stroke:rgb(241,91,39);stroke-width:0.67px;stroke-linejoin:round;stroke-dasharray:0,1.33;"/>
        </g>
        <g transform="matrix(-4.09484,-0.770329,0.770329,-4.09484,2622.96,1494.58)">
            <path d="M-0.225,2.411L25.852,2.411" style="fill:none;fill-rule:nonzero;stroke:rgb(241,91,39);stroke-width:0.67px;stroke-linejoin:round;stroke-dasharray:0,1.33;"/>
        </g>
        <g transform="matrix(-4.09484,-0.770329,0.770329,-4.09484,2619.44,1509.19)">
            <path d="M-0.225,2.411L25.852,2.411" style="fill:none;fill-rule:nonzero;stroke:rgb(241,91,39);stroke-width:0.67px;stroke-linejoin:round;stroke-dasharray:0,1.33;"/>
        </g>
        <g transform="matrix(-0.614652,4.12108,-4.12108,-0.614652,2400.75,1060.13)">
            <path d="M-8.603,-10.977C-8.603,-10.977 1.33,-8.28 12.588,-10.977" style="fill:none;fill-rule:nonzero;stroke:rgb(3,4,5);stroke-width:1.11px;"/>
        </g>
        <g transform="matrix(-0.614652,4.12108,-4.12108,-0.614652,2487.87,1069.45)">
            <path d="M-8.603,-10.977C-8.603,-10.977 1.33,-8.28 12.588,-10.977" style="fill:none;fill-rule:nonzero;stroke:rgb(3,4,5);stroke-width:1.11px;"/>
        </g>
        <g transform="matrix(-4.16667,0,0,4.16667,3705.63,658.194)">
            <g opacity="0.5">
                <g transform="matrix(0,-38.6295,-38.6295,0,302.956,244.653)">
                    <path d="M1,-1.214C0.598,-1.181 0.314,-1.132 0.314,-1.132C-0.059,-0.084 0.004,1.142 0.004,1.142L0.228,1.199L0.286,1.214C0.505,1.071 0.676,0.799 0.607,0.321C0.515,-0.317 0.563,-0.9 1,-1.214Z" style="fill:url(#_Linear37);fill-rule:nonzero;"/>
                </g>
            </g>
        </g>
        <g transform="matrix(-4.16667,0,0,4.16667,2201.12,1573.72)">
            <path d="M0,38.982L-6.048,29.814C-1.498,26.813 -0.238,20.67 -3.239,16.12C-4.693,13.916 -6.918,12.41 -9.504,11.879C-12.092,11.349 -14.729,11.857 -16.933,13.311L-22.98,4.144C-18.327,1.074 -12.758,0 -7.298,1.121C-1.838,2.24 2.86,5.419 5.929,10.072C12.265,19.677 9.604,32.646 0,38.982" style="fill:rgb(237,27,121);fill-rule:nonzero;"/>
        </g>
        <g transform="matrix(-3.71321,1.89029,-1.89029,-3.71321,2111.5,1370.01)">
            <path d="M-0.939,-3.914C9.641,-1.026 16.316,-3.914 16.316,-3.914" style="fill:none;fill-rule:nonzero;stroke:rgb(16,68,76);stroke-width:1.11px;"/>
        </g>
        <g transform="matrix(-3.71321,1.89029,-1.89029,-3.71321,2106.39,1393.78)">
            <path d="M-0.939,-3.914C9.641,-1.026 16.316,-3.914 16.316,-3.914" style="fill:none;fill-rule:nonzero;stroke:rgb(16,68,76);stroke-width:1.11px;"/>
        </g>
        <g transform="matrix(-3.71316,1.89039,-1.89039,-3.71316,2098.52,1421.13)">
            <path d="M-0.939,-3.914C9.641,-1.026 16.315,-3.914 16.315,-3.914" style="fill:none;fill-rule:nonzero;stroke:rgb(16,68,76);stroke-width:1.11px;"/>
        </g>
        <g transform="matrix(0.928535,4.06189,-4.06189,0.928535,2814.82,1599.27)">
            <path d="M-10.269,-8.633C0.311,-5.745 6.984,-8.633 6.984,-8.633" style="fill:none;fill-rule:nonzero;stroke:rgb(16,68,76);stroke-width:1.11px;"/>
        </g>
        <g transform="matrix(0.928535,4.06189,-4.06189,0.928535,2836.62,1610.02)">
            <path d="M-10.269,-8.634C0.311,-5.744 6.985,-8.634 6.985,-8.634" style="fill:none;fill-rule:nonzero;stroke:rgb(16,68,76);stroke-width:1.11px;"/>
        </g>
        <g transform="matrix(0.928535,4.06189,-4.06189,0.928535,2861.23,1624.31)">
            <path d="M-10.269,-8.633C0.311,-5.745 6.984,-8.633 6.984,-8.633" style="fill:none;fill-rule:nonzero;stroke:rgb(16,68,76);stroke-width:1.11px;"/>
        </g>
        <g transform="matrix(1.98771,3.66198,-3.66198,1.98771,2539.32,1613.69)">
            <path d="M-13.902,-8.272L4.922,-8.272" style="fill:none;fill-rule:nonzero;stroke:white;stroke-width:1.11px;"/>
        </g>
        <g transform="matrix(1.98771,3.66198,-3.66198,1.98771,2508.17,1607.47)">
            <path d="M-13.902,-8.272L4.922,-8.272" style="fill:none;fill-rule:nonzero;stroke:white;stroke-width:1.11px;"/>
        </g>
        <g transform="matrix(1.98779,3.66194,-3.66194,1.98779,2393.56,1872.16)">
            <path d="M-13.903,-8.272L4.922,-8.272" style="fill:none;fill-rule:nonzero;stroke:white;stroke-width:1.11px;"/>
        </g>
        <g transform="matrix(1.98771,3.66198,-3.66198,1.98771,2362.41,1865.93)">
            <path d="M-13.902,-8.272L4.922,-8.272" style="fill:none;fill-rule:nonzero;stroke:white;stroke-width:1.11px;"/>
        </g>
        <g transform="matrix(0,-4.16667,4.16667,0,2609.74,2131.33)">
            <path d="M-91.689,-91.69C-94.318,-91.69 -96.449,-50.639 -96.449,-0.002C-96.449,50.638 -94.318,91.689 -91.689,91.689C-89.061,91.689 -86.93,50.638 -86.93,-0.002C-86.93,-50.639 -89.061,-91.69 -91.689,-91.69" style="fill:rgb(230,230,230);fill-rule:nonzero;"/>
        </g>
        <g transform="matrix(1,0,0,1,-63.0309,-85.1343)">
            <g transform="matrix(1.16944,0,0,1.27122,-515.639,-427.289)">
                <ellipse cx="3252.91" cy="1592.18" rx="149.645" ry="137.663" style="fill:rgb(38,82,154);"/>
            </g>
            <g transform="matrix(6.59195e-17,0.949298,-0.946905,6.245e-17,4812.63,-1555.09)">
                <path d="M3319.66,1542.35L3372.33,1647.95L3266.99,1647.95L3319.66,1542.35Z" style="fill:white;stroke:white;stroke-width:7.91px;stroke-linejoin:round;stroke-miterlimit:1.5;"/>
            </g>
        </g>
        <g transform="matrix(1,0,0,1,-61.1407,24.5624)">
            <g transform="matrix(64,0,0,64,3098.32,1765.31)">
                <path d="M0.188,-0.404L0.188,-0.667L0.051,-0.667L0.051,-0L0.188,-0L0.188,-0.287L0.29,-0.287L0.29,-0L0.427,-0L0.427,-0.667L0.29,-0.667L0.29,-0.404L0.188,-0.404Z" style="fill:rgb(55,65,81);fill-rule:nonzero;"/>
            </g>
            <g transform="matrix(64,0,0,64,3128.84,1765.31)">
                <path d="M0.199,-0.503C0.083,-0.503 0.02,-0.414 0.02,-0.248C0.02,-0.156 0.041,-0.081 0.079,-0.036C0.104,-0.006 0.145,0.01 0.194,0.01C0.311,0.01 0.371,-0.077 0.371,-0.247C0.371,-0.411 0.31,-0.503 0.199,-0.503ZM0.197,-0.413C0.231,-0.413 0.238,-0.385 0.238,-0.251C0.238,-0.106 0.232,-0.08 0.196,-0.08C0.159,-0.08 0.153,-0.104 0.153,-0.261C0.153,-0.39 0.16,-0.413 0.197,-0.413Z" style="fill:rgb(55,65,81);fill-rule:nonzero;"/>
            </g>
            <g transform="matrix(64,0,0,64,3153.55,1765.31)">
                <path d="M0.103,-0L0.205,-0L0.245,-0.248C0.248,-0.265 0.251,-0.301 0.255,-0.359C0.257,-0.319 0.262,-0.282 0.269,-0.237L0.31,-0L0.408,-0L0.516,-0.493L0.412,-0.493L0.385,-0.326C0.379,-0.286 0.371,-0.219 0.367,-0.167C0.365,-0.21 0.358,-0.296 0.354,-0.318L0.326,-0.493L0.207,-0.493L0.182,-0.326C0.178,-0.298 0.173,-0.25 0.166,-0.167C0.164,-0.224 0.159,-0.282 0.156,-0.305L0.123,-0.493L-0.004,-0.493L0.103,-0Z" style="fill:rgb(55,65,81);fill-rule:nonzero;"/>
            </g>
            <g transform="matrix(64,0,0,64,3201.55,1765.31)">
                <path d="M0.188,-0.55L0.379,-0.55L0.379,-0.667L0.051,-0.667L0.051,-0L0.188,-0L0.188,-0.266L0.335,-0.266L0.335,-0.377L0.188,-0.377L0.188,-0.55Z" style="fill:rgb(55,65,81);fill-rule:nonzero;"/>
            </g>
            <g transform="matrix(64,0,0,64,3224.78,1765.31)">
                <path d="M0.371,-0.493L0.243,-0.493L0.243,-0.177C0.243,-0.113 0.234,-0.096 0.201,-0.096C0.173,-0.096 0.163,-0.111 0.163,-0.154L0.163,-0.493L0.035,-0.493L0.035,-0.154C0.035,-0.089 0.04,-0.057 0.052,-0.035C0.068,-0.006 0.102,0.01 0.145,0.01C0.198,0.01 0.23,-0.013 0.256,-0.069L0.256,-0L0.371,-0L0.371,-0.493Z" style="fill:rgb(55,65,81);fill-rule:nonzero;"/>
            </g>
            <g transform="matrix(64,0,0,64,3250.96,1765.31)">
                <path d="M0.038,-0L0.166,-0L0.166,-0.335C0.166,-0.38 0.177,-0.397 0.207,-0.397C0.221,-0.397 0.233,-0.392 0.239,-0.383C0.244,-0.376 0.246,-0.365 0.246,-0.335L0.246,-0L0.374,-0L0.374,-0.345C0.374,-0.414 0.369,-0.442 0.352,-0.465C0.335,-0.49 0.303,-0.503 0.263,-0.503C0.208,-0.503 0.178,-0.481 0.153,-0.421L0.153,-0.493L0.038,-0.493L0.038,-0Z" style="fill:rgb(55,65,81);fill-rule:nonzero;"/>
            </g>
            <g transform="matrix(64,0,0,64,3292.43,1765.31)">
                <path d="M0.038,-0L0.166,-0L0.166,-0.493L0.038,-0.493L0.038,-0ZM0.038,-0.672L0.038,-0.536L0.166,-0.536L0.166,-0.672L0.038,-0.672Z" style="fill:rgb(55,65,81);fill-rule:nonzero;"/>
            </g>
            <g transform="matrix(64,0,0,64,3305.48,1765.31)">
                <path d="M0.328,-0.375C0.306,-0.464 0.262,-0.503 0.184,-0.503C0.091,-0.503 0.025,-0.439 0.025,-0.348C0.025,-0.28 0.055,-0.242 0.144,-0.199C0.192,-0.176 0.192,-0.176 0.204,-0.168C0.219,-0.158 0.227,-0.144 0.227,-0.126C0.227,-0.103 0.209,-0.088 0.178,-0.088C0.14,-0.088 0.12,-0.107 0.113,-0.152L0.014,-0.136C0.028,-0.039 0.084,0.01 0.18,0.01C0.282,0.01 0.347,-0.052 0.347,-0.15C0.347,-0.215 0.313,-0.264 0.247,-0.294C0.183,-0.323 0.183,-0.323 0.166,-0.334C0.148,-0.346 0.14,-0.358 0.14,-0.374C0.14,-0.395 0.156,-0.408 0.181,-0.408C0.213,-0.408 0.23,-0.39 0.236,-0.352L0.328,-0.375Z" style="fill:rgb(55,65,81);fill-rule:nonzero;"/>
            </g>
            <g transform="matrix(64,0,0,64,3343.69,1765.31)">
                <path d="M0.245,-0.541L0.358,-0.541L0.358,-0.667L-0.001,-0.667L-0.001,-0.541L0.108,-0.541L0.108,-0L0.245,-0L0.245,-0.541Z" style="fill:rgb(55,65,81);fill-rule:nonzero;"/>
            </g>
            <g transform="matrix(64,0,0,64,3366.86,1765.31)">
                <path d="M0.188,-0.404L0.188,-0.667L0.051,-0.667L0.051,-0L0.188,-0L0.188,-0.287L0.29,-0.287L0.29,-0L0.427,-0L0.427,-0.667L0.29,-0.667L0.29,-0.404L0.188,-0.404Z" style="fill:rgb(55,65,81);fill-rule:nonzero;"/>
            </g>
            <g transform="matrix(64,0,0,64,3397.96,1765.31)">
                <path d="M0.143,-0.667L-0.01,-0L0.112,-0L0.139,-0.144L0.271,-0.144L0.298,-0L0.436,-0L0.285,-0.667L0.143,-0.667ZM0.256,-0.252L0.153,-0.252L0.189,-0.436C0.195,-0.468 0.199,-0.498 0.205,-0.542C0.208,-0.491 0.21,-0.47 0.219,-0.43L0.256,-0.252Z" style="fill:rgb(55,65,81);fill-rule:nonzero;"/>
            </g>
            <g transform="matrix(64,0,0,64,3423.95,1765.31)">
                <path d="M0.245,-0.541L0.358,-0.541L0.358,-0.667L-0.001,-0.667L-0.001,-0.541L0.108,-0.541L0.108,-0L0.245,-0L0.245,-0.541Z" style="fill:rgb(55,65,81);fill-rule:nonzero;"/>
            </g>
            <g transform="matrix(64,0,0,64,3446.86,1765.31)">
                <path d="M0.266,-0.191L0.266,-0.214C0.268,-0.262 0.27,-0.267 0.307,-0.303C0.367,-0.362 0.39,-0.413 0.39,-0.492C0.39,-0.606 0.325,-0.677 0.221,-0.677C0.112,-0.677 0.039,-0.601 0.039,-0.488C0.039,-0.483 0.039,-0.475 0.04,-0.466L0.151,-0.448C0.153,-0.495 0.154,-0.505 0.158,-0.518C0.166,-0.545 0.182,-0.558 0.209,-0.558C0.243,-0.558 0.257,-0.535 0.257,-0.483C0.257,-0.435 0.247,-0.411 0.207,-0.37C0.162,-0.321 0.155,-0.303 0.155,-0.22L0.155,-0.191L0.266,-0.191ZM0.152,-0.144L0.152,-0L0.275,-0L0.275,-0.144L0.152,-0.144Z" style="fill:rgb(55,65,81);fill-rule:nonzero;"/>
            </g>
        </g>
    </g>
    <defs>
        <linearGradient id="_Linear1" x1="0" y1="0" x2="1" y2="0" gradientUnits="userSpaceOnUse" gradientTransform="matrix(1,0,0,-1,0,4.49661e-06)"><stop offset="0" style="stop-color:rgb(42,170,226);stop-opacity:1"/><stop offset="0" style="stop-color:rgb(42,170,226);stop-opacity:1"/><stop offset="1" style="stop-color:rgb(6,123,162);stop-opacity:1"/></linearGradient>
        <radialGradient id="_Radial2" cx="0" cy="0" r="1" gradientUnits="userSpaceOnUse" gradientTransform="matrix(0,1,1,0,2.39012e-05,-2.39012e-05)"><stop offset="0" style="stop-color:rgb(237,27,121);stop-opacity:1"/><stop offset="0" style="stop-color:rgb(237,27,121);stop-opacity:1"/><stop offset="1" style="stop-color:rgb(213,28,92);stop-opacity:1"/></radialGradient>
        <linearGradient id="_Linear3" x1="0" y1="0" x2="1" y2="0" gradientUnits="userSpaceOnUse" gradientTransform="matrix(1,0,0,-1,0,0.0138117)"><stop offset="0" style="stop-color:rgb(180,179,180);stop-opacity:1"/><stop offset="1" style="stop-color:rgb(230,230,230);stop-opacity:1"/><stop offset="1" style="stop-color:rgb(230,230,230);stop-opacity:1"/></linearGradient>
        <linearGradient id="_Linear4" x1="0" y1="0" x2="1" y2="0" gradientUnits="userSpaceOnUse" gradientTransform="matrix(1,0,0,-1,0,0.00427628)"><stop offset="0" style="stop-color:rgb(129,129,129);stop-opacity:1"/><stop offset="1" style="stop-color:rgb(204,204,204);stop-opacity:1"/><stop offset="1" style="stop-color:rgb(204,204,204);stop-opacity:1"/></linearGradient>
        <linearGradient id="_Linear5" x1="0" y1="0" x2="1" y2="0" gradientUnits="userSpaceOnUse" gradientTransform="matrix(1,0,0,-1,0,4.20529e-07)"><stop offset="0" style="stop-color:rgb(112,205,221);stop-opacity:1"/><stop offset="0" style="stop-color:rgb(112,205,221);stop-opacity:1"/><stop offset="1" style="stop-color:rgb(85,164,219);stop-opacity:1"/></linearGradient>
        <linearGradient id="_Linear6" x1="0" y1="0" x2="1" y2="0" gradientUnits="userSpaceOnUse" gradientTransform="matrix(19.6944,-0,0,19.6944,-0.333,-0.0002)"><stop offset="0" style="stop-color:rgb(247,147,39);stop-opacity:1"/><stop offset="1" style="stop-color:rgb(253,227,110);stop-opacity:1"/><stop offset="1" style="stop-color:rgb(253,227,110);stop-opacity:1"/></linearGradient>
        <linearGradient id="_Linear7" x1="0" y1="0" x2="1" y2="0" gradientUnits="userSpaceOnUse" gradientTransform="matrix(1,0,0,-1,0,-4.43291e-05)"><stop offset="0" style="stop-color:rgb(112,205,221);stop-opacity:1"/><stop offset="0" style="stop-color:rgb(112,205,221);stop-opacity:1"/><stop offset="1" style="stop-color:rgb(85,164,219);stop-opacity:1"/></linearGradient>
        <linearGradient id="_Linear8" x1="0" y1="0" x2="1" y2="0" gradientUnits="userSpaceOnUse" gradientTransform="matrix(11.7469,-0,0,11.7469,-0.3334,-0.0001)"><stop offset="0" style="stop-color:rgb(106,189,69);stop-opacity:1"/><stop offset="1" style="stop-color:rgb(60,181,74);stop-opacity:1"/><stop offset="1" style="stop-color:rgb(60,181,74);stop-opacity:1"/></linearGradient>
        <linearGradient id="_Linear9" x1="0" y1="0" x2="1" y2="0" gradientUnits="userSpaceOnUse" gradientTransform="matrix(1,0,0,-1,0,1.25444e-05)"><stop offset="0" style="stop-color:rgb(112,205,221);stop-opacity:1"/><stop offset="0" style="stop-color:rgb(112,205,221);stop-opacity:1"/><stop offset="1" style="stop-color:rgb(85,164,219);stop-opacity:1"/></linearGradient>
        <linearGradient id="_Linear10" x1="0" y1="0" x2="1" y2="0" gradientUnits="userSpaceOnUse" gradientTransform="matrix(11.7469,-0,0,11.7469,-0.3331,-0.0004)"><stop offset="0" style="stop-color:rgb(237,33,36);stop-opacity:1"/><stop offset="1" style="stop-color:rgb(246,235,22);stop-opacity:1"/><stop offset="1" style="stop-color:rgb(246,235,22);stop-opacity:1"/></linearGradient>
        <linearGradient id="_Linear11" x1="0" y1="0" x2="1" y2="0" gradientUnits="userSpaceOnUse" gradientTransform="matrix(1,0,0,-1,0,1.65641e-05)"><stop offset="0" style="stop-color:rgb(112,205,221);stop-opacity:1"/><stop offset="0" style="stop-color:rgb(112,205,221);stop-opacity:1"/><stop offset="1" style="stop-color:rgb(85,164,219);stop-opacity:1"/></linearGradient>
        <linearGradient id="_Linear12" x1="0" y1="0" x2="1" y2="0" gradientUnits="userSpaceOnUse" gradientTransform="matrix(1,0,0,-1,0,1.28559e-05)"><stop offset="0" style="stop-color:rgb(153,153,153);stop-opacity:1"/><stop offset="1" style="stop-color:rgb(230,230,230);stop-opacity:1"/><stop offset="1" style="stop-color:rgb(230,230,230);stop-opacity:1"/></linearGradient>
        <linearGradient id="_Linear13" x1="0" y1="0" x2="1" y2="0" gradientUnits="userSpaceOnUse" gradientTransform="matrix(1,0,0,-1,0,4.11409e-06)"><stop offset="0" style="stop-color:rgb(42,170,226);stop-opacity:1"/><stop offset="0" style="stop-color:rgb(42,170,226);stop-opacity:1"/><stop offset="1" style="stop-color:rgb(6,123,162);stop-opacity:1"/></linearGradient>
        <radialGradient id="_Radial14" cx="0" cy="0" r="1" gradientUnits="userSpaceOnUse" gradientTransform="matrix(1,0,0,-1,0,3.93868e-05)"><stop offset="0" style="stop-color:rgb(237,27,121);stop-opacity:1"/><stop offset="0" style="stop-color:rgb(237,27,121);stop-opacity:1"/><stop offset="1" style="stop-color:rgb(213,28,92);stop-opacity:1"/></radialGradient>
        <radialGradient id="_Radial15" cx="0" cy="0" r="1" gradientUnits="userSpaceOnUse" gradientTransform="matrix(0,1,1,0,5.439e-05,-5.439e-05)"><stop offset="0" style="stop-color:rgb(237,27,121);stop-opacity:1"/><stop offset="0" style="stop-color:rgb(237,27,121);stop-opacity:1"/><stop offset="1" style="stop-color:rgb(213,28,92);stop-opacity:1"/></radialGradient>
        <linearGradient id="_Linear16" x1="0" y1="0" x2="1" y2="0" gradientUnits="userSpaceOnUse" gradientTransform="matrix(1,0,0,-1,0,0.0408602)"><stop offset="0" style="stop-color:rgb(129,129,129);stop-opacity:1"/><stop offset="1" style="stop-color:rgb(204,204,204);stop-opacity:1"/><stop offset="1" style="stop-color:rgb(204,204,204);stop-opacity:1"/></linearGradient>
        <linearGradient id="_Linear17" x1="0" y1="0" x2="1" y2="0" gradientUnits="userSpaceOnUse" gradientTransform="matrix(1,0,0,-1,0,-1.21548e-05)"><stop offset="0" style="stop-color:rgb(180,179,180);stop-opacity:1"/><stop offset="1" style="stop-color:rgb(230,230,230);stop-opacity:1"/><stop offset="1" style="stop-color:rgb(230,230,230);stop-opacity:1"/></linearGradient>
        <linearGradient id="_Linear18" x1="0" y1="0" x2="1" y2="0" gradientUnits="userSpaceOnUse" gradientTransform="matrix(1,0,0,-1,0,-3.90609e-06)"><stop offset="0" style="stop-color:rgb(129,129,129);stop-opacity:1"/><stop offset="1" style="stop-color:rgb(204,204,204);stop-opacity:1"/><stop offset="1" style="stop-color:rgb(204,204,204);stop-opacity:1"/></linearGradient>
        <linearGradient id="_Linear19" x1="0" y1="0" x2="1" y2="0" gradientUnits="userSpaceOnUse" gradientTransform="matrix(1,0,0,-1,0,2.20627e-05)"><stop offset="0" style="stop-color:rgb(6,123,162);stop-opacity:1"/><stop offset="1" style="stop-color:rgb(42,170,226);stop-opacity:1"/><stop offset="1" style="stop-color:rgb(42,170,226);stop-opacity:1"/></linearGradient>
        <linearGradient id="_Linear20" x1="0" y1="0" x2="1" y2="0" gradientUnits="userSpaceOnUse" gradientTransform="matrix(1,0,0,-1,0,-5.39623e-06)"><stop offset="0" style="stop-color:rgb(86,28,89);stop-opacity:1"/><stop offset="0" style="stop-color:rgb(86,28,89);stop-opacity:1"/><stop offset="1" style="stop-color:rgb(157,30,96);stop-opacity:1"/></linearGradient>
        <radialGradient id="_Radial21" cx="0" cy="0" r="1" gradientUnits="userSpaceOnUse" gradientTransform="matrix(1,0,0,-1,0,-4.84627e-05)"><stop offset="0" style="stop-color:rgb(237,27,121);stop-opacity:1"/><stop offset="0" style="stop-color:rgb(237,27,121);stop-opacity:1"/><stop offset="1" style="stop-color:rgb(213,28,92);stop-opacity:1"/></radialGradient>
        <linearGradient id="_Linear22" x1="0" y1="0" x2="1" y2="0" gradientUnits="userSpaceOnUse" gradientTransform="matrix(1,0,0,-1,0,1.30341e-06)"><stop offset="0" style="stop-color:rgb(129,129,129);stop-opacity:1"/><stop offset="1" style="stop-color:rgb(204,204,204);stop-opacity:1"/><stop offset="1" style="stop-color:rgb(204,204,204);stop-opacity:1"/></linearGradient>
        <linearGradient id="_Linear23" x1="0" y1="0" x2="1" y2="0" gradientUnits="userSpaceOnUse" gradientTransform="matrix(1,0,0,-1,0,0.0325759)"><stop offset="0" style="stop-color:rgb(129,129,129);stop-opacity:1"/><stop offset="1" style="stop-color:rgb(204,204,204);stop-opacity:1"/><stop offset="1" style="stop-color:rgb(204,204,204);stop-opacity:1"/></linearGradient>
        <linearGradient id="_Linear24" x1="0" y1="0" x2="1" y2="0" gradientUnits="userSpaceOnUse" gradientTransform="matrix(0.999992,0.00393301,0.00393301,-0.999992,4.11265e-06,-0.00209134)"><stop offset="0" style="stop-color:rgb(129,129,129);stop-opacity:1"/><stop offset="1" style="stop-color:rgb(204,204,204);stop-opacity:1"/><stop offset="1" style="stop-color:rgb(204,204,204);stop-opacity:1"/></linearGradient>
        <linearGradient id="_Linear25" x1="0" y1="0" x2="1" y2="0" gradientUnits="userSpaceOnUse" gradientTransform="matrix(1,0,0,-1,0,1.05002e-05)"><stop offset="0" style="stop-color:rgb(42,170,226);stop-opacity:1"/><stop offset="0" style="stop-color:rgb(42,170,226);stop-opacity:1"/><stop offset="1" style="stop-color:rgb(6,123,162);stop-opacity:1"/></linearGradient>
        <radialGradient id="_Radial26" cx="0" cy="0" r="1" gradientUnits="userSpaceOnUse" gradientTransform="matrix(1,0,0,-1,0,1.08284e-05)"><stop offset="0" style="stop-color:rgb(237,27,121);stop-opacity:1"/><stop offset="0" style="stop-color:rgb(237,27,121);stop-opacity:1"/><stop offset="1" style="stop-color:rgb(213,28,92);stop-opacity:1"/></radialGradient>
        <radialGradient id="_Radial27" cx="0" cy="0" r="1" gradientUnits="userSpaceOnUse" gradientTransform="matrix(1,0,0,-1,0,-6.61198e-05)"><stop offset="0" style="stop-color:rgb(237,27,121);stop-opacity:1"/><stop offset="0" style="stop-color:rgb(237,27,121);stop-opacity:1"/><stop offset="1" style="stop-color:rgb(213,28,92);stop-opacity:1"/></radialGradient>
        <radialGradient id="_Radial28" cx="0" cy="0" r="1" gradientUnits="userSpaceOnUse" gradientTransform="matrix(1,0,0,-1,0,2.96702e-05)"><stop offset="0" style="stop-color:rgb(237,27,121);stop-opacity:1"/><stop offset="0" style="stop-color:rgb(237,27,121);stop-opacity:1"/><stop offset="1" style="stop-color:rgb(213,28,92);stop-opacity:1"/></radialGradient>
        <radialGradient id="_Radial29" cx="0" cy="0" r="1" gradientUnits="userSpaceOnUse" gradientTransform="matrix(0,1,1,0,-1.07483e-05,1.07483e-05)"><stop offset="0" style="stop-color:rgb(237,27,121);stop-opacity:1"/><stop offset="0" style="stop-color:rgb(237,27,121);stop-opacity:1"/><stop offset="1" style="stop-color:rgb(213,28,92);stop-opacity:1"/></radialGradient>
        <linearGradient id="_Linear30" x1="0" y1="0" x2="1" y2="0" gradientUnits="userSpaceOnUse" gradientTransform="matrix(1,0,0,-1,0,1.13089e-05)"><stop offset="0" style="stop-color:rgb(42,170,226);stop-opacity:1"/><stop offset="0" style="stop-color:rgb(42,170,226);stop-opacity:1"/><stop offset="1" style="stop-color:rgb(6,123,162);stop-opacity:1"/></linearGradient>
        <radialGradient id="_Radial31" cx="0" cy="0" r="1" gradientUnits="userSpaceOnUse" gradientTransform="matrix(0,1,1,0,1.77658e-07,-1.77658e-07)"><stop offset="0" style="stop-color:rgb(237,27,121);stop-opacity:1"/><stop offset="0" style="stop-color:rgb(237,27,121);stop-opacity:1"/><stop offset="1" style="stop-color:rgb(213,28,92);stop-opacity:1"/></radialGradient>
        <radialGradient id="_Radial32" cx="0" cy="0" r="1" gradientUnits="userSpaceOnUse" gradientTransform="matrix(1,0,0,-1,0,4.81619e-05)"><stop offset="0" style="stop-color:rgb(237,27,121);stop-opacity:1"/><stop offset="0" style="stop-color:rgb(237,27,121);stop-opacity:1"/><stop offset="1" style="stop-color:rgb(213,28,92);stop-opacity:1"/></radialGradient>
        <radialGradient id="_Radial33" cx="0" cy="0" r="1" gradientUnits="userSpaceOnUse" gradientTransform="matrix(1,0,0,-1,0,4.81619e-05)"><stop offset="0" style="stop-color:rgb(237,27,121);stop-opacity:1"/><stop offset="0" style="stop-color:rgb(237,27,121);stop-opacity:1"/><stop offset="1" style="stop-color:rgb(213,28,92);stop-opacity:1"/></radialGradient>
        <linearGradient id="_Linear36" x1="0" y1="0" x2="1" y2="0" gradientUnits="userSpaceOnUse" gradientTransform="matrix(1,0,0,-1,0,6.19741e-06)"><stop offset="0" style="stop-color:rgb(86,28,89);stop-opacity:1"/><stop offset="0" style="stop-color:rgb(86,28,89);stop-opacity:1"/><stop offset="1" style="stop-color:rgb(213,28,92);stop-opacity:1"/></linearGradient>
        <linearGradient id="_Linear37" x1="0" y1="0" x2="1" y2="0" gradientUnits="userSpaceOnUse" gradientTransform="matrix(1,0,0,-1,0,2.56073e-05)"><stop offset="0" style="stop-color:rgb(129,129,129);stop-opacity:1"/><stop offset="0" style="stop-color:rgb(129,129,129);stop-opacity:1"/><stop offset="1" style="stop-color:white;stop-opacity:1"/><stop offset="1" style="stop-color:white;stop-opacity:1"/></linearGradient>
    </defs>
</svg>
