<?xml version="1.0" encoding="UTF-8" standalone="no"?>
<!DOCTYPE svg PUBLIC "-//W3C//DTD SVG 1.1//EN" "http://www.w3.org/Graphics/SVG/1.1/DTD/svg11.dtd">
<svg width="100%" height="100%" viewBox="0 0 1306 1667" version="1.1" xmlns="http://www.w3.org/2000/svg" xmlns:xlink="http://www.w3.org/1999/xlink" xml:space="preserve" xmlns:serif="http://www.serif.com/" style="fill-rule:evenodd;clip-rule:evenodd;stroke-linecap:round;stroke-miterlimit:10;">
    <g transform="matrix(1,0,0,1,-2732.69,-4895.83)">
        <g transform="matrix(4.16667,0,0,4.16667,2343.75,4687.5)">
            <g transform="matrix(0,-1,-1,0,242.815,310.036)">
                <path d="M-134.032,-134.033C-137.308,-134.033 -139.964,-74.024 -139.964,0C-139.964,74.025 -137.308,134.032 -134.032,134.032C-130.757,134.032 -128.101,74.025 -128.101,0C-128.101,-74.024 -130.757,-134.033 -134.032,-134.033" style="fill:rgb(230,230,230);fill-rule:nonzero;"/>
            </g>
        </g>
        <g transform="matrix(4.16667,0,0,4.16667,2343.75,4687.5)">
            <g transform="matrix(0,-44.9164,-44.9164,0,110.653,402.177)">
                <path d="M0.047,0.252C-0.064,-0.003 0.03,-0.361 0.241,-0.629L1,-0.088C0.787,0.397 0.157,0.507 0.047,0.252Z" style="fill:url(#_Linear1);fill-rule:nonzero;"/>
            </g>
        </g>
        <g transform="matrix(4.16667,0,0,4.16667,2343.75,4687.5)">
            <g transform="matrix(38.827,2.14919,2.14919,-38.827,367.568,114.405)">
                <path d="M-0.159,-0.467L0.837,-0.467C1.007,-0.151 0.876,0.488 0.556,0.514C0.545,0.515 0.533,0.515 0.522,0.514C0.206,0.497 -0.183,-0.086 -0.159,-0.467Z" style="fill:url(#_Linear2);fill-rule:nonzero;"/>
            </g>
        </g>
        <g transform="matrix(4.16667,0,0,4.16667,2343.75,4687.5)">
            <g transform="matrix(83.6271,0,0,-83.6271,241.392,398.93)">
                <path d="M0,0.407C0.065,0.314 0.129,0.228 0.196,0.141C0.263,0.054 0.331,-0.031 0.402,-0.115C0.533,-0.271 0.67,-0.422 0.823,-0.558C0.842,-0.575 0.872,-0.574 0.89,-0.557C0.908,-0.539 0.91,-0.511 0.895,-0.491C0.779,-0.334 0.68,-0.163 0.587,0.01C0.537,0.104 0.49,0.198 0.444,0.294C0.398,0.389 0.353,0.486 0.313,0.58L0,0.407Z" style="fill:url(#_Linear3);fill-rule:nonzero;"/>
            </g>
        </g>
        <g transform="matrix(4.16667,0,0,4.16667,2343.75,4687.5)">
            <g transform="matrix(75.8914,0,0,-75.8914,147.496,401.559)">
                <path d="M0.609,0.541L0.605,0.504C0.602,0.479 0.597,0.453 0.593,0.428C0.584,0.377 0.572,0.326 0.559,0.275C0.532,0.174 0.497,0.075 0.452,-0.019C0.407,-0.114 0.352,-0.203 0.284,-0.282C0.251,-0.323 0.213,-0.359 0.173,-0.393C0.144,-0.417 0.113,-0.439 0.081,-0.46C0.059,-0.474 0.05,-0.502 0.06,-0.527C0.071,-0.554 0.102,-0.568 0.13,-0.558C0.17,-0.543 0.209,-0.526 0.247,-0.507C0.3,-0.478 0.353,-0.446 0.401,-0.409C0.499,-0.336 0.585,-0.247 0.66,-0.151C0.735,-0.055 0.801,0.049 0.857,0.157C0.885,0.211 0.911,0.266 0.935,0.323C0.946,0.351 0.958,0.38 0.969,0.409L0.985,0.454C0.99,0.47 0.994,0.482 1,0.503L0.612,0.574C0.612,0.568 0.611,0.553 0.609,0.541Z" style="fill:url(#_Linear4);fill-rule:nonzero;"/>
            </g>
        </g>
        <g transform="matrix(4.16667,0,0,4.16667,2343.75,4687.5)">
            <g transform="matrix(-187.042,27.0337,27.0337,187.042,412.26,163.382)">
                <path d="M0.594,-0.031C0.786,-0.009 0.912,0.027 1,0.097L0.958,0.29C0.798,0.299 0.615,0.265 0.473,0.222C0.446,0.214 0.42,0.205 0.397,0.197C0.351,0.18 0.312,0.162 0.285,0.146C0.172,0.078 0,-0.219 0,-0.219L0.076,-0.206L0.084,-0.274L0.17,-0.234L0.228,-0.307C0.228,-0.307 0.308,-0.062 0.594,-0.031Z" style="fill:url(#_Linear5);fill-rule:nonzero;"/>
            </g>
        </g>
        <g transform="matrix(4.16667,0,0,4.16667,2343.75,4687.5)">
            <g transform="matrix(1,0,0,1,273.486,182.819)">
                <path d="M0,-37.412L4.106,-20.074L0.9,-23.045L4.562,-2.281L-0.912,-8.669L0.912,0L-3.193,-2.737L-2.281,-36.499L0,-37.412Z" style="fill:rgb(96,58,23);fill-rule:nonzero;"/>
            </g>
        </g>
        <g transform="matrix(4.16667,0,0,4.16667,2343.75,4687.5)">
            <g transform="matrix(-0.689388,-0.724393,-0.724393,0.689388,267.711,239.12)">
                <path d="M-3.132,-26.43C-5.261,-22.049 -8.661,-8.546 -16.996,-0.018C-12.604,-1.9 -7.958,-4.052 -3.132,-6.462L1.837,-25.798L-3.132,-26.43Z" style="fill:rgb(65,35,18);fill-rule:nonzero;"/>
            </g>
        </g>
        <g transform="matrix(4.16667,0,0,4.16667,2343.75,4687.5)">
            <g transform="matrix(1,0,0,1,278.475,141.413)">
                <path d="M0,119.067C20.136,175.323 -1.007,200.739 -8.095,207.293C-9.369,208.526 -10.231,209.081 -10.231,209.081C-73.207,214.998 -91.452,192.643 -91.452,192.643C-91.452,192.643 -96.958,186.356 -105.095,176.144C-111.546,168.029 -119.662,157.406 -127.963,145.489C-151.961,111.074 -177.582,65.769 -169.692,38.093C-157.427,-4.972 -127.141,-35.525 -89.787,-62.646C-87.979,-65.173 -86.891,-66.488 -86.891,-66.488C-86.726,-65.851 -86.5,-65.44 -86.295,-65.173C-85.698,-65.584 -85.123,-65.995 -84.527,-66.406C-67.659,-95.931 -43.086,-91.123 -43.086,-91.123C-47.646,-87.487 -47.194,-80.193 -47.194,-80.193C-38.977,-88.843 -27.573,-88.391 -27.573,-88.391C-31.683,-86.11 -34.415,-78.816 -34.415,-78.816C-23.916,-81.097 -18.45,-77.912 -18.45,-77.912C-23.464,-77.912 -27.121,-74.254 -27.121,-74.254C-14.341,-72.878 -11.608,-63.755 -11.608,-63.755L-13.622,-64.33C22.972,-30.511 40.148,44.565 40.148,44.565C40.148,44.565 -10.499,89.685 0,119.067" style="fill:rgb(96,56,18);fill-rule:nonzero;"/>
            </g>
        </g>
        <g transform="matrix(4.16667,0,0,4.16667,2343.75,4687.5)">
            <g transform="matrix(78.9442,0,0,-78.9442,197.521,132.861)">
                <path d="M0.107,0.489L0.237,0.526L0.104,0.462L0.185,0.468L0.076,0.426C0.029,0.316 -0,0.182 -0,0.023C-0,0.023 0.069,0.098 0.15,0.092C0.15,0.092 -0.017,-0.168 0.092,-0.41C0.092,-0.41 0.15,-0.295 0.277,-0.214C0.277,-0.214 0.246,-0.39 0.331,-0.552L0.381,-0.465L0.367,-0.559L0.406,-0.524L0.384,-0.632C0.398,-0.649 0.415,-0.666 0.433,-0.682C0.433,-0.682 0.549,-0.624 0.589,-0.537C0.589,-0.537 0.636,-0.699 0.786,-0.78C0.786,-0.78 0.994,-0.641 1,-0.104C1.006,0.433 0.867,0.78 0.497,0.78C0.369,0.78 0.21,0.681 0.107,0.489Z" style="fill:url(#_Linear6);fill-rule:nonzero;"/>
            </g>
        </g>
        <g transform="matrix(4.16667,0,0,4.16667,2343.75,4687.5)">
            <g transform="matrix(0.00846512,0.999964,0.999964,-0.00846512,249.207,107.786)">
                <path d="M3.83,-26.738C15.034,-27.404 31.459,-27.543 29.313,-11.556C27.166,4.431 3.83,-3.584 3.83,-3.584L-0.795,-10.844L3.83,-26.738Z" style="fill:rgb(167,125,83);fill-rule:nonzero;"/>
            </g>
        </g>
        <g transform="matrix(4.16667,0,0,4.16667,2343.75,4687.5)">
            <g transform="matrix(-0.083267,0.996527,0.996527,0.083267,278.624,106.571)">
                <path d="M2.208,-23.387C13.414,-22.884 28.178,-20.57 23.047,-9.411C17.732,2.148 2.208,-6.574 2.208,-6.574L-3.532,-11.844L2.208,-23.387Z" style="fill:rgb(167,125,83);fill-rule:nonzero;"/>
            </g>
        </g>
        <g transform="matrix(4.16667,0,0,4.16667,2343.75,4687.5)">
            <g transform="matrix(1,0,0,1,236.325,102.014)">
                <path d="M0,28.502C-6.347,29.501 -12.533,23.738 -13.815,15.627C-15.093,7.515 -10.986,0.128 -4.641,-0.876C-4.088,-0.963 -3.536,-0.999 -2.993,-0.98C2.746,-0.857 8.002,4.595 9.175,11.999C9.229,12.337 9.271,12.67 9.308,13.003C10.115,20.714 6.082,27.539 0,28.502" style="fill:white;fill-rule:nonzero;"/>
            </g>
        </g>
        <g transform="matrix(4.16667,0,0,4.16667,2343.75,4687.5)">
            <g transform="matrix(0,-1,-1,0,236.303,110.048)">
                <path d="M-7.757,-7.756C-12.04,-7.756 -15.513,-4.283 -15.513,0C-15.513,4.284 -12.04,7.757 -7.757,7.757C-3.473,7.757 0,4.284 0,0C0,-4.283 -3.473,-7.756 -7.757,-7.756" style="fill:rgb(14,105,55);fill-rule:nonzero;"/>
            </g>
        </g>
        <g transform="matrix(4.16667,0,0,4.16667,2343.75,4687.5)">
            <g transform="matrix(0,1,1,0,231.284,110.048)">
                <path d="M3.65,-3.65C1.634,-3.65 0,-2.016 0,-0.001C0,2.016 1.634,3.65 3.65,3.65C5.666,3.65 7.3,2.016 7.3,-0.001C7.3,-2.016 5.666,-3.65 3.65,-3.65" style="fill:white;fill-rule:nonzero;"/>
            </g>
        </g>
        <g transform="matrix(4.16667,0,0,4.16667,2343.75,4687.5)">
            <g transform="matrix(0,1,1,0,238.583,119.173)">
                <path d="M1.825,-1.825C0.817,-1.825 -0,-1.008 -0,-0C-0,1.008 0.817,1.825 1.825,1.825C2.833,1.825 3.649,1.008 3.649,-0C3.649,-1.008 2.833,-1.825 1.825,-1.825" style="fill:white;fill-rule:nonzero;"/>
            </g>
        </g>
        <g transform="matrix(4.16667,0,0,4.16667,2343.75,4687.5)">
            <g transform="matrix(1,0,0,1,219.92,97.6454)">
                <path d="M0,12.838C0,12.838 15.311,6.402 23.82,8.114C23.82,8.114 22.087,2.018 17.895,0C17.895,0 6.71,1.37 -1.201,10.175" style="fill:rgb(96,58,23);fill-rule:nonzero;"/>
            </g>
        </g>
        <g transform="matrix(4.16667,0,0,4.16667,2343.75,4687.5)">
            <g transform="matrix(1,0,0,1,265.623,100.773)">
                <path d="M0,22.837C-5.085,23.638 -10.042,19.021 -11.069,12.521C-12.094,6.021 -8.803,0.103 -3.718,-0.702C-3.275,-0.771 -2.833,-0.801 -2.398,-0.786C2.2,-0.687 6.412,3.681 7.352,9.614C7.396,9.885 7.428,10.151 7.457,10.419C8.104,16.597 4.873,22.066 0,22.837" style="fill:white;fill-rule:nonzero;"/>
            </g>
        </g>
        <g transform="matrix(4.16667,0,0,4.16667,2343.75,4687.5)">
            <g transform="matrix(0,-1,-1,0,265.604,105.386)">
                <path d="M-6.215,-6.215C-9.648,-6.215 -12.43,-3.433 -12.43,0C-12.43,3.432 -9.648,6.215 -6.215,6.215C-2.782,6.215 0,3.432 0,0C0,-3.433 -2.782,-6.215 -6.215,-6.215" style="fill:rgb(14,105,55);fill-rule:nonzero;"/>
            </g>
        </g>
        <g transform="matrix(4.16667,0,0,4.16667,2343.75,4687.5)">
            <g transform="matrix(0,1,1,0,261.584,105.386)">
                <path d="M2.925,-2.925C1.31,-2.925 -0,-1.616 -0,-0.001C-0,1.615 1.31,2.925 2.925,2.925C4.54,2.925 5.85,1.615 5.85,-0.001C5.85,-1.616 4.54,-2.925 2.925,-2.925" style="fill:white;fill-rule:nonzero;"/>
            </g>
        </g>
        <g transform="matrix(4.16667,0,0,4.16667,2343.75,4687.5)">
            <g transform="matrix(0,1,1,0,267.433,112.697)">
                <path d="M1.462,-1.463C0.654,-1.463 0,-0.808 0,0C0,0.808 0.654,1.462 1.462,1.462C2.27,1.462 2.925,0.808 2.925,0C2.925,-0.808 2.27,-1.463 1.462,-1.463" style="fill:white;fill-rule:nonzero;"/>
            </g>
        </g>
        <g transform="matrix(4.16667,0,0,4.16667,2343.75,4687.5)">
            <g transform="matrix(1,0,0,1,273.182,97.0726)">
                <path d="M0,7.445C0,7.445 -13.086,5.03 -19.454,7.827C-19.454,7.827 -19.142,2.758 -16.205,0.461C-16.205,0.461 -7.216,-0.382 0.483,5.155" style="fill:rgb(96,58,23);fill-rule:nonzero;"/>
            </g>
        </g>
        <g transform="matrix(4.16667,0,0,4.16667,2343.75,4687.5)">
            <g transform="matrix(1,0,0,1,256.593,135.407)">
                <path d="M0,-27.281C5.244,-19.064 10.952,-8.45 11.604,-0.455C11.636,-0.07 11.403,0.288 11.045,0.432C10.122,0.801 9.068,0.465 8.529,-0.371C7.229,-2.388 4.721,-5.12 3.295,0.88C3.054,1.894 2.332,2.731 1.364,3.117L1.339,3.128C0.962,3.279 0.542,3.163 0.298,2.846C-1.223,0.871 -6.63,-5.434 -7.916,2.989C-7.954,3.239 -8.093,3.465 -8.304,3.606C-8.816,3.948 -9.514,3.682 -9.663,3.083C-10.48,-0.21 -12.579,-10.04 -12.653,-24.489C-12.668,-27.257 -10.817,-29.688 -8.14,-30.388C-8.092,-30.401 -8.044,-30.414 -7.995,-30.427C-4.93,-31.229 -1.705,-29.952 0,-27.281" style="fill:rgb(193,40,45);fill-rule:nonzero;"/>
            </g>
        </g>
        <g transform="matrix(4.16667,0,0,4.16667,2343.75,4687.5)">
            <g transform="matrix(1,0,0,1,239.188,148.795)">
                <path d="M0,8.652C0.055,5.723 2.205,2.238 3.56,0.326C4.1,-0.437 5.232,-0.437 5.774,0.324C7.026,2.078 8.905,5.29 9.205,9.089" style="fill:rgb(252,245,156);fill-rule:nonzero;"/>
            </g>
        </g>
        <g transform="matrix(4.16667,0,0,4.16667,2343.75,4687.5)">
            <g transform="matrix(0.989951,-0.141408,-0.141408,-0.989951,235.711,158.832)">
                <path d="M-0.001,2.27C6.903,-1.021 21.808,-3.15 32.26,2.27" style="fill:none;fill-rule:nonzero;stroke:rgb(65,35,18);stroke-width:1.11px;"/>
            </g>
        </g>
        <g transform="matrix(4.16667,0,0,4.16667,2343.75,4687.5)">
            <g transform="matrix(0.976192,-0.21691,-0.21691,-0.976192,248.447,128.646)">
                <path d="M-0.25,2.281C4.253,3.617 13.21,3.963 20.781,2.281" style="fill:none;fill-rule:nonzero;stroke:rgb(155,28,34);stroke-width:1.11px;"/>
            </g>
        </g>
        <g transform="matrix(4.16667,0,0,4.16667,2343.75,4687.5)">
            <g transform="matrix(-0.780835,0.624737,0.624737,0.780835,260.217,279.945)">
                <path d="M15.93,-0.112C15.93,-0.112 6.594,-3.745 4.03,1.812C1.465,7.37 9.018,9.507 15.93,2.809C15.93,2.809 8.376,6.515 8.02,3.879C7.664,1.243 15.93,-0.112 15.93,-0.112" style="fill:rgb(198,156,110);fill-rule:nonzero;"/>
            </g>
        </g>
        <g transform="matrix(4.16667,0,0,4.16667,2343.75,4687.5)">
            <g transform="matrix(0.990621,-0.13664,-0.13664,-0.990621,251.545,120.981)">
                <path d="M-0.063,0.913C3.678,1.318 8.774,1.536 13.294,0.913" style="fill:none;fill-rule:nonzero;stroke:rgb(155,28,34);stroke-width:1.11px;"/>
            </g>
        </g>
        <g transform="matrix(4.16667,0,0,4.16667,2343.75,4687.5)">
            <g transform="matrix(0.996628,-0.0820565,-0.0820565,-0.996628,225.033,94.0612)">
                <path d="M-0.234,1.603C6.774,3.315 18.553,7.381 38.678,1.603" style="fill:none;fill-rule:nonzero;stroke:rgb(65,35,18);stroke-width:1.11px;"/>
            </g>
        </g>
        <g transform="matrix(4.16667,0,0,4.16667,2343.75,4687.5)">
            <g transform="matrix(0.996628,-0.0820512,-0.0820512,-0.996628,228.365,87.1526)">
                <path d="M-0.176,1.207C5.1,2.497 13.969,5.557 29.123,1.207" style="fill:none;fill-rule:nonzero;stroke:rgb(65,35,18);stroke-width:1.11px;"/>
            </g>
        </g>
        <g transform="matrix(4.16667,0,0,4.16667,2343.75,4687.5)">
            <g transform="matrix(1,0,0,1,188.662,146.47)">
                <path d="M0,-32.932C0,-32.932 -4.891,-29.736 -10.92,-23.071C-10.92,-23.071 -1.552,-25.279 0.907,-23.992C0.907,-23.992 -13.041,-13.683 -15.737,-4.003C-15.737,-4.003 -4.811,-12.422 0.1,-11.29C0.1,-11.29 -6.796,-4.911 -7.928,0" style="fill:none;fill-rule:nonzero;stroke:rgb(65,35,18);stroke-width:1.11px;stroke-linejoin:round;"/>
            </g>
        </g>
        <g transform="matrix(4.16667,0,0,4.16667,2343.75,4687.5)">
            <g transform="matrix(1,0,0,1,273.419,188.83)">
                <path d="M0,8.511C-1.127,8.94 -1.916,9.189 -1.916,9.189L-3.158,9.109C-3.158,9.109 -2.263,7.407 -1.122,5.485C0.572,2.643 2.796,-0.678 3.456,0.334C4.403,1.786 0.331,5.758 -0.456,7.094C-0.582,7.334 -0.622,7.483 -0.524,7.532C-0.48,7.56 -0.409,7.543 -0.313,7.504C1.026,6.912 6.892,0.458 7.436,3.149C7.854,5.224 2.855,7.435 0,8.511" style="fill:rgb(96,58,23);fill-rule:nonzero;"/>
            </g>
        </g>
        <g transform="matrix(4.16667,0,0,4.16667,2343.75,4687.5)">
            <g transform="matrix(1,0,0,1,280.178,312.681)">
                <path d="M0,-2.107C-0.972,-2.82 -1.609,-3.347 -1.609,-3.347L-2.216,-4.434C-2.216,-4.434 -0.301,-4.606 1.933,-4.692C5.239,-4.812 9.235,-4.748 8.743,-3.644C8.038,-2.059 2.491,-3.323 0.942,-3.258C0.673,-3.234 0.525,-3.187 0.537,-3.078C0.538,-3.026 0.591,-2.976 0.675,-2.917C1.899,-2.113 10.505,-0.691 8.54,1.226C7.025,2.705 2.454,-0.293 0,-2.107" style="fill:rgb(96,58,23);fill-rule:nonzero;"/>
            </g>
        </g>
        <g transform="matrix(4.16667,0,0,4.16667,2343.75,4687.5)">
            <g transform="matrix(1,0,0,1,182.477,185.267)">
                <path d="M0,-1.881C1.118,-1.428 1.865,-1.073 1.865,-1.073L2.72,-0.168C2.72,-0.168 0.905,0.468 -1.239,1.098C-4.415,2.026 -8.305,2.943 -8.1,1.752C-7.804,0.043 -2.116,-0.092 -0.631,-0.534C-0.375,-0.623 -0.244,-0.705 -0.281,-0.809C-0.296,-0.858 -0.359,-0.894 -0.455,-0.931C-1.839,-1.41 -10.53,-0.679 -9.096,-3.02C-7.99,-4.824 -2.823,-3.038 0,-1.881" style="fill:rgb(96,58,23);fill-rule:nonzero;"/>
            </g>
        </g>
        <g transform="matrix(4.16667,0,0,4.16667,2343.75,4687.5)">
            <g transform="matrix(1,0,0,1,188.667,67.9907)">
                <path d="M0,6.19C-0.01,7.396 -0.064,8.221 -0.064,8.221L-0.591,9.349C-0.591,9.349 -1.851,7.896 -3.227,6.134C-5.259,3.523 -7.544,0.245 -6.36,-0.002C-4.663,-0.357 -2.443,4.88 -1.485,6.099C-1.308,6.304 -1.184,6.396 -1.102,6.323C-1.061,6.292 -1.051,6.219 -1.052,6.116C-1.116,4.653 -4.996,-3.159 -2.292,-2.686C-0.206,-2.323 0.036,3.138 0,6.19" style="fill:rgb(96,56,18);fill-rule:nonzero;"/>
            </g>
        </g>
        <g transform="matrix(4.16667,0,0,4.16667,2343.75,4687.5)">
            <g transform="matrix(-0.772278,0.635284,0.635284,0.772278,212.408,223.172)">
                <path d="M-16.229,-5.818C-16.229,-5.818 -7.008,-8.972 2.085,-5.818" style="fill:none;fill-rule:nonzero;stroke:rgb(65,35,18);stroke-width:1.11px;stroke-linejoin:round;"/>
            </g>
        </g>
        <g transform="matrix(4.16667,0,0,4.16667,2343.75,4687.5)">
            <g transform="matrix(-0.62906,0.777357,0.777357,0.62906,214.772,232.118)">
                <path d="M-14.918,-7.119C-14.918,-7.119 -5.696,-10.272 3.397,-7.118" style="fill:none;fill-rule:nonzero;stroke:rgb(65,35,18);stroke-width:1.11px;stroke-linejoin:round;"/>
            </g>
        </g>
        <g transform="matrix(4.16667,0,0,4.16667,2343.75,4687.5)">
            <g transform="matrix(-0.977523,-0.210827,-0.210827,0.977523,260.829,269.772)">
                <path d="M-18.231,3.083C-18.231,3.083 -9.01,-0.07 0.083,3.083" style="fill:none;fill-rule:nonzero;stroke:rgb(65,35,18);stroke-width:1.11px;stroke-linejoin:round;"/>
            </g>
        </g>
        <g transform="matrix(4.16667,0,0,4.16667,2343.75,4687.5)">
            <g transform="matrix(0.969066,-0.246803,-0.246803,-0.969066,183.36,313.765)">
                <path d="M-10.608,-1.212C-14.856,8.244 -20.099,20.541 -25.202,34.138L-10.608,84.869L-7.342,84.037C-17.991,62.454 -1.451,24.252 -10.608,-1.212" style="fill:rgb(65,35,18);fill-rule:nonzero;"/>
            </g>
        </g>
        <g transform="matrix(4.16667,0,0,4.16667,2343.75,4687.5)">
            <g transform="matrix(-0.966886,-0.255208,-0.255208,0.966886,262.903,276.687)">
                <path d="M-18.104,3.054C-18.104,3.054 -8.883,-0.1 0.21,3.054" style="fill:none;fill-rule:nonzero;stroke:rgb(65,35,18);stroke-width:1.11px;stroke-linejoin:round;"/>
            </g>
        </g>
        <g transform="matrix(4.16667,0,0,4.16667,2343.75,4687.5)">
            <g transform="matrix(0,-254.135,-254.135,0,139.592,399.542)">
                <path d="M0.377,0.107C0.242,0.059 0.112,0.17 0.112,0.17L0.112,0.133L0.063,0.133L0.063,0.095L0.025,0.095L0.054,0.068L0,0.034C0,0.034 0.183,-0.178 0.417,-0.097C0.651,-0.016 0.703,-0.046 0.703,-0.046L1,0.063C0.758,0.206 0.513,0.155 0.377,0.107Z" style="fill:url(#_Linear7);fill-rule:nonzero;"/>
            </g>
        </g>
        <g transform="matrix(4.16667,0,0,4.16667,2343.75,4687.5)">
            <g transform="matrix(-0.353814,-0.935316,-0.935316,0.353814,201.559,386.394)">
                <path d="M-4.344,-8.148C-6.549,-7.023 -8.874,-5.811 -11.289,-4.507L-4.344,2.515C-2.487,1.509 -0.578,0.519 1.385,-0.457L-4.344,-8.148Z" style="fill:rgb(65,35,18);fill-rule:nonzero;"/>
            </g>
        </g>
        <g transform="matrix(4.16667,0,0,4.16667,2343.75,4687.5)">
            <g transform="matrix(1,0,0,1,278.023,384.736)">
                <path d="M0,4.828L-9.559,10.015C-11.073,6.11 -12.232,2.921 -13.04,0.636L-5.279,-5.187L-4.011,-5.187C-2.692,-1.751 -1.351,1.589 0,4.828" style="fill:rgb(65,35,18);fill-rule:nonzero;"/>
            </g>
        </g>
        <g transform="matrix(4.16667,0,0,4.16667,2343.75,4687.5)">
            <g transform="matrix(1,0,0,1,290.994,352.631)">
                <path d="M0,21.443C-18.706,39.693 -31.937,40.605 -31.937,40.605C-36.473,38.338 -40.547,31.932 -42.526,28.405C-43.339,26.964 -43.8,26.005 -43.8,26.005C-50.191,28.36 -58.326,26.499 -62.149,25.358C-63.514,24.952 -64.331,24.636 -64.331,24.636L-71.175,38.324C-97.637,40.149 -111.78,29.656 -111.78,29.656C-104.024,11.406 -106.173,-19.058 -106.173,-19.058C-43.991,-2.524 -9.125,-19.162 -9.125,-19.162C-8.669,-5.932 -10.95,2.281 -10.95,2.281C-10.494,13.687 0,21.443 0,21.443" style="fill:rgb(212,51,39);fill-rule:nonzero;"/>
            </g>
        </g>
        <g transform="matrix(4.16667,0,0,4.16667,2343.75,4687.5)">
            <g transform="matrix(0.999999,-0.00107163,-0.00107163,-0.999999,184.813,333.625)">
                <path d="M0.009,0.052C62.173,-16.549 97.057,0.052 97.057,0.052" style="fill:none;fill-rule:nonzero;stroke:white;stroke-width:1.11px;"/>
            </g>
        </g>
        <g transform="matrix(4.16667,0,0,4.16667,2343.75,4687.5)">
            <g transform="matrix(1,0,0,1,254.494,354)">
                <path d="M0,-10.95C-5.931,-15.969 -10.037,-13.687 -10.493,-10.038C-10.949,-6.388 0,-10.038 0,-10.038C0,-10.038 2.738,-8.213 7.3,-7.301C11.862,-6.388 10.494,-15.056 5.932,-13.231C1.369,-11.406 0,-10.494 0,-10.494C0,-10.494 -1.368,-9.582 -0.912,-10.494C-0.456,-11.406 1.369,-10.95 0.913,-10.038C0.457,-9.125 -4.562,-9.582 -6.387,-3.194C-8.212,3.194 -13.688,5.019 -13.688,5.019" style="fill:none;fill-rule:nonzero;stroke:white;stroke-width:1.11px;"/>
            </g>
        </g>
        <g transform="matrix(4.16667,0,0,4.16667,2343.75,4687.5)">
            <g transform="matrix(1,0,0,1,255.179,370.196)">
                <path d="M0,-25.094C0,-25.094 -0.912,-21.444 5.019,-17.794C10.95,-14.144 10.95,-3.194 1.825,0" style="fill:none;fill-rule:nonzero;stroke:white;stroke-width:1.11px;"/>
            </g>
        </g>
        <g transform="matrix(4.16667,0,0,4.16667,2343.75,4687.5)">
            <g transform="matrix(-0.931241,-0.364403,-0.364403,0.931241,224.761,376.856)">
                <path d="M-1.921,-11.578C-1.921,-11.578 -4.439,-4.058 -4.216,-0.432C-2.797,-0.313 -1.921,-0.31 -1.921,-0.31C-1.921,-0.31 -2.144,-7.255 -1.497,-11.411L-1.921,-11.578Z" style="fill:rgb(167,30,35);fill-rule:nonzero;"/>
            </g>
        </g>
        <g transform="matrix(4.16667,0,0,4.16667,2343.75,4687.5)">
            <g transform="matrix(-0.490239,-0.871588,-0.871588,0.490239,246.617,375.517)">
                <path d="M-3.002,-7.349C-3.002,-7.349 -5.294,-3.439 -5.718,1.092C-4.063,1.094 -3.002,1.026 -3.002,1.026C-3.002,1.026 -3.598,-2.827 -1.983,-7.399L-3.002,-7.349Z" style="fill:rgb(167,30,35);fill-rule:nonzero;"/>
            </g>
        </g>
        <g transform="matrix(4.16667,0,0,4.16667,2343.75,4687.5)">
            <g transform="matrix(-0.18009,0.98365,0.98365,0.18009,217.481,371.533)">
                <path d="M-29.147,-24.295C-29.147,-24.295 4.329,-18.398 20.251,-24.295" style="fill:none;fill-rule:nonzero;stroke:white;stroke-width:1.11px;"/>
            </g>
        </g>
        <g transform="matrix(4.16667,0,0,4.16667,2343.75,4687.5)">
            <g transform="matrix(0.977961,0.208786,0.208786,-0.977961,180.576,377.94)">
                <path d="M-0.696,-4.36C-0.696,-4.36 15.87,-12.02 40.825,-4.36" style="fill:none;fill-rule:nonzero;stroke:white;stroke-width:1.11px;"/>
            </g>
        </g>
        <g transform="matrix(4.16667,0,0,4.16667,2343.75,4687.5)">
            <g transform="matrix(0.857483,-0.514512,-0.514512,-0.857483,266.035,399.859)">
                <path d="M-2.654,9.582C-2.654,9.582 12.604,3.087 34.591,9.582" style="fill:none;fill-rule:nonzero;stroke:white;stroke-width:1.11px;"/>
            </g>
        </g>
        <g transform="matrix(4.16667,0,0,4.16667,2343.75,4687.5)">
            <g transform="matrix(1,0,0,1,325.065,119.067)">
                <path d="M0,113.652C-3.612,116.176 -7.326,118.535 -11.23,120.587C-11.917,120.947 -15.24,122.639 -16.408,123.071C-18.285,123.763 -20.115,124.583 -21.965,125.349C-27.156,126.857 -32.335,128.387 -37.735,129.047C-43.993,129.81 -50.2,130.2 -56.545,129.643C-63.583,129.025 -70.356,127.604 -77.006,125.351C-85.391,122.51 -92.933,118.11 -100.115,113.008C-107.824,107.532 -115.578,102.118 -123.324,96.694C-123.664,96.456 -124.123,96.385 -124.526,96.237C-125.29,95.111 -126.401,94.495 -127.664,94.103C-130.723,90.944 -134.596,88.861 -138.12,86.335C-146.692,80.189 -180.491,62.455 -189.162,56.446C-189.685,56.257 -190.206,56.07 -190.729,55.881C-191.146,54.318 -192.688,53.97 -193.774,53.193C-197.818,50.299 -201.758,47.246 -206.097,44.783C-207.06,44.029 -208.027,43.281 -208.985,42.521C-211.157,40.801 -210.937,39.438 -208.215,38.127C-207.543,38.39 -206.82,38.673 -206.099,38.958C-202.922,41.239 -199.878,43.745 -196.521,45.717C-194.437,46.942 -190.385,49.965 -190.385,49.965L-189.301,50.832C-189.301,50.832 -142.718,77.634 -131.924,85.151C-130.972,86.426 -129.589,87.094 -128.219,87.781C-126.513,87.97 -126.259,90.203 -124.551,90.389C-123.646,91.232 -122.768,92.125 -121.377,92.017C-119.24,94.717 -116.291,96.482 -113.474,98.233C-107.021,102.244 -101.067,106.952 -94.742,111.139C-90.358,114.042 -86.108,117.063 -81.201,119.019C-72.896,122.33 -64.447,124.765 -55.404,125.414C-44.375,126.205 -33.81,124.706 -23.467,121.039C-23.157,120.929 -19.004,119.63 -17.479,118.473C-12.616,116.841 -8.397,114.029 -4.191,111.194C13.205,98.971 23.335,82.022 28.06,61.558C30.619,54.476 32.646,47.23 34.681,39.987C43.679,9.301 46.46,-2.773 46.416,-2.475C46.212,-2.213 35.47,7.116 35.323,7.407C30.591,11.561 28.492,15.349 28.492,15.349C28.492,15.349 23.397,25.717 19.553,30.161C10.711,40.376 -0.154,42.85 -12.541,45.277C-12.552,43.872 -13.911,42.734 -13.921,41.33C-9.262,40.106 -4.553,39.043 0.048,37.626C9.754,34.636 16.93,28.503 21.496,19.436C34.541,-6.463 32.144,4.304 53.306,-15.619C53.772,-16.548 55.011,-13.879 55.561,-14.768C56.379,-13.269 45.014,21.277 39.672,39.031C39.185,40.64 38.698,42.25 38.212,43.859C36.206,50.554 34.199,57.251 32.193,63.947C32.177,64.143 32.16,64.34 32.144,64.538L32.15,64.472C30.379,68.704 29.29,73.159 27.869,77.506C27.692,77.8 27.475,78.079 27.345,78.393C21.471,92.663 12.292,104.365 0,113.652" style="fill:rgb(40,45,42);fill-rule:nonzero;"/>
            </g>
        </g>
        <g transform="matrix(4.16667,0,0,4.16667,2343.75,4687.5)">
            <g transform="matrix(1,0,0,1,377.699,110.462)">
                <path d="M0,31.879C1.138,22.006 3.915,12.582 7.795,3.463C8.027,2.916 9.872,-0.674 10.205,-1.18C11.658,-0.204 12.671,1.374 13.331,2.923C9.55,10.807 5.899,22.225 4.438,30.783C4.395,31.042 4.327,31.296 4.271,31.551C2.955,33.059 1.432,31.875 0,31.879" style="fill:rgb(40,45,42);fill-rule:nonzero;"/>
            </g>
        </g>
        <g transform="matrix(4.16667,0,0,4.16667,2343.75,4687.5)">
            <g transform="matrix(1,0,0,1,352.934,206.548)">
                <path d="M0,-9.976C1.421,-14.323 2.51,-18.778 4.281,-23.009C4.31,-22.306 4.362,-21.603 4.362,-20.901C4.366,-6.206 4.349,8.487 4.369,23.18C4.379,29.708 8.216,33.589 14.583,33.594C22.586,33.6 30.601,33.339 38.589,33.683C44.22,33.926 49.099,30.232 49.144,23.521C49.271,4.341 49.295,-14.841 49.124,-34.02C49.073,-39.726 45.53,-44.453 38.509,-44.101C35.526,-43.952 32.529,-44.095 29.54,-44.105C29.608,-45.504 29.677,-46.903 29.745,-48.302C33.514,-48.35 37.281,-48.433 41.05,-48.438C48.783,-48.449 53.335,-43.91 53.341,-36.208C53.351,-24.271 53.345,-12.333 53.351,-0.396C53.351,0.56 53.18,1.544 53.72,2.431C53.262,4.06 53.352,5.728 53.353,7.391C53.356,13.889 53.374,20.388 53.349,26.886C53.322,33.572 48.64,38.36 41.935,38.405C31.753,38.473 21.57,38.412 11.388,38.428C7.916,38.434 5.156,36.903 2.731,34.584C0.702,31.884 0.037,28.847 0.055,25.484C0.117,13.664 0.03,1.843 0,-9.976" style="fill:rgb(244,130,82);fill-rule:nonzero;"/>
            </g>
        </g>
        <g transform="matrix(4.16667,0,0,4.16667,2343.75,4687.5)">
            <g transform="matrix(1,0,0,1,368.802,178.01)">
                <path d="M0,46.447C2.908,49.231 5.599,51.806 7.952,54.059C10.461,51.7 13.182,49.141 15.924,46.563C15.196,45.839 14.715,44.968 13.213,44.459C11.649,46.281 9.948,48.263 7.983,50.554C5.863,48.245 4.104,46.329 2.257,44.314C1.376,45.147 0.688,45.796 0,46.447M13.922,2.771C15.002,2.039 15.752,1.344 16.356,0.322C13.646,-2.282 10.946,-4.875 8.492,-7.233C5.861,-4.736 3.157,-2.167 0.439,0.413C1.099,1.241 1.642,2.022 2.695,2.452C4.555,0.673 6.429,-1.119 8.517,-3.116C10.393,-1.074 12.162,0.855 13.922,2.771M21.254,4.249C18.528,5.888 16.098,7.349 13.605,8.848C13.378,8.401 13.171,7.993 12.936,7.531C10.604,8.946 8.372,10.301 6.348,11.531C5.521,11.465 5.762,10.377 4.723,10.783C2.433,12.219 -0.064,13.787 -2.832,15.523C0.006,17.318 2.539,18.92 4.969,20.456C5.544,20.049 5.256,19.3 6.121,19.448C8.093,20.727 10.182,22.082 12.497,23.584C9.991,25.121 7.843,26.439 5.646,27.787C5.434,27.305 5.265,26.922 5.033,26.398C2.45,28.025 -0.093,29.628 -2.93,31.415C-0.034,33.267 2.503,34.89 4.928,36.441C5.57,36.125 5.058,35.136 5.953,35.321C8.122,36.708 10.261,38.076 12.313,39.388C13.245,39.475 12.617,38.387 13.404,38.332C15.79,39.818 18.263,41.358 21.122,43.139L21.122,33.976C22.251,33.451 23.411,34.072 24.475,33.272C24.325,32.088 24.823,30.796 24.151,29.522C23.124,29.466 22.19,29.413 21.281,29.362L21.281,18.041C22.432,17.517 23.565,18.139 24.583,17.458C24.583,16.274 24.583,15.053 24.576,13.837C23.618,13.091 22.3,14.045 21.254,13.103L21.254,4.249ZM13.671,-15.567C16.661,-15.557 19.658,-15.413 22.641,-15.563C29.662,-15.914 33.205,-11.188 33.256,-5.482C33.427,13.697 33.403,32.88 33.275,52.059C33.23,58.77 28.352,62.465 22.721,62.221C14.732,61.878 6.718,62.138 -1.285,62.133C-7.652,62.128 -11.489,58.246 -11.499,51.718C-11.52,37.025 -11.502,22.332 -11.506,7.637C-11.506,6.935 -11.559,6.232 -11.587,5.529L-11.594,5.594C-11.114,5.436 -11.257,5.225 -11.544,5.004C-9.538,-1.693 -7.531,-8.389 -5.525,-15.084C-1.187,-16.018 3.211,-15.294 7.571,-15.567L13.671,-15.567Z" style="fill:rgb(238,73,72);fill-rule:nonzero;"/>
            </g>
        </g>
        <g transform="matrix(4.16667,0,0,4.16667,2343.75,4687.5)">
            <g transform="matrix(1,0,0,1,353.124,159.052)">
                <path d="M0,21.573C-0.03,17.654 -0.223,13.729 -0.05,9.819C0.151,5.267 2.477,1.965 6.623,0C4.587,7.245 2.56,14.491 0,21.573" style="fill:rgb(244,130,82);fill-rule:nonzero;"/>
            </g>
        </g>
        <g transform="matrix(4.16667,0,0,4.16667,2343.75,4687.5)">
            <g transform="matrix(-0.349835,0.936811,0.936811,0.349835,373.867,156.589)">
                <path d="M4.608,-8.026C3.318,-4.437 2.027,-0.848 0.736,2.74C2.026,3.292 3.317,3.843 4.608,4.397C6.389,0.406 7.25,-3.967 9.642,-7.705C7.964,-7.812 6.286,-7.919 4.608,-8.026" style="fill:rgb(244,130,82);fill-rule:nonzero;"/>
            </g>
        </g>
        <g transform="matrix(4.16667,0,0,4.16667,2343.75,4687.5)">
            <g transform="matrix(1,0,0,1,383.29,155.074)">
                <path d="M0,-5.691C-0.058,-7.749 -1.688,-9.234 -3.791,-9.143C-5.923,-9.05 -7.314,-7.508 -7.171,-5.344C-7.023,-3.111 -5.619,-2.089 -3.563,-1.979C-1.594,-1.874 0.056,-3.695 0,-5.691M-5.591,-12.733C-4.159,-12.737 -2.636,-11.553 -1.319,-13.061C-1.234,-12.55 -1.136,-12.118 -0.641,-11.746C4.704,-7.726 4.686,-3.282 -0.671,0.885C-0.95,1.646 -0.858,2.411 -0.611,3.172C-0.68,4.572 -0.748,5.97 -0.816,7.37L-6.917,7.37L-7.113,3.163C-7.037,2.393 -6.962,1.622 -6.857,0.569C-7.335,0.187 -7.926,-0.197 -8.408,-0.685C-11.631,-3.947 -11.17,-8.657 -7.388,-11.289C-6.754,-11.729 -5.966,-11.972 -5.591,-12.733" style="fill:rgb(127,114,103);fill-rule:nonzero;"/>
            </g>
        </g>
        <g transform="matrix(4.16667,0,0,4.16667,2343.75,4687.5)">
            <g transform="matrix(1,0,0,1,390.056,221.15)">
                <path d="M0,-38.891L0,-30.037C1.046,-29.095 2.364,-30.049 3.325,-29.305C3.329,-28.086 3.329,-26.866 3.329,-25.682C2.312,-25 1.178,-25.622 0.027,-25.099L0.027,-13.778C0.937,-13.727 1.87,-13.674 2.897,-13.618C3.569,-12.344 3.071,-11.052 3.221,-9.868C2.157,-9.068 0.997,-9.689 -0.132,-9.163L-0.132,0C-2.991,-1.782 -5.464,-3.322 -7.85,-4.808C-8.637,-4.752 -8.009,-3.664 -8.941,-3.751C-10.993,-5.064 -13.132,-6.432 -15.301,-7.819C-16.196,-8.003 -15.684,-7.015 -16.326,-6.699C-18.751,-8.249 -21.288,-9.872 -24.184,-11.725C-21.347,-13.512 -18.804,-15.115 -16.221,-16.742C-15.989,-16.218 -15.82,-15.834 -15.608,-15.353C-13.411,-16.701 -11.263,-18.019 -8.757,-19.556C-11.072,-21.058 -13.161,-22.412 -15.133,-23.692C-15.998,-23.84 -15.71,-23.091 -16.285,-22.684C-18.715,-24.22 -21.248,-25.822 -24.086,-27.617C-21.318,-29.353 -18.821,-30.92 -16.531,-32.357C-15.492,-32.763 -15.733,-31.675 -14.906,-31.609C-12.882,-32.838 -10.649,-34.194 -8.318,-35.609C-8.083,-35.147 -7.876,-34.739 -7.648,-34.291C-5.156,-35.79 -2.726,-37.251 0,-38.891" style="fill:white;fill-rule:nonzero;"/>
            </g>
        </g>
        <g transform="matrix(4.16667,0,0,4.16667,2343.75,4687.5)">
            <g transform="matrix(1,0,0,1,382.724,170.777)">
                <path d="M0,10.004C-1.76,8.088 -3.529,6.159 -5.405,4.116C-7.493,6.113 -9.367,7.905 -11.227,9.685C-12.28,9.255 -12.823,8.474 -13.482,7.646C-10.765,5.066 -8.061,2.497 -5.43,0C-2.976,2.358 -0.276,4.95 2.435,7.555C1.83,8.577 1.08,9.272 0,10.004" style="fill:rgb(244,243,243);fill-rule:nonzero;"/>
            </g>
        </g>
        <g transform="matrix(4.16667,0,0,4.16667,2343.75,4687.5)">
            <g transform="matrix(1,0,0,1,368.802,229.936)">
                <path d="M0,-5.479C0.688,-6.13 1.376,-6.779 2.257,-7.612C4.104,-5.597 5.863,-3.681 7.983,-1.372C9.948,-3.663 11.649,-5.645 13.213,-7.467C14.715,-6.958 15.196,-6.087 15.924,-5.363C13.182,-2.785 10.461,-0.226 7.952,2.133C5.599,-0.12 2.908,-2.695 0,-5.479" style="fill:rgb(244,243,243);fill-rule:nonzero;"/>
            </g>
        </g>
        <g transform="matrix(4.16667,0,0,4.16667,2343.75,4687.5)">
            <g transform="matrix(0.73881,0.673914,0.673914,-0.73881,384.246,100.003)">
                <path d="M-2.642,-6.818C-2.642,-6.818 7.234,-1.276 17.59,-6.818" style="fill:none;fill-rule:nonzero;stroke:rgb(102,64,26);stroke-width:1px;stroke-linecap:butt;"/>
            </g>
        </g>
    </g>
    <defs>
        <linearGradient id="_Linear1" x1="0" y1="0" x2="1" y2="0" gradientUnits="userSpaceOnUse" gradientTransform="matrix(1,0,0,-1,0,-0.122107)"><stop offset="0" style="stop-color:rgb(167,125,83);stop-opacity:1"/><stop offset="0" style="stop-color:rgb(167,125,83);stop-opacity:1"/><stop offset="1" style="stop-color:rgb(198,156,110);stop-opacity:1"/></linearGradient>
        <linearGradient id="_Linear2" x1="0" y1="0" x2="1" y2="0" gradientUnits="userSpaceOnUse" gradientTransform="matrix(0.822809,-0.568318,-0.568318,-0.822809,0.0464664,0.149035)"><stop offset="0" style="stop-color:rgb(167,125,83);stop-opacity:1"/><stop offset="0" style="stop-color:rgb(167,125,83);stop-opacity:1"/><stop offset="1" style="stop-color:rgb(198,156,110);stop-opacity:1"/></linearGradient>
        <linearGradient id="_Linear3" x1="0" y1="0" x2="1" y2="0" gradientUnits="userSpaceOnUse" gradientTransform="matrix(1,0,0,-1,0,0.00482876)"><stop offset="0" style="stop-color:rgb(96,58,23);stop-opacity:1"/><stop offset="0.42" style="stop-color:rgb(96,58,23);stop-opacity:1"/><stop offset="1" style="stop-color:rgb(117,77,37);stop-opacity:1"/></linearGradient>
        <linearGradient id="_Linear4" x1="0" y1="0" x2="1" y2="0" gradientUnits="userSpaceOnUse" gradientTransform="matrix(1,0,0,-1,0,0.00672133)"><stop offset="0" style="stop-color:rgb(96,58,23);stop-opacity:1"/><stop offset="0.42" style="stop-color:rgb(96,58,23);stop-opacity:1"/><stop offset="1" style="stop-color:rgb(117,77,37);stop-opacity:1"/></linearGradient>
        <linearGradient id="_Linear5" x1="0" y1="0" x2="1" y2="0" gradientUnits="userSpaceOnUse" gradientTransform="matrix(1,0,0,-1,0,-0.00763039)"><stop offset="0" style="stop-color:rgb(117,77,37);stop-opacity:1"/><stop offset="0.13" style="stop-color:rgb(117,77,37);stop-opacity:1"/><stop offset="0.58" style="stop-color:rgb(96,58,23);stop-opacity:1"/><stop offset="1" style="stop-color:rgb(96,58,23);stop-opacity:1"/></linearGradient>
        <linearGradient id="_Linear6" x1="0" y1="0" x2="1" y2="0" gradientUnits="userSpaceOnUse" gradientTransform="matrix(1,0,0,-1,0,1.02427e-05)"><stop offset="0" style="stop-color:rgb(167,125,83);stop-opacity:1"/><stop offset="0" style="stop-color:rgb(167,125,83);stop-opacity:1"/><stop offset="1" style="stop-color:rgb(198,156,110);stop-opacity:1"/></linearGradient>
        <linearGradient id="_Linear7" x1="0" y1="0" x2="1" y2="0" gradientUnits="userSpaceOnUse" gradientTransform="matrix(1,0,0,-1,0,0.0273804)"><stop offset="0" style="stop-color:rgb(117,77,37);stop-opacity:1"/><stop offset="0.13" style="stop-color:rgb(117,77,37);stop-opacity:1"/><stop offset="0.58" style="stop-color:rgb(96,58,23);stop-opacity:1"/><stop offset="1" style="stop-color:rgb(96,58,23);stop-opacity:1"/></linearGradient>
    </defs>
</svg>
