<?xml version="1.0" encoding="UTF-8" standalone="no"?>
<!DOCTYPE svg PUBLIC "-//W3C//DTD SVG 1.1//EN" "http://www.w3.org/Graphics/SVG/1.1/DTD/svg11.dtd">
<svg width="100%" height="100%" viewBox="0 0 5936 4491" version="1.1" xmlns="http://www.w3.org/2000/svg" xmlns:xlink="http://www.w3.org/1999/xlink" xml:space="preserve" xmlns:serif="http://www.serif.com/" style="fill-rule:evenodd;clip-rule:evenodd;stroke-linejoin:round;stroke-miterlimit:2;">
    <path d="M3098.62,3385.64L3201.55,3163.07L3185.87,3106.59L3115.14,2868.68L3113.51,2857.41C3113.54,2832.37 3134.13,2811.78 3159.16,2811.76L3690.71,2811.76C3690.91,2788.46 3692.56,2765.2 3695.66,2742.12C3715.74,2593.39 3735.22,2561.44 3760.6,2532.5C3773.46,2517.67 3785.33,2504.01 3796.8,2400.84L3821.53,2192.22L3831.42,2184.75C3834.29,2182.38 3907.49,2121.05 3866.74,1974.74C3838.79,1874.49 3838.35,1839.47 3889.49,1815.48C3906.14,1808.83 3919.84,1796.39 3928.07,1780.46C4064.78,1545.33 4022.04,1388.49 3989.15,1321.33C3971.6,1357.36 3944.5,1387.9 3910.81,1409.61C3835.93,1457.69 3771.38,1469.56 3718.9,1445.03C3649.66,1412.43 3608.11,1322.22 3588.62,1161.17C3568.2,993.01 3335.64,824.549 3223.81,743.682C3207.19,731.663 3193.04,721.474 3182.51,713.313C3141.56,681.807 3032.2,669.244 2893.76,653.466C2780,640.458 2638.5,624.285 2477.95,592.136C2321.26,560.828 2214.53,503.701 2160.71,422.488C2138.77,390.327 2126.42,352.584 2125.1,313.676C2082.57,295.128 2073.37,252.345 2066.19,216.19C2061.6,192.598 2056.8,168.164 2044.78,143.533C2038.84,131.267 2033.4,130.921 2029.4,130.624C1999.08,128.596 1935.03,172.22 1873.05,214.409C1805.54,260.457 1728.93,312.588 1644.89,347.704C1612.4,361.058 1586.93,366.746 1565.51,366.4L1557.4,307.048L1553.05,275.591L1541.77,193.24L1543.15,222.57C1540.63,222.57 1288.38,237.408 1279.09,374.611C1276.32,415.662 1277.75,458.693 1279.09,504.048C1283.64,639.717 1288.29,779.936 1177.79,876.482C1130.81,917.534 1083.08,946.616 1040.99,972.286C955.816,1024.22 915.357,1051.97 925.497,1115.23C932.767,1160.48 949.04,1196.88 966.351,1235.32C996.027,1300.75 1029.07,1374.89 1026.39,1507.79C1022.19,1720.47 1059.04,1835.46 1145.99,1880.97C1245.7,1933.1 1589.89,2166.2 1625.16,2301.87C1653.99,2412.91 1777.79,2501.15 1834.57,2521.62C1891.35,2542.1 1906.74,2675.69 1907.67,2811.9L1935.08,2811.9C1960.11,2811.93 1980.7,2832.52 1980.73,2857.55L1980.73,3185.23L2295.99,3185.23L2295.99,2857.41C2296.01,2832.37 2316.6,2811.78 2341.64,2811.76L2774.71,2811.76C2799.74,2811.78 2820.33,2832.37 2820.36,2857.41L2820.36,3395.38L3098.62,3385.64Z" style="fill:rgb(247,70,70);fill-rule:nonzero;"/>
    <circle cx="2682.07" cy="2417.26" r="335.537" style="fill:rgb(38,82,154);"/>
    <path d="M2819.22,2435.86L2778.07,2370.32L2793.26,2370.32L2749.68,2301.08L2706.11,2370.32L2721.29,2370.32L2681.72,2432.94L2642.4,2370.32L2657.59,2370.32L2614.01,2301.08L2570.44,2370.32L2585.62,2370.32L2544.52,2435.86L2559.66,2435.86L2516.87,2504.41L2596.65,2504.41L2596.65,2533.39L2631.97,2533.39L2631.97,2504.41L2732.08,2504.41L2732.08,2533.39L2767.39,2533.39L2767.39,2504.41L2846.92,2504.41L2804.39,2435.86L2819.22,2435.86ZM2668.62,2435.86L2695.57,2435.86L2682.22,2457.23L2668.62,2435.86Z" style="fill:white;fill-rule:nonzero;"/>
    <path d="M2484.68,2325.71L2416.22,2394.16L2435.26,2413.16L2484.68,2462.57L2503.67,2443.58L2454.26,2394.16L2503.67,2344.7L2484.68,2325.71Z" style="fill:white;fill-rule:nonzero;"/>
    <path d="M2947.92,2394.16L2879.47,2325.71L2860.47,2344.7L2909.88,2394.16L2860.47,2443.58L2879.47,2462.57L2928.88,2413.16L2947.92,2394.16Z" style="fill:white;fill-rule:nonzero;"/>
    <path d="M919.463,3166.93L919.463,3840.08C919.463,3843.42 916.716,3846.16 913.379,3846.16L480.406,3846.16C477.068,3846.16 474.322,3843.42 474.322,3840.08L474.322,3166.93C474.322,3166.93 474.322,3166.93 474.322,3166.93C474.322,3166.71 474.143,3166.53 473.926,3166.53C473.91,3166.53 473.893,3166.53 473.877,3166.53L80.026,3166.53C76.812,3166.38 74.238,3163.72 74.19,3160.5L74.19,2857.41C74.19,2854.07 76.936,2851.32 80.274,2851.32L1312.23,2851.32C1315.56,2851.32 1318.31,2854.07 1318.31,2857.41L1318.31,3160.5C1318.28,3163.83 1315.55,3166.56 1312.23,3166.58L919.957,3166.58C919.924,3166.57 919.891,3166.57 919.857,3166.57C919.653,3166.57 919.481,3166.73 919.463,3166.93Z" style="fill:rgb(38,82,154);fill-rule:nonzero;"/>
    <path d="M2341.98,3846.16L2774.71,3846.16C2778.05,3846.16 2780.79,3843.42 2780.79,3840.08L2780.79,2857.41C2780.79,2854.07 2778.05,2851.32 2774.71,2851.32L2341.98,2851.32C2338.65,2851.32 2335.9,2854.07 2335.9,2857.41L2335.9,3224.35C2335.9,3224.57 2335.72,3224.75 2335.5,3224.75L1941.95,3224.75C1941.93,3224.75 1941.92,3224.75 1941.9,3224.75C1941.68,3224.75 1941.51,3224.57 1941.51,3224.35C1941.51,3224.35 1941.51,3224.35 1941.51,3224.35L1941.51,2857.41C1941.51,2854.07 1938.76,2851.32 1935.42,2851.32L1503.93,2851.32C1500.61,2851.35 1497.88,2854.08 1497.85,2857.41L1497.85,3840.08C1497.88,3843.41 1500.61,3846.14 1503.93,3846.16L1935.42,3846.16C1938.76,3846.16 1941.51,3843.42 1941.51,3840.08L1941.51,3501.77C1941.51,3501.77 1941.51,3501.77 1941.51,3501.77C1941.51,3501.55 1941.68,3501.37 1941.9,3501.37C1941.92,3501.37 1941.93,3501.38 1941.95,3501.38L2335.5,3501.38C2335.72,3501.38 2335.9,3501.56 2335.9,3501.77L2335.9,3840.08C2335.9,3843.42 2338.65,3846.16 2341.98,3846.16Z" style="fill:rgb(38,82,154);fill-rule:nonzero;"/>
    <path d="M5119.12,3166.93L5119.12,3840.08C5119.12,3843.4 5116.4,3846.14 5113.08,3846.16L4680.26,3846.16C4680.19,3846.16 4680.13,3846.17 4680.06,3846.17C4676.72,3846.17 4673.98,3843.42 4673.98,3840.08C4673.98,3840.08 4673.98,3840.08 4673.98,3840.08L4673.98,3166.93C4673.98,3166.93 4673.98,3166.93 4673.98,3166.93C4673.98,3166.71 4673.8,3166.53 4673.58,3166.53C4673.56,3166.53 4673.55,3166.53 4673.53,3166.53L4279.88,3166.53C4276.55,3166.51 4273.82,3163.78 4273.8,3160.45L4273.8,2857.41C4273.82,2854.08 4276.55,2851.35 4279.88,2851.32L5512.08,2851.32C5515.41,2851.32 5518.16,2854.07 5518.16,2857.41L5518.16,3160.5C5518.13,3163.83 5515.4,3166.56 5512.08,3166.58L5119.76,3166.58C5119.69,3166.53 5119.6,3166.49 5119.51,3166.49C5119.29,3166.49 5119.11,3166.67 5119.11,3166.89C5119.11,3166.9 5119.12,3166.91 5119.12,3166.93Z" style="fill:rgb(38,82,154);fill-rule:nonzero;"/>
    <path d="M2929.87,3846.16L3312.84,3846.16C3312.96,3846.23 3313.11,3846.23 3313.23,3846.16L3390.64,3674.88C3390.72,3674.74 3390.87,3674.65 3391.03,3674.64L3802.84,3674.64C3803.02,3674.65 3803.17,3674.76 3803.23,3674.93L3870.2,3842.6C3871.14,3844.89 3873.37,3846.4 3875.84,3846.41L4350.66,3846.41C4350.89,3846.4 4351.08,3846.2 4351.08,3845.97C4351.08,3845.91 4351.07,3845.87 4351.05,3845.82L3882.37,2851.67C3882.25,2851.6 3882.1,2851.6 3881.97,2851.67L3159.16,2851.67C3155.83,2851.67 3153.08,2854.42 3153.08,2857.75L3223.91,3096L3243.69,3166.83L2929.62,3845.92C2929.66,3846.03 2929.75,3846.12 2929.87,3846.16ZM3608.41,3173.51C3608.53,3173.44 3608.68,3173.44 3608.8,3173.51C3608.93,3173.58 3609.15,3173.51 3609.2,3173.51L3714.7,3445.54C3714.72,3445.59 3714.72,3445.64 3714.72,3445.69C3714.72,3445.92 3714.54,3446.12 3714.3,3446.13L3490,3446.13C3489.77,3446.12 3489.58,3445.92 3489.58,3445.69C3489.58,3445.64 3489.59,3445.59 3489.61,3445.54L3608.41,3173.51Z" style="fill:rgb(38,82,154);fill-rule:nonzero;"/>
    <path d="M5861.27,2945.25C5861.27,2945.53 5861.27,2945.82 5861.27,2946.11C5861.27,3000.38 5816.61,3045.03 5762.35,3045.03C5761.67,3045.03 5760.99,3045.02 5760.32,3045.01C5759.74,3045.02 5759.16,3045.02 5758.59,3045.02C5703.8,3045.02 5658.68,3000.03 5658.53,2945.25C5658.53,2890.5 5703.73,2846.33 5760.32,2846.33C5760.99,2846.31 5761.67,2846.31 5762.35,2846.31C5816.61,2846.31 5861.27,2890.96 5861.27,2945.23C5861.27,2945.23 5861.27,2945.24 5861.27,2945.25ZM5683.8,2945.25C5683.8,2982.84 5707.69,3013.8 5742.61,3021.86C5792.42,3033.39 5838.41,2992.73 5836.04,2941.64C5834.11,2899.7 5802.8,2866.41 5760.32,2866.41C5716.3,2866.41 5683.8,2901.87 5683.8,2945.25ZM5743.75,2996.98L5722.53,2996.98C5722.07,2996.98 5721.69,2996.6 5721.69,2996.14L5721.69,2898.9C5721.68,2898.51 5721.95,2898.16 5722.33,2898.06C5734.61,2896.04 5747.04,2895.08 5759.48,2895.2C5778.02,2895.2 5786.58,2898.21 5793.75,2902.51C5800.02,2907.87 5803.51,2915.79 5803.25,2924.03C5803.25,2934.91 5794.89,2943.32 5782.82,2946.83L5782.82,2948.17C5792.71,2951.68 5797.66,2958.85 5800.92,2972.11C5802.05,2980.2 5804.22,2988.12 5807.4,2995.65C5807.47,2995.77 5807.5,2995.91 5807.5,2996.04C5807.5,2996.51 5807.12,2996.88 5806.66,2996.88L5783.91,2996.88C5783.65,2996.87 5783.42,2996.74 5783.27,2996.54C5780.4,2992.68 5778.57,2983.83 5775.65,2972.75C5773.77,2961.87 5767.79,2957.22 5755.22,2957.22L5745.33,2957.22C5745.31,2957.22 5745.3,2957.22 5745.28,2957.22C5744.85,2957.22 5744.49,2957.57 5744.49,2958.01C5744.49,2958.02 5744.49,2958.04 5744.49,2958.06L5744.49,2996.04C5744.52,2996.5 5744.2,2996.91 5743.75,2996.98ZM5745.23,2940.2C5745.23,2940.66 5745.61,2941.04 5746.07,2941.04L5755.97,2941.04C5768.53,2941.04 5778.77,2936.69 5778.77,2926.5C5778.77,2917.45 5772.24,2911.42 5757.65,2911.42C5753.64,2911.35 5749.64,2911.75 5745.73,2912.6C5745.36,2912.69 5745.1,2913.02 5745.08,2913.4L5745.23,2940.2Z" style="fill:rgb(38,82,154);fill-rule:nonzero;"/>
    <path d="M693.796,4406.56L757.796,4406.56L788.196,4232.16C791.396,4212.43 795.129,4180.43 797.796,4152.16C798.329,4176.7 800.462,4196.96 806.329,4232.16L836.729,4406.56L900.729,4406.56L965.262,4050.83L902.329,4050.83L880.996,4209.23C877.796,4232.16 875.662,4260.96 872.996,4311.63C868.196,4247.63 867.129,4236.96 863.929,4217.23L835.662,4050.83L770.062,4050.83L744.462,4209.23C738.596,4246.56 734.862,4279.63 732.729,4311.63C731.129,4271.1 728.996,4248.16 725.796,4219.36L706.062,4050.83L628.729,4050.83L693.796,4406.56Z" style="fill:rgb(38,82,154);fill-rule:nonzero;"/>
    <path d="M988.196,4406.56L1056.46,4406.56L1056.46,4143.63L988.196,4143.63L988.196,4406.56ZM988.196,4048.16L988.196,4120.7L1056.46,4120.7L1056.46,4048.16L988.196,4048.16Z" style="fill:rgb(38,82,154);fill-rule:nonzero;"/>
    <path d="M1251.66,4206.56C1239.93,4159.1 1216.46,4138.3 1174.86,4138.3C1125.26,4138.3 1090.06,4172.43 1090.06,4220.96C1090.06,4257.23 1106.06,4277.5 1153.53,4300.43C1179.13,4312.7 1179.13,4312.7 1185.53,4316.96C1193.53,4322.3 1197.8,4329.76 1197.8,4339.36C1197.8,4351.63 1188.2,4359.63 1171.66,4359.63C1151.4,4359.63 1140.73,4349.5 1137,4325.5L1084.2,4334.03C1091.66,4385.76 1121.53,4411.9 1172.73,4411.9C1227.13,4411.9 1261.8,4378.83 1261.8,4326.56C1261.8,4291.9 1243.66,4265.76 1208.46,4249.76C1174.33,4234.3 1174.33,4234.3 1165.26,4228.43C1155.66,4222.03 1151.4,4215.63 1151.4,4207.1C1151.4,4195.9 1159.93,4188.96 1173.26,4188.96C1190.33,4188.96 1199.4,4198.56 1202.6,4218.83L1251.66,4206.56Z" style="fill:rgb(38,82,154);fill-rule:nonzero;"/>
    <path d="M1461.8,4238.56C1459.66,4174.03 1428.73,4138.3 1374.33,4138.3C1312.46,4138.3 1278.33,4187.36 1278.33,4276.43C1278.33,4327.63 1290.06,4367.1 1310.86,4388.96C1324.73,4403.36 1348.2,4411.9 1373.8,4411.9C1404.73,4411.9 1428.73,4399.63 1444.2,4376.16C1454.33,4360.16 1458.6,4343.1 1460.73,4308.43L1403.66,4304.16C1399.93,4345.23 1393,4359.1 1374.86,4359.1C1354.6,4359.1 1349.26,4340.96 1349.26,4274.3C1349.26,4207.63 1355.13,4187.9 1374.86,4187.9C1383.93,4187.9 1390.33,4192.7 1394.6,4203.9C1397.8,4210.83 1398.86,4217.76 1400.46,4242.3L1461.8,4238.56Z" style="fill:rgb(38,82,154);fill-rule:nonzero;"/>
    <path d="M1574.86,4138.3C1513,4138.3 1479.4,4185.76 1479.4,4274.3C1479.4,4323.36 1490.6,4363.36 1510.86,4387.36C1524.2,4403.36 1546.06,4411.9 1572.2,4411.9C1634.6,4411.9 1666.6,4365.5 1666.6,4274.83C1666.6,4187.36 1634.06,4138.3 1574.86,4138.3ZM1573.8,4186.3C1591.93,4186.3 1595.66,4201.23 1595.66,4272.7C1595.66,4350.03 1592.46,4363.9 1573.26,4363.9C1553.53,4363.9 1550.33,4351.1 1550.33,4267.36C1550.33,4198.56 1554.06,4186.3 1573.8,4186.3Z" style="fill:rgb(38,82,154);fill-rule:nonzero;"/>
    <path d="M1698.06,4406.56L1766.33,4406.56L1766.33,4227.9C1766.33,4203.9 1772.2,4194.83 1788.2,4194.83C1795.66,4194.83 1802.06,4197.5 1805.26,4202.3C1807.93,4206.03 1809,4211.9 1809,4227.9L1809,4406.56L1877.26,4406.56L1877.26,4222.56C1877.26,4185.76 1874.6,4170.83 1865.53,4158.56C1856.46,4145.23 1839.4,4138.3 1818.06,4138.3C1788.73,4138.3 1772.73,4150.03 1759.4,4182.03L1759.4,4143.63L1698.06,4143.63L1698.06,4406.56Z" style="fill:rgb(38,82,154);fill-rule:nonzero;"/>
    <path d="M2070.86,4206.56C2059.13,4159.1 2035.66,4138.3 1994.06,4138.3C1944.46,4138.3 1909.26,4172.43 1909.26,4220.96C1909.26,4257.23 1925.26,4277.5 1972.73,4300.43C1998.33,4312.7 1998.33,4312.7 2004.73,4316.96C2012.73,4322.3 2017,4329.76 2017,4339.36C2017,4351.63 2007.4,4359.63 1990.86,4359.63C1970.6,4359.63 1959.93,4349.5 1956.2,4325.5L1903.4,4334.03C1910.86,4385.76 1940.73,4411.9 1991.93,4411.9C2046.33,4411.9 2081,4378.83 2081,4326.56C2081,4291.9 2062.86,4265.76 2027.66,4249.76C1993.53,4234.3 1993.53,4234.3 1984.46,4228.43C1974.86,4222.03 1970.6,4215.63 1970.6,4207.1C1970.6,4195.9 1979.13,4188.96 1992.46,4188.96C2009.53,4188.96 2018.6,4198.56 2021.8,4218.83L2070.86,4206.56Z" style="fill:rgb(38,82,154);fill-rule:nonzero;"/>
    <path d="M2107.13,4406.56L2175.4,4406.56L2175.4,4143.63L2107.13,4143.63L2107.13,4406.56ZM2107.13,4048.16L2107.13,4120.7L2175.4,4120.7L2175.4,4048.16L2107.13,4048.16Z" style="fill:rgb(38,82,154);fill-rule:nonzero;"/>
    <path d="M2215.93,4406.56L2284.2,4406.56L2284.2,4227.9C2284.2,4203.9 2290.06,4194.83 2306.06,4194.83C2313.53,4194.83 2319.93,4197.5 2323.13,4202.3C2325.8,4206.03 2326.86,4211.9 2326.86,4227.9L2326.86,4406.56L2395.13,4406.56L2395.13,4222.56C2395.13,4185.76 2392.46,4170.83 2383.4,4158.56C2374.33,4145.23 2357.26,4138.3 2335.93,4138.3C2306.6,4138.3 2290.6,4150.03 2277.26,4182.03L2277.26,4143.63L2215.93,4143.63L2215.93,4406.56Z" style="fill:rgb(38,82,154);fill-rule:nonzero;"/>
    <path d="M2568.46,4406.56L2663.93,4406.56C2694.33,4406.56 2715.66,4399.63 2734.86,4384.16C2770.6,4354.83 2788.73,4300.96 2788.73,4224.16C2788.73,4153.76 2771.66,4102.56 2738.6,4075.36C2715.13,4056.7 2691.13,4050.83 2636.73,4050.83L2568.46,4050.83L2568.46,4406.56ZM2639.93,4344.16L2639.93,4112.7L2661.26,4112.7C2679.93,4112.7 2691.66,4118.56 2698.6,4130.83C2706.6,4146.83 2711.4,4182.03 2711.4,4229.5C2711.4,4281.76 2707.13,4314.3 2697.53,4329.76C2691.13,4339.36 2679.4,4344.16 2661.26,4344.16L2639.93,4344.16Z" style="fill:rgb(38,82,154);fill-rule:nonzero;"/>
    <path d="M2998.86,4287.1C2998.86,4242.3 2996.2,4215.63 2988.73,4195.9C2974.33,4158.03 2947.66,4138.3 2909.26,4138.3C2848.46,4138.3 2815.4,4187.36 2815.4,4277.5C2815.4,4367.1 2846.86,4411.9 2909.8,4411.9C2936.46,4411.9 2956.73,4403.9 2971.66,4386.83C2987.13,4369.23 2995.13,4348.96 2996.73,4321.23L2940.2,4316.43C2935.93,4348.96 2929,4359.63 2912.46,4359.63C2891.66,4359.63 2883.66,4342.56 2883.66,4296.7L2883.66,4287.1L2998.86,4287.1ZM2883.13,4243.9C2885.26,4201.76 2893.26,4186.3 2910.86,4186.3C2927.93,4186.3 2934.86,4203.36 2935.4,4243.9L2883.13,4243.9Z" style="fill:rgb(38,82,154);fill-rule:nonzero;"/>
    <rect x="3027.13" y="4050.83" width="68.267" height="355.733" style="fill:rgb(38,82,154);fill-rule:nonzero;"/>
    <rect x="3135.93" y="4050.83" width="68.267" height="355.733" style="fill:rgb(38,82,154);fill-rule:nonzero;"/>
    <path d="M3399.4,4206.56C3387.66,4159.1 3364.2,4138.3 3322.6,4138.3C3273,4138.3 3237.8,4172.43 3237.8,4220.96C3237.8,4257.23 3253.8,4277.5 3301.26,4300.43C3326.86,4312.7 3326.86,4312.7 3333.26,4316.96C3341.26,4322.3 3345.53,4329.76 3345.53,4339.36C3345.53,4351.63 3335.93,4359.63 3319.4,4359.63C3299.13,4359.63 3288.46,4349.5 3284.73,4325.5L3231.93,4334.03C3239.4,4385.76 3269.26,4411.9 3320.46,4411.9C3374.86,4411.9 3409.53,4378.83 3409.53,4326.56C3409.53,4291.9 3391.4,4265.76 3356.2,4249.76C3322.06,4234.3 3322.06,4234.3 3313,4228.43C3303.4,4222.03 3299.13,4215.63 3299.13,4207.1C3299.13,4195.9 3307.66,4188.96 3321,4188.96C3338.06,4188.96 3347.13,4198.56 3350.33,4218.83L3399.4,4206.56Z" style="fill:rgb(38,82,154);fill-rule:nonzero;"/>
    <path d="M3444.2,4327.63L3444.2,4406.56L3472.46,4406.56L3444.2,4490.3L3471.4,4490.3L3511.93,4398.56L3511.93,4327.63L3444.2,4327.63Z" style="fill:rgb(38,82,154);fill-rule:nonzero;"/>
    <path d="M3730.06,4406.56L3794.06,4406.56L3824.46,4232.16C3827.66,4212.43 3831.4,4180.43 3834.06,4152.16C3834.6,4176.7 3836.73,4196.96 3842.6,4232.16L3873,4406.56L3937,4406.56L4001.53,4050.83L3938.6,4050.83L3917.26,4209.23C3914.06,4232.16 3911.93,4260.96 3909.26,4311.63C3904.46,4247.63 3903.4,4236.96 3900.2,4217.23L3871.93,4050.83L3806.33,4050.83L3780.73,4209.23C3774.86,4246.56 3771.13,4279.63 3769,4311.63C3767.4,4271.1 3765.26,4248.16 3762.06,4219.36L3742.33,4050.83L3665,4050.83L3730.06,4406.56Z" style="fill:rgb(38,82,154);fill-rule:nonzero;"/>
    <rect x="4030.33" y="4050.83" width="73.067" height="355.733" style="fill:rgb(38,82,154);fill-rule:nonzero;"/>
    <path d="M4155.66,4327.63L4155.66,4406.56L4183.93,4406.56L4155.66,4490.3L4182.86,4490.3L4223.4,4398.56L4223.4,4327.63L4155.66,4327.63Z" style="fill:rgb(38,82,154);fill-rule:nonzero;"/>
    <path d="M4465.53,4339.36C4516.2,4291.36 4532.73,4273.76 4550.33,4249.23C4575.93,4213.5 4587.66,4180.96 4587.66,4145.23C4587.66,4084.43 4550.33,4045.5 4491.66,4045.5C4431.4,4045.5 4398.33,4083.36 4390.33,4160.7L4453.8,4175.63C4455.4,4128.7 4466.06,4107.36 4487.4,4107.36C4503.4,4107.36 4512.46,4119.63 4512.46,4141.5C4512.46,4171.36 4501.8,4203.9 4483.13,4231.1C4463.93,4259.36 4444.2,4281.76 4390.33,4337.23L4390.33,4406.56L4585.53,4406.56L4590.33,4339.36L4465.53,4339.36Z" style="fill:rgb(38,82,154);fill-rule:nonzero;"/>
    <path d="M4718.33,4045.5C4646.86,4045.5 4615.4,4102.03 4615.4,4230.56C4615.4,4354.3 4646.86,4411.9 4714.6,4411.9C4742.86,4411.9 4770.06,4400.7 4783.93,4383.1C4807.4,4353.76 4819.66,4297.76 4819.66,4222.03C4819.66,4159.1 4811.66,4116.43 4793.53,4086.56C4778.06,4060.96 4749.8,4045.5 4718.33,4045.5ZM4717.8,4101.5C4738.06,4101.5 4742.86,4122.83 4742.86,4215.63C4742.86,4340.43 4740.2,4355.9 4716.73,4355.9C4694.86,4355.9 4692.2,4342.56 4692.2,4230.56C4692.2,4115.9 4694.86,4101.5 4717.8,4101.5Z" style="fill:rgb(38,82,154);fill-rule:nonzero;"/>
    <path d="M4919.93,4339.36C4970.6,4291.36 4987.13,4273.76 5004.73,4249.23C5030.33,4213.5 5042.06,4180.96 5042.06,4145.23C5042.06,4084.43 5004.73,4045.5 4946.06,4045.5C4885.8,4045.5 4852.73,4083.36 4844.73,4160.7L4908.2,4175.63C4909.8,4128.7 4920.46,4107.36 4941.8,4107.36C4957.8,4107.36 4966.86,4119.63 4966.86,4141.5C4966.86,4171.36 4956.2,4203.9 4937.53,4231.1C4918.33,4259.36 4898.6,4281.76 4844.73,4337.23L4844.73,4406.56L5039.93,4406.56L5044.73,4339.36L4919.93,4339.36Z" style="fill:rgb(38,82,154);fill-rule:nonzero;"/>
    <path d="M5216.46,4047.63L5159.4,4047.63C5133.26,4080.16 5113.53,4098.83 5086.33,4115.9L5086.33,4185.23C5112.46,4170.3 5120.46,4163.36 5141.8,4138.3L5141.8,4343.63L5085.8,4343.63L5085.8,4406.56L5267.13,4406.56L5267.13,4343.63L5216.46,4343.63L5216.46,4047.63Z" style="fill:rgb(38,82,154);fill-rule:nonzero;"/>
</svg>
