<?xml version="1.0" encoding="utf-8"?>
<!-- Generator: Adobe Illustrator 24.0.3, SVG Export Plug-In . SVG Version: 6.00 Build 0)  -->
<svg version="1.1" id="Layer_1" xmlns="http://www.w3.org/2000/svg" xmlns:xlink="http://www.w3.org/1999/xlink" x="0px" y="0px"
	 viewBox="0 0 500 445" style="enable-background:new 0 0 500 445;" xml:space="preserve">
<style type="text/css">
	.st0{fill:#37B34A;}
	.st1{fill:#009345;}
	.st2{fill:#989898;}
	.st3{fill:#944949;}
	.st4{fill:#F26F5A;}
	.st5{fill:#260F26;}
	.st6{fill:#F0AF85;}
	.st7{fill:#FFF0D8;}
	.st8{opacity:0.5;fill:#F26F5A;enable-background:new    ;}
	.st9{fill:#00ADEE;}
	.st10{opacity:0.3;fill:#FFFFFF;enable-background:new    ;}
	.st11{fill:#603813;}
	.st12{fill:#3B2314;}
	.st13{fill:#8BC53F;}
</style>
<title>Hotel Accomodations</title>
<g>
	<path class="st0" d="M24.6,424.8c0,0,15.4-20,27.2-20.6s10.6,10.4,18.1,10.3S99,388,111.9,390.3s5,16.8,15.8,20.6s44.3,7.5,65,3.1
		s22.9-11.8,48.3-13.9s42.7,1.9,48.5,3.8c69,21.6,95.7,12.1,95.7,12.1c3.1-0.7,5.9-2.3,8.2-4.5c3.6-3.6,12.9-12,24.5-5.7
		s11,10.6,22.6,12.6s13.3-4.6,21.5-4.1s13,4,14.9,7s1,4.3,1,4.3L24.6,424.8z"/>
	<path class="st1" d="M24.6,432.8c0,0,15.4-20,27.2-20.6s10.6,10.4,18.1,10.3S99,396,111.9,398.3s5,16.8,15.8,20.6s44.3,7.5,65,3.1
		s22.9-11.8,48.3-13.9s42.7,1.9,48.5,3.8c52.7,17,95.7,12.1,95.7,12.1c3.1-0.7,5.9-2.3,8.2-4.5c3.6-3.6,12.9-12,24.5-5.7
		s11,10.6,22.6,12.6s13.3-4.6,21.5-4.2s13,4,14.9,7s1,4.3,1,4.3L24.6,432.8z"/>
	<rect x="6" y="424.2" class="st2" width="494" height="16.4"/>
	<rect x="103.6" y="5.4" class="st3" width="268.1" height="418.8"/>
	<rect x="287.3" y="5.4" class="st4" width="115.1" height="418.8"/>
	<rect x="115.4" y="68.1" class="st3" width="22.3" height="51.4"/>
	<rect x="119.2" y="68.1" class="st5" width="22.3" height="51.4"/>
	<rect x="111.3" y="119.5" class="st6" width="37.4" height="5.1"/>
	<rect x="139.4" y="119.5" class="st7" width="9.3" height="5.1"/>
	<rect x="157.7" y="68.1" class="st3" width="22.3" height="51.4"/>
	<rect x="161.5" y="68.1" class="st5" width="22.3" height="51.4"/>
	<rect x="153.6" y="119.5" class="st6" width="37.4" height="5.1"/>
	<rect x="181.7" y="119.5" class="st7" width="9.3" height="5.1"/>
	<rect x="200" y="68.1" class="st3" width="22.3" height="51.4"/>
	<rect x="203.8" y="68.1" class="st5" width="22.3" height="51.4"/>
	<rect x="195.9" y="119.5" class="st6" width="37.4" height="5.1"/>
	<rect x="224" y="119.5" class="st7" width="9.3" height="5.1"/>
	<rect x="242.3" y="68.1" class="st3" width="22.3" height="51.4"/>
	<rect x="246.1" y="68.1" class="st5" width="22.3" height="51.4"/>
	<rect x="238.2" y="119.5" class="st6" width="37.4" height="5.1"/>
	<rect x="266.3" y="119.5" class="st7" width="9.3" height="5.1"/>
	<rect x="115.4" y="135.1" class="st3" width="22.3" height="51.4"/>
	<rect x="119.2" y="135.1" class="st5" width="22.3" height="51.4"/>
	<rect x="111.3" y="186.5" class="st6" width="37.4" height="5.1"/>
	<rect x="139.4" y="186.5" class="st7" width="9.3" height="5.1"/>
	<rect x="157.7" y="135.1" class="st3" width="22.3" height="51.4"/>
	<rect x="161.5" y="135.1" class="st5" width="22.3" height="51.4"/>
	<rect x="153.6" y="186.5" class="st6" width="37.4" height="5.1"/>
	<rect x="181.7" y="186.5" class="st7" width="9.3" height="5.1"/>
	<rect x="200" y="135.1" class="st3" width="22.3" height="51.4"/>
	<rect x="203.8" y="135.1" class="st5" width="22.3" height="51.4"/>
	<rect x="195.9" y="186.5" class="st6" width="37.4" height="5.1"/>
	<rect x="224" y="186.5" class="st7" width="9.3" height="5.1"/>
	<rect x="242.3" y="135.1" class="st3" width="22.3" height="51.4"/>
	<rect x="246.1" y="135.1" class="st5" width="22.3" height="51.4"/>
	<rect x="238.2" y="186.5" class="st6" width="37.4" height="5.1"/>
	<rect x="266.3" y="186.5" class="st7" width="9.3" height="5.1"/>
	<rect x="115.4" y="202" class="st3" width="22.3" height="51.4"/>
	<rect x="119.2" y="202" class="st5" width="22.3" height="51.4"/>
	<rect x="111.3" y="253.4" class="st6" width="37.4" height="5.1"/>
	<rect x="139.4" y="253.4" class="st7" width="9.3" height="5.1"/>
	<rect x="157.7" y="202" class="st3" width="22.3" height="51.4"/>
	<rect x="161.5" y="202" class="st5" width="22.3" height="51.4"/>
	<rect x="153.6" y="253.4" class="st6" width="37.4" height="5.1"/>
	<rect x="181.7" y="253.4" class="st7" width="9.3" height="5.1"/>
	<rect x="200" y="202" class="st3" width="22.3" height="51.4"/>
	<rect x="203.8" y="202" class="st5" width="22.3" height="51.4"/>
	<rect x="195.9" y="253.4" class="st6" width="37.4" height="5.1"/>
	<rect x="224" y="253.4" class="st7" width="9.3" height="5.1"/>
	<rect x="242.3" y="202" class="st3" width="22.3" height="51.4"/>
	<rect x="246.1" y="202" class="st5" width="22.3" height="51.4"/>
	<rect x="238.2" y="253.4" class="st6" width="37.4" height="5.1"/>
	<rect x="266.3" y="253.4" class="st7" width="9.3" height="5.1"/>
	<rect x="115.4" y="269" class="st3" width="22.3" height="51.4"/>
	<rect x="119.2" y="269" class="st5" width="22.3" height="51.4"/>
	<rect x="111.3" y="320.4" class="st6" width="37.4" height="5.1"/>
	<rect x="139.4" y="320.4" class="st7" width="9.3" height="5.1"/>
	<rect x="157.7" y="269" class="st3" width="22.3" height="51.4"/>
	<rect x="161.5" y="269" class="st5" width="22.3" height="51.4"/>
	<rect x="153.6" y="320.4" class="st6" width="37.4" height="5.1"/>
	<rect x="181.7" y="320.4" class="st7" width="9.3" height="5.1"/>
	<rect x="200" y="269" class="st3" width="22.3" height="51.4"/>
	<rect x="203.8" y="269" class="st5" width="22.3" height="51.4"/>
	<rect x="195.9" y="320.4" class="st6" width="37.4" height="5.1"/>
	<rect x="224" y="320.4" class="st7" width="9.3" height="5.1"/>
	<rect x="242.3" y="269" class="st3" width="22.3" height="51.4"/>
	<rect x="246.1" y="269" class="st5" width="22.3" height="51.4"/>
	<rect x="238.2" y="320.4" class="st6" width="37.4" height="5.1"/>
	<rect x="266.3" y="320.4" class="st7" width="9.3" height="5.1"/>
	<rect x="115.4" y="336" class="st3" width="22.3" height="51.4"/>
	<rect x="119.2" y="336" class="st5" width="22.3" height="51.4"/>
	<rect x="111.3" y="387.4" class="st6" width="37.4" height="5.1"/>
	<rect x="139.4" y="387.4" class="st7" width="9.3" height="5.1"/>
	<rect x="157.7" y="336" class="st3" width="22.3" height="51.4"/>
	<rect x="161.5" y="336" class="st5" width="22.3" height="51.4"/>
	<rect x="153.6" y="387.4" class="st6" width="37.4" height="5.1"/>
	<rect x="181.7" y="387.4" class="st7" width="9.3" height="5.1"/>
	<rect x="200" y="336" class="st3" width="22.3" height="51.4"/>
	<rect x="203.8" y="336" class="st5" width="22.3" height="51.4"/>
	<rect x="195.9" y="387.4" class="st6" width="37.4" height="5.1"/>
	<rect x="224" y="387.4" class="st7" width="9.3" height="5.1"/>
	<rect x="242.3" y="336" class="st3" width="22.3" height="51.4"/>
	<rect x="246.1" y="336" class="st5" width="22.3" height="51.4"/>
	<rect x="238.2" y="387.4" class="st6" width="37.4" height="5.1"/>
	<rect x="266.3" y="387.4" class="st7" width="9.3" height="5.1"/>
	<rect x="298.6" y="68.1" class="st5" width="42.1" height="51.4"/>
	<rect x="303.5" y="68.1" class="st8" width="42.1" height="51.4"/>
	<rect x="298.6" y="68.1" class="st9" width="32.5" height="51.4"/>
	<path class="st10" d="M318.5,68.1h-19.9V88L318.5,68.1z"/>
	<polygon class="st10" points="331.1,92.9 331.1,74.2 298.6,106.6 298.6,119.5 304.5,119.5 	"/>
	<polygon class="st10" points="317.4,119.5 331.1,119.5 331.1,105.8 	"/>
	<rect x="293.8" y="119.5" class="st7" width="57.9" height="5.1"/>
	<rect x="298.6" y="135.1" class="st5" width="42.1" height="51.4"/>
	<rect x="303.5" y="135.1" class="st8" width="42.1" height="51.4"/>
	<rect x="298.6" y="135.1" class="st9" width="32.5" height="51.4"/>
	<path class="st10" d="M318.5,135.1h-19.9V155L318.5,135.1z"/>
	<polygon class="st10" points="331.1,159.9 331.1,141.1 298.6,173.6 298.6,186.5 304.5,186.5 	"/>
	<polygon class="st10" points="317.4,186.5 331.1,186.5 331.1,172.8 	"/>
	<rect x="293.8" y="186.5" class="st7" width="57.9" height="5.1"/>
	<rect x="298.6" y="202" class="st5" width="42.1" height="51.4"/>
	<rect x="303.5" y="202" class="st8" width="42.1" height="51.4"/>
	<rect x="298.6" y="202" class="st9" width="32.5" height="51.4"/>
	<path class="st10" d="M318.5,202h-19.9v20L318.5,202z"/>
	<polygon class="st10" points="331.1,226.8 331.1,208.1 298.6,240.6 298.6,253.4 304.5,253.4 	"/>
	<polygon class="st10" points="317.4,253.4 331.1,253.4 331.1,239.8 	"/>
	<rect x="293.8" y="253.4" class="st7" width="57.9" height="5.1"/>
	<rect x="298.6" y="269" class="st5" width="42.1" height="51.4"/>
	<rect x="303.5" y="269" class="st8" width="42.1" height="51.4"/>
	<rect x="298.6" y="269" class="st9" width="32.5" height="51.4"/>
	<path class="st10" d="M318.5,269h-19.9v19.9L318.5,269z"/>
	<polygon class="st10" points="331.1,293.8 331.1,275.1 298.6,307.5 298.6,320.4 304.5,320.4 	"/>
	<polygon class="st10" points="317.4,320.4 331.1,320.4 331.1,306.7 	"/>
	<rect x="293.8" y="320.4" class="st7" width="57.9" height="5.1"/>
	<rect x="298.6" y="336" class="st5" width="42.1" height="51.4"/>
	<rect x="303.5" y="336" class="st8" width="42.1" height="51.4"/>
	<rect x="298.6" y="336" class="st9" width="32.5" height="51.4"/>
	<path class="st10" d="M318.5,336h-19.9v19.9L318.5,336z"/>
	<polygon class="st10" points="331.1,360.8 331.1,342 298.6,374.5 298.6,387.4 304.5,387.4 	"/>
	<polygon class="st10" points="317.4,387.4 331.1,387.4 331.1,373.7 	"/>
	<rect x="293.8" y="387.4" class="st7" width="57.9" height="5.1"/>
	<rect x="74.6" y="354.8" class="st11" width="6.1" height="69.3"/>
	<path class="st12" d="M75,390.8c1.5,3.4,3.4,6.6,5.7,9.5v-45.4h-6.1v35L75,390.8z"/>
	<path class="st13" d="M118.5,341.5c0,22.6-18.3,40.9-40.9,40.9s-40.9-18.3-40.9-40.9s18.3-40.9,40.9-40.9c0,0,0,0,0,0
		C100.2,300.7,118.5,319,118.5,341.5C118.5,341.5,118.5,341.5,118.5,341.5z"/>
	<path class="st0" d="M108.2,361.3c-14.9,5.5-32.6,3.5-46.5-4.4c-10.1-5.8-16.5-15-17.8-26.6c-0.5-4.1-0.3-8.3,0.7-12.3v-0.7
		c-13.3,18.2-9.4,43.8,8.8,57.1c18.2,13.3,43.8,9.4,57.1-8.8c1.5-2,2.8-4.2,3.9-6.4c-1.8,0.7-3.7,1.3-5.6,1.8
		C108.7,361.2,108.4,361.2,108.2,361.3z"/>
	<path class="st12" d="M80.7,399.2c0,0,30.3-7.2,40.7-32.4h0.7c0,0-7.8,29.1-41.5,37.5V399.2z"/>
	<path class="st13" d="M135.1,363.7c-0.9,7.5-7.8,12.8-15.3,11.9c-7.5-0.9-12.8-7.8-11.9-15.3c0.9-7.5,7.8-12.8,15.3-11.9
		c0,0,0,0,0,0C130.7,349.4,136,356.2,135.1,363.7C135.1,363.7,135.1,363.7,135.1,363.7z"/>
	<path class="st0" d="M116.7,359.5c-1.7-2.8-2.3-6.8-0.8-9.9c-6.9,3.1-10,11.2-6.9,18.1c3.1,6.9,11.2,10,18.1,6.9
		c3.8-1.7,6.6-5,7.6-9C128.4,367.9,120.1,365.2,116.7,359.5z"/>
	<path class="st11" d="M75.6,392.5c0,0-65.1-10.8-59.1-80.5c0,0-15.2,60.9,57.9,85.6L75.6,392.5z"/>
	<path class="st13" d="M34.6,320.7c3.2,9.3-1.8,19.4-11.1,22.5c-9.3,3.2-19.4-1.8-22.5-11.1c-3.2-9.3,1.8-19.4,11.1-22.5
		C21.3,306.5,31.4,311.4,34.6,320.7z"/>
	<path class="st0" d="M23.4,331.5c-1.2-0.2-2.4-0.6-3.6-1.2c-2.1-0.5-4-1.6-5.7-3c-3.9-2.9-6.3-7.4-6.4-12.3c-0.1-1.1,0-2.3,0.2-3.4
		C-0.2,317-2.5,328,2.9,336.2c5.4,8.2,16.4,10.5,24.6,5.1c4-2.6,6.8-6.7,7.7-11.4C31.5,331.7,27.4,332.3,23.4,331.5z"/>
	<rect x="443.8" y="367.6" class="st11" width="5" height="56.6"/>
	<path class="st12" d="M444.1,396.9c1.2,2.8,2.8,5.4,4.6,7.8v-37.1h-5v28.5C443.9,396.4,444,396.6,444.1,396.9z"/>
	<path class="st13" d="M483.7,356.7c0,18.4-16.8,33.4-37.4,33.4s-37.4-14.9-37.4-33.4s16.8-33.4,37.4-33.4S483.7,338.3,483.7,356.7z
		"/>
	<path class="st0" d="M474.2,372.9c-13.6,4.5-29.9,2.9-42.5-3.5c-9.3-4.7-15.1-12.2-16.3-21.7c-0.4-3.3-0.2-6.7,0.7-10v-0.5
		c-4.6,5.5-7.2,12.5-7.2,19.7c0,18.4,16.8,33.4,37.4,33.4c14.8,0,27.7-7.7,33.7-18.9c-1.7,0.6-3.4,1.1-5.1,1.5L474.2,372.9z"/>
	<path class="st13" d="M473.6,331.1c0-18.3-12.3-33.1-27.4-33.1s-27.4,14.8-27.4,33.1s12.2,33.1,27.4,33.1S473.6,349.4,473.6,331.1z
		"/>
</g>
</svg>
