<?xml version="1.0" encoding="utf-8"?>
<!-- Generator: Adobe Illustrator 24.0.3, SVG Export Plug-In . SVG Version: 6.00 Build 0)  -->
<svg version="1.1" id="Layer_1" xmlns="http://www.w3.org/2000/svg" xmlns:xlink="http://www.w3.org/1999/xlink" x="0px" y="0px"
	 viewBox="0 0 500 429" style="enable-background:new 0 0 500 429;" xml:space="preserve">
<style type="text/css">
	.st0{fill:#768D94;}
	.st1{fill:#FFFFFF;}
	.st2{fill:#1D1D1B;}
	.st3{fill:#607782;}
	.st4{fill:#E04342;}
	.st5{fill:#C8D5DB;}
	.st6{fill:#4B646B;}
	.st7{fill:#4B586B;}
	.st8{fill:#485961;}
	.st9{fill:#AEBBC2;}
	.st10{fill:#3D4757;}
	.st11{fill:#5E6C82;}
	.st12{fill:#343E4D;}
	.st13{fill:#1F2938;}
	.st14{clip-path:url(#SVGID_2_);}
	.st15{fill:#10343C;}
	.st16{fill:#357387;}
	.st17{fill:#08232D;}
	.st18{fill:#174756;}
	.st19{fill:#7889A6;}
	.st20{fill:#A2B5BA;}
	.st21{fill:#B53231;}
</style>
<title>Professionally Recorded</title>
<g>
	<polygon class="st0" points="144.9,76.6 42.4,136 56.1,143.9 158.6,84.5 	"/>
	<polygon class="st1" points="313.5,295.4 158.6,205.9 158.6,66.9 385.7,198 385.7,306.5 	"/>
	<path class="st2" d="M385.8,306.7h-0.1l-72.3-11.2l-155-89.5V66.6l0.2,0.1l227.2,131.2V306.7z M313.5,295.2l72.1,11.1V198.1
		l-226.9-131v138.8L313.5,295.2z"/>
	<polygon class="st1" points="337.2,281.7 207.1,206.6 207.1,104.1 337.2,179.3 	"/>
	<path class="st2" d="M337.3,282l-0.2-0.1l-130.2-75.2V103.9l0.2,0.1l130.2,75.2V282z M207.2,206.5l129.9,75V179.4l-129.9-75
		L207.2,206.5z"/>
	<polygon class="st1" points="209.9,109 209.9,205 334.4,276.9 334.4,180.9 	"/>
	<path class="st2" d="M334.5,277.1l-0.2-0.1l-124.6-71.9v-96.3l0.2,0.1l124.6,71.9V277.1z M210,204.9l124.3,71.8V181L210,109.2
		V204.9z"/>
	<polygon class="st1" points="158.6,205.9 144.9,182.2 144.9,76.6 158.6,84.5 	"/>
	<path class="st2" d="M158.7,206.4l-0.2-0.4l-13.7-23.8V76.4l0.2,0.1l13.8,8V206.4z M145,182.2l13.4,23.3V84.6L145,76.9V182.2z"/>
	<polygon class="st1" points="197.1,140.5 130.9,102.3 130.9,72.5 197.1,110.7 	"/>
	<path class="st2" d="M197.2,140.7l-0.2-0.1l-66.3-38.2V72.3l0.2,0.1l66.3,38.3V140.7z M131.1,102.2l65.9,38.1v-29.4l-65.9-38.1
		L131.1,102.2z"/>
	<polygon class="st1" points="197.1,140.5 171.3,125.6 171.3,95.9 197.1,110.7 	"/>
	<path class="st2" d="M197.2,140.7l-0.2-0.1l-25.9-14.9V95.6l0.2,0.1l25.9,14.9V140.7z M171.5,125.5l25.5,14.7v-29.4l-25.5-14.7
		L171.5,125.5z"/>
	<path class="st1" d="M252.2,157.7c0,8.4-5.9,11.8-13.1,7.6s-13.1-14.4-13.1-22.7s5.9-11.8,13.1-7.6S252.2,149.3,252.2,157.7z"/>
	<path class="st2" d="M244.9,167.2c-2.1-0.1-4.1-0.7-5.9-1.8c-7.3-4.2-13.2-14.4-13.2-22.8c0-4.1,1.4-7.2,3.9-8.6s5.9-1.1,9.4,0.9
		c7.3,4.2,13.2,14.4,13.2,22.8c0,4.1-1.4,7.2-3.9,8.6C247.3,166.9,246.1,167.2,244.9,167.2z M233.2,133.3c-1.2,0-2.3,0.3-3.4,0.9
		c-2.4,1.4-3.8,4.4-3.8,8.4c0,8.3,5.9,18.4,13,22.6c3.5,2,6.7,2.3,9.1,0.9s3.8-4.4,3.8-8.4c0-8.3-5.9-18.5-13.1-22.6
		C237.2,134,235.2,133.4,233.2,133.3z"/>
	<path class="st1" d="M285.3,176.8c0,8.4-5.9,11.8-13.1,7.6S259,170,259,161.6s5.9-11.8,13.1-7.6S285.3,168.4,285.3,176.8z"/>
	<path class="st2" d="M278,186.3c-2.1-0.1-4.1-0.7-5.9-1.8c-7.3-4.2-13.2-14.4-13.2-22.9c0-4.1,1.4-7.1,3.9-8.6s5.9-1.1,9.4,0.9
		c7.3,4.2,13.2,14.4,13.2,22.9c0,4.1-1.4,7.1-3.9,8.6C280.4,186,279.2,186.3,278,186.3z M266.3,152.4c-1.2,0-2.3,0.3-3.4,0.9
		c-2.4,1.4-3.8,4.4-3.8,8.4c0,8.3,5.9,18.5,13,22.6c3.5,2,6.7,2.3,9.1,0.9s3.8-4.4,3.8-8.4c0-8.3-5.9-18.5-13-22.6
		C270.3,153.1,268.3,152.5,266.3,152.4L266.3,152.4z"/>
	<path class="st1" d="M318.4,195.9c0,8.4-5.9,11.8-13.1,7.6s-13.1-14.4-13.1-22.7s5.9-11.7,13.1-7.6S318.4,187.5,318.4,195.9z"/>
	<path class="st2" d="M311.1,205.4c-2.1-0.1-4.1-0.7-5.9-1.8c-7.3-4.2-13.2-14.4-13.2-22.9c0-4.1,1.4-7.1,3.9-8.6s5.9-1.1,9.4,0.9
		c7.3,4.2,13.2,14.4,13.2,22.8c0,4.1-1.4,7.2-3.9,8.6C313.5,205.1,312.3,205.4,311.1,205.4z M299.4,171.5c-1.2,0-2.3,0.3-3.4,0.9
		c-2.4,1.4-3.8,4.4-3.8,8.4c0,8.3,5.9,18.5,13.1,22.6c3.5,2,6.7,2.3,9.1,0.9s3.8-4.4,3.8-8.4c0-8.3-5.9-18.4-13-22.6
		C303.4,172.2,301.4,171.6,299.4,171.5z"/>
	<polygon class="st1" points="334.4,246.8 209.9,174.9 209.9,158.3 334.4,230.2 	"/>
	<path class="st2" d="M334.5,247l-0.2-0.1l-124.6-71.9v-16.9l0.2,0.1l124.6,71.9V247z M210,174.8l124.3,71.8v-16.2L210,158.6V174.8z
		"/>
	<polygon class="st1" points="302.9,237.9 300.4,239.3 300.4,247.4 302.9,251.8 321.1,262.3 323.6,260.8 323.6,252.7 321.1,248.3 	
		"/>
	<path class="st2" d="M321.1,262.4L321.1,262.4l-18.3-10.5l-2.6-4.4v-8.2h0.1l2.6-1.5h0.1l18.2,10.5l2.6,4.4v8.2h-0.1L321.1,262.4z
		 M303,251.7l18,10.4l2.4-1.4v-8l-2.5-4.3L303,238l-2.4,1.4v8L303,251.7z"/>
	<polygon class="st1" points="356.9,274.5 348.9,269.9 348.9,186 356.9,190.7 	"/>
	<path class="st2" d="M357,274.7l-0.2-0.1l-8.1-4.7v-84.2l0.2,0.1l8.1,4.7L357,274.7z M349,269.7l7.8,4.5v-83.5l-7.7-4.5L349,269.7z
		"/>
	<polygon class="st3" points="211,354.7 56.1,265.3 56.1,126.2 283.2,257.4 283.2,365.9 	"/>
	<polygon class="st4" points="234.7,341.1 104.6,266 104.6,163.5 234.7,238.6 	"/>
	<polygon class="st5" points="107.4,168.3 107.4,264.4 231.9,336.3 231.9,240.2 	"/>
	<polygon class="st6" points="56.1,265.3 42.4,241.6 42.4,136 56.1,143.9 	"/>
	<polygon class="st7" points="254.4,333.9 246.4,329.2 246.4,245.4 254.4,250 	"/>
	<polygon class="st8" points="283.2,257.4 385.7,198 385.7,306.5 283.2,365.9 	"/>
	<polygon class="st9" points="249.7,327.2 249.7,247.3 246.4,245.4 246.4,329.2 254.4,333.9 254.4,329.9 	"/>
	<polygon class="st1" points="84.3,205.9 18.1,167.7 18.1,138 84.3,176.2 	"/>
	<path class="st2" d="M84.4,206.2l-0.2-0.1L18,167.8v-30.1l0.2,0.1l66.2,38.3V206.2z M18.2,167.6l65.9,38.1v-29.5l-65.9-38.1V167.6z
		"/>
	<polygon class="st7" points="40.4,201.5 0,178.2 0,148.4 40.4,171.8 	"/>
	<polygon class="st10" points="84.3,205.9 40.4,201.5 40.4,171.8 84.3,176.2 	"/>
	<polygon class="st11" points="0,148.4 18.1,138 84.3,176.2 40.4,171.8 	"/>
	<polygon class="st11" points="68.8,155.2 58.5,161.3 84.3,176.2 94.6,170.1 	"/>
	<polygon class="st12" points="94.6,199.9 84.3,205.9 84.3,176.2 94.6,170.1 	"/>
	<polygon class="st5" points="158.6,66.9 56.1,126.2 283.2,257.4 385.7,198 	"/>
	<path class="st7" d="M261.3,95.9c-29.2-16.8-52.9-3.2-52.9,30.5c0-33.7-23.7-74.7-52.9-91.5s-52.9-3.2-52.9,30.5
		s23.7,74.7,52.9,91.5l105.7,61c29.2,16.9,52.9,3.2,52.9-30.5S290.5,112.7,261.3,95.9z"/>
	<ellipse transform="matrix(0.866 -0.5 0.5 0.866 -27.0981 90.6293)" class="st13" cx="155.6" cy="95.9" rx="37" ry="64"/>
	<ellipse transform="matrix(0.866 -0.5 0.5 0.866 -43.4532 151.6582)" class="st13" cx="261.3" cy="156.9" rx="37" ry="64"/>
	<path class="st11" d="M349.1,167.2c0-33.7-23.7-74.7-52.9-91.5c-14.5-8.4-27.7-9.2-37.3-3.8l0,0l0,0c-0.1,0-0.1,0.1-0.2,0.1
		l-18.7,10.9c-7.5-27.5-26.8-55.2-49.5-68.2c-15.9-9.2-30.2-9.3-39.9-2l-32,18.3c9.5-5.2,22.6-4.4,36.9,3.9
		c29.2,16.8,52.8,57.8,52.8,91.5c0-33.7,23.7-47.4,52.9-30.5s52.9,57.8,52.9,91.5c0,16.6-5.7,28.3-15,33.9l0,0l33.1-19.2
		c1-0.5,2-1.1,2.9-1.7l0.1-0.1l0,0C343.9,194.5,349.1,183,349.1,167.2z"/>
	<path class="st12" d="M167.4,139.9c-25-14.4-45.3-49.5-45.3-78.4c0-9.8,2.4-17.7,6.5-23.2c-11.1,3.1-18.3,14.2-18.3,31.4
		c0,28.9,20.3,64,45.3,78.4c16.5,9.5,30.9,7.7,38.8-2.9C186.8,147.3,177.5,145.8,167.4,139.9z"/>
	<path class="st12" d="M273.1,201c-25-14.4-45.3-49.5-45.3-78.4c0-9.9,2.4-17.7,6.5-23.2c-11.1,3.1-18.3,14.2-18.3,31.4
		c0,28.9,20.3,64,45.3,78.4c16.5,9.5,30.9,7.7,38.8-2.9C292.5,208.4,283.2,206.8,273.1,201z"/>
	<path class="st7" d="M143.4,85.4L143.4,85.4C128.8,77,117,83.8,117,100.7v48l52.9,30.5v-48C169.8,114.4,158,93.9,143.4,85.4z"/>
	<path class="st11" d="M155.6,78.3L155.6,78.3c-7.4-4.3-14.1-4.6-18.9-1.7l0,0l-12,6.9l0,0c4.8-2.8,11.4-2.3,18.7,1.9l0,0
		c14.6,8.4,26.4,28.9,26.4,45.8v48l12.2-7.1v-48C182,107.3,170.2,86.8,155.6,78.3z"/>
	<polygon class="st7" points="303.7,267.2 312.4,272.3 312.4,337.4 303.7,332.4 	"/>
	<polygon class="st1" points="312.4,272.3 374,236.6 374,301.8 312.4,337.4 	"/>
	<path class="st2" d="M312.3,337.7v-65.5h0.1l61.8-35.8v65.5h-0.1L312.3,337.7z M312.6,272.3v64.9l61.3-35.5v-64.9L312.6,272.3z"/>
	<polygon class="st11" points="374,236.6 365.2,231.5 303.7,267.2 312.4,272.3 	"/>
	<polygon class="st13" points="297.9,276.5 308.3,282.5 308.3,359.7 297.9,353.7 	"/>
	<polygon class="st1" points="308.3,282.5 403.2,227.6 403.2,304.8 308.3,359.7 	"/>
	<path class="st2" d="M308.1,359.9v-77.5h0.1l95.1-55v77.5h-0.1L308.1,359.9z M308.4,282.6v76.9l94.6-54.8v-76.9L308.4,282.6z"/>
	<polygon class="st12" points="403.2,227.6 392.8,221.5 297.9,276.5 308.3,282.5 	"/>
	<polygon class="st1" points="367.1,303.6 499.9,226.7 499.9,345.5 367.1,422.4 	"/>
	<path class="st2" d="M366.9,422.6V303.5h0.1l133-77v119.1h-0.1L366.9,422.6z M367.2,303.7v118.5l132.5-76.7V227L367.2,303.7z"/>
	<polygon class="st11" points="499.9,226.7 403.2,227.6 308.3,282.5 367.1,303.6 	"/>
	<polygon class="st7" points="308.3,359.7 367.1,422.4 367.1,303.6 308.3,282.5 	"/>
	<path class="st12" d="M493.4,237.9v103.9l-119.9,69.4V307.3L493.4,237.9z M499.9,226.7l-132.8,76.9v118.8l132.8-76.9L499.9,226.7
		L499.9,226.7z"/>
	<polygon class="st1" points="373.5,307.3 373.5,411.2 493.4,341.8 493.4,237.9 	"/>
	<path class="st2" d="M373.4,411.5V307.2h0.1l120.1-69.5v104.2h-0.1L373.4,411.5z M373.6,307.4V411l119.6-69.2V238.1L373.6,307.4z"
		/>
	<polygon class="st12" points="493.4,341.8 403.2,304.8 403.2,290.1 493.4,237.9 	"/>
	<polygon class="st7" points="403.2,304.8 373.5,321.9 373.5,411.2 493.4,341.8 	"/>
	<g>
		<defs>
			<polygon id="SVGID_1_" points="373.5,307.3 373.5,411.2 493.4,341.8 493.4,237.9 			"/>
		</defs>
		<clipPath id="SVGID_2_">
			<use xlink:href="#SVGID_1_"  style="overflow:visible;"/>
		</clipPath>
		<g class="st14">
			<ellipse transform="matrix(0.5 -0.866 0.866 0.5 -61.7816 511.4977)" class="st12" cx="412.1" cy="309.3" rx="68.8" ry="39.7"/>
			<ellipse transform="matrix(0.5 -0.866 0.866 0.5 -61.7816 511.4977)" class="st15" cx="412.1" cy="309.3" rx="63.7" ry="36.8"/>
			<path class="st16" d="M393.8,331.8c15.8-9.1,28.6-31.3,28.6-49.5c0-13.6-7.1-21.1-17.2-20.3c-19.4,14.7-34.6,41.1-37.5,65.2
				C372,336.2,382.1,338.5,393.8,331.8z"/>
			<path class="st16" d="M438.7,252c5.5,5.4,8.8,14.2,8.8,25.7c0,28.7-20.1,63.6-45,78c-10,5.8-19.1,7.3-26.6,5.2
				c8.2,8.1,21.4,8.9,36.2,0.3c24.9-14.4,45-49.3,45-78C457.1,266.1,449.8,255,438.7,252z"/>
			<path class="st17" d="M385.7,307.6c6.4-3.7,11.6-12.7,11.6-20.1c0-6.7-4.3-9.8-9.9-7.5c-5.3,7.1-9.7,14.8-13.1,22.9
				C375.2,308.8,379.9,311,385.7,307.6z"/>
			<path class="st18" d="M385.7,283.7c5-2.9,9.1-0.5,9.1,5.3s-4.1,12.9-9.1,15.8s-9.1,0.5-9.1-5.3c0-0.7,0.1-1.3,0.2-2
				c-1.6,3.2-3,6.4-4.2,9.8c2,5.1,7.1,6.7,13.2,3.2c7.8-4.5,14.1-15.4,14.1-24.4c0-7.1-4-10.8-9.4-9.8c-2.3,2.7-4.4,5.6-6.3,8.6
				C384.6,284.4,385.1,284,385.7,283.7z"/>
		</g>
	</g>
	<polygon class="st8" points="112.9,261.4 231.9,330.1 231.9,240.2 112.9,171.5 	"/>
	<path class="st12" d="M155.2,214.2c0-8.4-5.9-18.6-13.2-22.8c-3.6-2.1-6.8-2.3-9.2-1l0,0l0,0l-0.1,0.1l-9.9,5.6l2.8,4.8
		c0,8.4,5.9,18.6,13.2,22.8l0.3,0.1l2.6,4.5l9.4-5.4c0.2-0.1,0.4-0.2,0.6-0.3h0.1l0,0C153.8,221,155.2,218.2,155.2,214.2z"/>
	<ellipse transform="matrix(0.866 -0.5 0.5 0.866 -88.3635 94.5292)" class="st19" cx="132.2" cy="212.2" rx="10.8" ry="18.6"/>
	<path class="st12" d="M123.3,207c0,5.7,4,12.6,8.9,15.4c4.9,2.8,8.9,0.5,8.9-5.1s-4-12.6-8.9-15.4S123.3,201.4,123.3,207z"/>
	<path class="st20" d="M135.6,219.5c-4.9-2.8-8.9-9.7-8.9-15.4c0-1.2,0.2-2.3,0.6-3.4c-2.4,0.4-4,2.7-4,6.2c0,5.7,4,12.6,8.9,15.4
		c3.8,2.2,7,1.3,8.3-1.8C138.8,220.9,137,220.5,135.6,219.5z"/>
	<path class="st12" d="M188.3,233.3c0-8.4-5.9-18.6-13.2-22.8c-3.6-2.1-6.9-2.3-9.2-1l0,0l0,0h-0.1l-9.9,5.6l2.8,4.8
		c0,8.4,5.9,18.6,13.2,22.8c0.1,0.1,0.2,0.1,0.3,0.1l2.6,4.5l9.4-5.4c0.2-0.1,0.4-0.2,0.6-0.3h0.1l0,0
		C186.9,240.2,188.3,237.3,188.3,233.3z"/>
	<path class="st19" d="M152.1,223.6c0,8.4,5.9,18.6,13.2,22.8s13.2,0.8,13.2-7.6s-5.9-18.6-13.2-22.8S152.1,215.2,152.1,223.6z"/>
	<path class="st12" d="M156.4,226.1c0,5.7,4,12.5,8.9,15.4s8.9,0.5,8.9-5.1s-4-12.5-8.9-15.4S156.4,220.5,156.4,226.1z"/>
	<path class="st20" d="M168.7,238.6c-4.9-2.8-8.9-9.7-8.9-15.4c0-1.1,0.2-2.3,0.6-3.4c-2.4,0.4-4,2.7-4,6.3c0,5.7,4,12.5,8.9,15.4
		c3.8,2.2,7,1.3,8.3-1.8C171.9,240,170.1,239.6,168.7,238.6z"/>
	<path class="st12" d="M221.4,252.4c0-8.4-5.9-18.6-13.2-22.8c-3.6-2.1-6.9-2.3-9.2-1l0,0l0,0l-0.1,0l-9.9,5.6l2.8,4.7
		c0,8.4,5.9,18.6,13.2,22.8l0.3,0.1l2.6,4.5l9.4-5.4c0.2-0.1,0.4-0.2,0.6-0.3h0.1l0,0C220,259.3,221.4,256.4,221.4,252.4z"/>
	<ellipse transform="matrix(0.866 -0.5 0.5 0.866 -98.6003 132.7465)" class="st19" cx="198.4" cy="250.4" rx="10.8" ry="18.6"/>
	<path class="st12" d="M189.5,245.2c0,5.7,4,12.5,8.9,15.4s8.9,0.5,8.9-5.1s-4-12.5-8.9-15.4S189.5,239.6,189.5,245.2z"/>
	<path class="st20" d="M201.8,257.7c-4.9-2.8-8.9-9.7-8.9-15.4c0-1.2,0.2-2.3,0.6-3.4c-2.4,0.5-4,2.7-4,6.3c0,5.7,4,12.5,8.9,15.4
		c3.8,2.2,7,1.3,8.3-1.8C205,259.1,203.2,258.7,201.8,257.7z"/>
	<polygon class="st12" points="205.9,294.3 203.4,295.7 203.4,303.8 205.9,308.2 224.1,318.7 226.6,317.2 226.6,309.1 224.1,304.7 	
		"/>
	<polygon class="st19" points="208.5,306.8 205.9,302.4 205.9,294.3 206,294.3 205.9,294.3 203.4,295.7 203.4,303.8 205.9,308.2 
		224.1,318.7 226.6,317.2 	"/>
	<polygon class="st12" points="119.8,245.1 117.3,246.6 117.3,254.7 119.8,259.1 137.9,269.6 140.5,268.1 140.5,260 137.9,255.6 	
		"/>
	<polygon class="st19" points="122.3,257.7 119.8,253.3 119.8,245.2 119.9,245.2 119.8,245.1 117.3,246.6 117.3,254.7 119.8,259.1 
		137.9,269.6 140.4,268.1 	"/>
	<polygon class="st21" points="231.9,287.8 112.9,219 112.9,235.6 231.9,304.3 	"/>
	<ellipse class="st11" cx="91" cy="120.9" rx="17.6" ry="10.1"/>
	<path class="st7" d="M103.4,128.1c-6.9,4-18,4-24.9,0c-3.5-2-5.2-4.7-5.2-7.3l0,0v4.7l0,0c0,2.6,1.7,5.2,5.2,7.2c6.9,4,18,4,24.9,0
		c3.4-2,5.2-4.6,5.2-7.2v-4.6C108.6,123.5,106.9,126.1,103.4,128.1z"/>
	<path class="st9" d="M103.4,128.1c-5.2,3-12.7,3.7-19.1,2.2c2.7,1.5,6.3,0.8,9.1,2c0.9,0.4,1.8,1.3,1.5,2.2
		c-0.1,0.3-0.3,0.6-0.4,0.9c3.1-0.3,6.1-1.3,8.8-2.8c3.4-2,5.2-4.6,5.2-7.2v-4.6C108.6,123.5,106.9,126.1,103.4,128.1z"/>
	<path class="st19" d="M80.2,105.9c-6,3.5-6,9.1,0,12.5s15.7,3.5,21.7,0s6-9.1,0-12.5S86.2,102.4,80.2,105.9z"/>
	<path class="st13" d="M101.8,118.4c-6,3.5-15.7,3.5-21.7,0c-3-1.8-4.5-4.1-4.5-6.4l0,0v8.3l0,0c0,2.3,1.5,4.5,4.5,6.2
		c6,3.5,15.7,3.5,21.7,0c3-1.7,4.5-4,4.5-6.2v-8.2C106.3,114.4,104.8,116.7,101.8,118.4z"/>
	<path class="st9" d="M101.8,118.4c-3.9,2.1-8.4,2.9-12.8,2.5c1,0.4,2.1,0.6,3.1,0.7c8.7,1.4,4.9,5.1,5.1,6.1c0,0.2,0,0.5,0,0.7
		c1.6-0.4,3.2-1,4.6-1.8c3-1.7,4.5-4,4.5-6.2v-8.2C106.3,114.4,104.8,116.7,101.8,118.4z"/>
	<path class="st4" d="M13.5,148l6-3.5c1.3-0.7,2.9-0.7,4.2,0l15.2,8.8c1,0.4,1.4,1.5,1,2.5c-0.2,0.4-0.5,0.8-1,1l-6,3.5
		c-0.6,0.4-1.4,0.5-2.1,0.5c-0.7,0-1.5-0.2-2.1-0.5l-15.2-8.8c-1-0.4-1.4-1.6-1-2.5C12.7,148.5,13,148.2,13.5,148z"/>
	<path class="st13" d="M14,148.8l6-3.5c1-0.5,2.2-0.5,3.2,0l15.2,8.8c0.5,0.2,0.8,0.8,0.6,1.3c-0.1,0.3-0.3,0.5-0.6,0.6l-6,3.5
		c-1,0.5-2.2,0.5-3.2,0L14,150.7c-0.5-0.2-0.8-0.8-0.6-1.3C13.5,149.1,13.7,148.9,14,148.8z"/>
	<path class="st0" d="M38.4,156l-0.8,0.4l-14.4-8.4c-1-0.5-2.2-0.5-3.2,0l-5.3,3l-0.8-0.4c-0.5-0.2-0.8-0.8-0.6-1.3
		c0.1-0.3,0.3-0.5,0.6-0.6l6-3.5c1-0.5,2.2-0.5,3.2,0l15.2,8.8c0.5,0.1,0.9,0.7,0.8,1.2C39.1,155.6,38.8,155.9,38.4,156z"/>
	<polygon class="st6" points="13.3,147.5 13.3,147.5 13.3,147.5 	"/>
	<path class="st5" d="M23.1,151.9l6-3.5c1-0.5,2.2-0.5,3.2,0l4.6,2.7c0.5,0.2,0.8,0.8,0.6,1.3c-0.1,0.3-0.3,0.5-0.6,0.6l-6,3.5
		c-1,0.5-2.2,0.5-3.2,0l-4.6-2.7c-0.5-0.2-0.8-0.7-0.6-1.3C22.6,152.3,22.9,152,23.1,151.9z"/>
	<path class="st8" d="M32.4,159.4c-1,0.5-2.2,0.5-3.2,0l-6.1-3.5c-0.3-0.2-0.6-0.5-0.6-0.9v-2.2c0,0.4,0.3,0.8,0.7,0.9l4.6,2.7
		c1,0.5,2.2,0.5,3.2,0l6-3.5c0.3-0.2,0.6-0.5,0.7-0.8v4.2L32.4,159.4z"/>
	<path class="st3" d="M22.5,154.6L22.5,154.6v-1.8c0,0.4,0.3,0.8,0.7,0.9l4.6,2.7c0.4,0.2,0.8,0.3,1.3,0.4v2.5l-5.8-3.3l0,0
		l-0.7-0.4L22.5,154.6z"/>
	<path class="st9" d="M259,71.9L259,71.9L259,71.9c-0.1,0-0.1,0.1-0.2,0.1l-18.7,10.9c-2.3-8.4-5.6-16.5-9.6-24.1l-35,20.2
		c4.1,7.7,7.3,15.8,9.6,24.2L222.7,93c0.8-0.5,1.6-1,2.5-1.4l35-20.3C259.8,71.5,259.4,71.7,259,71.9z"/>
	<path class="st9" d="M332.2,202.1c1-0.5,2-1.1,2.9-1.7l0.1-0.1l0,0c8.6-5.9,13.8-17.3,13.9-33.1l-35,20.3c0,16.5-5.8,28.2-15,33.8
		l0,0L332.2,202.1z"/>
	<path class="st5" d="M166.7,87.7l-12.2,7c5.8,6.5,10.1,14.1,12.8,22.3l12.2-7C176.9,101.8,172.5,94.2,166.7,87.7z"/>
</g>
</svg>
